<?xml version="1.0" encoding="UTF-8"?>
<svg xmlns="http://www.w3.org/2000/svg" id="Capa_1" data-name="Capa 1" viewBox="0 0 117.97 111.14">
  <defs>
    <style>
      .cls-1 {
        fill: #5eba47;
      }
    </style>
  </defs>
  <path class="cls-1" d="M104.18,29.07c-6.9-.8-12.34-6.24-13.14-13.14l-.66-5.68c-.03-.22-.34-.22-.37,0l-.66,5.68c-.8,6.9-6.24,12.34-13.14,13.14l-5.68.66c-.22.03-.22.34,0,.37l5.68.66c6.9.8,12.34,6.24,13.14,13.14l.66,5.68c.03.22.34.22.37,0l.66-5.68c.8-6.9,6.24-12.34,13.14-13.14l5.68-.66c.22-.03.22-.34,0-.37l-5.68-.66Z"></path>
  <path class="cls-1" d="M114.81,11.76c-3.9-.45-6.98-3.53-7.43-7.43l-.35-3.05c-.02-.14-.22-.14-.24,0l-.35,3.05c-.45,3.9-3.53,6.98-7.43,7.43l-3.05.35c-.14.02-.14.22,0,.24l3.05.35c3.9.45,6.98,3.53,7.43,7.43l.35,3.05c.02.14.22.14.24,0l.35-3.05c.45-3.9,3.53-6.98,7.43-7.43l3.05-.35c.14-.02.14-.22,0-.24l-3.05-.35Z"></path>
  <path class="cls-1" d="M105.92,45.41c-1.97-.23-3.52-1.78-3.75-3.75l-.16-1.42c0-.09-.14-.09-.15,0l-.16,1.42c-.23,1.97-1.78,3.52-3.75,3.75l-1.42.16c-.09,0-.09.14,0,.15l1.42.16c1.97.23,3.52,1.78,3.75,3.75l.16,1.42c0,.09.14.09.15,0l.16-1.42c.23-1.97,1.78-3.52,3.75-3.75l1.42-.16c.09,0,.09-.14,0-.15l-1.42-.16Z"></path>
  <path d="M80.01,90.67c-.42-.42-1.11-.41-1.52.01l-18.29,18.63-38.32-37.28,28.89-28.33c.43-.42.43-1.1.02-1.52-.42-.43-1.1-.43-1.52-.02l-29.68,29.1s0,0,0,.01c0,0,0,0-.01,0-.05.05-.07.11-.11.17-.04.06-.09.11-.11.18-.04.09-.04.18-.06.27,0,.04-.03.09-.03.13v37.72H1.48c-.6,0-1.08.48-1.08,1.08s.48,1.08,1.08,1.08h58.73c.14,0,.28-.03.42-.08.13-.05.25-.14.35-.24h0s0,0,0,0h0s19.04-19.4,19.04-19.4c.42-.42.41-1.11-.01-1.52ZM30.67,109.76l-9.25-9.42v-25.75l36.14,35.17h-26.89ZM21.42,103.41l6.23,6.35h-6.23v-6.35Z"></path>
  <path d="M60.22,112.32H1.48c-.82,0-1.48-.67-1.48-1.48s.66-1.48,1.48-1.48h17.38v-37.32s.02-.15.03-.18c.02-.12.03-.24.08-.37.04-.09.09-.16.12-.21.08-.13.12-.2.18-.27,0,0,.01-.01.02-.02h0s29.68-29.11,29.68-29.11c.58-.57,1.52-.56,2.1.02.57.58.56,1.52-.02,2.1l-28.6,28.04,37.73,36.71,18.01-18.35c.57-.58,1.51-.59,2.1-.02h0c.28.28.44.65.44,1.04s-.15.77-.42,1.05l-19.04,19.4c-.14.15-.31.26-.49.33-.18.08-.37.11-.57.11ZM1.48,110.16c-.37,0-.67.3-.67.67s.3.67.67.67h58.73c.09,0,.18-.02.26-.05.08-.03.15-.08.22-.15l19.04-19.4c.13-.13.19-.3.19-.48,0-.18-.07-.35-.2-.47h0c-.27-.26-.69-.26-.95,0l-18.29,18.63c-.16.16-.41.16-.57,0l-38.32-37.28c-.08-.08-.12-.18-.12-.29s.04-.21.12-.29l28.89-28.33c.13-.13.2-.29.2-.47s-.07-.35-.19-.48c-.26-.27-.69-.27-.95,0l-29.66,29.07s-.02.02-.03.03c0,0-.01,0-.02.01-.01.03-.05.09-.06.1l-.08.11s-.02.08-.02.13c0,.02-.02.13-.03.15v37.68c0,.22-.18.4-.4.4H1.48ZM57.56,110.16h-26.89c-.11,0-.21-.04-.29-.12l-9.25-9.42c-.07-.08-.12-.18-.12-.28v-25.75c0-.16.1-.31.25-.37.15-.06.32-.03.44.08l36.15,35.17c.12.11.15.29.09.44-.06.15-.21.25-.37.25ZM30.84,109.35h25.73l-34.75-33.81v24.62l9.02,9.18ZM27.65,110.16h-6.23c-.22,0-.4-.18-.4-.4v-6.35c0-.16.1-.31.25-.37.15-.07.33-.03.44.09l6.23,6.35c.11.12.15.29.08.44-.06.15-.21.25-.37.25ZM21.82,109.35h4.87l-4.87-4.95v4.95Z"></path>
  <path d="M39.19,83.22c.21.21.49.31.76.31s.55-.11.76-.32l39.3-39.52c.42-.42.42-1.1,0-1.52-.42-.42-1.1-.42-1.52,0l-39.3,39.52c-.42.42-.42,1.1,0,1.52Z"></path>
  <path d="M39.95,83.94c-.39,0-.76-.15-1.04-.43h0c-.58-.58-.58-1.52,0-2.1l39.31-39.52c.28-.28.65-.44,1.05-.44h0c.4,0,.77.15,1.05.43.28.28.44.65.44,1.05,0,.4-.15.77-.43,1.05l-39.3,39.52c-.28.28-.65.44-1.05.44ZM39.48,82.93c.26.26.7.25.95,0l39.3-39.52c.13-.13.2-.3.2-.48s-.07-.35-.2-.48c-.13-.13-.3-.2-.47-.2h0c-.18,0-.35.07-.48.2l-39.3,39.52c-.26.26-.26.69,0,.95h0Z"></path>
  <path d="M78.49,61.94l-19.65,19.76c-.42.42-.42,1.1,0,1.52.21.21.49.31.76.31s.55-.11.76-.32l19.65-19.76c.42-.42.42-1.1,0-1.52-.42-.42-1.1-.42-1.52,0Z"></path>
  <path d="M59.6,83.94c-.39,0-.76-.15-1.04-.43-.28-.28-.44-.65-.44-1.05,0-.4.15-.77.43-1.05l19.65-19.76h0c.57-.58,1.51-.58,2.1,0,.28.28.44.65.44,1.05,0,.4-.15.77-.43,1.05l-19.65,19.76c-.28.28-.65.44-1.05.44ZM78.78,62.22l-19.65,19.76c-.13.13-.2.3-.2.48s.07.35.2.48c.26.25.7.25.95,0l19.65-19.76c.13-.13.2-.3.2-.48s-.07-.35-.2-.48c-.26-.26-.69-.26-.95,0h0Z"></path>
</svg>
