<?xml version="1.0" encoding="UTF-8"?>
<svg xmlns="http://www.w3.org/2000/svg" id="Capa_1" data-name="Capa 1" viewBox="0 0 151.52 168.34">
  <defs>
    <style>
      .cls-1 {
        fill: #272525;
      }

      .cls-2 {
        fill: #5eba47;
      }
    </style>
  </defs>
  <g>
    <g>
      <path class="cls-1" d="M41.56,105.27c-15.15,0-27.48-12.33-27.48-27.48s12.33-27.48,27.48-27.48,27.48,12.33,27.48,27.48-12.33,27.48-27.48,27.48ZM41.56,53.42c-13.44,0-24.37,10.93-24.37,24.37s10.93,24.37,24.37,24.37,24.37-10.93,24.37-24.37-10.93-24.37-24.37-24.37Z"></path>
      <path class="cls-1" d="M41.56,105.85c-15.47,0-28.06-12.59-28.06-28.06s12.59-28.06,28.06-28.06,28.06,12.59,28.06,28.06-12.59,28.06-28.06,28.06ZM41.56,50.9c-14.83,0-26.9,12.06-26.9,26.89s12.07,26.9,26.9,26.9,26.9-12.07,26.9-26.9-12.07-26.89-26.9-26.89ZM41.56,102.75c-13.76,0-24.96-11.2-24.96-24.96s11.2-24.95,24.96-24.95,24.96,11.19,24.96,24.95-11.2,24.96-24.96,24.96ZM41.56,54c-13.12,0-23.79,10.67-23.79,23.79s10.67,23.79,23.79,23.79,23.79-10.67,23.79-23.79-10.67-23.79-23.79-23.79Z"></path>
    </g>
    <g>
      <path class="cls-1" d="M75.94,162.3H8.49c-.86,0-1.55-.69-1.55-1.55v-23.3c0-19.45,15.83-35.28,35.28-35.28s35.28,15.83,35.28,35.28v23.3c0,.86-.69,1.55-1.55,1.55ZM10.04,159.2h64.35v-21.75c0-17.74-14.43-32.17-32.17-32.17s-32.17,14.43-32.17,32.17v21.75Z"></path>
      <path class="cls-1" d="M75.94,162.88H8.49c-1.18,0-2.13-.96-2.13-2.13v-23.3c0-19.77,16.09-35.86,35.86-35.86s35.86,16.09,35.86,35.86v23.3c0,1.18-.96,2.13-2.13,2.13ZM42.22,102.75c-19.13,0-34.7,15.57-34.7,34.7v23.3c0,.53.43.97.97.97h67.45c.54,0,.97-.44.97-.97v-23.3c0-19.13-15.57-34.7-34.7-34.7ZM74.39,159.78H10.04c-.32,0-.58-.26-.58-.58v-21.75c0-18.06,14.69-32.76,32.76-32.76s32.76,14.69,32.76,32.76v21.75c0,.32-.26.58-.58.58ZM10.63,158.61h63.18v-21.17c0-17.42-14.17-31.59-31.59-31.59s-31.59,14.17-31.59,31.59v21.17Z"></path>
    </g>
    <g>
      <path class="cls-1" d="M66.29,111.1c-6.63,0-12.87-2.58-17.55-7.27-.61-.61-.61-1.59,0-2.2s1.59-.61,2.2,0c4.1,4.1,9.56,6.36,15.36,6.36,11.98,0,21.72-9.74,21.72-21.72s-9.74-21.72-21.72-21.72c-1.07,0-2.14.08-3.18.23-.85.14-1.64-.46-1.76-1.31-.12-.85.46-1.64,1.31-1.76,1.19-.17,2.41-.26,3.64-.26,13.69,0,24.83,11.14,24.83,24.83s-11.14,24.83-24.83,24.83Z"></path>
      <path class="cls-1" d="M66.29,111.68c-6.79,0-13.17-2.64-17.97-7.44-.83-.83-.83-2.19,0-3.02.83-.83,2.19-.83,3.02,0,3.99,3.99,9.3,6.19,14.95,6.19,11.66,0,21.14-9.48,21.14-21.14s-9.48-21.14-21.14-21.14c-1.05,0-2.09.08-3.1.22-.55.09-1.11-.05-1.57-.38-.47-.34-.77-.84-.85-1.42-.08-.56.06-1.13.4-1.58.34-.46.84-.76,1.4-.84,1.22-.18,2.47-.27,3.72-.27,14.01,0,25.41,11.4,25.41,25.41s-11.4,25.41-25.41,25.41ZM49.83,101.76c-.25,0-.5.1-.69.28-.38.38-.38.99,0,1.37,4.58,4.58,10.67,7.1,17.14,7.1,13.37,0,24.24-10.87,24.24-24.24s-10.87-24.24-24.24-24.24c-1.19,0-2.39.09-3.55.26-.26.04-.48.17-.64.38-.15.21-.22.46-.18.72.04.26.18.49.39.65.2.15.45.21.7.17,1.07-.16,2.17-.24,3.28-.24,12.3,0,22.3,10.01,22.3,22.3s-10,22.3-22.3,22.3c-5.96,0-11.56-2.32-15.77-6.53-.19-.19-.44-.28-.69-.28Z"></path>
    </g>
    <g>
      <path class="cls-1" d="M97.16,162.3h-21.22c-.86,0-1.55-.69-1.55-1.55s.69-1.55,1.55-1.55h19.67v-19.37c0-15.84-12.64-28.73-28.18-28.73-1.59,0-3.19.14-4.74.4-.85.14-1.65-.42-1.79-1.27-.15-.84.42-1.65,1.27-1.79,1.73-.3,3.5-.45,5.27-.45,17.25,0,31.29,14.28,31.29,31.83v20.92c0,.86-.69,1.55-1.55,1.55Z"></path>
      <path class="cls-1" d="M97.16,162.88h-21.22c-1.18,0-2.13-.96-2.13-2.13s.96-2.13,2.13-2.13h19.08v-18.79c0-15.52-12.38-28.14-27.6-28.14-1.56,0-3.12.13-4.64.39-1.17.19-2.27-.59-2.46-1.74-.1-.56.03-1.13.36-1.59.33-.46.82-.78,1.38-.87,1.76-.31,3.57-.46,5.37-.46,17.57,0,31.87,14.54,31.87,32.41v20.92c0,1.18-.96,2.13-2.13,2.13ZM75.94,159.78c-.53,0-.97.43-.97.97s.43.97.97.97h21.22c.53,0,.97-.44.97-.97v-20.92c0-17.23-13.78-31.25-30.71-31.25-1.73,0-3.47.15-5.17.44-.25.04-.48.19-.63.4-.15.21-.21.47-.16.72.09.53.6.88,1.13.79,1.58-.27,3.21-.41,4.84-.41,15.86,0,28.77,13.15,28.77,29.31v19.37c0,.32-.26.58-.58.58h-19.67Z"></path>
    </g>
  </g>
  <g>
    <path class="cls-2" d="M128.99,46.72c-11.26-1.3-20.15-10.18-21.45-21.45l-1.07-9.28c-.04-.36-.56-.36-.6,0l-1.07,9.28c-1.3,11.26-10.18,20.15-21.45,21.45l-9.28,1.07c-.36.04-.36.56,0,.6l9.28,1.07c11.26,1.3,20.15,10.18,21.45,21.45l1.07,9.28c.04.36.56.36.6,0l1.07-9.28c1.3-11.26,10.18-20.15,21.45-21.45l9.28-1.07c.36-.04.36-.56,0-.6l-9.28-1.07Z"></path>
    <path class="cls-2" d="M146.36,18.46c-6.37-.73-11.4-5.76-12.13-12.13l-.57-4.98c-.03-.23-.36-.23-.39,0l-.57,4.98c-.73,6.37-5.76,11.4-12.13,12.13l-4.98.57c-.23.03-.23.36,0,.39l4.98.57c6.37.73,11.4,5.76,12.13,12.13l.57,4.98c.03.23.36.23.39,0l.57-4.98c.73-6.37,5.76-11.4,12.13-12.13l4.98-.57c.23-.03.23-.36,0-.39l-4.98-.57Z"></path>
    <path class="cls-2" d="M131.83,73.41c-3.22-.37-5.75-2.91-6.12-6.12l-.27-2.32c-.02-.14-.22-.14-.24,0l-.27,2.32c-.37,3.22-2.91,5.75-6.12,6.12l-2.32.27c-.14.02-.14.22,0,.24l2.32.27c3.22.37,5.75,2.91,6.12,6.12l.27,2.32c.02.14.22.14.24,0l.27-2.32c.37-3.22,2.91-5.75,6.12-6.12l2.32-.27c.14-.02.14-.22,0-.24l-2.32-.27Z"></path>
  </g>
</svg>
