<?xml version="1.0" encoding="UTF-8"?>
<svg xmlns="http://www.w3.org/2000/svg" id="Capa_1" data-name="Capa 1" viewBox="0 0 98.01 116.16">
  <defs>
    <style>
      .cls-1 {
        fill: #fff;
      }

      .cls-2 {
        fill: #5eba47;
      }
    </style>
  </defs>
  <g>
    <g>
      <path class="cls-1" d="M38.25,115.77C17.37,115.77.39,98.79.39,77.91s16.98-37.86,37.86-37.86,37.86,16.98,37.86,37.86-16.98,37.86-37.86,37.86ZM38.25,42.1c-19.74,0-35.81,16.06-35.81,35.81s16.06,35.81,35.81,35.81,35.81-16.06,35.81-35.81-16.06-35.81-35.81-35.81Z"></path>
      <path class="cls-1" d="M38.25,116.16C17.16,116.16,0,99,0,77.91s17.16-38.25,38.25-38.25,38.25,17.16,38.25,38.25-17.16,38.25-38.25,38.25ZM38.25,40.43C17.58,40.43.77,57.25.77,77.91s16.81,37.48,37.48,37.48,37.48-16.81,37.48-37.48-16.81-37.48-37.48-37.48ZM38.25,114.1c-19.96,0-36.19-16.23-36.19-36.19s16.24-36.19,36.19-36.19,36.19,16.23,36.19,36.19-16.23,36.19-36.19,36.19ZM38.25,42.49c-19.53,0-35.42,15.89-35.42,35.42s15.89,35.42,35.42,35.42,35.42-15.89,35.42-35.42-15.89-35.42-35.42-35.42Z"></path>
    </g>
    <g>
      <path class="cls-1" d="M38.12,115.4c-.49,0-.93-.35-1.01-.85-.1-.56.28-1.09.84-1.19,14.58-2.5,25.57-17.74,25.57-35.45s-10.36-32.27-24.64-35.27c-.56-.12-.91-.66-.79-1.22.12-.56.66-.91,1.22-.79,15.22,3.2,26.27,18.88,26.27,37.28s-11.73,34.81-27.28,37.47c-.06,0-.12.01-.17.01Z"></path>
      <path class="cls-1" d="M38.12,115.78c-.69,0-1.28-.49-1.39-1.18-.06-.37.02-.75.24-1.05.22-.31.54-.51.91-.58,14.39-2.47,25.25-17.54,25.25-35.06s-10.24-31.93-24.34-34.89c-.76-.16-1.25-.91-1.09-1.67.08-.37.3-.69.61-.89.32-.2.7-.28,1.06-.2,15.4,3.24,26.58,19.07,26.58,37.66s-11.86,35.16-27.6,37.85c-.08.01-.16.02-.24.02ZM39.08,40.99c-.12,0-.24.04-.35.1-.14.09-.24.24-.28.41-.07.35.15.69.5.76,14.46,3.04,24.95,18.03,24.95,35.65s-11.13,33.3-25.89,35.82c-.17.03-.32.12-.42.26-.1.14-.14.31-.11.48.06.35.39.59.74.53,15.37-2.63,26.96-18.58,26.96-37.09s-10.92-33.74-25.97-36.9c-.05,0-.09-.01-.13-.01Z"></path>
    </g>
    <g>
      <path class="cls-1" d="M38.25,115.4c-.06,0-.12,0-.18-.02-15.48-2.67-27.16-18.77-27.16-37.47s11-34.08,26.16-37.28c.56-.12,1.1.24,1.22.79.12.56-.24,1.1-.79,1.22-14.21,3-24.53,17.84-24.53,35.27s10.94,32.95,25.45,35.45c.56.1.93.63.84,1.19-.09.5-.52.85-1.01.85Z"></path>
      <path class="cls-1" d="M38.25,115.78c-.08,0-.16,0-.25-.02-15.66-2.7-27.47-18.97-27.47-37.85s11.13-34.42,26.46-37.66c.76-.15,1.51.33,1.68,1.09.16.76-.33,1.51-1.09,1.68-14.03,2.96-24.22,17.64-24.22,34.89s10.8,32.6,25.13,35.07c.77.13,1.28.86,1.15,1.63-.12.68-.7,1.17-1.39,1.17ZM37.29,40.99s-.09,0-.14.01c-14.98,3.17-25.85,18.68-25.85,36.9s11.54,34.46,26.84,37.09c.42.07.68-.18.74-.52.03-.17-.01-.34-.11-.48-.1-.14-.25-.23-.42-.26-14.69-2.53-25.77-17.93-25.77-35.82s10.44-32.61,24.83-35.65c.17-.04.31-.13.4-.28.09-.14.13-.32.09-.48-.06-.31-.33-.51-.62-.51Z"></path>
    </g>
    <g>
      <path class="cls-1" d="M38.25,64.19c-10.11,0-19.62-3.94-26.77-11.09l1.45-1.45c6.76,6.76,15.75,10.49,25.32,10.49s18.77-3.81,25.56-10.73l1.47,1.44c-7.18,7.32-16.78,11.35-27.03,11.35Z"></path>
      <path class="cls-1" d="M38.25,64.58c-10.22,0-19.82-3.98-27.04-11.2-.15-.15-.15-.4,0-.55l1.45-1.45c.15-.15.4-.15.55,0,6.69,6.69,15.58,10.37,25.05,10.37s18.57-3.77,25.29-10.62c.15-.15.39-.15.54,0l1.47,1.44c.07.07.11.17.12.27,0,.1-.04.2-.11.27-7.25,7.39-16.95,11.46-27.3,11.46ZM12.02,53.1c7.05,6.91,16.34,10.7,26.23,10.7s19.41-3.89,26.48-10.96l-.92-.9c-6.83,6.82-15.9,10.57-25.57,10.57s-18.51-3.66-25.32-10.33l-.91.91Z"></path>
    </g>
    <g>
      <path class="cls-1" d="M12.68,104.42l-1.47-1.44c7.18-7.32,16.78-11.36,27.04-11.36s19.62,3.94,26.77,11.09l-1.45,1.45c-6.76-6.76-15.75-10.49-25.32-10.49s-18.78,3.81-25.57,10.74Z"></path>
      <path class="cls-1" d="M12.68,104.81c-.1,0-.2-.04-.27-.11l-1.47-1.44c-.15-.15-.15-.39,0-.55,7.25-7.4,16.95-11.47,27.31-11.47s19.82,3.98,27.05,11.2c.15.15.15.4,0,.55l-1.45,1.45c-.15.15-.4.15-.55,0-6.69-6.69-15.58-10.37-25.05-10.37s-18.58,3.77-25.29,10.62c-.07.07-.17.11-.27.12h0ZM11.76,102.98l.92.9c6.83-6.83,15.9-10.58,25.57-10.58s18.51,3.66,25.32,10.33l.91-.91c-7.05-6.91-16.34-10.7-26.23-10.7s-19.41,3.89-26.49,10.97Z"></path>
    </g>
    <g>
      <rect class="cls-1" x="1.41" y="76.88" width="73.67" height="2.06"></rect>
      <path class="cls-1" d="M75.08,79.32H1.41c-.21,0-.39-.17-.39-.39v-2.06c0-.21.17-.39.39-.39h73.67c.21,0,.39.17.39.39v2.06c0,.21-.17.39-.39.39ZM1.8,78.55h72.9v-1.28H1.8v1.28Z"></path>
    </g>
    <g>
      <path class="cls-1" d="M38.25,115.77c-.57,0-1.03-.46-1.03-1.03V41.08c0-.57.46-1.03,1.03-1.03s1.03.46,1.03,1.03v73.67c0,.57-.46,1.03-1.03,1.03Z"></path>
      <path class="cls-1" d="M38.25,116.16c-.78,0-1.41-.63-1.41-1.41V41.08c0-.78.63-1.41,1.41-1.41s1.41.63,1.41,1.41v73.67c0,.78-.63,1.41-1.41,1.41ZM38.25,40.43c-.35,0-.64.29-.64.64v73.67c0,.35.29.64.64.64s.64-.29.64-.64V41.08c0-.35-.29-.64-.64-.64Z"></path>
    </g>
  </g>
  <g>
    <path class="cls-2" d="M85.39,25.52c-6.31-.73-11.29-5.71-12.02-12.02l-.6-5.2c-.02-.2-.31-.2-.33,0l-.6,5.2c-.73,6.31-5.71,11.29-12.02,12.02l-5.2.6c-.2.02-.2.31,0,.33l5.2.6c6.31.73,11.29,5.71,12.02,12.02l.6,5.2c.02.2.31.2.33,0l.6-5.2c.73-6.31,5.71-11.29,12.02-12.02l5.2-.6c.2-.02.2-.31,0-.33l-5.2-.6Z"></path>
    <path class="cls-2" d="M95.12,9.69c-3.57-.41-6.39-3.23-6.8-6.8l-.32-2.79c-.02-.13-.2-.13-.22,0l-.32,2.79c-.41,3.57-3.23,6.39-6.8,6.8l-2.79.32c-.13.02-.13.2,0,.22l2.79.32c3.57.41,6.39,3.23,6.8,6.8l.32,2.79c.02.13.2.13.22,0l.32-2.79c.41-3.57,3.23-6.39,6.8-6.8l2.79-.32c.13-.02.13-.2,0-.22l-2.79-.32Z"></path>
    <path class="cls-2" d="M86.98,40.48c-1.8-.21-3.22-1.63-3.43-3.43l-.15-1.3c0-.08-.12-.08-.13,0l-.15,1.3c-.21,1.8-1.63,3.22-3.43,3.43l-1.3.15c-.08,0-.08.12,0,.13l1.3.15c1.8.21,3.22,1.63,3.43,3.43l.15,1.3c0,.08.12.08.13,0l.15-1.3c.21-1.8,1.63-3.22,3.43-3.43l1.3-.15c.08,0,.08-.12,0-.13l-1.3-.15Z"></path>
  </g>
</svg>
