<?xml version="1.0" encoding="UTF-8"?>
<svg xmlns="http://www.w3.org/2000/svg" id="Capa_1" data-name="Capa 1" viewBox="0 0 119.64 145.81">
  <defs>
    <style>
      .cls-1 {
        fill: #5eba47;
      }
    </style>
  </defs>
  <path d="M119.3,68.93c.52-.38.74-1.05.54-1.66-.2-.61-.77-1.03-1.41-1.03h-28.38l-8.77-26.99c-.2-.61-.77-1.03-1.41-1.03s-1.21.41-1.41,1.03l-8.77,26.99h-28.38c-.65,0-1.21.41-1.41,1.03-.2.61.02,1.28.54,1.66l6.81,4.94H6.18c-.82,0-1.49.67-1.49,1.49v56.82c0,.82.67,1.49,1.49,1.49h26.99v10.35h-8.06c-.82,0-1.49.67-1.49,1.49s.67,1.48,1.49,1.48h38.71c.82,0,1.49-.67,1.49-1.48s-.67-1.49-1.49-1.49h-7.88v-10.35h26.94c.82,0,1.49-.67,1.49-1.49v-31.32l18.46,13.41c.52.38,1.22.38,1.75,0,.52-.38.74-1.05.54-1.66l-8.77-26.99,1.92-1.39,21.04-15.29ZM55.16,114.26c.26.19.56.28.87.28s.62-.1.87-.28l22.96-16.68,1.53,1.11v22.09H7.67v-43.94h43.66l12.06,8.76-8.77,26.99c-.2.62.02,1.28.54,1.66ZM52.97,144.01h-16.83v-10.35h16.83v10.35ZM7.67,130.69v-6.93h73.73v6.93H7.67ZM93.18,85.5l7.69,23.67-16.5-11.99-.41-.29-.4-.29-1.35-.98-.41-.29-.4-.29-.66-.48c-.52-.38-1.22-.38-1.75,0l-20.13,14.63,7.69-23.67c.2-.61-.02-1.28-.54-1.66l-9.63-7-.56-.41-.56-.4-1.86-1.35-.56-.41-.56-.4-6.42-4.66h24.88c.65,0,1.21-.41,1.41-1.03l7.69-23.67,7.69,23.67c.2.61.77,1.03,1.41,1.03h24.88l-20.13,14.63c-.13.09-.18.25-.27.37-.27.38-.42.83-.27,1.29Z"></path>
  <g>
    <path class="cls-1" d="M110.54,29.07c-6.9-.8-12.34-6.24-13.14-13.14l-.66-5.68c-.03-.22-.34-.22-.37,0l-.66,5.68c-.8,6.9-6.24,12.34-13.14,13.14l-5.68.66c-.22.03-.22.34,0,.37l5.68.66c6.9.8,12.34,6.24,13.14,13.14l.66,5.68c.03.22.34.22.37,0l.66-5.68c.8-6.9,6.24-12.34,13.14-13.14l5.68-.66c.22-.03.22-.34,0-.37l-5.68-.66Z"></path>
    <path class="cls-1" d="M121.18,11.76c-3.9-.45-6.98-3.53-7.43-7.43l-.35-3.05c-.02-.14-.22-.14-.24,0l-.35,3.05c-.45,3.9-3.53,6.98-7.43,7.43l-3.05.35c-.14.02-.14.22,0,.24l3.05.35c3.9.45,6.98,3.53,7.43,7.43l.35,3.05c.02.14.22.14.24,0l.35-3.05c.45-3.9,3.53-6.98,7.43-7.43l3.05-.35c.14-.02.14-.22,0-.24l-3.05-.35Z"></path>
    <path class="cls-1" d="M112.28,45.41c-1.97-.23-3.52-1.78-3.75-3.75l-.16-1.42c0-.09-.14-.09-.15,0l-.16,1.42c-.23,1.97-1.78,3.52-3.75,3.75l-1.42.16c-.09,0-.09.14,0,.15l1.42.16c1.97.23,3.52,1.78,3.75,3.75l.16,1.42c0,.09.14.09.15,0l.16-1.42c.23-1.97,1.78-3.52,3.75-3.75l1.42-.16c.09,0,.09-.14,0-.15l-1.42-.16Z"></path>
  </g>
</svg>
