<?xml version="1.0" encoding="UTF-8"?>
<svg xmlns="http://www.w3.org/2000/svg" id="Capa_1" data-name="Capa 1" viewBox="0 0 94.19 112.73">
  <defs>
    <style>
      .cls-1 {
        fill: #fff;
      }

      .cls-2 {
        fill: #5eba47;
      }
    </style>
  </defs>
  <g>
    <g>
      <path class="cls-1" d="M20.7,69.98l-4.44,13.65c-.14.42.01.89.37,1.15.36.26.85.26,1.21,0l11.61-8.44,11.61,8.44c.18.13.39.2.6.2s.42-.07.6-.2c.36-.26.51-.73.37-1.15l-4.44-13.65,11.61-8.44c.36-.26.51-.73.37-1.15-.14-.42-.53-.71-.98-.71h-14.35l-4.43-13.65c-.14-.42-.53-.71-.98-.71s-.84.29-.98.71l-4.44,13.65h-14.35c-.45,0-.84.29-.98.71-.14.42.01.89.37,1.15l11.61,8.44ZM24.8,61.74c.45,0,.84-.29.98-.71l3.69-11.35,3.69,11.35c.14.42.53.71.98.71h11.94l-9.66,7.02c-.36.26-.51.73-.37,1.15l3.69,11.35-9.66-7.02c-.36-.26-.85-.26-1.21,0l-9.66,7.02,3.69-11.35c.14-.42-.01-.89-.37-1.15l-9.66-7.02h11.94Z"></path>
      <path class="cls-1" d="M17.25,85.36c-.29,0-.58-.09-.83-.27-.5-.36-.7-1-.51-1.58l4.35-13.38-11.39-8.27c-.5-.36-.7-1-.51-1.58.19-.58.73-.98,1.34-.98h14.07l4.35-13.38c.19-.58.73-.98,1.34-.98s1.15.39,1.34.98l4.35,13.38h14.07c.61,0,1.15.39,1.34.98.19.59-.02,1.22-.51,1.58l-11.38,8.27,4.35,13.38c.19.59-.02,1.22-.51,1.58-.48.35-1.17.36-1.66,0l-11.38-8.27-11.38,8.27c-.25.18-.54.27-.83.27ZM9.7,60.07c-.28,0-.53.18-.61.44-.09.27,0,.55.23.72l11.61,8.44c.13.1.19.27.14.43l-4.44,13.65c-.09.27,0,.55.23.72.23.16.53.16.76,0l11.61-8.44c.14-.1.32-.1.45,0l11.61,8.44c.22.16.53.16.75,0,.23-.16.32-.45.23-.72l-4.43-13.65c-.05-.16,0-.33.14-.43l11.61-8.44c.23-.16.32-.45.23-.72-.09-.27-.33-.44-.61-.44h-14.35c-.17,0-.32-.11-.37-.27l-4.44-13.65c-.09-.27-.33-.44-.61-.44s-.52.18-.61.44l-4.43,13.65c-.05.16-.2.27-.37.27h-14.35ZM39.72,81.64c-.08,0-.16-.02-.23-.07l-9.66-7.02c-.22-.16-.53-.16-.76,0l-9.65,7.02c-.14.1-.32.1-.45,0-.13-.1-.19-.27-.14-.43l3.69-11.35c.09-.26,0-.55-.23-.72l-9.66-7.02c-.13-.1-.19-.27-.14-.43.05-.16.2-.27.37-.27h11.94c.28,0,.53-.18.61-.44l3.69-11.35c.1-.32.63-.32.73,0l3.69,11.35c.09.27.33.44.61.44h11.94c.17,0,.32.11.37.27.05.16,0,.33-.14.43l-9.66,7.02c-.23.16-.32.45-.23.72l3.69,11.35c.05.16,0,.33-.14.43-.07.05-.15.07-.23.07ZM14.05,62.12l8.7,6.32c.5.36.7,1,.51,1.58l-3.32,10.22,8.7-6.32c.5-.36,1.17-.36,1.66,0l8.7,6.32-3.32-10.22c-.19-.58.02-1.22.51-1.58l8.7-6.32h-10.75c-.61,0-1.15-.39-1.34-.98l-3.32-10.22-3.32,10.22c-.19.58-.73.98-1.34.98h-10.75Z"></path>
    </g>
    <g>
      <path class="cls-1" d="M57.51,112.35c-.2,0-.4-.06-.58-.18l-27.47-18.67L1.99,112.17c-.32.21-.72.24-1.06.06-.34-.18-.55-.53-.55-.91V37.94c0-.57.46-1.03,1.03-1.03h56.1c.57,0,1.03.46,1.03,1.03v73.38c0,.38-.21.73-.55.91-.15.08-.32.12-.48.12ZM29.46,91.23c.2,0,.4.06.58.18l26.44,17.97V38.97H2.44v70.41l26.44-17.97c.17-.12.38-.18.58-.18Z"></path>
      <path class="cls-1" d="M1.41,112.73c-.23,0-.45-.05-.66-.16-.46-.25-.75-.72-.75-1.25V37.94c0-.78.63-1.41,1.41-1.41h56.1c.78,0,1.41.63,1.41,1.41v73.38c0,.52-.29,1-.75,1.25-.45.24-1.03.21-1.46-.08l-27.25-18.52L2.21,112.49c-.24.16-.52.24-.8.24ZM1.41,37.3c-.35,0-.64.29-.64.64v73.38c0,.24.13.46.34.57.21.11.47.1.66-.04l27.47-18.67c.13-.09.3-.09.43,0l27.47,18.67c.19.13.45.15.66.04.21-.11.34-.33.34-.57V37.94c0-.35-.29-.64-.64-.64H1.41ZM2.44,109.76c-.06,0-.12-.02-.18-.05-.13-.07-.2-.2-.2-.34V38.97c0-.21.17-.39.39-.39h54.04c.21,0,.39.17.39.39v70.41c0,.14-.08.27-.2.34-.13.07-.28.06-.4-.02l-26.44-17.97c-.21-.15-.51-.15-.72,0L2.66,109.7c-.07.04-.14.07-.22.07ZM29.46,90.85c.29,0,.56.08.79.24l25.84,17.56V39.35H2.83v69.29l25.84-17.56c.24-.16.51-.24.8-.24Z"></path>
    </g>
  </g>
  <g>
    <path class="cls-2" d="M81.57,25.52c-6.31-.73-11.29-5.71-12.02-12.02l-.6-5.2c-.02-.2-.31-.2-.33,0l-.6,5.2c-.73,6.31-5.71,11.29-12.02,12.02l-5.2.6c-.2.02-.2.31,0,.33l5.2.6c6.31.73,11.29,5.71,12.02,12.02l.6,5.2c.02.2.31.2.33,0l.6-5.2c.73-6.31,5.71-11.29,12.02-12.02l5.2-.6c.2-.02.2-.31,0-.33l-5.2-.6Z"></path>
    <path class="cls-2" d="M91.3,9.69c-3.57-.41-6.39-3.23-6.8-6.8l-.32-2.79c-.02-.13-.2-.13-.22,0l-.32,2.79c-.41,3.57-3.23,6.39-6.8,6.8l-2.79.32c-.13.02-.13.2,0,.22l2.79.32c3.57.41,6.39,3.23,6.8,6.8l.32,2.79c.02.13.2.13.22,0l.32-2.79c.41-3.57,3.23-6.39,6.8-6.8l2.79-.32c.13-.02.13-.2,0-.22l-2.79-.32Z"></path>
    <path class="cls-2" d="M83.16,40.48c-1.8-.21-3.22-1.63-3.43-3.43l-.15-1.3c0-.08-.12-.08-.13,0l-.15,1.3c-.21,1.8-1.63,3.22-3.43,3.43l-1.3.15c-.08,0-.08.12,0,.13l1.3.15c1.8.21,3.22,1.63,3.43,3.43l.15,1.3c0,.08.12.08.13,0l.15-1.3c.21-1.8,1.63-3.22,3.43-3.43l1.3-.15c.08,0,.08-.12,0-.13l-1.3-.15Z"></path>
  </g>
</svg>
