<?xml version="1.0" encoding="UTF-8"?>
<svg xmlns="http://www.w3.org/2000/svg" id="Capa_1" data-name="Capa 1" viewBox="0 0 88.81 103.41">
  <defs>
    <style>
      .cls-1 {
        fill: #fff;
      }

      .cls-2 {
        fill: #5eba47;
      }
    </style>
  </defs>
  <g>
    <path class="cls-1" d="M15.43,103.03c-.21,0-.42-.07-.6-.2-.36-.26-.51-.73-.37-1.15l8.43-25.95L.81,59.7c-.36-.26-.51-.73-.37-1.15.14-.42.53-.71.98-.71h27.28l8.43-25.95c.14-.42.53-.71.98-.71s.84.29.98.71l8.43,25.95h27.28c.45,0,.84.29.98.71s-.01.89-.37,1.15l-22.07,16.04,8.43,25.95c.14.42-.01.89-.37,1.15-.36.26-.85.26-1.21,0l-22.07-16.04-22.07,16.04c-.18.13-.39.2-.6.2ZM4.58,59.89l20.12,14.61c.36.26.51.73.37,1.15l-7.68,23.65,20.12-14.61c.36-.26.85-.26,1.21,0l20.12,14.61-7.68-23.65c-.14-.42.01-.89.37-1.15l20.12-14.61h-24.86c-.45,0-.84-.29-.98-.71l-7.68-23.65-7.68,23.65c-.14.42-.53.71-.98.71H4.58Z"></path>
    <path class="cls-1" d="M15.43,103.41c-.3,0-.59-.09-.83-.27-.5-.36-.7-1-.51-1.58l8.34-25.68L.58,60.01c-.5-.36-.7-1-.51-1.58.19-.58.73-.98,1.34-.98h27l8.34-25.68c.19-.58.73-.98,1.34-.98s1.15.39,1.34.98l8.34,25.68h27c.61,0,1.15.39,1.34.98s-.02,1.22-.51,1.58l-21.85,15.87,8.34,25.68c.19.58-.02,1.22-.51,1.58-.5.36-1.17.36-1.66,0l-21.85-15.87-21.84,15.87c-.24.18-.53.27-.83.27ZM1.41,58.22c-.28,0-.53.18-.61.44-.09.27,0,.55.23.72l22.07,16.04c.13.1.19.27.14.43l-8.43,25.95c-.09.27,0,.55.23.72.22.16.53.16.76,0l22.07-16.04c.14-.1.32-.1.45,0l22.07,16.04c.22.16.53.16.76,0,.22-.16.32-.45.23-.72l-8.43-25.95c-.05-.16,0-.33.14-.43l22.07-16.04c.23-.16.32-.45.23-.72-.09-.27-.33-.44-.61-.44h-27.28c-.17,0-.31-.11-.37-.27l-8.43-25.95c-.09-.27-.33-.44-.61-.44s-.52.18-.61.44l-8.43,25.95c-.05.16-.2.27-.37.27H1.41ZM58.82,99.69c-.08,0-.16-.02-.23-.07l-20.12-14.61c-.23-.16-.53-.16-.76,0l-20.11,14.61c-.14.1-.32.1-.45,0-.13-.1-.19-.27-.14-.43l7.68-23.65c.09-.27,0-.55-.23-.72l-20.12-14.62c-.13-.1-.19-.27-.14-.43.05-.16.2-.27.37-.27h24.86c.28,0,.53-.18.61-.44l7.68-23.65c.1-.32.63-.32.73,0l7.68,23.65c.09.27.33.44.61.44h24.86c.17,0,.32.11.37.27.05.16,0,.33-.14.43l-20.12,14.62c-.23.16-.32.45-.23.72l7.68,23.65c.05.16,0,.33-.14.43-.07.05-.15.07-.23.07ZM5.76,60.28l19.16,13.92c.5.36.7,1,.51,1.58l-7.32,22.52,19.16-13.92c.5-.36,1.17-.36,1.66,0l19.16,13.92-7.32-22.52c-.19-.58.02-1.22.51-1.58l19.16-13.92h-23.68c-.61,0-1.15-.39-1.34-.98l-7.32-22.52-7.32,22.52c-.19.58-.73.98-1.34.98H5.76Z"></path>
  </g>
  <g>
    <path class="cls-2" d="M76.18,25.52c-6.31-.73-11.29-5.71-12.02-12.02l-.6-5.2c-.02-.2-.31-.2-.33,0l-.6,5.2c-.73,6.31-5.71,11.29-12.02,12.02l-5.2.6c-.2.02-.2.31,0,.33l5.2.6c6.31.73,11.29,5.71,12.02,12.02l.6,5.2c.02.2.31.2.33,0l.6-5.2c.73-6.31,5.71-11.29,12.02-12.02l5.2-.6c.2-.02.2-.31,0-.33l-5.2-.6Z"></path>
    <path class="cls-2" d="M85.92,9.69c-3.57-.41-6.39-3.23-6.8-6.8l-.32-2.79c-.02-.13-.2-.13-.22,0l-.32,2.79c-.41,3.57-3.23,6.39-6.8,6.8l-2.79.32c-.13.02-.13.2,0,.22l2.79.32c3.57.41,6.39,3.23,6.8,6.8l.32,2.79c.02.13.2.13.22,0l.32-2.79c.41-3.57,3.23-6.39,6.8-6.8l2.79-.32c.13-.02.13-.2,0-.22l-2.79-.32Z"></path>
    <path class="cls-2" d="M77.78,40.48c-1.8-.21-3.22-1.63-3.43-3.43l-.15-1.3c0-.08-.12-.08-.13,0l-.15,1.3c-.21,1.8-1.63,3.22-3.43,3.43l-1.3.15c-.08,0-.08.12,0,.13l1.3.15c1.8.21,3.22,1.63,3.43,3.43l.15,1.3c0,.08.12.08.13,0l.15-1.3c.21-1.8,1.63-3.22,3.43-3.43l1.3-.15c.08,0,.08-.12,0-.13l-1.3-.15Z"></path>
  </g>
</svg>
