<?xml version="1.0" encoding="UTF-8"?>
<svg xmlns="http://www.w3.org/2000/svg" id="Capa_1" data-name="Capa 1" viewBox="0 0 139.68 166.06">
  <defs>
    <style>
      .cls-1 {
        fill: #272525;
      }

      .cls-2 {
        fill: #5eba47;
      }
    </style>
  </defs>
  <g>
    <g>
      <path class="cls-1" d="M29.11,107.13l-6.24,19.19c-.19.6.02,1.25.52,1.62.51.37,1.19.37,1.7,0l16.32-11.86,16.32,11.86c.25.18.55.28.85.28s.6-.09.85-.28c.51-.37.72-1.02.52-1.62l-6.24-19.19,16.32-11.86c.51-.37.72-1.02.52-1.62-.19-.59-.75-1-1.37-1h-20.18l-6.23-19.19c-.19-.6-.75-1-1.37-1s-1.18.4-1.37,1l-6.24,19.19H13.63c-.63,0-1.18.4-1.37,1-.19.6.02,1.25.52,1.62l16.32,11.86ZM34.86,95.55c.63,0,1.18-.4,1.37-1l5.19-15.96,5.18,15.96c.19.59.75,1,1.37,1h16.78l-13.58,9.86c-.51.37-.72,1.02-.52,1.62l5.19,15.96-13.57-9.86c-.51-.37-1.19-.37-1.7,0l-13.57,9.86,5.19-15.96c.19-.6-.02-1.25-.52-1.62l-13.57-9.86h16.78Z"></path>
      <path class="cls-1" d="M24.25,128.76c-.41,0-.82-.13-1.17-.38-.7-.51-.99-1.4-.72-2.22l6.11-18.81-16.01-11.63c-.7-.51-.99-1.4-.72-2.22.27-.82,1.03-1.37,1.89-1.37h19.78l6.11-18.81c.27-.82,1.03-1.37,1.89-1.37s1.62.55,1.89,1.37l6.11,18.81h19.78c.86,0,1.62.55,1.89,1.37.27.82-.02,1.72-.72,2.22l-16,11.63,6.11,18.81c.27.82-.02,1.72-.72,2.22-.68.5-1.65.5-2.34,0l-16-11.63-16,11.63c-.35.25-.76.38-1.17.38ZM13.63,93.2c-.39,0-.74.25-.86.62-.12.37,0,.78.33,1.01l16.33,11.86c.19.14.27.38.2.61l-6.24,19.19c-.12.37,0,.78.33,1.01.32.23.75.23,1.06,0l16.32-11.86c.19-.14.45-.14.64,0l16.32,11.86c.31.23.75.23,1.06,0,.32-.23.45-.64.33-1.01l-6.23-19.19c-.07-.22,0-.47.2-.61l16.32-11.86c.32-.23.45-.64.33-1.01-.12-.37-.47-.62-.86-.62h-20.18c-.23,0-.44-.15-.51-.37l-6.23-19.19c-.12-.37-.47-.63-.86-.63s-.74.25-.86.63l-6.23,19.19c-.07.22-.28.37-.51.37H13.63ZM55.84,123.53c-.11,0-.22-.03-.32-.1l-13.58-9.86c-.32-.23-.74-.23-1.06,0l-13.57,9.86c-.19.14-.45.14-.64,0-.19-.14-.27-.38-.2-.61l5.18-15.96c.12-.37-.01-.78-.33-1.01l-13.57-9.86c-.19-.14-.27-.38-.2-.61.07-.22.28-.37.52-.37h16.78c.39,0,.74-.25.86-.63l5.18-15.96c.14-.45.89-.45,1.03,0l5.18,15.96c.12.37.47.63.86.63h16.78c.23,0,.44.15.52.37.07.22,0,.47-.2.61l-13.58,9.86c-.32.23-.45.64-.33,1.01l5.19,15.96c.07.22,0,.47-.2.61-.1.07-.21.1-.32.1ZM19.75,96.09l12.22,8.88c.7.51.99,1.4.72,2.22l-4.67,14.37,12.23-8.88c.7-.51,1.64-.51,2.34,0l12.23,8.88-4.67-14.37c-.27-.82.02-1.71.72-2.22l12.23-8.88h-15.11c-.86,0-1.62-.55-1.89-1.37l-4.67-14.37-4.67,14.37c-.27.82-1.03,1.37-1.89,1.37h-15.11Z"></path>
    </g>
    <g>
      <path class="cls-1" d="M80.85,166.7c-.29,0-.57-.08-.81-.25l-38.62-26.24L2.8,166.45c-.44.3-1.02.33-1.49.08-.47-.25-.77-.74-.77-1.28V62.1c0-.8.65-1.45,1.45-1.45h78.86c.8,0,1.44.65,1.44,1.45v103.15c0,.54-.3,1.03-.77,1.28-.21.11-.44.17-.68.17ZM41.42,137.01c.28,0,.57.08.81.25l37.17,25.26V63.55H3.43v98.98l37.17-25.26c.25-.17.53-.25.81-.25Z"></path>
      <path class="cls-1" d="M1.99,167.24c-.32,0-.64-.08-.93-.23-.65-.35-1.06-1.02-1.06-1.76V62.1c0-1.1.89-1.99,1.99-1.99h78.86c1.1,0,1.99.89,1.99,1.99v103.15c0,.74-.4,1.41-1.06,1.76-.64.34-1.45.29-2.05-.11l-38.31-26.03L3.1,166.9c-.34.23-.73.34-1.12.34ZM1.99,61.2c-.5,0-.9.41-.9.9v103.15c0,.34.18.64.48.8.3.16.66.14.93-.05l38.62-26.24c.18-.12.43-.12.61,0l38.62,26.24c.27.19.64.21.93.05.3-.16.48-.46.48-.8V62.1c0-.5-.41-.9-.9-.9H1.99ZM3.43,163.06c-.09,0-.17-.02-.25-.06-.18-.09-.29-.28-.29-.48V63.55c0-.3.24-.54.54-.54h75.97c.3,0,.54.24.54.54v98.98c0,.2-.11.39-.29.48-.18.09-.39.08-.56-.03l-37.17-25.26c-.3-.21-.72-.21-1.02,0L3.74,162.97c-.09.06-.2.09-.3.09ZM41.42,136.47c.4,0,.79.12,1.12.34l36.33,24.68v-97.41H3.97v97.41l36.33-24.68c.33-.22.72-.34,1.12-.34Z"></path>
    </g>
  </g>
  <g>
    <path class="cls-2" d="M119.51,41.95c-10.09-1.16-18.04-9.12-19.2-19.2l-.96-8.31c-.04-.32-.5-.32-.53,0l-.96,8.31c-1.16,10.09-9.12,18.04-19.2,19.2l-8.31.96c-.32.04-.32.5,0,.53l8.31.96c10.09,1.16,18.04,9.12,19.2,19.2l.96,8.31c.04.32.5.32.53,0l.96-8.31c1.16-10.09,9.12-18.04,19.2-19.2l8.31-.96c.32-.04.32-.5,0-.53l-8.31-.96Z"></path>
    <path class="cls-2" d="M135.06,16.65c-5.71-.66-10.21-5.16-10.86-10.86l-.51-4.46c-.02-.21-.33-.21-.35,0l-.51,4.46c-.66,5.71-5.16,10.21-10.86,10.86l-4.46.51c-.21.02-.21.33,0,.35l4.46.51c5.71.66,10.21,5.16,10.86,10.86l.51,4.46c.02.21.33.21.35,0l.51-4.46c.66-5.71,5.16-10.21,10.86-10.86l4.46-.51c.21-.02.21-.33,0-.35l-4.46-.51Z"></path>
    <path class="cls-2" d="M122.06,65.85c-2.88-.33-5.15-2.6-5.48-5.48l-.24-2.07c-.01-.13-.2-.13-.21,0l-.24,2.07c-.33,2.88-2.6,5.15-5.48,5.48l-2.07.24c-.13.01-.13.2,0,.21l2.07.24c2.88.33,5.15,2.6,5.48,5.48l.24,2.07c.01.13.2.13.21,0l.24-2.07c.33-2.88,2.6-5.15,5.48-5.48l2.07-.24c.13-.01.13-.2,0-.21l-2.07-.24Z"></path>
  </g>
</svg>
