<?xml version="1.0" encoding="UTF-8"?>
<svg xmlns="http://www.w3.org/2000/svg" xmlns:i="http://ns.adobe.com/AdobeIllustrator/10.0/" id="Capa_1" version="1.1" viewBox="0 0 127.91 57.24">
  <defs>
    <style>
      .st0 {
        fill: #5eba47;
      }
    </style>
  </defs>
  <g>
    <path class="st0" d="M109.77,31.85c-6.9-.8-12.34-6.24-13.14-13.14l-.66-5.68c-.03-.22-.34-.22-.37,0l-.66,5.68c-.8,6.9-6.24,12.34-13.14,13.14l-5.68.66c-.22.03-.22.34,0,.37l5.68.66c6.9.8,12.34,6.24,13.14,13.14l.66,5.68c.03.22.34.22.37,0l.66-5.68c.8-6.9,6.24-12.34,13.14-13.14l5.68-.66c.22-.03.22-.34,0-.37,0,0-5.68-.66-5.68-.66Z"></path>
    <path class="st0" d="M120.41,14.54c-3.9-.45-6.98-3.53-7.43-7.43l-.35-3.05c-.02-.14-.22-.14-.24,0l-.35,3.05c-.45,3.9-3.53,6.98-7.43,7.43l-3.05.35c-.14.02-.14.22,0,.24l3.05.35c3.9.45,6.98,3.53,7.43,7.43l.35,3.05c.02.14.22.14.24,0l.35-3.05c.45-3.9,3.53-6.98,7.43-7.43l3.05-.35c.14-.02.14-.22,0-.24l-3.05-.35Z"></path>
    <path class="st0" d="M111.51,48.19c-1.97-.23-3.52-1.78-3.75-3.75l-.16-1.42c0-.09-.14-.09-.15,0l-.16,1.42c-.23,1.97-1.78,3.52-3.75,3.75l-1.42.16c-.09,0-.09.14,0,.15l1.42.16c1.97.23,3.52,1.78,3.75,3.75l.16,1.42c0,.09.14.09.15,0l.16-1.42c.23-1.97,1.78-3.52,3.75-3.75l1.42-.16c.09,0,.09-.14,0-.15l-1.42-.16Z"></path>
  </g>
  <g>
    <rect x="15.91" y="2.7" width="8.1" height="51.12"></rect>
    <path d="M47.46,2.78l-19.31,49.95h7.86l6.69-16.86h17.87l6.39,16.86h8.09L55.67,2.78h-8.22.01ZM45.23,28.26l6.33-15.82,6.2,15.82h-12.53Z"></path>
  </g>
  <metadata></metadata>
</svg>
