<?xml version="1.0" encoding="UTF-8"?>
<svg xmlns="http://www.w3.org/2000/svg" id="Capa_1" data-name="Capa 1" viewBox="0 0 236.91 248.64">
  <defs>
    <style>
      .cls-1 {
        fill: #5eba47;
      }
    </style>
  </defs>
  <path class="cls-1" d="M168.23,138.85c-34.34-3.96-61.43-31.05-65.39-65.39l-3.26-28.29c-.12-1.08-1.7-1.08-1.82,0l-3.26,28.29c-3.96,34.34-31.05,61.43-65.39,65.39l-28.29,3.26c-1.08.12-1.08,1.7,0,1.82l28.29,3.26c34.34,3.96,61.43,31.05,65.39,65.39l3.26,28.29c.12,1.08,1.7,1.08,1.82,0l3.26-28.29c3.96-34.34,31.05-61.43,65.39-65.39l28.29-3.26c1.08-.12,1.08-1.7,0-1.82l-28.29-3.26Z"></path>
  <path class="cls-1" d="M221.19,52.72c-19.43-2.24-34.75-17.56-36.99-36.99l-1.75-15.19c-.08-.71-1.11-.71-1.19,0l-1.75,15.19c-2.24,19.43-17.56,34.75-36.99,36.99l-15.19,1.75c-.71.08-.71,1.11,0,1.19l15.19,1.75c19.43,2.24,34.75,17.56,36.99,36.99l1.75,15.19c.08.71,1.11.71,1.19,0l1.75-15.19c2.24-19.43,17.56-34.75,36.99-36.99l15.19-1.75c.71-.08.71-1.11,0-1.19l-15.19-1.75Z"></path>
  <path class="cls-1" d="M176.9,220.24c-9.8-1.13-17.54-8.86-18.67-18.67l-.81-7.06c-.05-.43-.67-.43-.72,0l-.81,7.06c-1.13,9.8-8.86,17.54-18.67,18.67l-7.06.81c-.43.05-.43.67,0,.72l7.06.81c9.8,1.13,17.54,8.86,18.67,18.67l.81,7.06c.05.43.67.43.72,0l.81-7.06c1.13-9.8,8.86-17.54,18.67-18.67l7.06-.81c.43-.05.43-.67,0-.72l-7.06-.81Z"></path>
</svg>
