<?xml version="1.0" encoding="UTF-8"?>
<svg xmlns="http://www.w3.org/2000/svg" id="Capa_1" data-name="Capa 1" viewBox="0 0 79.07 111.49">
  <defs>
    <style>
      .cls-1 {
        fill: #fff;
      }

      .cls-2 {
        fill: #5eba47;
      }
    </style>
  </defs>
  <g>
    <g>
      <path class="cls-1" d="M23.31,73.34c-10.03,0-18.2-8.16-18.2-18.2s8.16-18.19,18.2-18.19,18.19,8.16,18.19,18.19-8.16,18.2-18.19,18.2ZM23.31,39.01c-8.9,0-16.14,7.24-16.14,16.14s7.24,16.14,16.14,16.14,16.14-7.24,16.14-16.14-7.24-16.14-16.14-16.14Z"></path>
      <path class="cls-1" d="M23.31,73.73c-10.25,0-18.58-8.34-18.58-18.58s8.34-18.58,18.58-18.58,18.58,8.33,18.58,18.58-8.33,18.58-18.58,18.58ZM23.31,37.34c-9.82,0-17.81,7.99-17.81,17.81s7.99,17.81,17.81,17.81,17.81-7.99,17.81-17.81-7.99-17.81-17.81-17.81ZM23.31,71.67c-9.11,0-16.53-7.41-16.53-16.52s7.41-16.52,16.53-16.52,16.52,7.41,16.52,16.52-7.41,16.52-16.52,16.52ZM23.31,39.39c-8.69,0-15.75,7.07-15.75,15.75s7.07,15.75,15.75,15.75,15.75-7.07,15.75-15.75-7.07-15.75-15.75-15.75Z"></path>
    </g>
    <g>
      <path class="cls-1" d="M46.08,111.1H1.41c-.57,0-1.03-.46-1.03-1.03v-15.43c0-12.88,10.48-23.36,23.36-23.36s23.36,10.48,23.36,23.36v15.43c0,.57-.46,1.03-1.03,1.03ZM2.44,109.05h42.61v-14.4c0-11.75-9.56-21.31-21.31-21.31S2.44,82.9,2.44,94.65v14.4Z"></path>
      <path class="cls-1" d="M46.08,111.49H1.41c-.78,0-1.41-.63-1.41-1.41v-15.43c0-13.09,10.65-23.75,23.75-23.75s23.75,10.65,23.75,23.75v15.43c0,.78-.63,1.41-1.41,1.41ZM23.75,71.67c-12.67,0-22.98,10.31-22.98,22.98v15.43c0,.35.29.64.64.64h44.67c.35,0,.64-.29.64-.64v-15.43c0-12.67-10.31-22.98-22.98-22.98ZM45.05,109.43H2.44c-.21,0-.39-.17-.39-.39v-14.4c0-11.96,9.73-21.69,21.69-21.69s21.69,9.73,21.69,21.69v14.4c0,.21-.17.39-.39.39ZM2.83,108.66h41.84v-14.02c0-11.53-9.39-20.92-20.92-20.92S2.83,83.11,2.83,94.65v14.02Z"></path>
    </g>
  </g>
  <g>
    <path class="cls-2" d="M66.44,25.52c-6.31-.73-11.29-5.71-12.02-12.02l-.6-5.2c-.02-.2-.31-.2-.33,0l-.6,5.2c-.73,6.31-5.71,11.29-12.02,12.02l-5.2.6c-.2.02-.2.31,0,.33l5.2.6c6.31.73,11.29,5.71,12.02,12.02l.6,5.2c.02.2.31.2.33,0l.6-5.2c.73-6.31,5.71-11.29,12.02-12.02l5.2-.6c.2-.02.2-.31,0-.33l-5.2-.6Z"></path>
    <path class="cls-2" d="M76.18,9.69c-3.57-.41-6.39-3.23-6.8-6.8l-.32-2.79c-.02-.13-.2-.13-.22,0l-.32,2.79c-.41,3.57-3.23,6.39-6.8,6.8l-2.79.32c-.13.02-.13.2,0,.22l2.79.32c3.57.41,6.39,3.23,6.8,6.8l.32,2.79c.02.13.2.13.22,0l.32-2.79c.41-3.57,3.23-6.39,6.8-6.8l2.79-.32c.13-.02.13-.2,0-.22l-2.79-.32Z"></path>
    <path class="cls-2" d="M68.04,40.48c-1.8-.21-3.22-1.63-3.43-3.43l-.15-1.3c0-.08-.12-.08-.13,0l-.15,1.3c-.21,1.8-1.63,3.22-3.43,3.43l-1.3.15c-.08,0-.08.12,0,.13l1.3.15c1.8.21,3.22,1.63,3.43,3.43l.15,1.3c0,.08.12.08.13,0l.15-1.3c.21-1.8,1.63-3.22,3.43-3.43l1.3-.15c.08,0,.08-.12,0-.13l-1.3-.15Z"></path>
  </g>
</svg>
