<?xml version="1.0" encoding="UTF-8"?>
<svg xmlns="http://www.w3.org/2000/svg" id="Capa_1" data-name="Capa 1" viewBox="0 0 117.68 131.69">
  <defs>
    <style>
      .cls-1 {
        fill: none;
        stroke: #000;
        stroke-linecap: round;
        stroke-linejoin: round;
        stroke-width: 2.45px;
      }

      .cls-2 {
        fill: #5eba47;
      }
    </style>
  </defs>
  <g>
    <path class="cls-2" d="M102.63,31.6c-7.52-.87-13.46-6.8-14.33-14.33l-.71-6.2c-.03-.24-.37-.24-.4,0l-.71,6.2c-.87,7.52-6.8,13.46-14.33,14.33l-6.2.71c-.24.03-.24.37,0,.4l6.2.71c7.52.87,13.46,6.8,14.33,14.33l.71,6.2c.03.24.37.24.4,0l.71-6.2c.87-7.52,6.8-13.46,14.33-14.33l6.2-.71c.24-.03.24-.37,0-.4l-6.2-.71Z"></path>
    <path class="cls-2" d="M114.24,12.72c-4.26-.49-7.61-3.85-8.11-8.11l-.38-3.33c-.02-.16-.24-.16-.26,0l-.38,3.33c-.49,4.26-3.85,7.61-8.11,8.11l-3.33.38c-.16.02-.16.24,0,.26l3.33.38c4.26.49,7.61,3.85,8.11,8.11l.38,3.33c.02.16.24.16.26,0l.38-3.33c.49-4.26,3.85-7.61,8.11-8.11l3.33-.38c.16-.02.16-.24,0-.26l-3.33-.38Z"></path>
    <path class="cls-2" d="M104.53,49.43c-2.15-.25-3.84-1.94-4.09-4.09l-.18-1.55c-.01-.09-.15-.09-.16,0l-.18,1.55c-.25,2.15-1.94,3.84-4.09,4.09l-1.55.18c-.09.01-.09.15,0,.16l1.55.18c2.15.25,3.84,1.94,4.09,4.09l.18,1.55c.01.09.15.09.16,0l.18-1.55c.25-2.15,1.94-3.84,4.09-4.09l1.55-.18c.09-.01.09-.15,0-.16l-1.55-.18Z"></path>
  </g>
  <g>
    <path class="cls-1" d="M72.96,97.57c2.55.45,4.96.96,7.2,1.54"></path>
    <path class="cls-1" d="M18.89,99.1c2.08-.54,4.31-1.02,6.67-1.44"></path>
    <path class="cls-1" d="M73.07,57.67c1.28,0,8.11,1.66,8.11,1.66,10.2,2.78,16.65,6.88,16.65,11.45"></path>
    <path class="cls-1" d="M1.22,70.78c0-5.71,10.05-10.67,24.9-13.26"></path>
    <path class="cls-1" d="M18.89,111.47v-27.05c0-1.13-.75-2.12-1.83-2.43-9.73-2.77-15.84-6.77-15.84-11.22v39.42c0,4.22,5.51,8.04,14.39,10.79,1.63.5,3.28-.71,3.28-2.41v-7.1Z"></path>
    <path class="cls-1" d="M80.16,84.42v34.15c0,1.7,1.65,2.91,3.28,2.41,8.88-2.75,14.39-6.57,14.39-10.79v-39.42c0,4.45-6.11,8.45-15.84,11.22-1.08.31-1.83,1.3-1.83,2.43Z"></path>
    <path class="cls-1" d="M26.12,127.18V48.11c0-2.46,2-4.46,4.46-4.46h37.89c2.46,0,4.46,2,4.46,4.46v79.07c0,2.46-2,4.46-4.46,4.46H30.58c-2.46,0-4.46-2-4.46-4.46Z"></path>
    <path class="cls-1" d="M57.09,49.56h-15.14c-.94,0-1.78-.62-2.05-1.52l-1.31-4.38h21.86l-1.31,4.38c-.27.9-1.1,1.52-2.05,1.52Z"></path>
    <line class="cls-1" x1="44.61" y1="125.85" x2="54.44" y2="125.85"></line>
    <path class="cls-1" d="M72.93,61.84l-10.22,18.31c-1.06,1.9-3.72,2.07-5.01.32l-5.77-7.8c-1.19-1.61-3.61-1.61-4.8,0l-5.71,7.72c-1.31,1.77-4.01,1.56-5.04-.37l-10.25-19.26v46.88h46.81v-45.8Z"></path>
    <line class="cls-1" x1="26.12" y1="97.74" x2="72.93" y2="97.74"></line>
    <circle class="cls-1" cx="39.57" cy="61.55" r="4.24"></circle>
  </g>
</svg>
