<?xml version="1.0" encoding="UTF-8"?>
<svg xmlns="http://www.w3.org/2000/svg" xmlns:i="http://ns.adobe.com/AdobeIllustrator/10.0/" id="Capa_1" version="1.1" viewBox="0 0 1602.78 817.04">
  <defs>
    <style>
      .st0, .st1 {
        fill: #5eba47;
      }

      .st2, .st1 {
        fill-rule: evenodd;
      }
    </style>
  </defs>
  <g>
    <path d="M312.69,495.09c-7.06,3.12-15.17,5.95-24.39,8.31-9.24,2.37-20.1,3.66-32.61,3.75-13.25,0-25.4-2.47-36.52-7.21-11.07-4.75-20.72-11.69-28.96-20.82-8.21-9.05-14.6-20.19-19.08-33.26-4.57-13.04-6.82-27.83-6.93-44.46,0-14.87,1.99-28.85,6.02-41.73,4.01-12.96,9.94-24.38,17.82-34.14,7.84-9.87,17.42-17.55,28.85-23.1,11.41-5.48,24.56-8.32,39.35-8.41,8.59,0,16.26.63,23.09,1.92,6.77,1.18,12.8,2.74,17.92,4.57,5.21,1.83,9.58,3.65,13.25,5.58l12.58-48.77c-4.46-2.28-10.04-4.38-16.88-6.48-6.77-2.1-14.43-3.74-23.03-5.11-8.59-1.38-17.71-2.11-27.48-2.11-24.3.09-46.12,4.2-65.28,12.24-19.28,8.04-35.63,19.28-49.13,33.7-13.52,14.51-23.85,31.41-30.95,50.94-7.11,19.45-10.69,40.64-10.79,63.66.1,23.64,3.46,44.91,10.23,63.83,6.86,18.89,16.52,35.06,29.12,48.48,12.71,13.43,27.88,23.65,45.48,30.87,17.65,7.13,37.45,10.68,59.29,10.78,11.67-.1,22.53-.91,32.58-2.55,9.94-1.56,18.83-3.56,26.48-5.86,7.66-2.37,13.9-4.65,18.73-6.93l-8.76-47.68h0ZM513.95,245.24c-2.64-.54-5.31-1-7.76-1.28-2.47-.27-5.21-.36-8.12-.36-11.05.09-21.72,2.55-31.88,7.49-10.22,5.01-19.36,12.06-27.39,21.28-8.02,9.22-14.44,20.28-19.08,33.15h-2.21l-2.18-55.33h-55.34c.82,13.87,1.37,28.3,1.75,43.37.25,14.98.45,31.23.45,48.69v209.83h63.55v-159.99c.1-17.63,2.93-33.06,8.6-46.12,5.56-13.07,13.59-23.29,23.91-30.5,10.43-7.3,22.71-10.96,37.08-11.05,3.58,0,6.84.09,9.94.37,3.03.28,5.93.73,8.67,1.28v-60.83h0ZM740.96,495.09l10.45,44.93c-10.79,5.02-24.31,9.31-40.56,12.69-16.25,3.48-34.7,5.21-55.33,5.4-22.76-.1-43.03-3.74-60.84-10.97-17.69-7.21-32.76-17.53-45.02-30.95-12.32-13.42-21.64-29.49-28.04-48.21-6.36-18.72-9.67-39.63-9.67-62.73.1-22.65,3.1-43.65,9.22-63.2,6.12-19.44,14.98-36.61,26.68-51.31,11.69-14.7,25.92-26.2,42.73-34.52,16.72-8.22,35.89-12.51,57.26-12.6,17,.09,31.98,2.74,45.02,7.95,12.96,5.19,24.2,12.42,33.51,21.72,9.38,9.22,17,20,23.03,32.24,5.9,12.24,10.29,25.39,13.12,39.54,2.86,14.16,4.21,28.77,4.21,43.74,0,5.2-.09,10.04-.37,14.43-.27,4.47-.71,8.58-1.24,12.41h-191.79c.45,16.9,3.29,31.43,8.31,43.29,5.01,11.96,11.67,21.64,20.19,29.05,8.5,7.4,18.08,12.87,28.85,16.25,10.76,3.48,22.19,5.21,34.17,5.11,16.51-.09,30.94-1.46,43.17-4.01,12.24-2.64,23.28-6.05,32.94-10.23h0ZM573.87,370.17h132.6c.17-9.23-.74-18.55-2.74-27.94-2.01-9.42-5.47-18.19-10.23-26.22-4.83-7.94-11.33-14.43-19.55-19.36-8.21-4.93-18.34-7.5-30.5-7.58-11.57.08-21.63,2.74-30.03,7.76-8.4,4.93-15.44,11.5-21.01,19.63-5.57,8.14-9.86,16.81-12.78,26.21-3,9.41-4.93,18.53-5.74,27.5h0ZM1006.92,366.34c.09-16.17-1.63-31.61-5.22-46.21-3.64-14.7-9.67-27.76-18.15-39.18-8.6-11.51-20.17-20.54-34.91-27.22-14.69-6.56-33.03-10.04-55.15-10.13-13.58.09-26.36,1.18-38.5,3.47-12.15,2.29-23.2,5.3-33.26,9.13-9.96,3.74-18.53,7.94-25.76,12.6l13.18,42.19c6.46-4.19,13.58-7.94,21.5-11.05,7.98-3.1,16.36-5.48,25.22-7.22,8.79-1.63,17.65-2.55,26.67-2.55,12.06.09,22.03,1.72,29.68,4.84,7.68,3.1,13.7,7.31,18,12.42,4.3,5.12,7.39,10.68,9.22,16.71,1.92,6.02,3.02,11.97,3.46,17.81.36,5.84.56,11.04.46,15.62-25.94,0-49.31,2.36-70.03,7.01-20.75,4.67-38.47,11.6-53.16,21.01-14.69,9.31-25.94,21.01-33.77,35.06-7.78,14.07-11.69,30.42-11.77,49.23,0,11.77,1.99,22.91,5.93,33.42,3.9,10.59,9.65,19.9,17.24,28.11,7.58,8.22,16.88,14.72,27.84,19.45,11.07,4.68,23.58,7.13,37.72,7.23,12.61-.1,24.3-1.92,34.88-5.4,10.71-3.56,20.2-8.4,28.5-14.6,8.33-6.12,15.34-13.15,21.02-21.08h1.63l4.37,35.05h57.53c-1.83-10.06-3.1-21.18-3.63-33.61-.55-12.41-.84-25.11-.74-38.15v-113.98h0ZM945,450.15c-.09,11.77-3.02,22.29-8.67,31.51-5.66,9.23-13.13,16.42-22.66,21.73-9.49,5.3-19.97,8.05-31.69,8.12-7.94,0-15.24-1.64-21.99-5.12-6.68-3.36-12.05-8.57-16.09-15.69-4.08-7.14-6.2-16.26-6.31-27.4.1-10.68,2.22-19.73,6.42-27.22,4.2-7.39,9.86-13.42,17.07-18.18,7.2-4.74,15.34-8.29,24.56-10.94,9.21-2.56,18.92-4.29,29.05-5.3,10.15-1,20.27-1.46,30.3-1.37v49.85h0ZM1205.99,245.24c-2.65-.54-5.28-1-7.75-1.28-2.45-.27-5.19-.36-8.12-.36-11.05.09-21.75,2.55-31.88,7.49-10.23,5.01-19.36,12.06-27.42,21.28-8.01,9.22-14.42,20.28-19.05,33.15h-2.21l-2.19-55.33h-55.32c.84,13.87,1.36,28.3,1.73,43.37.29,14.98.43,31.23.43,48.69v209.83h63.58v-159.99c.09-17.63,2.94-33.06,8.57-46.12,5.59-13.07,13.61-23.29,23.94-30.5,10.4-7.3,22.73-10.96,37.07-11.05,3.55,0,6.84.09,9.96.37,3.02.28,5.95.73,8.66,1.28v-60.83Z"></path>
    <polygon points="144.63 709.63 144.63 598.75 178.41 598.75 198.71 674.4 218.81 598.75 252.69 598.75 252.69 709.63 231.75 709.63 231.75 622.34 209.52 709.63 187.73 709.63 165.66 622.34 165.66 709.63 144.63 709.63 144.63 709.63"></polygon>
    <polygon points="403.4 709.63 403.4 598.75 486.46 598.75 486.46 617.51 425.92 617.51 425.92 642.09 482.16 642.09 482.16 660.77 425.92 660.77 425.92 690.93 488.49 690.93 488.49 709.63 403.4 709.63 403.4 709.63"></polygon>
    <path d="M635.65,598.76v110.87c45.29.64,94.26,7.25,93.82-54.32.54-64.25-45.81-57.09-93.82-56.55ZM658.15,690.93v-73.4c30.81-1.93,49.72,1.88,47.96,36.95,1.11,37.47-16.58,37.67-47.96,36.45Z"></path>
    <polygon class="st0" points="876.13 709.63 876.13 598.75 898.62 598.75 898.62 709.63 876.13 709.63 876.13 709.63"></polygon>
    <path class="st0" d="M1104.53,598.76h-23.93l-43.56,110.87h24.01l9.23-25.19h44.67l9.8,25.19h24.53l-44.74-110.87ZM1077.18,665.76l15.12-41.16,15.42,41.16h-30.54Z"></path>
  </g>
  <g>
    <path class="st1" d="M1508.89,355.37l-6.67-42.03-40.85,11.42,3.68,13.61,13.58-3.78c-21.97,28.08-54.88,45.95-91.69,45.95-66.12,0-119.75-57.62-119.75-128.7s53.64-128.69,119.75-128.69c25.82,0,49.77,8.78,69.31,23.72l5.24-12.49c-23.19-17.3-51.56-27.48-82.24-27.48-78.2,0-141.63,66.22-141.63,147.9s63.44,147.91,141.63,147.91c46.52,0,87.79-23.42,113.59-59.59l2.46,14.44,13.59-2.19Z"></path>
    <path class="st2" d="M1383.74,292.75c18.28,0,33.22-22.63,33.22-50.38s-14.93-50.38-33.22-50.38-33.18,22.63-33.18,50.38,14.92,50.38,33.18,50.38Z"></path>
  </g>
  <metadata></metadata>
</svg>
