<?xml version="1.0" encoding="UTF-8"?>
<svg xmlns="http://www.w3.org/2000/svg" xmlns:i="http://ns.adobe.com/AdobeIllustrator/10.0/" id="Capa_1" version="1.1" viewBox="0 0 135.39 120">
  <path d="M77.62,64.01c-.1.02-.48.02-.64.02h-12.29v2.86h12.5c.1,0,.83,0,.98-.02,2.55-.24,3.71-2.36,3.71-4.21s-1.21-3.95-3.52-4.17c-.45-.05-.83-.05-1-.05h-8.17c-.36,0-.76-.02-.9-.07-.64-.17-.88-.74-.88-1.21,0-.43.24-1,.9-1.19.19-.05.4-.07.86-.07h11.79v-2.81h-11.98c-.5,0-.88.02-1.19.07-2.05.29-3.48,1.93-3.48,4.02,0,1.71,1.07,3.71,3.43,4.05.43.05,1.02.05,1.29.05h7.95c.14,0,.5,0,.57.02.9.12,1.21.79,1.21,1.38s-.36,1.19-1.14,1.33ZM54.34,64.01c-.1.02-.48.02-.62.02h-12.31v2.86h12.5c.1,0,.83,0,.98-.02,2.55-.24,3.71-2.36,3.71-4.21s-1.21-3.95-3.52-4.17c-.45-.05-.83-.05-1-.05h-8.17c-.36,0-.76-.02-.9-.07-.64-.17-.88-.74-.88-1.21,0-.43.24-1,.9-1.19.19-.05.4-.07.86-.07h11.79v-2.81h-11.98c-.5,0-.88.02-1.19.07-2.05.29-3.48,1.93-3.48,4.02,0,1.71,1.07,3.71,3.43,4.05.43.05,1.02.05,1.29.05h7.95c.14,0,.5,0,.57.02.9.12,1.21.79,1.21,1.38s-.33,1.19-1.14,1.33ZM31.91,52.99h3.1v13.98h-3.1v-13.98ZM25.08,66.96v-13.98h-3.1v10.43l-10.31-10.43h-3.98v13.98h3.1v-10.48l10.38,10.48h3.9ZM124.62,52.99v10.43l-10.31-10.43h-3.98v13.98h3.1v-10.48l10.36,10.48h3.9v-13.98h-3.07ZM94.22,52.99l-8.71,13.98h3.76l1.55-2.5h10.17l1.55,2.5h3.74l-8.71-13.98h-3.33ZM99.39,61.82h-6.98l3.5-5.62,3.48,5.62ZM24.91,45.06c6.24-18.21,23.43-30.45,42.81-30.45s36.6,12.24,42.81,30.45l.05.14h13.64v-1.64l-5.67-.67c-3.5-.4-4.24-1.95-5.19-3.9l-.24-.48c-8.19-17.43-26.02-28.71-45.4-28.71s-37.21,11.29-45.4,28.76l-.24.48c-.95,1.95-1.69,3.5-5.19,3.9l-5.67.67v1.64h13.62l.07-.19ZM110.58,74.77l-.05.14c-6.24,18.21-23.43,30.43-42.81,30.43s-36.6-12.24-42.81-30.45l-.05-.14h-13.62v1.64l5.67.67c3.5.4,4.24,1.95,5.19,3.9l.24.48c8.19,17.48,26.02,28.76,45.4,28.76s37.21-11.29,45.4-28.74l.24-.48c.95-1.95,1.69-3.5,5.19-3.9l5.67-.67v-1.64h-13.67Z"></path>
  <metadata></metadata>
</svg>
