<?xml version="1.0" encoding="UTF-8"?>
<svg xmlns="http://www.w3.org/2000/svg" xmlns:i="http://ns.adobe.com/AdobeIllustrator/10.0/" id="Capa_1" version="1.1" viewBox="0 0 285.13 120">
  <defs>
    <style>
      .st0 {
        fill: #44a78e;
      }

      .st0, .st1, .st2, .st3, .st4, .st5, .st6 {
        fill-rule: evenodd;
      }

      .st1 {
        fill: #5d6970;
      }

      .st2 {
        fill: #fefefe;
      }

      .st3 {
        fill: #663387;
      }

      .st4 {
        fill: #96005b;
      }

      .st5 {
        fill: #d2742e;
      }

      .st6 {
        fill: #30688d;
      }
    </style>
  </defs>
  <g id="g32">
    <g id="g30">
      <path id="path4" class="st1" d="M179.47,87.06c1.06-2.52,2.14-5.02,3.17-7.55,2.58-6.38,5.24-12.72,7.43-19.25.19-.56.46-.8,1.08-.79,1.74.04,3.49.04,5.23,0,.71-.02,1.03.28,1.26.91,2.75,7.3,5.52,14.6,8.29,21.9,1.04,2.75,2.08,5.49,3.15,8.23.31.79.22,1.08-.72,1.04-1.86-.06-3.72-.06-5.57,0-.79.02-1.14-.22-1.38-1-.6-1.95-1.35-3.86-1.99-5.8-.21-.66-.52-.91-1.23-.9-3.1.04-6.2.04-9.29,0-.76-.01-1.11.29-1.36.95-.73,1.96-1.52,3.89-2.23,5.85-.23.64-.52.92-1.24.91-3.1-.04-6.2-.03-9.29,0-.6,0-.98-.18-1.34-.68-2.19-3-4.41-5.97-6.64-8.95-.85-1.14-1.78-2.12-3.42-2.03-.76.04-.98.25-.98,1,.04,3.14-.02,6.27.04,9.41.02.92-.17,1.31-1.19,1.26-1.74-.09-3.48-.05-5.23-.01-.71.02-1.03-.13-1.03-.95.02-9.99.02-19.98.01-29.97,0-.52-.04-.96.74-.99,3.79-.14,7.56-.52,11.36-.45,2.72.05,5.3.63,7.58,2.17,4.35,2.93,5.06,9.55,1.45,13.36-.91.96-1.87,1.86-3.1,2.4-.42.18-.61.38-.28.84,2.14,2.98,4.27,5.98,6.4,8.97.04.05.13.06.31.14h0Z"></path>
      <path id="path6" class="st4" d="M279.46,54.34c-.29,3.96-1.14,7.78-2.78,11.41-2.16,4.78-5.43,8.71-9.45,12.02-6.3,5.2-13.11,9.56-20.91,12.17-2.75.92-5.56,1.64-8.5,1.55-.27-.47.09-.81.27-1.16,4.23-8.4,7.09-17.26,8.69-26.52.08-.45.13-.92.35-1.34.07-.11.16-.2.27-.27,3.2-1.67,6.59-2.86,10-3.99,5.86-1.94,11.88-3.12,18-3.86.96-.12,1.93-.14,2.88-.29.41-.07.86-.07,1.19.3Z"></path>
      <path id="path8" class="st5" d="M279.46,54.34c-4.76.23-9.44,1-14.08,2.02-6.18,1.36-12.12,3.41-17.87,6.04-.35-.29-.33-.68-.27-1.07,1.01-6.99,1.8-14.02,3.01-20.99.09-.27.23-.5.51-.62,4.12-1.95,8.31-3.68,12.74-4.8,4.66-1.17,9.38-1.79,14.18-1.91.45-.01.63.12.69.55.93,6.89,1.64,13.8,1.09,20.77h0Z"></path>
      <path id="path10" class="st3" d="M250.76,39.72c-.05.14-.1.28-.15.43-1.6,1.22-3.43,2.08-5.1,3.2-12.45,8.41-20.57,19.88-24.49,34.36-.11.41-.16.84-.4,1.21-.09.09-.19.1-.31.04-.78-1.65-.91-3.47-1.29-5.22-.94-4.39-1.56-8.82-1.72-13.32-.37-10.61,4.56-18.13,13.55-23.32,5.51-3.19,11.37-5.55,17.35-7.63,1.63-.57,3.28-1.11,5.12-1.73-1.05,4.07-1.99,7.99-2.57,11.99h0Z"></path>
      <path id="path12" class="st1" d="M72.91,70.97v18.66q0,1.9-1.92,1.9c-1.2,0-2.4-.06-3.6.02-1.04.07-1.38-.22-1.38-1.33.05-6.85.03-13.7.03-20.56,0-3.02.03-6.04-.02-9.06-.01-.86.26-1.16,1.13-1.13,1.78.05,3.56.05,5.34,0,.75-.02,1.2.25,1.61.88,3.55,5.44,7.13,10.87,10.7,16.29.21.32.41.67.67.94.34.35.63.27.71-.23.05-.3.02-.62.02-.93,0-5.26.02-10.53-.02-15.79,0-.92.24-1.22,1.17-1.17,1.43.07,2.87.07,4.29,0,.95-.05,1.27.26,1.26,1.24-.05,3.83-.02,7.66-.02,11.5,0,6.04-.02,12.08.02,18.12,0,.98-.28,1.27-1.24,1.22-1.54-.08-3.1-.06-4.64,0-.79.03-1.21-.21-1.63-.93-3.71-6.48-7.74-12.76-11.95-18.93-.1-.15-.23-.29-.55-.71h0Z"></path>
      <path id="path14" class="st1" d="M32.32,82.95c0,2.24-.01,4.49.01,6.73,0,.58-.14.92-.74,1.11-5.44,1.71-10.92,2.13-16.38.22-5.38-1.88-8.42-5.85-9.37-11.39-.6-3.5-.53-7.02.7-10.41,2.01-5.53,6.21-8.52,11.77-9.73,3.89-.85,7.82-.75,11.74-.06.71.12.89.42.88,1.07-.03,1.55-.07,3.1-.02,4.64.03.9-.15,1.14-1.09.84-2.73-.88-5.57-.96-8.38-.68-4.05.4-6.7,2.97-7.54,7.04-.63,3.05-.52,6.07.55,9.01,1.56,4.25,5.96,5.38,9.28,4.62.97-.22,1.39-.78,1.37-1.82-.06-2.59.01-5.19-.04-7.78-.01-.82.13-1.18,1.06-1.14,1.74.08,3.48.06,5.22,0,.77-.02.99.25.97,1-.04,2.24-.02,4.49-.02,6.73h0Z"></path>
      <path id="path16" class="st1" d="M39.29,75.57c0-4.92.04-9.84-.03-14.75-.01-1.12.36-1.35,1.39-1.34,5.89.04,11.77.04,17.66,0,.99,0,1.27.3,1.21,1.25-.07,1.35-.05,2.71,0,4.06.02.71-.18.97-.92.89-3.47-.4-6.96-.16-10.44-.26-.97-.03-1.37.41-1.39,1.27-.05,1.55-.03,3.1-.07,4.64-.02.75.51.64.95.64,3.1,0,6.2.03,9.29-.02.89-.01,1.26.19,1.18,1.15-.08,1.12-.07,2.25,0,3.37.05.85-.19,1.14-1.09,1.12-3.1-.05-6.2,0-9.29-.04-.78,0-1.09.17-1.07,1.02.06,1.93.04,3.87,0,5.81-.01.85.33,1.17,1.17,1.16,3.79-.06,7.59-.05,11.38-.14.62-.01.73.14.73.67-.01,1.55-.02,3.1,0,4.65,0,.57-.14.84-.78.84-6.39-.02-12.78-.02-19.17,0-.9,0-.74-.58-.74-1.1,0-4.96,0-9.91,0-14.87Z"></path>
      <path id="path18" class="st1" d="M128.27,75.46c0-4.95.02-9.91-.02-14.86,0-.84.18-1.14,1.08-1.13,6.04.04,12.08.03,18.11,0,.8,0,1.09.21,1.05,1.04-.06,1.47-.04,2.94,0,4.41.02.63-.22.82-.82.75-3.47-.4-6.95-.2-10.43-.25-1.38-.02-1.51.13-1.54,1.53-.02,1.24.04,2.48-.05,3.71-.07.99.19,1.34,1.26,1.32,3.02-.08,6.04,0,9.06-.05.83-.01,1.19.17,1.13,1.08-.08,1.19-.07,2.4,0,3.6.04.8-.27.96-1,.96-3.13-.03-6.27.01-9.41-.03-.83-.01-1.06.25-1.03,1.06.05,1.82.07,3.64,0,5.46-.04,1.1.31,1.51,1.45,1.48,3.56-.08,7.12-.04,10.68-.12.91-.02,1.24.19,1.18,1.13-.08,1.31-.06,2.63,0,3.95.04.8-.2,1.06-1.03,1.06-6.19-.03-12.39-.03-18.58,0-.87,0-1.11-.23-1.11-1.1.04-4.99.02-9.99.02-14.98h0Z"></path>
      <path id="path20" class="st6" d="M220.31,78.96c.06.02.12.02.18,0,1.41-1.57,3.2-2.66,4.88-3.87,6.46-4.67,13.24-8.8,20.45-12.23.43-.21.85-.74,1.44-.32-.39,3.53-1.26,6.96-2.17,10.37-1.74,6.45-4.14,12.65-7.27,18.56-5.83.42-10.79-1.34-14.49-6.01-1.51-1.91-2.65-4.04-3.01-6.51h0Z"></path>
      <path id="path22" class="st1" d="M110.73,59.49c4.14,0,8.29.02,12.43-.02.86,0,1.26.16,1.21,1.14-.09,1.54-.04,3.1-.02,4.65,0,.62-.1.84-.85.78-2.5-.19-5.01-.37-7.53-.35-1.05,0-1.41.41-1.45,1.44-.34,7.51-.08,15.02-.16,22.52-.02,1.88,0,1.88-1.93,1.88-1.32,0-2.63,0-3.95,0q-1.52,0-1.53-1.48c0-7.51,0-15.02,0-22.54,0-1.79-.02-1.78-1.83-1.81-2.44-.03-4.87.16-7.29.36-.65.05-.72-.2-.72-.7,0-1.55.05-3.1-.02-4.65-.04-.94.22-1.27,1.21-1.25,4.14.05,8.29.02,12.43.02h0Z"></path>
      <path id="path24" class="st2" d="M162.43,71c.06-1.41.15-3.06.21-4.72.02-.51.15-.93.66-1.12,2.19-.84,5.25-.07,6.35,1.53,1.92,2.8.25,6.86-3.09,7.39-1.03.17-2.07.17-3.12.22-.85.04-1.08-.3-1.01-1.07.05-.65.01-1.31.01-2.23h0Z"></path>
      <path id="path26" class="st2" d="M193.71,69.04c1.21,2.91,2.24,5.64,3.18,8.4.18.54-.07.58-.48.58-1.81,0-3.63,0-5.44,0-.46,0-.78-.07-.57-.65.99-2.74,1.98-5.48,3.31-8.33h0Z"></path>
      <path id="path28" class="st0" d="M247.26,62.55c-3.49,1.48-6.8,3.32-10.07,5.21-5.59,3.23-10.9,6.86-15.99,10.82-.21.16-.47.26-.71.39.69-3.74,1.99-7.28,3.52-10.73,3.33-7.47,8.06-13.96,14.07-19.49,3.59-3.31,7.56-6.1,11.87-8.42.19-.1.43-.12.65-.18-1.03,7.22-2.06,14.45-3.09,21.67-.03.19,0,.38,0,.58-.08.05-.17.1-.25.15Z"></path>
    </g>
  </g>
  <metadata></metadata>
</svg>
