<?xml version="1.0" encoding="UTF-8"?>
<svg xmlns="http://www.w3.org/2000/svg" xmlns:i="http://ns.adobe.com/AdobeIllustrator/10.0/" id="Capa_1" version="1.1" viewBox="0 0 3544.44 817.04">
  <defs>
    <style>
      .st0 {
        fill: #7b7b7b;
      }

      .st1 {
        fill: #bfbebe;
      }

      .st2, .st3 {
        fill: #5eba47;
      }

      .st4 {
        fill: #231f20;
      }

      .st5 {
        fill: #4d4c4d;
      }

      .st6, .st3 {
        fill-rule: evenodd;
      }

      .st7 {
        fill: #6d6e70;
      }

      .st8 {
        fill: #e6e7e8;
      }
    </style>
  </defs>
  <path d="M312.69,495.09c-7.06,3.12-15.17,5.95-24.39,8.31-9.24,2.37-20.1,3.66-32.61,3.75-13.25,0-25.4-2.47-36.52-7.21-11.07-4.75-20.72-11.69-28.96-20.82-8.21-9.05-14.6-20.19-19.08-33.26-4.57-13.04-6.82-27.83-6.93-44.46,0-14.87,1.99-28.85,6.02-41.73,4.01-12.96,9.94-24.38,17.82-34.14,7.84-9.87,17.42-17.55,28.85-23.1,11.41-5.48,24.56-8.32,39.35-8.41,8.59,0,16.26.63,23.09,1.92,6.77,1.18,12.8,2.74,17.92,4.57,5.21,1.83,9.58,3.65,13.25,5.58l12.58-48.77c-4.46-2.28-10.04-4.38-16.88-6.48-6.77-2.1-14.43-3.74-23.03-5.11-8.59-1.38-17.71-2.11-27.48-2.11-24.3.09-46.12,4.2-65.28,12.24-19.28,8.04-35.63,19.28-49.13,33.7-13.52,14.51-23.85,31.41-30.95,50.94-7.11,19.45-10.69,40.64-10.79,63.66.1,23.64,3.46,44.91,10.23,63.83,6.86,18.89,16.52,35.06,29.12,48.48,12.71,13.43,27.88,23.65,45.48,30.87,17.65,7.13,37.45,10.68,59.29,10.78,11.67-.1,22.53-.91,32.58-2.55,9.94-1.56,18.83-3.56,26.48-5.86,7.66-2.37,13.9-4.65,18.73-6.93l-8.76-47.68h0ZM513.95,245.24c-2.64-.54-5.31-1-7.76-1.28-2.47-.27-5.21-.36-8.12-.36-11.05.09-21.72,2.55-31.88,7.49-10.22,5.01-19.36,12.06-27.39,21.28-8.02,9.22-14.44,20.28-19.08,33.15h-2.21l-2.18-55.33h-55.34c.82,13.87,1.37,28.3,1.75,43.37.25,14.98.45,31.23.45,48.69v209.83h63.55v-159.99c.1-17.63,2.93-33.06,8.6-46.12,5.56-13.07,13.59-23.29,23.91-30.5,10.43-7.3,22.71-10.96,37.08-11.05,3.58,0,6.84.09,9.94.37,3.03.28,5.93.73,8.67,1.28v-60.83h0ZM740.96,495.09l10.45,44.93c-10.79,5.02-24.31,9.31-40.56,12.69-16.25,3.48-34.7,5.21-55.33,5.4-22.76-.1-43.03-3.74-60.84-10.97-17.69-7.21-32.76-17.53-45.02-30.95-12.32-13.42-21.64-29.49-28.04-48.21-6.36-18.72-9.67-39.63-9.67-62.73.1-22.65,3.1-43.65,9.22-63.2,6.12-19.44,14.98-36.61,26.68-51.31,11.69-14.7,25.92-26.2,42.73-34.52,16.72-8.22,35.89-12.51,57.26-12.6,17,.09,31.98,2.74,45.02,7.95,12.96,5.19,24.2,12.42,33.51,21.72,9.38,9.22,17,20,23.03,32.24,5.9,12.24,10.29,25.39,13.12,39.54,2.86,14.16,4.21,28.77,4.21,43.74,0,5.2-.09,10.04-.37,14.43-.27,4.47-.71,8.58-1.24,12.41h-191.79c.45,16.9,3.29,31.43,8.31,43.29,5.01,11.96,11.67,21.64,20.19,29.05,8.5,7.4,18.08,12.87,28.85,16.25,10.76,3.48,22.19,5.21,34.17,5.11,16.51-.09,30.94-1.46,43.17-4.01,12.24-2.64,23.28-6.05,32.94-10.23h0ZM573.87,370.17h132.6c.17-9.23-.74-18.55-2.74-27.94-2.01-9.42-5.47-18.19-10.23-26.22-4.83-7.94-11.33-14.43-19.55-19.36-8.21-4.93-18.34-7.5-30.5-7.58-11.57.08-21.63,2.74-30.03,7.76-8.4,4.93-15.44,11.5-21.01,19.63-5.57,8.14-9.86,16.81-12.78,26.21-3,9.41-4.93,18.53-5.74,27.5h0ZM1006.92,366.34c.09-16.17-1.63-31.61-5.22-46.21-3.64-14.7-9.67-27.76-18.15-39.18-8.6-11.51-20.17-20.54-34.91-27.22-14.69-6.56-33.03-10.04-55.15-10.13-13.58.09-26.36,1.18-38.5,3.47-12.15,2.29-23.2,5.3-33.26,9.13-9.96,3.74-18.53,7.94-25.76,12.6l13.18,42.19c6.46-4.19,13.58-7.94,21.5-11.05,7.98-3.1,16.36-5.48,25.22-7.22,8.79-1.63,17.65-2.55,26.67-2.55,12.06.09,22.03,1.72,29.68,4.84,7.68,3.1,13.7,7.31,18,12.42,4.3,5.12,7.39,10.68,9.22,16.71,1.92,6.02,3.02,11.97,3.46,17.81.36,5.84.56,11.04.46,15.62-25.94,0-49.31,2.36-70.03,7.01-20.75,4.67-38.47,11.6-53.16,21.01-14.69,9.31-25.94,21.01-33.77,35.06-7.78,14.07-11.69,30.42-11.77,49.23,0,11.77,1.99,22.91,5.93,33.42,3.9,10.59,9.65,19.9,17.24,28.11,7.58,8.22,16.88,14.72,27.84,19.45,11.07,4.68,23.58,7.13,37.72,7.23,12.61-.1,24.3-1.92,34.88-5.4,10.71-3.56,20.2-8.4,28.5-14.6,8.33-6.12,15.34-13.15,21.02-21.08h1.63l4.37,35.05h57.53c-1.83-10.06-3.1-21.18-3.63-33.61-.55-12.41-.84-25.11-.74-38.15v-113.98h0ZM945,450.15c-.09,11.77-3.02,22.29-8.67,31.51-5.66,9.23-13.13,16.42-22.66,21.73-9.49,5.3-19.97,8.05-31.69,8.12-7.94,0-15.24-1.64-21.99-5.12-6.68-3.36-12.05-8.57-16.09-15.69-4.08-7.14-6.2-16.26-6.31-27.4.1-10.68,2.22-19.73,6.42-27.22,4.2-7.39,9.86-13.42,17.07-18.18,7.2-4.74,15.34-8.29,24.56-10.94,9.21-2.56,18.92-4.29,29.05-5.3,10.15-1,20.27-1.46,30.3-1.37v49.85h0ZM1205.99,245.24c-2.65-.54-5.28-1-7.75-1.28-2.45-.27-5.19-.36-8.12-.36-11.05.09-21.75,2.55-31.88,7.49-10.23,5.01-19.36,12.06-27.42,21.28-8.01,9.22-14.42,20.28-19.05,33.15h-2.21l-2.19-55.33h-55.32c.84,13.87,1.36,28.3,1.73,43.37.29,14.98.43,31.23.43,48.69v209.83h63.58v-159.99c.09-17.63,2.94-33.06,8.57-46.12,5.59-13.07,13.61-23.29,23.94-30.5,10.4-7.3,22.73-10.96,37.07-11.05,3.55,0,6.84.09,9.96.37,3.02.28,5.95.73,8.66,1.28v-60.83Z"></path>
  <polygon points="144.63 709.63 144.63 598.75 178.41 598.75 198.71 674.4 218.81 598.75 252.69 598.75 252.69 709.63 231.75 709.63 231.75 622.34 209.52 709.63 187.73 709.63 165.66 622.34 165.66 709.63 144.63 709.63 144.63 709.63"></polygon>
  <polygon points="403.4 709.63 403.4 598.75 486.46 598.75 486.46 617.51 425.92 617.51 425.92 642.09 482.16 642.09 482.16 660.77 425.92 660.77 425.92 690.93 488.49 690.93 488.49 709.63 403.4 709.63 403.4 709.63"></polygon>
  <path d="M635.65,598.76v110.87c45.29.64,94.26,7.25,93.82-54.32.54-64.25-45.81-57.09-93.82-56.55ZM658.15,690.93v-73.4c30.81-1.93,49.72,1.88,47.96,36.95,1.11,37.47-16.58,37.67-47.96,36.45Z"></path>
  <polygon class="st2" points="876.13 709.63 876.13 598.75 898.62 598.75 898.62 709.63 876.13 709.63 876.13 709.63"></polygon>
  <path class="st2" d="M1104.53,598.76h-23.93l-43.56,110.87h24.01l9.23-25.19h44.67l9.8,25.19h24.53l-44.74-110.87ZM1077.18,665.76l15.12-41.16,15.42,41.16h-30.54Z"></path>
  <path class="st3" d="M1508.89,355.37l-6.67-42.03-40.85,11.42,3.68,13.61,13.58-3.78c-21.97,28.08-54.88,45.95-91.69,45.95-66.12,0-119.75-57.62-119.75-128.7s53.64-128.69,119.75-128.69c25.82,0,49.77,8.78,69.31,23.72l5.24-12.49c-23.19-17.3-51.56-27.48-82.24-27.48-78.2,0-141.63,66.22-141.63,147.9s63.44,147.91,141.63,147.91c46.52,0,87.79-23.42,113.59-59.59l2.46,14.44,13.59-2.19Z"></path>
  <path class="st6" d="M1383.74,292.75c18.28,0,33.22-22.63,33.22-50.38s-14.93-50.38-33.22-50.38-33.18,22.63-33.18,50.38,14.92,50.38,33.18,50.38Z"></path>
  <rect class="st8" x="1611.44" y="60.86" width="12.52" height="695.33"></rect>
  <g>
    <path class="st2" d="M2577.67,462.44l3.7-24.86h30.23v155.86c0,63.49-34.26,93.05-90.36,93.05-28.89,0-60.46-9.41-60.46-9.41l6.38-27.54s25.87,9.41,53.75,9.41c31.58,0,54.75-20.83,54.75-60.8v-15.12s-19.82,29.56-57.44,29.56c-44,0-73.23-34.6-73.23-88.68,0-58.45,30.23-89.35,72.55-89.69,37.29,0,60.13,28.22,60.13,28.22ZM2484.28,523.58c0,39.64,18.47,60.13,44.34,60.13,29.89,0,45.68-29.9,45.68-29.9v-63.82s-18.14-27.54-47.03-27.54c-24.19,0-43,19.82-43,61.13Z"></path>
    <path class="st2" d="M2807.09,518.54c0,6.38-.67,13.44-.67,13.44h-117.57c1.68,35.27,21.83,55.09,59.12,55.09,22.17,0,43.33-9.41,43.33-9.41l7.39,23.51s-22.17,11.42-55.42,11.42c-57.44,0-91.37-31.58-91.37-91.03,0-53.07,33.59-87.34,81.29-87.34,50.05,0,73.56,36.61,73.9,84.31ZM2688.85,509.47h84.31c-1.01-31.58-16.46-50.39-41.32-50.39-22.84,0-39.97,18.47-43,50.39Z"></path>
    <path class="st2" d="M2995.53,502.08v107.15h-37.29v-100.77c0-27.88-11.09-43.67-35.27-43.67-28.55,0-44.34,31.24-44.34,31.24v113.2h-37.29v-171.65h31.58l2.35,31.91s20.16-35.27,61.47-35.27c37.29,0,58.78,24.52,58.78,67.85Z"></path>
    <path class="st2" d="M3094.62,437.59h42.66v29.22h-42.66v90.7c0,20.49,4.37,28.55,22.51,28.55,9.74,0,17.8-2.02,17.8-2.02l4.03,25.19s-12.77,3.36-29.56,3.36c-36.95,0-52.07-17.13-52.07-52.07v-93.72h-30.9v-29.22h32.25v-38.96l35.94-11.76v50.72Z"></path>
    <path class="st2" d="M3312.29,518.54c0,6.38-.67,13.44-.67,13.44h-117.57c1.68,35.27,21.83,55.09,59.12,55.09,22.17,0,43.33-9.41,43.33-9.41l7.39,23.51s-22.17,11.42-55.42,11.42c-57.44,0-91.37-31.58-91.37-91.03,0-53.07,33.59-87.34,81.29-87.34,50.05,0,73.56,36.61,73.9,84.31ZM3194.05,509.47h84.31c-1.01-31.58-16.46-50.39-41.32-50.39-22.84,0-39.97,18.47-43,50.39Z"></path>
  </g>
  <g>
    <path class="st7" d="M1785.22,297.1v9.26h-48.02v-91.35h47.11v9.27h-36.28v29.75h34.32v9.27h-34.32v33.8h37.19Z"></path>
    <path class="st7" d="M1829.06,271.26l22.71,35.1h-12.53l-16.83-27.4-16.83,27.4h-11.74l22.84-34.45-20.75-31.84h12.79l14.62,24.79,15.01-24.79h11.61l-20.88,31.19Z"></path>
    <path class="st7" d="M1922.88,272.44c0,22.58-11.22,35.23-26.23,35.23-13.31,0-22.31-9.66-22.31-9.66v37.06h-10.83v-95h9.27l.78,11.09s6.39-12.27,22.58-12.27,26.75,13.44,26.75,33.54ZM1874.34,261.21v26.49s7.57,11.22,19.7,11.22c10.05,0,17.36-8.09,17.36-25.71,0-16.57-7.31-25.71-17.88-25.71-12.66,0-19.18,13.7-19.18,13.7Z"></path>
    <path class="st7" d="M1991.39,270.35c0,2.22-.26,5.09-.26,5.09h-45.67c.65,15.27,8.74,24.01,23.75,24.01,8.61,0,16.57-3.65,16.57-3.65l2.48,7.44s-8.09,4.44-19.84,4.44c-21.4,0-33.54-12.79-33.54-35.1,0-20.49,12.27-33.67,29.88-33.67s26.49,13.44,26.62,31.45ZM1945.72,268.26h35.62c-.65-13.7-7.18-21.4-17.36-21.4s-17.09,7.96-18.27,21.4Z"></path>
    <path class="st7" d="M2039.8,239.55l-1.7,9.26s-2.35-.65-4.57-.65c-12.92,0-17.49,14.35-17.49,14.35v43.85h-10.83v-66.29h9l.78,12.66c3.39-9.26,10.18-13.83,18.79-13.83,3.26,0,6,.65,6,.65Z"></path>
    <path class="st7" d="M2065.89,219.85c0,3.91-3.26,7.05-7.31,7.05-3.78,0-7.05-3.13-7.05-7.05s3.26-7.18,7.05-7.18c4.04,0,7.31,3.26,7.31,7.18ZM2064.2,306.36h-10.96v-66.29h10.96v66.29Z"></path>
    <path class="st7" d="M2137.4,270.35c0,2.22-.26,5.09-.26,5.09h-45.67c.65,15.27,8.74,24.01,23.75,24.01,8.61,0,16.57-3.65,16.57-3.65l2.48,7.44s-8.09,4.44-19.84,4.44c-21.4,0-33.54-12.79-33.54-35.1,0-20.49,12.27-33.67,29.88-33.67s26.49,13.44,26.62,31.45ZM2091.73,268.26h35.62c-.65-13.7-7.18-21.4-17.36-21.4s-17.1,7.96-18.27,21.4Z"></path>
    <path class="st7" d="M2206.17,265.26v41.11h-10.83v-39.93c0-11.88-4.7-18.27-14.88-18.27-12.13,0-18.4,13.44-18.4,13.44v44.76h-10.83v-66.29h9.13l.78,12.4s7.05-13.57,22.84-13.57c13.83,0,22.18,9.13,22.18,26.36Z"></path>
    <path class="st7" d="M2271.54,240.73l-2.22,8.22s-4.96-1.44-11.09-1.44c-16.05,0-24.4,9.79-24.4,24.66s8.61,26.88,24.66,26.88c7.05,0,12.01-2.35,12.01-2.35l2.61,8.09s-7.18,2.87-16.57,2.87c-22.57,0-34.19-14.88-34.19-35.49,0-19.31,12.4-33.28,34.45-33.28,8.87,0,14.75,1.83,14.75,1.83Z"></path>
    <path class="st7" d="M2299.33,219.85c0,3.91-3.26,7.05-7.31,7.05-3.79,0-7.05-3.13-7.05-7.05s3.26-7.18,7.05-7.18c4.04,0,7.31,3.26,7.31,7.18ZM2297.63,306.36h-10.96v-66.29h10.96v66.29Z"></path>
    <path class="st7" d="M2365.88,264.74v41.63h-9.01l-.65-10.31s-7.57,11.61-22.84,11.61c-12.66,0-19.83-7.44-19.83-18.79,0-13.83,11.61-22.58,31.84-22.58h10.05v-3.78c0-10.44-5.61-15.27-15.01-15.27s-18.53,4.44-18.53,4.44l-2.74-7.83s11.61-4.96,22.18-4.96c16.57,0,24.53,8.74,24.53,25.84ZM2347.09,273.87c-15.14,0-22.84,5.35-22.84,14.62,0,6.53,4.83,11.35,11.62,11.35,12.27,0,19.44-12.27,19.44-12.27v-13.7h-8.22Z"></path>
    <path class="st7" d="M2422.51,241.25l-2.35,7.96s-6.66-2.22-14.88-2.22-12.79,3.78-12.79,8.74c0,14.22,31.97,11.74,31.97,32.62,0,11.22-7.96,19.31-25.31,19.31-10.05,0-18.53-2.74-18.53-2.74l2.22-8.09s7.83,2.61,17.1,2.61,13.83-4.31,13.83-10.31c0-14.49-32.1-12.01-32.1-32.88,0-10.31,8.74-17.36,23.75-17.36,9.79,0,17.09,2.35,17.09,2.35Z"></path>
    <path class="st7" d="M2531.99,306.36h-9.27l-.65-10.18s-7.31,11.48-22.45,11.48-27.4-12.53-27.4-34.97c0-20.23,11.09-33.8,27.4-33.8,14.75,0,21.4,9.26,21.4,9.26v-39.67h10.96v97.87ZM2483.7,273.35c0,17.88,7.57,25.58,18.4,25.58,12.01,0,18.92-11.61,18.92-11.61v-27.67s-6.52-12.14-19.7-12.14c-10.7,0-17.62,9.4-17.62,25.84Z"></path>
    <path class="st7" d="M2605.19,270.35c0,2.22-.26,5.09-.26,5.09h-45.67c.65,15.27,8.74,24.01,23.75,24.01,8.61,0,16.57-3.65,16.57-3.65l2.48,7.44s-8.09,4.44-19.84,4.44c-21.4,0-33.54-12.79-33.54-35.1,0-20.49,12.27-33.67,29.88-33.67s26.49,13.44,26.62,31.45ZM2559.52,268.26h35.62c-.65-13.7-7.18-21.4-17.36-21.4s-17.1,7.96-18.27,21.4Z"></path>
    <path class="st7" d="M2702.92,264.74v41.63h-9l-.65-10.31s-7.57,11.61-22.84,11.61c-12.66,0-19.84-7.44-19.84-18.79,0-13.83,11.62-22.58,31.84-22.58h10.05v-3.78c0-10.44-5.61-15.27-15.01-15.27s-18.53,4.44-18.53,4.44l-2.74-7.83s11.61-4.96,22.18-4.96c16.57,0,24.53,8.74,24.53,25.84ZM2684.13,273.87c-15.14,0-22.84,5.35-22.84,14.62,0,6.53,4.83,11.35,11.61,11.35,12.27,0,19.44-12.27,19.44-12.27v-13.7h-8.22Z"></path>
    <path class="st7" d="M2783.04,272.44c0,22.58-11.22,35.23-26.23,35.23-13.31,0-22.31-9.66-22.31-9.66v37.06h-10.83v-95h9.27l.78,11.09s6.39-12.27,22.58-12.27,26.75,13.44,26.75,33.54ZM2734.5,261.21v26.49s7.57,11.22,19.71,11.22c10.05,0,17.36-8.09,17.36-25.71,0-16.57-7.31-25.71-17.88-25.71-12.66,0-19.18,13.7-19.18,13.7Z"></path>
    <path class="st7" d="M2834.32,239.55l-1.7,9.26s-2.35-.65-4.57-.65c-12.92,0-17.49,14.35-17.49,14.35v43.85h-10.83v-66.29h9l.78,12.66c3.39-9.26,10.18-13.83,18.79-13.83,3.26,0,6,.65,6,.65Z"></path>
    <path class="st7" d="M2899.56,270.35c0,2.22-.26,5.09-.26,5.09h-45.67c.65,15.27,8.74,24.01,23.75,24.01,8.61,0,16.57-3.65,16.57-3.65l2.48,7.44s-8.09,4.44-19.84,4.44c-21.4,0-33.54-12.79-33.54-35.1,0-20.49,12.27-33.67,29.88-33.67s26.49,13.44,26.62,31.45ZM2853.89,268.26h35.62c-.65-13.7-7.18-21.4-17.36-21.4s-17.1,7.96-18.27,21.4Z"></path>
    <path class="st7" d="M2968.33,265.26v41.11h-10.83v-39.93c0-11.88-4.7-18.27-14.88-18.27-12.13,0-18.4,13.44-18.4,13.44v44.76h-10.83v-66.29h9.13l.78,12.4s7.05-13.57,22.84-13.57c13.83,0,22.18,9.13,22.18,26.36Z"></path>
    <path class="st7" d="M3044.27,306.36h-9.27l-.65-10.18s-7.31,11.48-22.45,11.48-27.4-12.53-27.4-34.97c0-20.23,11.09-33.8,27.4-33.8,14.75,0,21.4,9.26,21.4,9.26v-39.67h10.96v97.87ZM2995.99,273.35c0,17.88,7.57,25.58,18.4,25.58,12.01,0,18.92-11.61,18.92-11.61v-27.67s-6.52-12.14-19.7-12.14c-10.7,0-17.62,9.4-17.62,25.84Z"></path>
    <path class="st7" d="M3078.32,219.85c0,3.91-3.26,7.05-7.31,7.05-3.79,0-7.05-3.13-7.05-7.05s3.26-7.18,7.05-7.18c4.04,0,7.31,3.26,7.31,7.18ZM3076.63,306.36h-10.96v-66.29h10.96v66.29Z"></path>
    <path class="st7" d="M3142,249.21l-37.84,48.41h37.97v8.74h-49.72v-9.13l37.45-48.41h-35.76v-8.74h47.89v9.13Z"></path>
    <path class="st7" d="M3204.77,264.74v41.63h-9.01l-.65-10.31s-7.57,11.61-22.84,11.61c-12.66,0-19.83-7.44-19.83-18.79,0-13.83,11.61-22.58,31.84-22.58h10.05v-3.78c0-10.44-5.61-15.27-15.01-15.27s-18.53,4.44-18.53,4.44l-2.74-7.83s11.61-4.96,22.18-4.96c16.57,0,24.53,8.74,24.53,25.84ZM3185.98,273.87c-15.14,0-22.84,5.35-22.84,14.62,0,6.53,4.83,11.35,11.62,11.35,12.27,0,19.44-12.27,19.44-12.27v-13.7h-8.22Z"></path>
    <path class="st7" d="M3236.34,318.11c0,12.66-6.53,18.27-17.22,18.27-4.44,0-9.13-1.17-9.13-1.17l1.56-8.22s2.35.91,6,.91c5.74,0,7.96-3.39,7.96-10.05v-77.77h10.83v78.04ZM3238.17,219.85c0,3.91-3.26,7.05-7.31,7.05-3.79,0-7.05-3.13-7.05-7.05s3.26-7.18,7.05-7.18c4.04,0,7.31,3.26,7.31,7.18Z"></path>
    <path class="st7" d="M3309.15,270.35c0,2.22-.26,5.09-.26,5.09h-45.67c.65,15.27,8.74,24.01,23.75,24.01,8.61,0,16.57-3.65,16.57-3.65l2.48,7.44s-8.09,4.44-19.83,4.44c-21.4,0-33.54-12.79-33.54-35.1,0-20.49,12.27-33.67,29.88-33.67s26.49,13.44,26.62,31.45ZM3263.48,268.26h35.62c-.65-13.7-7.18-21.4-17.36-21.4s-17.09,7.96-18.27,21.4Z"></path>
  </g>
  <g>
    <path class="st4" d="M1750.34,398.27v-34.69h30.16v34.69h-30.16ZM1750.34,609.24v-177.95h30.16v177.95h-30.16Z"></path>
    <path class="st4" d="M1826.42,609.24v-177.95h27.15v25.3c13.07-19.55,31.95-29.32,56.64-29.32,10.72,0,20.58,1.93,29.58,5.78,8.99,3.85,15.72,8.91,20.19,15.16,4.47,6.26,7.59,13.69,9.38,22.29,1.12,5.59,1.68,15.36,1.68,29.32v109.42h-30.16v-108.25c0-12.29-1.17-21.47-3.52-27.56-2.35-6.09-6.51-10.95-12.48-14.58-5.98-3.63-12.99-5.45-21.03-5.45-12.85,0-23.94,4.08-33.26,12.23-9.33,8.16-13.99,23.63-13.99,46.42v97.19h-30.16Z"></path>
    <path class="st4" d="M2083.13,582.26l4.36,26.64c-8.49,1.79-16.09,2.68-22.79,2.68-10.95,0-19.44-1.73-25.47-5.19-6.03-3.46-10.28-8.02-12.74-13.66s-3.69-17.51-3.69-35.61v-102.38h-22.12v-23.46h22.12v-44.07l29.99-18.1v62.17h30.33v23.46h-30.33v104.06c0,8.6.53,14.13,1.59,16.59,1.06,2.46,2.79,4.41,5.2,5.87,2.4,1.45,5.84,2.18,10.3,2.18,3.35,0,7.76-.39,13.24-1.17Z"></path>
    <path class="st4" d="M2234.44,551.93l31.17,3.85c-4.92,18.21-14.02,32.34-27.31,42.39-13.29,10.05-30.27,15.08-50.94,15.08-26.03,0-46.67-8.01-61.91-24.04-15.25-16.03-22.87-38.51-22.87-67.45s7.71-53.17,23.12-69.71c15.42-16.53,35.41-24.8,59.99-24.8s43.23,8.1,58.31,24.3c15.08,16.2,22.62,38.99,22.62,68.37,0,1.79-.06,4.47-.17,8.04h-132.71c1.12,19.55,6.65,34.52,16.59,44.91,9.94,10.39,22.34,15.58,37.2,15.58,11.06,0,20.5-2.9,28.32-8.71,7.82-5.81,14.02-15.08,18.6-27.82ZM2135.41,503.17h99.37c-1.34-14.97-5.14-26.2-11.39-33.68-9.61-11.62-22.06-17.43-37.37-17.43-13.85,0-25.5,4.64-34.94,13.91-9.44,9.27-14.66,21.67-15.67,37.2Z"></path>
    <path class="st4" d="M2302.8,609.24v-245.65h30.16v245.65h-30.16Z"></path>
    <path class="st4" d="M2379.88,398.27v-34.69h30.16v34.69h-30.16ZM2379.88,609.24v-177.95h30.16v177.95h-30.16Z"></path>
  </g>
  <path d="M3441.24,386.52c-25.35-2.92-45.34-22.92-48.26-48.26l-.33-2.88c-.12-1.04-1.64-1.04-1.76,0l-.33,2.88c-2.92,25.35-22.92,45.34-48.26,48.26l-2.88.33c-1.04.12-1.04,1.64,0,1.76l2.88.33c25.35,2.92,45.34,22.92,48.26,48.26l.33,2.88c.12,1.04,1.64,1.04,1.76,0l.33-2.88c2.92-25.35,22.92-45.34,48.26-48.26l2.88-.33c1.04-.12,1.04-1.64,0-1.76l-2.88-.33Z"></path>
  <path class="st1" d="M3377.98,440.65c-4.62-.53-8.27-4.18-8.8-8.8l-.06-.53c-.02-.19-.3-.19-.32,0l-.06.53c-.53,4.62-4.18,8.27-8.8,8.8l-.53.06c-.19.02-.19.3,0,.32l.53.06c4.62.53,8.27,4.18,8.8,8.8l.06.53c.02.19.3.19.32,0l.06-.53c.53-4.62,4.18-8.27,8.8-8.8l.53-.06c.19-.02.19-.3,0-.32l-.53-.06Z"></path>
  <path class="st5" d="M3357.66,424.12c-11.06-1.27-19.78-10-21.06-21.06l-.15-1.26c-.05-.46-.71-.46-.77,0l-.15,1.26c-1.27,11.06-10,19.78-21.06,21.06l-1.26.15c-.46.05-.46.71,0,.77l1.26.15c11.06,1.27,19.78,10,21.06,21.06l.15,1.26c.05.46.71.46.77,0l.15-1.26c1.27-11.06,10-19.78,21.06-21.06l1.26-.15c.46-.05.46-.71,0-.77l-1.26-.15Z"></path>
  <path class="st0" d="M3442.86,352.44c-6.96-.8-12.44-6.29-13.24-13.24l-.09-.79c-.03-.29-.45-.29-.48,0l-.09.79c-.8,6.96-6.29,12.44-13.24,13.24l-.79.09c-.29.03-.29.45,0,.48l.79.09c6.96.8,12.44,6.29,13.24,13.24l.09.79c.03.29.45.29.48,0l.09-.79c.8-6.96,6.29-12.44,13.24-13.24l.79-.09c.29-.03.29-.45,0-.48l-.79-.09Z"></path>
  <metadata></metadata>
</svg>
