<?xml version="1.0" encoding="UTF-8"?>
<svg xmlns="http://www.w3.org/2000/svg" xmlns:i="http://ns.adobe.com/AdobeIllustrator/10.0/" id="Capa_1" version="1.1" viewBox="0 0 286.35 120">
  <defs>
    <style>
      .st0 {
        fill: #00a24f;
      }
    </style>
  </defs>
  <path class="st0" d="M98.12,46c-10.29,0-17.53,7.42-17.59,19.39,0,10.95,8.74,17.71,17.65,17.71,5.33,0,8.62-.84,10.53-2.39v-6.04c-2.77,1.23-5.77,1.84-8.8,1.8-5.51,0-9.93-2.99-10.65-7.78l-.06-.42h6.4c6.04,0,10.29-.54,12.98-1.85s3.83-3.35,3.83-6.58c0-8.56-6.88-13.82-14.3-13.82M102.31,61.74c-1.68.6-4.31.84-8.68.84h-4.49v-.42l.06-1.2c.18-4.31,3.41-8.14,8.08-8.14,1.86-.09,3.71.41,5.27,1.44,1.35,1.04,2.11,2.67,2.03,4.37.06,1.44-.6,2.51-2.27,3.11M116.85,59.82v22.68h8.44v-21c0-2.81.54-4.85,1.74-6.22s2.87-1.91,4.97-1.91c.76,0,1.52.05,2.27.18v-6.7c-1.33-.63-2.78-.94-4.25-.9-9.45.06-13.16,6.76-13.16,13.88M14.46,82.5v-45.66H6.09v45.66h8.38ZM37.14,46c-11.25,0-16.1,7.66-16.16,15.2v21.3h8.38v-20.7c-.09-2.25.58-4.47,1.91-6.28,1.26-1.49,3.13-2.32,5.09-2.27,2.39,0,4.37.72,5.74,2.21s2.03,3.89,2.03,7v20.05h8.38v-20.82c0-10.11-6.94-15.68-15.38-15.68M67.3,36.84h-8.32v32.97c.06,8.38,4.25,13.28,13.34,13.34,3.89,0,6.16-1.26,7.12-3.29v-5.21c-1.5.66-3.53.96-6.04.96-1.91,0-3.47-.48-4.55-1.62s-1.62-2.87-1.62-5.33v-15.44h7.3c3.59,0,5.09-2.27,5.09-3.95v-3.35h-12.33v-9.1ZM226.17,46c-11.25,0-16.1,7.66-16.16,15.2l.06,21.3h8.32v-20.7c0-2.69.72-4.79,1.91-6.28,1.26-1.49,3.13-2.32,5.09-2.27,2.39,0,4.37.72,5.74,2.27s2.03,3.83,2.03,6.94v20.05h8.32v-20.82c.06-10.11-6.82-15.68-15.32-15.68M156.46,46c-4.73,0-7.66,2.81-9.39,5.39l-.66.96v-15.5h-8.32v28.3c0,12.03,7.24,18.01,16.63,18.01,10.71,0,17.47-8.44,17.47-19.21s-6.82-17.95-15.74-17.95M155.68,76.04c-2.75,0-5.21-.78-6.82-2.81s-2.39-5.15-2.39-9.39c0-5.8,3.53-10.53,8.32-10.59,2.81,0,5.09.78,6.64,2.75s2.33,4.97,2.33,9.45c-.06,6.04-3.35,10.59-8.08,10.59M189.37,46c-5.09,0-8.44,1.38-10.77,3.17v5.86c2.93-1.39,6.15-2.09,9.39-2.03,2.75,0,5.15.42,6.52,1.5s2.03,2.93,2.03,5.56v.84h-3.59c-13.4.06-17.83,4.79-17.83,11.07s5.74,11.19,14.3,11.19h1.85c7.96,0,13.46-5.15,13.46-12.69v-8.38c.06-12.75-7.3-16.04-15.38-16.1M196.67,70.53c0,1.91-.48,3.41-1.56,4.49s-2.63,1.5-4.67,1.5c-1.73.09-3.44-.35-4.91-1.26-1.18-.83-1.86-2.21-1.8-3.65-.11-1.54.68-3.01,2.03-3.77,1.44-.84,3.77-1.2,7.24-1.2h3.65v3.89ZM265.42,63.59l-.18-.24.18-.24c3.65-4.61,11.61-13.58,14.54-16.28h-4.61c-2.93,0-4.91.3-7,2.27-4.19,3.95-7.66,8.62-11.19,13.16l-.66.9.06-26.33h-8.44v45.6h8.44v-18.49l.66.9c4.01,5.33,8.08,10.71,12.75,15.5,1.56,1.47,3.6,2.32,5.74,2.39,2.33,0,3.65-.6,4.55-1.68-2.39-2.81-11.97-14-14.84-17.47"></path>
  <metadata></metadata>
</svg>
