<?xml version="1.0" encoding="UTF-8"?>
<svg xmlns="http://www.w3.org/2000/svg" id="Icono" viewBox="0 0 512 512">
  <defs>
    <style>
      .cls-1 {
        fill: #fff;
      }

      .cls-2 {
        fill: #5eba47;
      }

      .cls-2, .cls-3 {
        fill-rule: evenodd;
      }
    </style>
  </defs>
  <circle class="cls-1" cx="256" cy="256" r="256"></circle>
  <g>
    <path class="cls-2" d="M433.28,387.44l-8.71-54.93-53.4,14.93,4.81,17.79,17.75-4.94c-28.72,36.7-71.73,60.06-119.84,60.06-86.41,0-156.52-75.31-156.52-168.21S187.47,83.93,273.89,83.93c33.74,0,65.05,11.48,90.59,31l6.84-16.32c-30.31-22.61-67.39-35.92-107.48-35.92-102.2,0-185.11,86.55-185.11,193.31s82.91,193.32,185.11,193.32c60.81,0,114.74-30.61,148.46-77.88l3.21,18.87,17.76-2.86Z"></path>
    <path class="cls-3" d="M269.7,305.6c23.9,0,43.41-29.57,43.41-65.84s-19.52-65.85-43.41-65.85-43.36,29.58-43.36,65.85,19.5,65.84,43.36,65.84Z"></path>
  </g>
</svg>
