<?xml version="1.0" encoding="UTF-8"?>
<svg xmlns="http://www.w3.org/2000/svg" xmlns:i="http://ns.adobe.com/AdobeIllustrator/10.0/" id="Capa_1" version="1.1" viewBox="0 0 158.09 120">
  <defs>
    <style>
      .st0 {
        fill: #396bb4;
      }
    </style>
  </defs>
  <path class="st0" d="M118.38,12.5c5.79-2.87,12.75-2.97,18.74-.65,3.46,1.38,6.76,3.51,8.9,6.6,1.76,2.67,1.41,5.98,1.36,9.01-1.79-1.91-3.59-3.86-5.81-5.3-4.4-3.04-9.95-4.2-15.23-3.6-6.45.48-12.77,3.6-16.64,8.86.06-2.57-.42-5.3.68-7.73,1.47-3.42,4.77-5.61,7.99-7.2Z"></path>
  <path class="st0" d="M46.06,17.68c3.08-.77,6.54,1.19,7.35,4.28,1.18,3.67-1.95,7.85-5.79,7.81-3.33.2-6.28-2.85-6.23-6.14-.05-2.76,2-5.32,4.67-5.95Z"></path>
  <path class="st0" d="M15.77,23.72c1.36-.7,2.94-.5,4.41-.51-.01,3.18-.02,6.36,0,9.54,4.85-.01,9.7,0,14.55,0-.08,1.76.13,3.54-.14,5.28-.57,2.48-3.16,3.94-5.57,3.98-2.95.04-5.89.03-8.84,0-.02,5.68,0,11.35,0,17.03,0,2.21.59,4.7,2.53,6.01,1.96,1.31,4.45,1.08,6.69.94,1.86-.11,3.65-.68,5.33-1.48-.13,2.49.47,5.21-.93,7.45-1.34,2.2-4.02,3.07-6.46,3.32-3.35.27-6.83-.08-9.93-1.45-3.02-1.29-5.39-3.94-6.5-7.02-.91-2.48-1.19-5.15-1.16-7.78,0-8.25,0-16.51,0-24.76.03-2.1.27-4.32,1.49-6.11,1.19-1.75,2.61-3.47,4.53-4.45Z"></path>
  <path class="st0" d="M127.07,31.86c4.3-.26,8.73.71,12.34,3.12,5.03,3.35,8.08,9.13,8.76,15.06.55,5.41-.19,11.09-2.86,15.9-2.4,4.39-6.58,7.8-11.44,9.07-5.91,1.58-12.67,1.02-17.74-2.61-4.72-3.28-7.53-8.79-8.28-14.4-.64-5.39.11-11.04,2.65-15.87,1.71-3.28,4.35-6.1,7.63-7.84,2.74-1.5,5.85-2.23,8.95-2.42ZM125.14,41.46c-2.09.51-3.86,2.01-4.9,3.87-1.67,2.89-1.87,6.33-1.72,9.59.15,3.08.83,6.32,2.88,8.73,2.21,2.57,5.94,3.25,9.15,2.63,2.5-.51,4.56-2.4,5.6-4.68,1.37-2.93,1.51-6.27,1.27-9.45-.28-3.11-1.08-6.45-3.43-8.67-2.3-2.23-5.82-2.67-8.85-2.02Z"></path>
  <path class="st0" d="M79.88,33.59c4.37-1.38,9.1-1.92,13.63-1.09,3.19.62,6.47,2.3,7.96,5.34,1.16,2.16.69,4.67.78,7.01-.43,0-.85,0-1.28.01-3.54-2.63-8.08-3.52-12.42-3.57-4.08-.07-8.32,1.55-10.89,4.8-2.05,2.42-2.87,5.69-2.7,8.82.11,3.47.99,7.19,3.56,9.68,2.75,2.81,6.94,3.57,10.72,3.41,1.43-.09,3.41-.48,3.61-2.21.18-3.78.13-7.61-.74-11.32,2.01.06,4.03-.06,6.04.07,2.58.24,5.04,2.46,4.87,5.18-.17,3.76.57,7.77-1.06,11.31-1.46,3.2-4.89,4.9-8.19,5.56-6.33,1.23-13.19.66-18.86-2.57-4.84-2.65-8.58-7.27-9.96-12.63-1.54-5.94-.89-12.56,2.25-17.88,2.75-4.78,7.47-8.25,12.68-9.92Z"></path>
  <path class="st0" d="M42.32,33.67c2.44.09,5.09-.29,7.28,1.03,2.15,1.2,3.13,3.74,3.13,6.11.04,5.61,0,11.23.02,16.85.02,1.82-.12,3.66.2,5.47.19,1.13.81,2.27,1.88,2.79,1.93,1.02,4.19.78,6.3.8-.03,2.2.23,4.61-1,6.55-.98,1.53-2.92,1.96-4.61,2.02-3.45.13-7.19-.63-9.73-3.13-2.66-2.58-3.49-6.45-3.48-10.03,0-9.49,0-18.97,0-28.46Z"></path>
  <path class="st0" d="M75.42,83.12c3.11,3.97,6.62,7.73,10.96,10.39,5.23,3.31,11.48,4.86,17.64,4.64,8.15-.12,16.34-3,22.47-8.44,2.26-1.84,3.97-4.23,5.73-6.52.04,3.37.38,6.86-.82,10.09-1.46,4.77-5.33,8.29-9.37,10.96-5.6,3.67-12.3,5.81-19.03,5.52-8.65-.32-17.28-3.99-23.13-10.43-1.64-1.79-3.05-3.84-3.71-6.2-1.13-3.21-.84-6.67-.74-10.01Z"></path>
  <metadata></metadata>
</svg>
