<?xml version="1.0" encoding="UTF-8"?>
<svg xmlns="http://www.w3.org/2000/svg" xmlns:i="http://ns.adobe.com/AdobeIllustrator/10.0/" id="Capa_1" version="1.1" viewBox="0 0 300 120">
  <defs>
    <style>
      .st0 {
        fill: #fc0;
      }

      .st1 {
        fill: navy;
      }
    </style>
  </defs>
  <g id="g10">
    <g id="g12">
      <path id="path16" class="st1" d="M284.25,56.92c-2.1-2.26-4.93-3.37-8.6-3.37s-6.58,1.11-8.59,3.37c-1.93,2.1-2.88,4.85-2.88,8.31s.99,6.21,2.92,8.31c2.1,2.26,4.93,3.37,8.55,3.37s6.42-1.11,8.47-3.37c1.97-2.1,2.96-4.85,2.96-8.31s-.95-6.21-2.84-8.31ZM277.83,70.45c-.41,1.19-1.15,1.77-2.18,1.77-2.06,0-3.08-2.34-3.08-6.99s1.03-7.16,3.08-7.16c1.85,0,2.8,2.39,2.8,7.16,0,2.43-.21,4.15-.62,5.22"></path>
      <path id="path18" class="st1" d="M253.24,51.28h8.35v-3.33h-8.35v3.33Z"></path>
      <path id="path20" class="st1" d="M253.24,76.41h8.35v-22.21h-8.35v22.21Z"></path>
      <path id="path22" class="st1" d="M241.52,47.95v5.72c-5.63.74-9.79,2.34-12.54,4.85-2.39,2.18-3.54,4.77-3.45,7.77.04,3.58,1.32,6.17,3.74,7.77,2.43,1.56,6.33,2.34,11.64,2.34h9.01v-28.46s-8.39,0-8.39,0ZM236.42,70.9c-1.52-.82-2.26-2.34-2.26-4.61,0-1.93.7-3.66,2.14-5.18,1.48-1.52,3.21-2.26,5.22-2.26v12.91c-2.34,0-4.03-.29-5.1-.86"></path>
      <path id="path24" class="st1" d="M150.51,54.08h-8.64v15.71c0,2.06.95,3.74,2.88,5.02,2.1,1.4,4.98,2.1,8.6,2.1,3.21,0,5.84-.53,7.85-1.56l3.62,1.07v-22.33h-8.39v14.56c0,2.06-1.03,3.08-3.08,3.08-1.89,0-2.84-1.03-2.84-3.08v-14.56"></path>
      <path id="path26" class="st1" d="M137.4,54.32c-2.18-.53-4.15-.78-5.84-.78-3.41,0-6.13.62-8.06,1.81-1.69,1.03-2.59,2.34-2.67,3.95-.04,1.85,1.07,3.41,3.33,4.73l5.63,2.76c1.28.74,1.89,1.56,1.89,2.51,0,1.93-1.6,2.92-4.77,2.92-2.43,0-4.44-.29-6.09-.86l-.21,4.61c2.67.62,5.35.95,8.02.95,3.66,0,6.5-.66,8.43-1.93,2.02-1.27,3-3.08,3-5.51,0-1.6-.49-2.92-1.52-3.95-.78-.78-1.89-1.48-3.41-2.1l-3.29-1.27c-1.4-.66-2.1-1.44-2.1-2.34,0-1.11,1.28-1.69,3.82-1.69l4.03.53-.21-4.32"></path>
      <path id="path28" class="st1" d="M109.02,76.41h8.64v-28.46h-8.64v28.46Z"></path>
      <path id="path30" class="st1" d="M104.04,56.92c-2.1-2.26-4.94-3.37-8.6-3.37s-6.58,1.11-8.6,3.37c-1.93,2.1-2.88,4.85-2.88,8.31s.99,6.21,2.92,8.31c2.1,2.26,4.94,3.37,8.55,3.37s6.42-1.11,8.47-3.37c2.02-2.14,3-4.89,3-8.31s-.95-6.17-2.88-8.31ZM98.29,65.22c0,2.43-.21,4.19-.66,5.22-.41,1.19-1.15,1.77-2.18,1.77-2.06,0-3.08-2.34-3.08-6.99s1.03-7.16,3.08-7.16c1.89,0,2.84,2.39,2.84,7.16"></path>
      <path id="path32" class="st1" d="M214.54,51.28h8.39v-3.33h-8.39v3.33Z"></path>
      <path id="path34" class="st1" d="M214.54,76.41h8.39v-22.21h-8.39v22.21Z"></path>
      <path id="path36" class="st1" d="M203.85,53.54c-3.41,0-6.13.62-8.06,1.81-1.69,1.03-2.59,2.34-2.67,3.95-.04,1.85,1.07,3.41,3.33,4.73l5.63,2.76c1.27.74,1.89,1.56,1.89,2.51,0,1.93-1.6,2.92-4.77,2.92-2.43,0-4.44-.29-6.09-.86l-.21,4.61c2.67.62,5.35.95,8.02.95,3.66,0,6.5-.66,8.43-1.93,2.02-1.27,3-3.08,3-5.51,0-1.56-.49-2.88-1.52-3.95-.74-.78-1.89-1.48-3.41-2.1l-3.29-1.27c-1.4-.66-2.1-1.44-2.1-2.34,0-1.11,1.27-1.69,3.78-1.69,1.48,0,2.84.16,4.07.53l-.25-4.32c-2.18-.53-4.11-.78-5.8-.78"></path>
      <path id="path38" class="st1" d="M175.81,53.67v-5.72h-8.39v28.46h9.01c5.3,0,9.17-.78,11.6-2.34,2.43-1.52,3.7-4.11,3.78-7.77.04-3.04-1.11-5.63-3.45-7.77-2.76-2.51-6.91-4.11-12.54-4.85ZM175.81,71.76v-12.91c2.02,0,3.7.74,5.14,2.26,1.48,1.52,2.22,3.25,2.22,5.18,0,2.26-.74,3.78-2.26,4.61-1.07.58-2.75.86-5.1.86"></path>
      <path id="path40" class="st0" d="M64.89,33.35h-24.88v24.88l24.88-24.88"></path>
      <path id="path42" class="st1" d="M82.12,52.8v-5.26c-5.72.16-10.32,1.52-13.9,4.11-3.74,2.67-5.63,6.13-5.63,10.45,0,4.73,2.1,8.39,6.29,11.06,3.58,2.3,8.02,3.54,13.24,3.7v-5.47c-2.47-.37-4.65-1.19-6.54-2.39-2.71-1.77-4.07-4.07-4.07-6.91,0-2.67,1.19-4.85,3.62-6.62,1.97-1.48,4.32-2.39,6.99-2.67"></path>
      <path id="path44" class="st0" d="M27.39,45.52h11.14v-11.14l-11.14,11.14"></path>
      <path id="path46" class="st0" d="M26.32,59.22h12.21v-12.17h-12.21v12.17Z"></path>
      <path id="path48" class="st0" d="M38.53,60.7h-11.14l11.14,11.14v-11.14"></path>
      <path id="path50" class="st0" d="M26.32,61.77v11.6l12.21,12.21v-11.6l-12.21-12.21"></path>
      <path id="path52" class="st0" d="M24.84,71.93v-23.85l-11.93,11.93,11.93,11.93"></path>
      <path id="path54" class="st0" d="M64.89,86.65l-24.88-24.88v24.88h24.88"></path>
    </g>
  </g>
  <metadata></metadata>
</svg>
