<?xml version="1.0" encoding="UTF-8"?>
<svg xmlns="http://www.w3.org/2000/svg" xmlns:i="http://ns.adobe.com/AdobeIllustrator/10.0/" id="Capa_1" version="1.1" viewBox="0 0 284.87 120">
  <defs>
    <style>
      .st0 {
        fill: #0d3591;
      }
    </style>
  </defs>
  <g id="g10">
    <path id="path57" class="st0" d="M249.61,66.9h-13.24c.12,13.8,14.08,15.58,18.97,15.58,9.54,0,19.92-3.69,19.92-14.87,0-7.85-6.08-10.71-12.17-12.37-6.08-1.78-12.29-2.38-12.53-5.47,0-2.38,2.98-2.86,4.77-2.86,1.43,0,2.86.24,3.94,1.07,1.07.71,1.91,1.78,1.67,3.45h12.53c-.36-10.47-8.71-13.92-18.01-13.92s-17.42,4.16-17.42,14.04c0,8.68,7.75,10.59,14.67,12.49,7.4,2.14,9.3,2.74,9.3,5,0,3.09-3.34,3.81-5.49,3.81-2.51,0-5.37-.48-6.44-3.09-.24-.71-.48-1.78-.48-2.86M80.35,67.26h0c0-2.62-1.91-3.69-4.89-3.69h-5.73v-8.09h4.41c3.46,0,4.89-1.31,4.89-3.69s-2.27-3.21-4.89-3.21h-5.96v22.48h6.8c3.34,0,5.37-.83,5.37-3.81M93.47,67.97h0c-.12,9.87-8.23,13.09-15.87,13.09h-23.26v-42.95h21.71c10.14,0,15.75,3.81,15.75,10.71,0,6.31-2.62,7.73-5.85,9.52,3.94,1.31,7.52,3.33,7.52,9.64M196.41,38.11h0v42.95h14.2v-19.99l13.12,19.99h17.18l-15.27-22.37,14.79-20.58h-16.34l-13.36,19.15h-.12v-19.15h-14.2ZM154.07,38.11h0v42.95h13.12v-23.2,1.43l13.6,21.77h13.48v-42.95h-13.48v22.48-.71l-13.6-21.77h-13.12ZM25.47,81.06h5.37v-42.95h-5.37v42.95ZM17.24,81.06h3.58v-42.95h-3.58v42.95ZM34.3,81.06h7.16v-42.95h-7.16v42.95ZM43.37,81.06h8.95v-42.95h-8.95v42.95ZM9.61,81.06h1.67v-42.95h-1.67v42.95ZM137.96,81.06h13.48v-42.95h-13.48v42.95ZM110.41,56.91h5.25c2.51,0,5.73-.71,5.73-4.28,0-2.5-1.31-4.28-6.44-4.28h-6.2v32.72h-13.12v-42.95h23.38c7.63,0,15.87,3.45,15.87,12.25,0,4.4-2.03,9.16-6.44,10.83,3.58,1.31,6.32,3.69,6.32,10.71,0,2.14-.48,6.42,1.31,9.16h-14.2c-1.07-1.78-.6-4.4-.72-6.54-.36-4.16-.12-8.45-5.37-8.45h-5.49l.12-9.16Z"></path>
  </g>
  <metadata></metadata>
</svg>
