<?xml version="1.0" encoding="UTF-8"?>
<svg xmlns="http://www.w3.org/2000/svg" xmlns:i="http://ns.adobe.com/AdobeIllustrator/10.0/" id="Capa_1" version="1.1" viewBox="0 0 285.65 120">
  <defs>
    <style>
      .st0 {
        fill: #e12233;
      }

      .st0, .st1, .st2 {
        fill-rule: evenodd;
      }

      .st1 {
        fill: #0091cf;
      }

      .st2 {
        fill: #0090cd;
      }
    </style>
  </defs>
  <g id="g4">
    <g id="g6">
      <g id="g8">
        <g id="g12">
          <path id="path14" class="st0" d="M36.14,30.81c1.95,0,3.54,2.54,3.54,5.68s-1.58,5.68-3.54,5.68-3.54-2.54-3.54-5.68,1.58-5.68,3.54-5.68ZM17.25,41.12c1.38-1.38,3.88-1.13,5.58.57,1.7,1.7,1.95,4.2.57,5.58-1.38,1.38-3.88,1.13-5.58-.57-1.7-1.7-1.95-4.2-.57-5.58ZM17.25,78.89c-1.38-1.38-1.13-3.88.57-5.58,1.7-1.7,4.2-1.95,5.58-.57,1.38,1.38,1.13,3.88-.57,5.58-1.7,1.7-4.2,1.95-5.58.57ZM55.02,78.89c-1.38,1.38-3.88,1.13-5.58-.57-1.7-1.7-1.95-4.2-.57-5.58,1.38-1.38,3.88-1.13,5.58.57s1.95,4.2.57,5.58ZM6.94,60c0-1.95,2.54-3.54,5.68-3.54s5.68,1.58,5.68,3.54-2.54,3.54-5.68,3.54-5.68-1.58-5.68-3.54ZM36.14,89.2c-1.95,0-3.54-2.54-3.54-5.68s1.58-5.68,3.54-5.68,3.54,2.54,3.54,5.68-1.58,5.68-3.54,5.68ZM65.33,60c0,1.95-2.54,3.54-5.68,3.54s-5.68-1.58-5.68-3.54,2.54-3.54,5.68-3.54,5.68,1.58,5.68,3.54ZM55.02,41.12c1.38,1.38,1.13,3.88-.57,5.58-1.7,1.7-4.2,1.95-5.58.57-1.38-1.38-1.13-3.88.57-5.58,1.7-1.7,4.2-1.95,5.58-.57Z"></path>
          <path id="path16" class="st0" d="M36.14,47.47c.92,0,1.67.88,1.67,1.96s-.75,1.96-1.67,1.96-1.67-.88-1.67-1.96.75-1.96,1.67-1.96ZM27.27,51.14c.65-.65,1.81-.56,2.57.2.77.77.86,1.92.2,2.57-.65.65-1.8.56-2.57-.2-.77-.77-.86-1.92-.2-2.57ZM27.27,68.86c-.65-.65-.56-1.8.2-2.57.77-.77,1.92-.86,2.57-.2.65.65.56,1.8-.2,2.57-.77.77-1.92.86-2.57.2ZM45,68.86c-.65.65-1.8.56-2.57-.2-.77-.77-.86-1.92-.2-2.57.65-.65,1.8-.56,2.57.2.77.77.86,1.92.2,2.57ZM23.6,60c0-.92.88-1.67,1.96-1.67s1.96.75,1.96,1.67c0,.92-.88,1.68-1.96,1.67-1.08,0-1.96-.75-1.96-1.67ZM36.14,72.54c-.92,0-1.67-.88-1.67-1.96s.75-1.96,1.67-1.96,1.67.88,1.67,1.96-.75,1.96-1.67,1.96ZM48.67,60c0,.92-.88,1.68-1.96,1.67-1.08,0-1.96-.75-1.96-1.67s.88-1.67,1.96-1.67,1.96.75,1.96,1.67ZM45,51.14c.65.65.56,1.81-.2,2.57-.77.77-1.92.86-2.57.2-.65-.65-.56-1.8.2-2.57.77-.77,1.92-.86,2.57-.2Z"></path>
          <g id="g18">
            <path id="path20" class="st2" d="M28.42,41.38c1.24-.51,2.8.43,3.5,2.1.69,1.67.25,3.45-.98,3.96-1.24.51-2.8-.43-3.5-2.1s-.25-3.45.98-3.96Z"></path>
            <path id="path22" class="st2" d="M17.51,52.29c.51-1.24,2.29-1.68,3.96-.98,1.67.69,2.62,2.26,2.1,3.5-.51,1.24-2.29,1.68-3.96.98-1.67-.69-2.62-2.26-2.1-3.5Z"></path>
            <path id="path24" class="st2" d="M17.51,67.72c-.51-1.24.43-2.8,2.1-3.5,1.67-.69,3.45-.25,3.96.98.51,1.24-.43,2.8-2.1,3.5-1.67.69-3.45.25-3.96-.98Z"></path>
            <path id="path26" class="st2" d="M28.42,78.62c-1.24-.51-1.68-2.29-.98-3.96.69-1.67,2.26-2.62,3.5-2.1,1.24.51,1.68,2.29.98,3.96-.69,1.67-2.26,2.62-3.5,2.1Z"></path>
            <path id="path28" class="st2" d="M43.85,78.62c-1.24.51-2.8-.43-3.5-2.1s-.25-3.45.98-3.96,2.8.43,3.5,2.1c.69,1.67.25,3.45-.98,3.96Z"></path>
            <path id="path30" class="st2" d="M54.76,67.71c-.51,1.24-2.29,1.68-3.96.98-1.67-.69-2.62-2.26-2.1-3.5.51-1.24,2.29-1.68,3.96-.98,1.67.69,2.62,2.26,2.1,3.5Z"></path>
            <path id="path32" class="st2" d="M54.76,52.29c.51,1.24-.43,2.8-2.1,3.5-1.67.69-3.45.25-3.96-.98-.51-1.24.43-2.8,2.1-3.5,1.67-.69,3.45-.25,3.96.98Z"></path>
            <path id="path34" class="st2" d="M43.85,41.38c1.24.51,1.68,2.29.98,3.96-.69,1.67-2.26,2.62-3.5,2.1-1.24-.51-1.68-2.29-.98-3.96.69-1.67,2.26-2.62,3.5-2.1Z"></path>
          </g>
          <path id="path36" class="st1" d="M23.49,29.83c1.12-.46,2.54.39,3.17,1.91.63,1.52.23,3.13-.89,3.59-1.12.46-2.54-.39-3.17-1.91-.63-1.52-.23-3.13.89-3.59Z"></path>
          <path id="path38" class="st1" d="M5.87,47.61c.46-1.12,2.07-1.52,3.59-.89,1.52.63,2.37,2.05,1.91,3.17-.46,1.12-2.07,1.52-3.59.89-1.52-.63-2.37-2.05-1.91-3.17Z"></path>
          <path id="path40" class="st1" d="M5.97,72.64c-.46-1.12.39-2.54,1.91-3.17,1.52-.63,3.13-.23,3.59.89.46,1.12-.39,2.54-1.91,3.17-1.52.63-3.13.23-3.59-.89Z"></path>
          <path id="path42" class="st1" d="M23.74,90.27c-1.12-.46-1.52-2.07-.89-3.59s2.05-2.37,3.17-1.91c1.12.46,1.52,2.07.89,3.59-.63,1.52-2.05,2.37-3.17,1.91Z"></path>
          <path id="path44" class="st1" d="M48.78,90.17c-1.12.46-2.54-.39-3.17-1.91-.63-1.52-.23-3.13.89-3.59s2.54.39,3.17,1.91c.63,1.52.23,3.13-.89,3.59Z"></path>
          <path id="path46" class="st1" d="M66.4,72.39c-.46,1.12-2.07,1.52-3.59.89-1.52-.63-2.37-2.05-1.91-3.17s2.07-1.52,3.59-.89c1.52.63,2.37,2.05,1.91,3.17Z"></path>
          <path id="path48" class="st1" d="M66.3,47.36c.46,1.12-.39,2.54-1.91,3.17-1.52.63-3.13.23-3.59-.89-.46-1.12.39-2.54,1.91-3.17,1.52-.63,3.13-.23,3.59.89Z"></path>
          <path id="path50" class="st1" d="M48.53,29.73c1.12.46,1.52,2.07.89,3.59-.63,1.52-2.05,2.37-3.17,1.91-1.12-.46-1.52-2.07-.89-3.59.63-1.52,2.05-2.37,3.17-1.91Z"></path>
          <path id="path52" class="st1" d="M82.98,52.48v5.32c.5.07,1.14.13,1.87.13,1.75,0,3.22-1.04,3.22-2.84s-1.56-2.52-2.74-2.69c-1.17-.16-1.86-.06-2.35.07ZM82.98,60.88v6.01s2.7.33,4.01-.12,2.29-1.66,2.11-3.24c-.18-1.58-1.57-2.7-3.33-2.76-.89-.03-1.96.04-2.79.11ZM79.98,70.03c-.42,0-.77-.32-.77-.7v-18.75c0-.39.35-.7.77-.7,0,0,4.06-.29,6.68.04,2.61.33,4.92,2.64,4.92,4.9s-1.34,3.71-2.29,4.16c0,0,2.47,1.16,3,3.21s.06,5.74-2.79,7.1c-2.85,1.37-9.51.74-9.51.74ZM94.83,56.66l.84,1.64c.2.39.43.52.77.32.59-.36,1.71-.83,2.82-.83,1.6,0,3.05.87,3.14,2.94-.54-.18-1.37-.4-2.35-.4-1.7,0-6.1.68-6.1,4.9s3.45,4.99,5.8,4.99,4.85-.68,5.82-1.37v-8.42c0-1.12-.33-2.9-1.58-3.99-1.18-1.03-5.02-2.92-8.76-.71-.55.32-.52.69-.4.92ZM102.4,63.8v3.15s-.91.6-2.53.6-2.78-.94-2.78-2.36,1.48-2.16,2.66-2.16,1.98.24,2.65.77ZM108.6,54.94h.8c.74,0,1.34.6,1.34,1.34v.55c.96-.9,2.48-1.92,4.37-1.92,3.39,0,4.51,3.18,4.51,5.15v9.03c0,.4-.32.72-.72.72h-2.04c-.4,0-.72-.32-.72-.72v-9.03c0-.27-.22-2.04-2.36-2.04-1.34,0-2.42,1.46-3.05,2.56v8.52c0,.4-.32.72-.72.72h-2.04c-.4,0-.72-.32-.72-.72v-12.81c0-.74.6-1.34,1.34-1.34h0ZM140.76,54.93c3.89,0,7.05,3.45,7.05,7.7s-3.16,7.7-7.05,7.7-7.05-3.45-7.05-7.7,3.16-7.7,7.05-7.7ZM140.76,57.8c1.82,0,3.29,2.16,3.29,4.83s-1.47,4.83-3.29,4.83-3.29-2.16-3.29-4.83,1.47-4.83,3.29-4.83ZM129.47,54.93c1.11,0,2.16.22,3.12.61.56.23.87.37.71.98l-.5,1.86c-.09.35-.31.46-.76.16-.69-.46-1.49-.73-2.36-.73-2.46,0-4.45,2.16-4.45,4.83s1.99,4.83,4.45,4.83c.83,0,1.61-.25,2.28-.68.56-.36.72-.33.85.1l.51,1.9c.06.23.06.58-.33.76-1.06.49-2.25.78-3.51.78-4.42,0-8-3.45-8-7.7s3.58-7.7,8-7.7ZM164.65,49.17c1.42,0,2.77.3,4.01.83.71.31,1.12.51.91,1.34l-.51,2.04c-.12.48-.4.62-.98.22-.89-.63-1.92-1.01-3.03-1.01-3.16,0-6.47,2.53-6.47,7.15s3.33,7.22,6.49,7.22c1.07,0,2.07-.34,2.92-.93.72-.49.92-.45,1.09.14l.51,2.03c.08.31.08.8-.42,1.04-1.37.67-2.89,1.07-4.51,1.07-5.68,0-10.28-4.74-10.28-10.58s4.6-10.58,10.28-10.58ZM188.01,55.65h-2.7c-.54,0-.98.44-.98.98v.72c0,.54.44.98.98.98h1.03v12.69c0,.61-.85.91-1.46.91s-1.12-.79-1.5-.31c-.39.48-1.15,1.46-1.32,1.7-.18.24.01.61.73,1,.71.39,1.63.67,2.88.67s2.55-.5,3.34-1.68c.79-1.18.67-2.36.67-3.19v-13.8c0-.37-.3-.68-.68-.68,0,0-.98,0-.98,0ZM187.17,49.42h.83c1.04,0,1.89.85,1.89,1.89v.24c0,1.04-.85,1.89-1.89,1.89h-.83c-1.04,0-1.89-.85-1.89-1.89v-.24c0-1.04.85-1.89,1.89-1.89ZM231.97,54.93c3.89,0,7.05,3.45,7.05,7.7s-3.16,7.7-7.05,7.7-7.05-3.45-7.05-7.7,3.16-7.7,7.05-7.7ZM231.97,57.8c1.82,0,3.29,2.16,3.29,4.83s-1.47,4.83-3.29,4.83-3.29-2.16-3.29-4.83,1.47-4.83,3.29-4.83ZM247.86,54.93c1.11,0,2.16.22,3.12.61.56.23.87.37.71.98l-.5,1.86c-.09.35-.31.46-.76.16-.69-.46-1.49-.73-2.36-.73-2.46,0-4.45,2.16-4.45,4.83s1.99,4.83,4.45,4.83c.83,0,1.61-.25,2.28-.68.56-.36.72-.33.85.1l.51,1.9c.06.23.06.58-.33.76-1.06.49-2.25.78-3.51.78-4.42,0-8-3.45-8-7.7s3.58-7.7,8-7.7ZM256.25,55.65h-2.7c-.54,0-.98.44-.98.98v.72c0,.54.44.98.98.98h1.03v10.74c0,.54.35.75.69.75h1.99c.46,0,.64-.33.64-.76v-12.74c0-.37-.31-.68-.68-.68h-.98ZM255.41,49.42h.83c1.04,0,1.89.85,1.89,1.89v.24c0,1.04-.85,1.89-1.89,1.89h-.83c-1.04,0-1.89-.85-1.89-1.89v-.24c0-1.04.85-1.89,1.89-1.89ZM171.33,56.66l.84,1.64c.2.39.43.52.77.32.59-.36,1.71-.83,2.82-.83,1.6,0,3.05.87,3.14,2.94-.54-.18-1.37-.4-2.35-.4-1.7,0-6.1.68-6.1,4.9s3.45,4.99,5.8,4.99,4.85-.68,5.82-1.37v-8.42c0-1.12-.33-2.9-1.58-3.99-1.18-1.03-5.02-2.92-8.76-.71-.55.32-.52.69-.4.92ZM178.9,63.8v3.15s-.91.6-2.53.6-2.78-.94-2.78-2.36,1.48-2.16,2.66-2.16,1.98.24,2.65.77ZM192.85,56.66l.84,1.64c.2.39.43.52.77.32.59-.36,1.71-.83,2.82-.83,1.6,0,3.05.87,3.14,2.94-.54-.18-1.37-.4-2.35-.4-1.7,0-6.1.68-6.1,4.9s3.45,4.99,5.8,4.99,4.85-.68,5.82-1.37v-8.42c0-1.12-.33-2.9-1.58-3.99-1.18-1.03-5.02-2.92-8.76-.71-.55.32-.52.69-.4.92ZM200.42,63.8v3.15s-.91.6-2.54.6-2.78-.94-2.78-2.36,1.48-2.16,2.66-2.16,1.98.24,2.65.77ZM260.35,56.66l.84,1.64c.2.39.43.52.77.32.59-.36,1.71-.83,2.82-.83,1.6,0,3.05.87,3.14,2.94-.54-.18-1.37-.4-2.35-.4-1.7,0-6.1.68-6.1,4.9s3.45,4.99,5.8,4.99,4.85-.68,5.82-1.37v-8.42c0-1.12-.33-2.9-1.58-3.99-1.18-1.03-5.02-2.92-8.76-.71-.55.32-.52.69-.4.92h0ZM267.92,63.8v3.15s-.91.6-2.54.6-2.78-.94-2.78-2.36,1.48-2.16,2.66-2.16,1.98.24,2.65.77ZM220.42,64.07c0-1.44-1.61-2.36-3.39-3.08-1.79-.72-4.45-2.03-5.28-3.73-.41-.84-.53-2.32-.25-3.32.56-2,2.25-3.31,4.13-4.03,1.15-.44,2.59-.5,3.95-.3,1.03.15,2.03.45,2.84.84.67.32.92.51.68,1.1-.25.59-.68,1.34-.8,1.57-.12.22-.28.54-.89.22-.74-.38-1.74-.8-2.66-.81-.81,0-1.7.05-2.36.4-1.78.94-1.69,2.54-.06,3.57,1.05.66,2.65,1.1,4.1,1.85,2.5,1.28,3.66,3.11,3.66,5.06s-.66,4.75-3.48,6.12c-1.58.77-3.3,1-4.71.97-.85-.02-1.71-.17-2.55-.41-.71-.21-1.41-.48-2.07-.8-.48-.23-.28-.46-.21-.69.13-.49.52-1.81.7-2.21.18-.4.5-.63,1.17-.22.67.41,1.7.92,3.4.92s2.8-.53,3.35-1.2c.54-.67.73-1.27.73-1.82h0ZM272.93,50.8c0-.74.6-1.34,1.34-1.34h.65c.74,0,1.34.6,1.34,1.34v14.38c0,1,.27,1.65,1.65,1.65h1.02c.54,0,.98.44.98.98v1.39c0,.54-.44.98-.98.98h-2.48c-2.19,0-3.52-1.5-3.52-3.47v-15.92Z"></path>
        </g>
      </g>
    </g>
  </g>
  <metadata></metadata>
</svg>
