<?xml version="1.0" encoding="UTF-8"?>
<svg xmlns="http://www.w3.org/2000/svg" xmlns:i="http://ns.adobe.com/AdobeIllustrator/10.0/" id="Capa_1" version="1.1" viewBox="0 0 283.3 120">
  <defs>
    <style>
      .st0 {
        fill: #004a93;
      }
    </style>
  </defs>
  <path class="st0" d="M29.37,62.89h-10.03l5.33-17.37,4.7,17.37ZM14.65,80.47l3.17-10.61h12.88l3.17,10.61h10.66l-11.35-40.22c-.63-2.64-1.9-3.48-4.7-3.48h-15.73v3.64h1.27c1.9,0,2.85.58,2.85,2.06,0,.9,0,1.53-.95,3.69l-11.35,34.31"></path>
  <path class="st0" d="M57.98,80.47v-40.49c0-2.11-1.27-3.22-3.43-3.22h-9.77v3.64h.63c1.9,0,2.85.79,2.85,2.48v37.58M75.56,80.47v-40.49c0-2.11-1.27-3.22-3.43-3.22h-9.77v3.64h.63c1.9,0,2.85.79,2.85,2.48v37.58"></path>
  <g>
    <path class="st0" d="M93.51,40.61c0-2.9-2.22-4.59-5.65-4.59-3.75,0-5.65,1.69-5.65,4.59s1.9,4.7,5.65,4.7c3.43,0,5.65-1.74,5.65-4.7M93.19,80.47v-29.51c0-2.06-1.27-3.22-3.17-3.22h-9.77v3.54h.63c1.9,0,2.53.79,2.53,2.59v26.6M116.41,64.58v6.55c-1.9,1.9-4.06,2.96-5.96,2.96s-2.85-.9-2.85-3.38c0-2.69.63-3.75,2.85-4.59,1.58-.63,3.17-1.06,5.96-1.53M102.58,56.77l.95-.37c2.53-1,4.06-1.37,5.96-1.74.95-.11,2.22-.26,2.85-.26,3.17,0,4.06,1.06,4.06,3.91v.79c-4.38.74-5.65.95-8.18,1.53-1.27.32-2.53.74-3.75,1.27-4.06,1.64-5.96,4.75-5.96,9.71,0,6.18,2.53,9.13,8.18,9.13,2.22,0,4.38-.53,5.96-1.53,1.58-.74,2.22-1.11,4.06-2.85v1c0,2.06.95,3.01,2.85,3.01h9.45v-3.38h-.32c-1.9,0-2.85-.84-2.85-2.53v-15.99c0-8.34-2.85-11.19-10.98-11.19-2.85,0-5.33.32-7.86.9-2.53.58-3.75,1.06-6.6,2.53M143.76,80.47v-22.17c2.22-2.06,3.75-2.85,5.96-2.85s2.85.95,2.85,4.28v20.74h9.77v-22.33c0-4.59-.63-6.55-1.9-8.29-1.58-1.69-3.43-2.48-6.28-2.48-3.75,0-6.6,1.37-10.98,5.17v-1.74c0-2.06-.95-3.06-2.85-3.06h-9.45v3.54h.32c1.9,0,2.85.79,2.85,2.59v26.6"></path>
    <g>
      <path class="st0" d="M192.48,74.32h-14.32l13.96-19.69v-6.8h-20.76c-2.51,0-3.58,1.07-3.58,3.58v6.08h3.58v-.72c0-1.79,1.07-2.51,2.86-2.51h7.52l-14.32,19.69v6.8h25.05"></path>
      <path class="st0" d="M247.96,78.61v-36.87c0-2.86-1.43-3.94-3.94-3.94h-8.59v3.94h1.07c1.43,0,2.15.72,2.15,2.51v34.36h9.31ZM252.97,78.61h8.95v-27.92c0-2.86-1.43-3.94-3.94-3.94h-5.01v31.86ZM233.64,78.61v-31.86h-5.01c-2.86,0-3.94,1.07-3.94,3.94v27.92h8.95ZM273.01,60c0,17.18-12.53,30.07-29.71,30.07s-29.71-12.53-29.71-30.07,12.53-30.07,29.71-30.07,29.71,12.89,29.71,30.07M278.74,60c0-20.4-15.03-35.43-35.43-35.43s-35.43,15.03-35.43,35.43,15.39,35.43,35.43,35.43c20.4,0,35.43-15.03,35.43-35.43"></path>
    </g>
  </g>
  <metadata></metadata>
</svg>
