<?xml version="1.0" encoding="UTF-8"?>
<svg xmlns="http://www.w3.org/2000/svg" xmlns:i="http://ns.adobe.com/AdobeIllustrator/10.0/" id="Capa_1" version="1.1" viewBox="0 0 233.22 120">
  <defs>
    <style>
      .st0 {
        fill: #c9002c;
      }
    </style>
  </defs>
  <g id="layer1">
    <g id="g183">
      <path id="path94-1" class="st0" d="M71.6,26.15c-1.29,0-2.58.06-3.86.19-3.76.37-7.48,1.28-10.91,2.87-1.54.72-3.01,1.58-4.36,2.62,1.22.94,2.34,2.03,3.25,3.28,1,1.37,1.72,2.95,2,4.63.46-1.54,1.52-2.83,2.76-3.81,1.37-1.08,2.96-1.84,4.6-2.37,1.95-.63,4-.94,6.05-.98,2.64-.05,5.31.33,7.79,1.26,1.59.6,3.11,1.42,4.37,2.57,1.01.92,1.85,2.06,2.22,3.38.32,1.1.27,2.3-.12,3.38-.4,1.11-1.12,2.09-1.98,2.89-.62.59-1.32,1.09-2.06,1.53-1.45.86-3.05,1.45-4.68,1.84-2.22.53-4.51.68-6.78.52-1.98-.15-3.94-.55-5.8-1.27-1.43-.56-2.81-1.31-3.98-2.31-1.09-.93-1.99-2.12-2.4-3.5-.15.86-.41,1.7-.77,2.5-.97,2.17-2.62,3.97-4.49,5.41,2.36,1.82,5.09,3.11,7.92,4.01,3.38,1.08,6.93,1.6,10.48,1.67,3.53.06,7.08-.32,10.5-1.24,3.27-.88,6.45-2.24,9.17-4.27,1.64-1.24,3.12-2.73,4.16-4.52.83-1.42,1.34-3.03,1.42-4.67v-.9c-.04-.71-.15-1.41-.34-2.09-.53-1.97-1.67-3.73-3.08-5.19-1.8-1.86-4.01-3.29-6.35-4.38-3.42-1.59-7.14-2.49-10.88-2.86-1.28-.12-2.57-.19-3.86-.18ZM32.4,26.15c-1.29,0-2.58.06-3.86.18-3.75.37-7.46,1.27-10.88,2.86-2.34,1.09-4.55,2.52-6.35,4.38-1.4,1.46-2.54,3.22-3.08,5.19-.19.68-.29,1.38-.34,2.09v.9c.08,1.64.59,3.25,1.42,4.67,1.04,1.79,2.51,3.28,4.16,4.52,2.73,2.03,5.9,3.39,9.17,4.27,3.42.91,6.96,1.3,10.5,1.24,3.55-.07,7.09-.59,10.48-1.67,2.83-.91,5.56-2.19,7.92-4.01-1.87-1.44-3.52-3.24-4.49-5.41-.36-.8-.62-1.64-.77-2.5-.42,1.38-1.32,2.57-2.4,3.5-1.17,1.01-2.54,1.75-3.98,2.31-1.85.72-3.82,1.12-5.8,1.27-2.27.16-4.57.01-6.78-.52-1.64-.39-3.23-.98-4.68-1.84-.74-.43-1.43-.94-2.06-1.53-.86-.8-1.58-1.78-1.98-2.89-.39-1.08-.44-2.27-.12-3.38.37-1.32,1.21-2.47,2.22-3.38,1.26-1.14,2.78-1.97,4.37-2.57,2.48-.93,5.15-1.31,7.79-1.26,2.05.05,4.1.35,6.05.98,1.65.53,3.24,1.3,4.6,2.37,1.24.98,2.31,2.27,2.76,3.81.28-1.68,1.01-3.26,2-4.63.91-1.25,2.03-2.34,3.25-3.28-1.34-1.04-2.82-1.9-4.36-2.62-3.43-1.6-7.16-2.5-10.91-2.87-1.28-.12-2.57-.19-3.86-.19ZM71.56,58.62c-2.75,0-5.49.29-8.18.87-2.22.49-4.41,1.19-6.48,2.15-1.56.73-3.07,1.6-4.44,2.66,1.25.97,2.4,2.09,3.32,3.39.96,1.35,1.66,2.89,1.94,4.53.46-1.55,1.54-2.85,2.79-3.83,1.63-1.27,3.56-2.11,5.55-2.64,3.06-.8,6.28-.91,9.4-.37,1.67.29,3.32.79,4.85,1.53,1.22.59,2.38,1.35,3.34,2.31.94.94,1.69,2.1,1.96,3.41.26,1.2.09,2.49-.45,3.6-.67,1.41-1.83,2.54-3.11,3.41-1.48,1-3.15,1.69-4.88,2.15-2.25.6-4.59.8-6.91.67-1.91-.11-3.8-.46-5.61-1.09-1.56-.55-3.06-1.31-4.34-2.36-1.16-.95-2.14-2.18-2.59-3.63-.09.32-.14.65-.23.97-.37,1.34-1.02,2.59-1.84,3.71-.89,1.22-1.99,2.28-3.19,3.2.5.38,1.02.75,1.55,1.09,3.04,1.93,6.49,3.15,10.01,3.86,4.55.9,9.25.97,13.83.24,3.6-.59,7.14-1.69,10.33-3.49,1.51-.86,2.93-1.87,4.17-3.09,1.16-1.14,2.17-2.46,2.85-3.94.54-1.16.85-2.43.92-3.71v-.9c-.1-1.92-.79-3.79-1.87-5.37-.89-1.33-2.03-2.48-3.28-3.47-1.36-1.08-2.87-1.98-4.44-2.72-3.52-1.66-7.36-2.59-11.22-2.95-1.24-.11-2.49-.17-3.74-.17ZM32.44,58.62c-1.25,0-2.5.06-3.74.17-3.87.36-7.7,1.29-11.22,2.95-1.57.75-3.08,1.64-4.44,2.72-1.25.99-2.39,2.14-3.28,3.47-1.08,1.58-1.78,3.45-1.87,5.37v.9c.06,1.28.38,2.54.92,3.71.68,1.48,1.68,2.8,2.85,3.94,1.24,1.21,2.66,2.23,4.17,3.09,3.19,1.8,6.73,2.9,10.33,3.49,4.58.73,9.28.66,13.83-.24,3.52-.71,6.96-1.93,10.01-3.86.53-.34,1.05-.7,1.55-1.09-1.2-.92-2.29-1.98-3.19-3.2-.82-1.12-1.47-2.37-1.84-3.71-.1-.32-.15-.65-.23-.97-.44,1.45-1.43,2.68-2.59,3.63-1.28,1.05-2.78,1.81-4.34,2.36-1.8.63-3.7.98-5.61,1.09-2.32.13-4.66-.07-6.91-.67-1.72-.46-3.4-1.15-4.88-2.15-1.28-.87-2.43-2-3.11-3.41-.53-1.11-.71-2.39-.45-3.6.28-1.31,1.02-2.48,1.96-3.41.96-.96,2.12-1.72,3.34-2.31,1.53-.74,3.18-1.23,4.85-1.53,3.11-.53,6.34-.43,9.4.37,1.99.53,3.92,1.36,5.55,2.64,1.26.98,2.33,2.28,2.79,3.83.28-1.64.98-3.18,1.94-4.53.92-1.29,2.07-2.42,3.32-3.39-1.37-1.06-2.87-1.93-4.44-2.66-2.07-.96-4.25-1.66-6.48-2.15-2.68-.59-5.43-.87-8.18-.87Z"></path>
      <path id="path39-5" d="M121.75,25.57c-.25.04-.48.18-.64.37-.8.88-1.6,1.77-2.4,2.65.36.42.72.84,1.08,1.25.89-.6,1.79-1.21,2.68-1.81.22-.16.47-.29.64-.51.2-.28.22-.66.12-.99-.17-.47-.58-.86-1.08-.97h-.39ZM109.53,26.14c-.69,0-1.38.07-2.05.21-.9.19-1.77.53-2.53,1.04-.83.54-1.54,1.26-2.11,2.07-1.09,1.54-1.56,3.45-1.56,5.33-.02,1.22.16,2.44.6,3.58.63,1.64,1.83,3.05,3.32,3.97,1.51.93,3.32,1.28,5.08,1.22,1.47-.04,2.9-.46,4.21-1.11-.27-.8-.53-1.6-.81-2.4-1.04.5-2.19.82-3.36.8-.99.01-2-.18-2.88-.66-.74-.4-1.38-1-1.83-1.71-.5-.78-.79-1.68-.91-2.59-.12-.88-.12-1.79.02-2.67.16-.95.54-1.87,1.14-2.62.5-.67,1.19-1.2,1.98-1.48.94-.34,1.97-.33,2.94-.14.91.17,1.79.48,2.63.85.34-.85.69-1.69,1.03-2.54-.73-.34-1.49-.61-2.28-.82-.86-.22-1.74-.34-2.63-.34ZM152.65,30.68c-.62,0-1.23.05-1.84.14-1.06.16-2.1.48-3.08.92.34.76.68,1.52,1.03,2.28,1.24-.55,2.62-.84,3.98-.73.42.05.86.12,1.19.39.32.25.45.78.19,1.12-.18.23-.44.38-.7.5-.57.25-1.18.36-1.78.5-.55.12-1.09.26-1.63.4-.74.2-1.5.42-2.12.91-.64.47-1.1,1.19-1.23,1.98-.13.7-.08,1.44.2,2.09.26.59.71,1.07,1.25,1.42.83.54,1.8.82,2.77.94,1.08.13,2.18.08,3.25-.1,1.11-.18,2.21-.46,3.29-.79-.1-.65-.2-1.31-.17-1.97v-4.73c0-.55.02-1.1-.02-1.65-.05-.79-.3-1.59-.82-2.2-.59-.7-1.46-1.11-2.34-1.28-.47-.09-.95-.13-1.43-.13ZM172.14,30.68c-.61,0-1.22.05-1.81.13-1.07.16-2.11.47-3.1.93.34.76.67,1.53,1.02,2.28,1.24-.55,2.61-.84,3.97-.74.44.05.91.13,1.25.44.29.27.39.77.13,1.09-.2.26-.5.41-.8.53-.6.25-1.25.35-1.88.5-.86.21-1.73.41-2.57.72-.73.3-1.41.79-1.81,1.48-.44.75-.53,1.66-.38,2.5.14.83.68,1.55,1.37,2.01.83.57,1.83.85,2.82.98,1.17.15,2.36.07,3.51-.14,1.03-.18,2.06-.44,3.06-.75-.06-.32-.1-.64-.13-.97-.07-.5-.03-1-.04-1.51,0-1.88,0-3.77,0-5.65-.02-.86-.26-1.75-.83-2.42-.59-.72-1.48-1.13-2.38-1.3-.47-.09-.94-.12-1.41-.13h0ZM164.95,30.68c-.93,0-1.86.12-2.76.34-1.04.25-2.04.6-3.03,1.01.11.69.23,1.37.24,2.07,0,3.08,0,6.15,0,9.23.99,0,1.99,0,2.98,0,0-2.71,0-5.42,0-8.13-.01-.54.03-1.08-.02-1.61,1.24-.39,2.6-.47,3.85-.08.3-.85.6-1.71.9-2.56-.7-.19-1.42-.28-2.15-.28h0ZM141.21,30.68c-.43,0-.86.03-1.28.09-1.03.16-2.02.53-2.92,1.04-.65-.65-1.55-.94-2.44-1.06-1.31-.18-2.64-.04-3.93.25-.99.23-1.97.53-2.91.91.06.39.09.79.13,1.18.03.63,0,1.25.01,1.88v8.35c.99,0,1.99,0,2.98,0v-7.85c0-.56.02-1.13-.03-1.69.85-.37,1.8-.6,2.72-.45.48.07.95.32,1.22.73.3.47.37,1.04.35,1.59,0,2.56,0,5.11,0,7.67.99,0,1.99,0,2.99,0v-7.9c0-.51-.01-1.02-.09-1.53.86-.44,1.85-.73,2.83-.55.42.08.83.28,1.09.63.32.41.42.94.43,1.45,0,2.63,0,5.26,0,7.9.99,0,1.99,0,2.98,0v-8.31c.02-.84-.12-1.71-.53-2.46-.43-.77-1.15-1.37-1.99-1.64-.53-.17-1.07-.25-1.63-.25h0ZM121.11,30.68c-1.65,0-3.3.37-4.81,1.06.34.76.69,1.52,1.02,2.28.8-.35,1.64-.59,2.5-.7.64-.07,1.3-.1,1.93.03.36.08.74.22.95.54.16.27.2.64,0,.9-.17.23-.43.38-.7.5-.43.19-.89.31-1.35.4-.79.18-1.57.36-2.35.58-.48.14-.96.28-1.4.53-.68.38-1.26.98-1.53,1.72-.24.67-.28,1.42-.13,2.12.16.7.59,1.33,1.16,1.76.6.47,1.33.76,2.06.95,1.34.33,2.74.3,4.09.1,1.16-.18,2.3-.47,3.42-.81-.14-.76-.21-1.52-.19-2.29v-4.82c0-.65.04-1.3-.11-1.94-.14-.63-.43-1.23-.89-1.68-.51-.53-1.19-.86-1.89-1.03-.6-.15-1.21-.2-1.82-.19ZM173.76,37.27c-.01.74,0,1.47,0,2.21,0,.43-.03.86.04,1.29-.53.17-1.08.28-1.64.32-.61.03-1.23.03-1.81-.16-.36-.12-.7-.35-.86-.71-.15-.36-.19-.79.02-1.14.18-.31.49-.52.81-.66.42-.15.86-.25,1.3-.37.57-.15,1.17-.24,1.71-.49.15-.08.32-.15.43-.29ZM122.84,37.28c-.01.72,0,1.43,0,2.15,0,.44-.02.89.05,1.33-.69.22-1.42.34-2.14.34-.45,0-.91-.04-1.34-.19-.24-.09-.47-.23-.64-.42-.25-.29-.33-.69-.28-1.05.04-.35.28-.64.57-.82.36-.25.8-.33,1.21-.45.57-.16,1.16-.26,1.73-.44.3-.11.62-.21.86-.44ZM154.27,37.3c0,.74,0,1.48,0,2.23,0,.41-.02.83.05,1.24-.54.17-1.1.28-1.67.32-.63.03-1.27.03-1.87-.2-.36-.13-.68-.4-.81-.77-.11-.32-.13-.69.03-1,.18-.35.53-.58.89-.73.57-.2,1.16-.33,1.74-.47.57-.14,1.18-.25,1.64-.64h0ZM209.83,47.59c-.15,0-.31.01-.46.04-.68.14-1.22.74-1.32,1.42-.07.44,0,.92.26,1.3.25.36.64.63,1.08.71.39.07.79.05,1.16-.09.42-.17.79-.49.97-.92.14-.33.14-.7.1-1.05-.09-.48-.42-.89-.82-1.15-.29-.18-.63-.26-.97-.26ZM109.58,47.79v6.17c-.67-.35-1.4-.57-2.15-.64-.99-.08-2.01.02-2.92.41-.79.33-1.48.89-2.01,1.57-.56.71-.95,1.56-1.15,2.44-.23,1-.26,2.03-.11,3.04.14.94.48,1.85,1.02,2.64.81,1.16,2,2.06,3.36,2.48.79.25,1.63.34,2.46.33,1.59-.03,3.17-.37,4.65-.93-.07-.49-.13-.99-.16-1.48,0-5.34,0-10.68,0-16.02h-2.98ZM139.36,48.77c-.24,0-.48,0-.72.03-.93.06-1.86.25-2.73.61-.81.34-1.56.83-2.2,1.44-1.27,1.21-2.11,2.83-2.43,4.54-.24,1.28-.26,2.6-.06,3.88.14.87.41,1.72.82,2.51.78,1.5,2.04,2.76,3.56,3.52.89.45,1.87.71,2.86.82,1.02.12,2.06.1,3.08-.1.96-.18,1.89-.51,2.76-.94-.27-.8-.52-1.6-.8-2.39-.82.39-1.71.66-2.61.76-.99.1-2,.01-2.94-.31-.89-.31-1.69-.89-2.26-1.64-.55-.72-.9-1.57-1.08-2.46-.19-.94-.22-1.92-.11-2.87.12-1.02.48-2.02,1.11-2.84.42-.58.98-1.08,1.63-1.39.92-.45,1.97-.52,2.98-.38,1.05.14,2.06.49,3.02.91.34-.85.68-1.7,1.02-2.55-1.53-.7-3.2-1.14-4.89-1.14ZM171.1,53.29c-1.43,0-2.84.44-4.09,1.14-.69-.71-1.7-.99-2.65-1.09-1.15-.12-2.31-.02-3.43.23-1.08.23-2.14.57-3.18.97.08.58.17,1.16.15,1.74,0,3.22,0,6.45,0,9.67,1,0,2,0,3,0,0-2.66,0-5.31,0-7.97,0-.52.02-1.04-.06-1.55.92-.41,1.97-.66,2.96-.42.38.1.74.32.96.65.3.44.38.99.38,1.51,0,2.6,0,5.19,0,7.79,1,0,2,0,2.99,0,0-2.66,0-5.31,0-7.97-.02-.48,0-.97-.1-1.45.88-.43,1.88-.75,2.87-.55.43.09.85.32,1.1.69.28.41.37.92.39,1.4,0,2.63,0,5.25,0,7.88,1,0,2,0,3,0,0-2.67,0-5.35,0-8.02,0-.58-.02-1.17-.16-1.74-.2-.81-.64-1.57-1.31-2.08-.72-.56-1.64-.79-2.54-.81-.1,0-.19,0-.29,0h0ZM182.28,53.29c-.61,0-1.21.08-1.79.25-.85.25-1.63.74-2.23,1.39-.57.61-1,1.34-1.27,2.13-.36,1.03-.45,2.12-.41,3.2.05.82.2,1.64.53,2.4.41.95,1.07,1.8,1.91,2.41.63.46,1.36.78,2.12.96,1,.23,2.03.24,3.05.11,1.03-.13,2.03-.43,2.99-.84-.31-.77-.63-1.54-.95-2.31-.97.44-2.04.64-3.1.64-.86.01-1.8-.16-2.45-.76-.57-.51-.81-1.27-.9-2.01,2.66,0,5.32,0,7.99,0,.06-.36.1-.72.14-1.08.08-.69.03-1.39-.09-2.08-.21-1.18-.79-2.31-1.7-3.11-.76-.68-1.74-1.09-2.75-1.23-.36-.05-.72-.07-1.09-.07ZM194.99,53.29c-.94,0-1.88.12-2.78.35-1.02.25-2.02.6-2.98,1.01.07.57.19,1.14.21,1.71,0,3.19,0,6.39,0,9.58,1,0,1.99,0,2.99,0,0-2.75,0-5.5,0-8.25-.01-.5.03-1.01-.03-1.51,1.24-.35,2.6-.45,3.84-.06.3-.86.61-1.71.9-2.56-.71-.19-1.43-.27-2.16-.28h0ZM119.64,53.29c-.24,0-.48.01-.72.03-.75.07-1.48.28-2.14.66-.57.32-1.07.76-1.48,1.28-.84,1.04-1.26,2.36-1.37,3.68-.12,1.39.03,2.84.67,4.1.62,1.2,1.66,2.17,2.91,2.69,1.18.49,2.49.57,3.75.44,1.11-.11,2.2-.42,3.23-.86-.3-.78-.63-1.54-.95-2.31-1.12.51-2.38.7-3.61.63-.77-.06-1.57-.32-2.1-.91-.46-.51-.66-1.19-.74-1.85,2.66,0,5.33,0,7.99,0,.11-.78.24-1.57.15-2.36-.06-.72-.21-1.43-.5-2.09-.43-1-1.17-1.86-2.11-2.39-.91-.52-1.96-.72-3-.72ZM219.18,53.29c-.27,0-.55,0-.82.03-.99.09-1.96.4-2.78.97-1.14.79-2,1.97-2.38,3.31-.3,1.03-.35,2.12-.23,3.18.1.87.35,1.73.8,2.49.36.62.84,1.18,1.39,1.64.75.62,1.66,1.03,2.61,1.2.92.17,1.87.16,2.79-.01.83-.16,1.63-.49,2.31-.99,1.2-.88,2.03-2.23,2.32-3.68.09-.42.14-.84.16-1.26v-.77c-.04-.99-.25-1.97-.7-2.86-.64-1.25-1.72-2.29-3.03-2.8-.77-.3-1.59-.43-2.41-.44ZM150.35,53.29c-.26,0-.53.01-.79.04-.55.05-1.09.17-1.6.37-1.37.51-2.49,1.6-3.15,2.9-.5,1.01-.7,2.15-.68,3.26.01,1.02.2,2.05.64,2.98.66,1.37,1.85,2.5,3.29,3.01,1.09.39,2.27.45,3.41.29,1.03-.14,2.02-.55,2.83-1.21.61-.51,1.13-1.13,1.51-1.84.49-.91.73-1.94.76-2.97.05-1.09-.09-2.2-.52-3.21-.62-1.47-1.84-2.71-3.35-3.25-.75-.28-1.54-.39-2.34-.38ZM202.65,53.29c-.78,0-1.56.08-2.3.32-1.57.49-2.91,1.66-3.6,3.14-.42.9-.61,1.89-.61,2.88-.02,1.14.2,2.31.75,3.32.76,1.37,2.08,2.41,3.56,2.9,1.07.35,2.22.43,3.34.31,1.01-.11,1.99-.4,2.91-.81-.29-.79-.58-1.57-.88-2.35-1.15.42-2.38.79-3.61.55-.83-.15-1.58-.64-2.08-1.31-.61-.79-.87-1.81-.81-2.79.02-.98.41-1.97,1.12-2.66.57-.59,1.39-.89,2.2-.9,1.08-.02,2.14.3,3.14.69.3-.8.61-1.6.91-2.41-1.04-.45-2.15-.76-3.28-.85-.26-.02-.52-.03-.78-.03ZM208.37,53.57c0,4.13,0,8.25,0,12.38,1,0,2,0,2.99,0,0-4.13,0-8.25,0-12.38-1,0-2,0-2.99,0h0ZM182.29,55.77s.08,0,.12,0c.76,0,1.55.33,1.96.99.34.52.49,1.14.5,1.76-1.7,0-3.39,0-5.09,0,.04-.79.34-1.59.93-2.13.41-.41,1-.61,1.58-.61ZM119.81,55.77c.65.02,1.3.27,1.72.77.45.55.65,1.28.66,1.98-1.7,0-3.39,0-5.09,0,.04-.72.29-1.43.77-1.97.44-.52,1.13-.79,1.8-.78.04,0,.09,0,.13,0h0ZM107.57,55.89c.71,0,1.44.15,2.01.58,0,2.11,0,4.22,0,6.33-.01.21.02.42.05.62-.54.16-1.1.22-1.65.21-.71.01-1.44-.14-2.03-.55-.66-.46-1.11-1.19-1.31-1.97-.21-.86-.21-1.77-.05-2.64.16-.79.52-1.59,1.2-2.07.47-.34,1.06-.49,1.64-.5.05,0,.09,0,.14,0ZM150.34,55.89c.48,0,.97.1,1.39.35.69.42,1.11,1.17,1.32,1.93.25.92.26,1.89.1,2.82-.14.78-.49,1.56-1.1,2.09-.38.33-.88.52-1.38.56-.58.05-1.2-.03-1.71-.33-.6-.35-1-.97-1.23-1.61-.24-.68-.31-1.41-.3-2.13.03-.96.24-1.95.83-2.73.38-.51.97-.84,1.59-.93.16-.02.32-.03.48-.03ZM219.11,55.89c.47,0,.93.09,1.34.32.54.3.91.81,1.16,1.36.3.66.4,1.39.42,2.11,0,.83-.09,1.68-.47,2.43-.22.43-.51.84-.91,1.11-.37.26-.81.4-1.25.43-.58.04-1.18-.04-1.68-.35-.58-.35-.97-.94-1.2-1.56-.26-.71-.32-1.48-.3-2.24.03-.95.26-1.94.87-2.7.38-.48.95-.8,1.56-.88.15-.02.31-.03.46-.03ZM109.58,70.42v6.16c-.84-.45-1.8-.68-2.75-.65-1.11-.03-2.24.25-3.16.88-.72.5-1.3,1.18-1.72,1.95-.66,1.21-.87,2.62-.79,3.99.05.86.25,1.71.63,2.48.76,1.57,2.2,2.79,3.87,3.3,1.27.39,2.62.37,3.92.19,1.07-.15,2.12-.43,3.14-.8-.1-.73-.18-1.47-.16-2.21v-15.29h-2.98ZM136.24,71.37c-1.47,0-2.94.22-4.39.49,0,5.52,0,11.03,0,16.55,1.99.39,4.03.56,6.05.35.98-.11,1.97-.31,2.87-.73.77-.36,1.46-.91,1.89-1.64.52-.86.66-1.89.6-2.88-.07-.95-.45-1.89-1.12-2.57-.54-.57-1.27-.93-2.02-1.11.15-.09.32-.15.47-.24.84-.47,1.52-1.24,1.85-2.14.31-.81.27-1.71.09-2.55-.18-.83-.63-1.61-1.29-2.15-.85-.71-1.94-1.05-3.01-1.22-.67-.1-1.33-.15-2-.15h0ZM186.46,72.81c-1,0-1.99,0-2.99,0,0,1.14,0,2.28,0,3.42-.47.05-.94.06-1.41.09,0,.79,0,1.57,0,2.36.47.04.94.05,1.41.09,0,1.99,0,3.99,0,5.98,0,.6-.04,1.2.09,1.8.13.74.53,1.44,1.17,1.85.85.56,1.92.65,2.91.62,1.02-.08,2.02-.36,2.98-.7-.28-.8-.55-1.61-.82-2.41-.51.17-1.03.33-1.57.42-.39.06-.8.12-1.18-.02-.21-.07-.4-.23-.49-.44-.11-.25-.1-.53-.1-.8,0-2.1,0-4.19,0-6.29,1.16,0,2.31,0,3.47,0v-2.59c-1.16,0-2.31,0-3.47,0v-3.38ZM136.3,74.05c.64.03,1.3.04,1.92.24.42.12.78.42.99.8.21.38.27.82.26,1.25-.02.45-.13.92-.42,1.28-.32.41-.82.65-1.32.76-.91.21-1.86.11-2.79.14,0-1.44,0-2.89,0-4.33.45-.08.9-.11,1.36-.14ZM119.7,75.93c-.82,0-1.63.11-2.39.43-1.05.43-1.9,1.25-2.47,2.22-.58.98-.85,2.11-.91,3.24-.07,1.24.07,2.53.61,3.67.68,1.45,1.98,2.59,3.51,3.05,1.12.35,2.32.37,3.48.23,1.03-.13,2.03-.43,2.98-.84-.3-.78-.64-1.54-.95-2.31-.85.38-1.76.59-2.69.63-.44.04-.89.01-1.33-.06-.56-.09-1.11-.3-1.53-.69-.57-.51-.82-1.28-.91-2.02,2.66,0,5.33,0,7.99,0,.04-.27.07-.54.1-.81.15-1.07.05-2.18-.29-3.21-.32-.95-.9-1.82-1.7-2.44-.77-.61-1.74-.95-2.71-1.06-.27-.03-.54-.04-.81-.04h0ZM175.36,75.93c-.28,0-.56.02-.83.04-1.16.11-2.3.54-3.18,1.31-.74.63-1.33,1.44-1.69,2.34-.36.87-.49,1.81-.51,2.74,0,1.02.16,2.05.59,2.98.69,1.55,2.07,2.8,3.72,3.25,1.04.29,2.15.32,3.21.15.84-.14,1.65-.46,2.35-.95.77-.54,1.4-1.28,1.83-2.11.43-.82.66-1.75.72-2.67.08-1.17-.05-2.38-.51-3.47-.6-1.43-1.77-2.65-3.24-3.2-.78-.3-1.62-.41-2.45-.41ZM150.11,75.93c-.26,0-.53.02-.79.04-.64.06-1.27.22-1.86.47-1.49.64-2.63,1.98-3.15,3.51-.37,1.08-.45,2.25-.33,3.38.1.98.4,1.94.93,2.77.75,1.19,1.93,2.11,3.29,2.48,1.1.31,2.28.33,3.4.12.89-.18,1.75-.56,2.46-1.13.66-.53,1.2-1.2,1.58-1.94.41-.8.63-1.69.7-2.58.08-1.13-.03-2.29-.44-3.35-.6-1.56-1.87-2.88-3.46-3.42-.75-.27-1.54-.36-2.33-.36ZM162.5,75.93c-.79,0-1.59.15-2.31.47-.8.36-1.52.92-2.02,1.65-.5.74-.72,1.63-.7,2.52-.02.87.2,1.76.68,2.49.42.64,1.03,1.14,1.7,1.5-.25.22-.49.47-.65.77-.2.37-.26.8-.17,1.21.07.36.24.69.45.98-.83.25-1.66.65-2.21,1.35-.57.71-.7,1.67-.55,2.55.12.64.48,1.22.97,1.64.64.56,1.45.88,2.26,1.09.62.16,1.26.25,1.9.29h1.65c1.03-.07,2.06-.27,3-.69.68-.31,1.32-.74,1.76-1.36.53-.74.68-1.7.53-2.59-.11-.68-.48-1.31-1.02-1.72-.6-.47-1.34-.71-2.08-.87-.6-.14-1.2-.24-1.81-.34-.59-.1-1.2-.17-1.76-.4-.2-.09-.42-.2-.52-.41-.09-.17,0-.38.14-.5.19-.15.43-.26.67-.29.55-.05,1.09-.09,1.64-.17.84-.19,1.65-.57,2.3-1.14.52-.44.94-1.01,1.19-1.66.24-.61.33-1.26.3-1.91-.04-.76-.36-1.46-.72-2.12.55.18,1.13.27,1.71.22,0-.76,0-1.53,0-2.29-1.31,0-2.63,0-3.94,0-.57.02-1.11-.18-1.66-.23-.19-.02-.39-.03-.58-.03-.05,0-.11,0-.16,0h0ZM196.76,75.93c-.24,0-.48,0-.72,0-1.47.07-2.93.42-4.26,1.05.34.75.68,1.51,1.02,2.27,1.26-.54,2.64-.83,4.01-.71.4.04.83.12,1.16.37.28.2.41.59.31.92-.08.25-.29.42-.51.55-.42.24-.88.38-1.35.49-1.01.22-2.02.45-3.01.76-.7.21-1.38.55-1.89,1.09-.54.55-.84,1.32-.87,2.09-.04.63.05,1.29.37,1.84.35.64.94,1.12,1.57,1.46.94.47,1.99.69,3.03.73,1.13.07,2.26-.08,3.36-.3.84-.17,1.67-.39,2.49-.65-.06-.41-.12-.83-.16-1.25-.02-.41,0-.83-.01-1.24v-4.5c0-.51.02-1.01-.03-1.52-.07-.77-.34-1.53-.86-2.12-.62-.7-1.53-1.08-2.44-1.23-.4-.07-.8-.09-1.2-.1h0ZM119.73,78.39c.65,0,1.3.22,1.75.71.5.55.7,1.31.71,2.04-1.7,0-3.39,0-5.09,0,.04-.59.2-1.19.54-1.68.33-.5.85-.89,1.44-1.01.21-.04.42-.06.64-.06ZM162.65,78.46c.31,0,.63.05.93.14.46.15.89.45,1.14.88.28.48.33,1.07.25,1.61-.07.46-.3.89-.65,1.19-.65.55-1.58.66-2.39.47-.7-.17-1.32-.7-1.51-1.41-.16-.6-.13-1.27.17-1.82.33-.59.98-.95,1.63-1.02.14-.02.28-.03.43-.03ZM150.12,78.52c.49,0,.98.09,1.4.34.61.36,1,.99,1.24,1.64.23.65.3,1.36.29,2.05-.01.85-.16,1.72-.6,2.45-.28.47-.7.88-1.22,1.09-.45.19-.94.22-1.42.18-.49-.05-.97-.23-1.35-.54-.63-.54-.98-1.34-1.12-2.14-.09-.56-.13-1.12-.08-1.69.05-.92.32-1.86.94-2.56.4-.46.98-.73,1.59-.79.11-.01.22-.02.34-.02ZM175.43,78.52c.44,0,.88.1,1.27.31.57.31.97.88,1.21,1.47.26.62.36,1.3.37,1.97.02,1.01-.14,2.07-.72,2.91-.37.55-.97.95-1.63,1.06-.66.1-1.37.04-1.95-.31-.54-.32-.91-.86-1.15-1.43-.23-.58-.33-1.2-.35-1.82-.04-1.07.11-2.21.75-3.11.4-.58,1.06-.96,1.76-1.03.14-.01.29-.02.44-.02ZM107.51,78.52s.06,0,.1,0c.69,0,1.42.15,1.98.59,0,2.17,0,4.34,0,6.51,0,.14.03.28.05.41-.52.19-1.07.2-1.61.23-.67,0-1.35-.12-1.93-.47-.6-.36-1.05-.94-1.3-1.59-.26-.69-.34-1.43-.31-2.16.03-.69.15-1.39.47-2.01.25-.51.65-.94,1.16-1.2.43-.22.92-.32,1.4-.32h0ZM136.15,81.19c.67,0,1.34.02,2,.18.43.11.85.28,1.19.57.34.28.57.68.66,1.1.11.51.1,1.06-.1,1.54-.18.44-.54.79-.97,1.01-.71.37-1.53.46-2.32.49-.56.02-1.13-.02-1.68-.13,0-1.59,0-3.17,0-4.76.4,0,.8,0,1.21,0h0ZM198.32,82.53c-.01.72,0,1.45,0,2.17,0,.44-.03.88.04,1.31-1,.29-2.07.45-3.1.25-.46-.09-.93-.3-1.16-.72-.18-.36-.23-.81-.05-1.18.19-.38.58-.59.96-.74.59-.2,1.2-.35,1.81-.49.52-.13,1.07-.26,1.5-.6ZM161.12,88.88s.01,0,.02,0c.04,0,.09.02.14.02.58.09,1.16.19,1.74.28.43.07.87.12,1.29.25.47.15.98.31,1.32.7.22.25.21.61.12.91-.11.34-.4.6-.72.75-.55.27-1.16.34-1.76.38-.74.03-1.49,0-2.21-.16-.42-.1-.84-.23-1.18-.49-.26-.19-.46-.49-.46-.81-.03-.44.16-.87.47-1.17.33-.31.75-.51,1.17-.66.02,0,.04-.01.06-.01h0Z"></path>
    </g>
  </g>
  <metadata></metadata>
</svg>
