<?xml version="1.0" encoding="UTF-8"?>
<svg xmlns="http://www.w3.org/2000/svg" xmlns:i="http://ns.adobe.com/AdobeIllustrator/10.0/" id="Capa_1" version="1.1" viewBox="0 0 282.43 120">
  <path d="M6.1,38.66c-.88.49-.83-.58-.83,18.45,0,11.38.06,17.7.16,18.32.2,1.31.71,2.32,1.64,3.3,1.55,1.63,3.11,2.09,6.85,2,2.09-.04,2.19-.06,2.45-.39.26-.32.27-.65.27-6.76,0-3.53.06-6.79.14-7.25.52-3.24,3.24-5.34,6.53-5.09,3.45.27,6.26,1.93,11.31,6.65,3.11,2.92,7.5,6.76,8.68,7.61,3.66,2.62,6.49,3.02,9.83,1.4,1.89-.92,3.41-2.13,8.59-6.85,1.57-1.42,3.44-3.12,4.16-3.78,1.94-1.77,3.6-2.96,5.22-3.77,3.02-1.5,5.93-1.68,7.91-.52.91.55,1.91,1.65,2.42,2.68l.46.92.09,5.05c.07,4.65.1,5.09.37,5.86.83,2.24,2.71,3.78,5.07,4.14.56.09,1.99.14,3.19.12,2.09-.04,2.19-.06,2.45-.39.27-.33.27-.76.24-18.71l-.04-18.38-.55-1.09c-.91-1.84-2.58-3.09-4.59-3.42-1.44-.23-7.35-.19-7.96.06-.27.12-3.28,2.85-6.94,6.3-7.44,7.02-7.9,7.43-9.54,8.53-6.33,4.24-15.05,5.38-22.59,2.94-2.89-.94-6.3-2.85-8.35-4.69-.52-.46-3.07-2.83-5.68-5.3-6.5-6.1-6.56-6.16-7.81-6.82-2.2-1.14-2.65-1.21-8.02-1.27-4.07-.04-4.81-.01-5.14.17Z"></path>
  <path d="M189.55,38.88l-.4.32.06,10.61c.04,10.3.06,10.63.36,11.99.86,3.78,2.68,7.43,5.32,10.66,3.6,4.39,8.86,7.57,14.46,8.75,1.77.37,5.3.45,7.01.14,4.32-.76,8.49-3.24,10.97-6.49,1.42-1.87,2.91-5.44,3.34-8.03.56-3.31.56-3.37.36-3.51-.12-.07-1.97-.1-4.23-.09-4,.04-4.03.04-4.82.42-1.14.53-1.67,1.15-2.46,2.82-.83,1.77-1.7,2.73-3.05,3.37-2.42,1.12-4.85.86-7.66-.81-1.83-1.09-3.3-2.3-4.46-3.71-2.39-2.88-3.67-5.96-3.67-8.79,0-2.32.5-3.61,1.97-5.14,1.54-1.6,3.47-2.22,5.89-1.87,1.91.27,3.21.83,5.28,2.29,1.58,1.11,2.92,1.3,4.36.6.96-.47,6.1-5.54,6.1-6.01,0-.42-.89-1.3-2.75-2.69-3.4-2.56-6.78-4.06-10.71-4.78-1.09-.2-2.82-.24-11.08-.29l-9.79-.06-.4.3Z"></path>
  <path d="M236.46,38.72c-1.31.19-1.18-2.06-1.18,21.04v20.45l.35.27c.68.55,4.3.27,6.14-.47,1.4-.56,2.46-1.37,4.76-3.61,2.6-2.53,3.17-2.86,5.08-2.95,1.48-.07,3.38.26,4.82.82.56.23,3.96,1.64,7.55,3.15,3.61,1.51,7.14,2.92,7.84,3.12.92.27,1.77.4,2.95.46,1.53.07,1.68.06,2.01-.22l.36-.29v-3.01c0-2.69-.03-3.09-.32-4-.56-1.78-1.93-3.51-3.5-4.43-.36-.2-1.45-.71-2.45-1.11-2.43-1.01-3.73-1.7-5.22-2.81-1.41-1.05-2.01-1.84-2.27-3.04-.2-.89-.03-2,.43-2.71.16-.23,2.89-3.08,6.1-6.35,5.61-5.71,5.84-5.99,6.42-7.14.99-2.03,1.09-4.1.27-5.57s-1.89-1.86-4.58-1.7c-1.81.1-2.88.36-4.32,1.04-1.05.49-1.38.82-10.97,10.42l-9.89,9.91-.04-8.16-.06-8.16-.33-.86c-.89-2.26-2.66-3.73-4.92-4.09-.99-.17-3.96-.17-5.07-.03Z"></path>
  <path d="M144.19,38.91c-.16.09-.33.23-.39.32s-.12,9.4-.12,20.68c0,18.25.03,20.55.22,20.71.13.1.76.24,1.41.33,1.5.19,3.63-.14,4.92-.75,2.07-.98,3.83-3.34,4.49-6.04.2-.81.24-2.46.32-11.38l.09-10.43.33-.69c.4-.79,1.02-1.35,2.14-1.89,2.99-1.47,8.75-.89,12.32,1.22,3.07,1.81,4.69,5.08,3.53,7.05-1.01,1.71-2.96,2.62-5.66,2.62-1.57,0-2.36-.16-5.22-1.01-3.01-.91-2.79-1.14-2.73,3.19.04,3.09.06,3.35.37,4.03.19.39.5.91.72,1.14.43.46,14.03,11.2,14.92,11.79.32.2.96.52,1.44.71.82.3,1.11.32,6.29.37l5.42.04.37-.36c.35-.35.36-.43.36-2.07v-1.7l-.53-.5c-.3-.27-.91-.66-1.34-.85-1.4-.62-3.15-1.73-5.17-3.24-2.63-2-5.09-4-5.15-4.17-.03-.09.42-.42.99-.75,4.72-2.69,6.91-5.63,7.12-9.55.2-3.61-1.04-6.73-4.1-10.3-3.78-4.42-11.47-7.96-18.52-8.53-2.59-.2-18.48-.19-18.85.03Z"></path>
  <path d="M98.15,39.02c-.69.27-.66-.07-.6,10.89.04,10.07.06,10.38.37,11.77,1.05,4.71,3.27,8.82,6.63,12.36,3.22,3.38,8.02,5.91,12.88,6.81,1.11.2,2.79.24,11.4.29l10.1.06.3-.3c.3-.3.32-.4.26-3.21-.04-2.43-.1-3.01-.33-3.55-.65-1.55-1.96-2.98-3.35-3.64l-.96-.46-7.91-.09c-8.58-.09-8.49-.07-10.82-.96-1.54-.59-4.29-2.91-5.37-4.53-.85-1.27-1.7-3.14-2.03-4.48-.36-1.47-.5-4.04-.29-5.19.36-1.96,1.6-3.57,3.37-4.39,1.34-.63,3.55-.95,5.09-.73,2.23.32,4.42,1.19,6.37,2.58,1.11.78,4.35,3.9,4.23,4.07-.04.07-3.07.13-6.73.13-7.86,0-7.21-.16-7.11,1.7.19,3.24,3.21,6.33,6.86,7.02.95.17,2.4.22,8.32.17,6.98-.04,7.18-.06,7.93-.36,1.17-.47,1.68-.95,2.22-2.01.43-.88.47-1.11.52-2.49.12-3.02-.76-5.87-2.86-9.32-2.6-4.24-6.73-7.91-11.28-10.03-2.79-1.31-4.96-1.86-8.09-2.09-2.37-.17-18.69-.17-19.11,0Z"></path>
  <metadata></metadata>
</svg>
