<?xml version="1.0" encoding="UTF-8"?>
<svg xmlns="http://www.w3.org/2000/svg" xmlns:i="http://ns.adobe.com/AdobeIllustrator/10.0/" id="Capa_1" version="1.1" viewBox="0 0 257.48 120">
  <defs>
    <style>
      .st0 {
        fill: #004679;
        fill-rule: evenodd;
      }
    </style>
  </defs>
  <path class="st0" d="M133.69,32.79c-1.58,0-3.17,0-4.76,0-.15,0-.31,0-.46,0-.46.05-.79.4-.76.86.01.23.1.46.21.67,1.12,2.12,2.26,4.24,3.39,6.36,9.48,17.74,18.96,35.48,28.44,53.23.34.63.66,1.27,1.02,1.89.34.59,1,.79,1.59.51.31-.15.48-.42.63-.71,1.71-3.2,3.42-6.4,5.13-9.6,8.21-15.37,16.42-30.74,24.64-46.11,1.01-1.89,2.02-3.79,3.04-5.68.43-.79-.16-1.45-.81-1.44-3.36.02-6.72.01-10.07.01-.51,0-.88.22-1.12.66-.11.19-.21.39-.31.59-6.81,12.97-13.62,25.93-20.44,38.9-.09.17-.17.34-.28.49-.5.65-1.45.64-1.94-.01-.1-.14-.18-.29-.26-.44-1.1-2.1-2.2-4.19-3.31-6.29-5.79-11.02-11.59-22.04-17.38-33.06-.3-.58-.72-.85-1.38-.84-1.6.02-3.2,0-4.81,0Z"></path>
  <path class="st0" d="M244.42,87.21c1.57,0,3.14,0,4.7,0,.15,0,.31,0,.46,0,.6-.06.96-.62.75-1.19-.06-.17-.16-.34-.25-.5-4.25-7.96-8.51-15.93-12.76-23.89-6.61-12.38-13.23-24.76-19.84-37.14-.07-.14-.14-.27-.23-.4-.48-.69-1.47-.7-1.96-.02-.1.14-.17.29-.25.44-4.49,8.4-8.98,16.79-13.46,25.19-6.38,11.94-12.76,23.89-19.14,35.83-.07.14-.15.27-.21.41-.25.6.1,1.2.75,1.26.15.01.31,0,.46,0,1.93,0,3.85,0,5.78,0,1.24,0,2.49-.02,3.73,0,.73.02,1.21-.26,1.49-.92,0-.02.02-.03.02-.05,5.54-10.54,11.07-21.08,16.61-31.62,1.35-2.58,2.71-5.15,4.06-7.74.25-.48.6-.8,1.15-.8.57,0,.95.31,1.19.82.18.37.38.72.57,1.09,6.71,12.77,13.43,25.54,20.13,38.31.33.64.78.93,1.5.91,1.58-.03,3.17,0,4.75,0Z"></path>
  <path class="st0" d="M51.29,62.17c.15.06.23.11.32.14,4.34,1.69,7.19,4.8,8.67,9.19.81,2.39,1.01,4.86.87,7.36-.11,1.81-.37,3.59-.9,5.33-1.39,4.51-4.27,7.72-8.51,9.74-2.04.97-4.2,1.57-6.43,1.96-2.36.41-4.73.55-7.12.55-9.78,0-19.56,0-29.35,0-.2,0-.41,0-.61,0-.65-.04-1.06-.45-1.13-1.1-.01-.15-.01-.31-.01-.46,0-20.16,0-40.32,0-60.48,0-.02,0-.03,0-.05-.08-1.03.5-1.55,1.53-1.55,10.4.02,20.79,0,31.19.01,3.3,0,6.47.6,9.45,2.07,4.1,2.02,6.97,5.14,8.3,9.55,1.07,3.56,1.03,7.13-.23,10.65-1.06,2.98-2.93,5.32-5.72,6.88-.1.05-.18.13-.32.23ZM29.17,87.23c2.86,0,5.72,0,8.59,0,1.47,0,2.93-.09,4.37-.33,1.45-.24,2.86-.63,4.17-1.32,2.18-1.14,3.58-2.89,4.12-5.3.47-2.1.39-4.2-.16-6.27-.58-2.17-1.92-3.74-3.96-4.67-.68-.31-1.39-.56-2.11-.75-2.14-.57-4.33-.71-6.53-.72-6.13-.01-12.27,0-18.4,0-.12,0-.24,0-.36,0-.77.03-1.24.47-1.3,1.23-.01.14,0,.27,0,.41,0,5.38,0,10.77,0,16.15,0,.2,0,.41.05.61.1.53.53.9,1.06.95.17.02.34,0,.51,0,3.32,0,6.64,0,9.97,0ZM29.01,41.98h0c-3.25,0-6.51.02-9.76-.02-1.16-.01-1.67.53-1.66,1.65.03,4.48.01,8.96.01,13.44,0,.17,0,.34.01.51.06.6.5,1.03,1.09,1.1.12.01.24.01.36.01,6.06,0,12.13,0,18.19,0,1.76,0,3.5-.22,5.17-.82,2.06-.75,3.66-2.04,4.52-4.09.92-2.18,1.07-4.46.55-6.76-.36-1.59-1.3-2.8-2.73-3.59-.43-.24-.88-.45-1.34-.61-1.69-.61-3.45-.8-5.22-.81-3.07-.02-6.13,0-9.2,0Z"></path>
  <path class="st0" d="M117.15,62.17c.13.06.2.09.28.12,4.48,1.74,7.37,4.96,8.82,9.5.68,2.13.88,4.33.8,6.56-.08,1.98-.34,3.94-.93,5.84-1.36,4.41-4.15,7.6-8.28,9.63-2.11,1.04-4.35,1.67-6.66,2.07-2.32.4-4.67.55-7.02.55-9.83,0-19.67,0-29.5,0-.22,0-.44,0-.66-.02-.54-.06-.94-.45-1.01-.99-.02-.17-.02-.34-.02-.51,0-20.2,0-40.39,0-60.59,0-.15,0-.31.01-.46.06-.61.5-1.03,1.11-1.07.14,0,.27,0,.41,0,10.4,0,20.79,0,31.19,0,3.14,0,6.17.55,9.03,1.87,3.79,1.74,6.61,4.46,8.23,8.35.91,2.19,1.26,4.48,1.21,6.84-.05,2.08-.43,4.1-1.26,6.01-1.14,2.61-2.9,4.67-5.41,6.07-.1.05-.18.13-.33.23ZM95.04,87.23c2.69,0,5.38,0,8.08,0,1.4,0,2.79-.03,4.18-.22,1.56-.21,3.08-.57,4.51-1.25,2.29-1.08,3.83-2.81,4.43-5.29.54-2.25.46-4.5-.2-6.71-.58-1.94-1.79-3.39-3.62-4.28-.76-.37-1.57-.67-2.38-.89-2.1-.57-4.26-.71-6.43-.72-6.2-.01-12.4,0-18.6-.02-.85,0-1.63.4-1.55,1.56,0,.03,0,.07,0,.1,0,5.37,0,10.73,0,16.1,0,.2,0,.41.03.61.09.55.52.94,1.08.99.17.02.34,0,.51,0,3.32,0,6.64,0,9.97,0ZM94.87,41.98h0c-3.25,0-6.51,0-9.76,0-.15,0-.31,0-.46,0-.67.04-1.14.5-1.18,1.18,0,.15,0,.31,0,.46,0,4.48,0,8.96,0,13.44,0,.15,0,.31,0,.46.04.62.48,1.08,1.1,1.15.19.02.37.01.56.01,5.57,0,11.14,0,16.71,0,.99,0,1.97-.04,2.96-.09,1.21-.07,2.39-.32,3.53-.74,2.27-.84,3.9-2.33,4.7-4.64.65-1.87.77-3.8.43-5.75-.26-1.48-.97-2.72-2.19-3.63-.61-.45-1.27-.78-1.99-1.03-1.69-.59-3.45-.79-5.23-.8-3.07-.02-6.13,0-9.2,0Z"></path>
  <path class="st0" d="M133.69,32.79c1.6,0,3.2.01,4.81,0,.66,0,1.08.27,1.38.84,5.79,11.02,11.58,22.04,17.38,33.06,1.1,2.1,2.2,4.19,3.31,6.29.08.15.16.31.26.44.49.65,1.44.66,1.94.01.11-.15.19-.32.28-.49,6.81-12.97,13.62-25.93,20.44-38.9.1-.2.2-.39.31-.59.24-.44.61-.66,1.12-.66,3.36,0,6.72.01,10.07-.01.65,0,1.24.65.81,1.44-1.02,1.89-2.03,3.78-3.04,5.68-8.21,15.37-16.42,30.74-24.64,46.11-1.71,3.2-3.42,6.4-5.13,9.6-.15.29-.32.56-.63.71-.58.28-1.25.08-1.59-.51-.35-.62-.68-1.26-1.02-1.89-9.48-17.74-18.96-35.48-28.44-53.23-1.13-2.12-2.27-4.24-3.39-6.36-.11-.2-.19-.44-.21-.67-.03-.46.31-.81.76-.86.15-.02.31,0,.46,0,1.58,0,3.17,0,4.75,0Z"></path>
  <path class="st0" d="M244.42,87.21c-1.59,0-3.17-.02-4.76,0-.72.01-1.16-.28-1.5-.91-6.7-12.77-13.42-25.54-20.13-38.31-.19-.36-.39-.72-.57-1.09-.24-.5-.62-.82-1.19-.82-.55,0-.9.33-1.15.8-1.35,2.58-2.71,5.16-4.06,7.74-5.54,10.54-11.07,21.08-16.61,31.62,0,.02-.02.03-.02.05-.28.66-.76.94-1.49.92-1.24-.03-2.49,0-3.73,0-1.93,0-3.85,0-5.78,0-.15,0-.31,0-.46,0-.65-.06-1-.66-.75-1.26.06-.14.14-.27.21-.41,6.38-11.94,12.76-23.89,19.14-35.83,4.49-8.4,8.98-16.8,13.46-25.19.08-.15.15-.31.25-.44.49-.68,1.49-.67,1.96.02.09.13.15.27.23.4,6.61,12.38,13.23,24.76,19.84,37.14,4.25,7.96,8.51,15.92,12.76,23.89.09.16.18.33.25.5.2.57-.15,1.12-.75,1.19-.15.02-.31,0-.46,0-1.57,0-3.14,0-4.7,0Z"></path>
  <metadata></metadata>
</svg>
