<?xml version="1.0" encoding="UTF-8"?>
<svg xmlns="http://www.w3.org/2000/svg" xmlns:i="http://ns.adobe.com/AdobeIllustrator/10.0/" id="Capa_1" version="1.1" viewBox="0 0 158.09 120">
  <defs>
    <style>
      .st0 {
        fill: #fff;
      }

      .st0, .st1 {
        fill-rule: evenodd;
      }

      .st1 {
        fill: #c0b084;
      }
    </style>
  </defs>
  <path class="st0" d="M0-19.04h158.09v158.09H0V-19.04Z"></path>
  <path class="st1" d="M101.4,17.98c7.65.68,23.59,2.87,28.96,5.91,10.74,6.09,18.23,12.48,18.23,34.56,0,23.67-6.99,32.96-18.23,38.72-11.24,5.76-36.48,6.09-51.2,6.09s-39.97-.33-51.2-6.09c-11.24-5.76-18.24-15.04-18.24-38.72,0-22.08,7.49-28.47,18.24-34.56,5.96-3.37,16.07-5.07,26.68-5.91,9.87-.56,35.37-1,46.76,0h0ZM54.34,11.57c-11.28.95-22.11,2.91-28.44,6.87-11.15,7-18.93,14.36-18.93,39.74,0,27.23,7.26,37.9,18.93,44.52,11.66,6.62,37.84,7,53.13,7s41.47-.38,53.15-7c11.66-6.62,18.93-17.3,18.93-44.52,0-25.38-7.78-32.74-18.93-39.74-6.71-4.21-17.94-6.32-29.84-6.96-12.57-.69-28.56-2.34-48.01.09h0Z"></path>
  <path class="st1" d="M53.09,35.21c-3.4-2.27-5.96-3.2-9.05-3.2-3.65,0-6.1,1.97-6.1,4.88,0,2.72,1.73,4.48,7.71,7.91,4.04,2.33,5.02,2.91,6.42,4.18,1.93,1.81,3.01,4.36,3.01,6.98,0,7.04-6.22,11.81-15.14,11.81-3.07,0-5.58-.41-8.79-1.39v-7.39c3.85,3.02,6.48,4.19,9.83,4.19,3.91,0,6.99-2.74,6.99-6.22,0-2.79-1.1-3.96-6.81-7.27-4.17-2.38-5.7-3.43-7.31-5.12-1.99-1.92-3.02-4.25-3.02-6.63,0-6.34,5.77-10.58,14.38-10.58,2.82,0,5.38.35,7.89.99v6.86h0ZM108.67,44.98v-12.5c6.3.11,9.25,1.97,9.25,5.87s-3.14,6.16-9.25,6.63ZM100.09,28.23c1.15,1.86,1.34,2.85,1.34,6.16v26.4c0,3.32-.18,4.31-1.34,6.17h9.88c6.03,0,9.63-.77,12.84-2.74,2.95-1.87,4.81-5.24,4.81-8.79,0-4.54-2.63-7.67-7.89-9.54,4.11-2.21,5.9-4.77,5.9-8.2,0-6.28-5.58-9.48-16.24-9.48h-9.3s0,0,0,0ZM108.67,62.72v-14.89c3.15.06,4.12.23,6.16.99,3.09,1.11,5.07,3.73,5.07,6.81s-1.92,5.53-5,6.4c-2.05.58-2.43.58-6.23.7h0ZM97.51,66.97c-1.34-1.57-1.98-2.5-3.52-5.53l-17.43-33.24h-1.47l-16.6,32.72c-1.48,2.91-2.44,4.42-3.86,6.05h10.27c-.45-1.11-.58-1.57-.58-2.34,0-1.1.4-2.62.91-3.66l3.21-6.46h14.44l3.27,6.4c.64,1.21,1.08,2.74,1.08,3.71,0,.76-.18,1.46-.57,2.34h10.84,0ZM70.63,49.98l4.93-10.06,5.01,10.06h-9.94ZM48.2,77.65c0-1.45.11-1.9.64-2.7h-4.43c.08.27.08.37.08.51,0,.36-.2.73-.8,1.51l-4.03,5.2-4.04-5.2c-.6-.78-.79-1.14-.79-1.51,0-.14,0-.25.08-.51h-4.44c.53.8.64,1.24.64,2.7v10.81c0,1.45-.11,1.92-.64,2.7h4.87c-.47-.78-.58-1.22-.58-2.7v-8.01l4.88,6.31v.02h0s0,0,0,0v-.02l4.89-6.31v8.01c0,1.48-.11,1.92-.57,2.7h4.87c-.53-.78-.64-1.24-.64-2.7v-10.81h0ZM54.87,91.16c.48-.85.57-1.31.57-2.93v-10.68c0-1.61-.09-2.08-.57-2.92h5.12c-.47.84-.57,1.34-.57,2.92v10.68c0,1.62.09,2.09.57,2.93h-5.12ZM65.88,91.16c.46-.85.57-1.31.57-2.93v-10.68c0-1.61-.1-2.08-.57-2.92h5.11c-.47.84-.57,1.34-.57,2.92v10.98h1.56c2.26,0,3.38-.3,4.84-1.24l-1.62,3.87h-9.32ZM81.14,91.16c.47-.85.58-1.31.58-2.93v-10.68c0-1.61-.1-2.08-.58-2.92h5.12c-.47.84-.57,1.34-.57,2.92v10.98h1.57c2.25,0,3.37-.3,4.83-1.24l-1.62,3.87h-9.34ZM106.73,81.52l-1.7,3.66c-.96-.79-2.08-1.17-3.37-1.17h-.7v4.62h1.15c1.23.02,2.69-.13,3.63-.35.78-.17,1.17-.32,2.21-.74l-1.6,3.63h-9.91c.47-.82.57-1.31.57-2.93v-10.68c0-1.61-.11-2.08-.6-2.92h10.75l-1.51,3.65c-.9-.77-2.04-1.15-3.54-1.15h-1.15v4.39h5.77ZM118.03,81.9v-5.09c1.78,0,2.75.83,2.75,2.36s-.99,2.55-2.75,2.73h0ZM118.03,84.11l3.57,4.49c1.46,1.83,2.46,2.55,3.4,2.55.7,0,1.4-.25,2.27-.74-.76-.67-.9-.85-2.02-2.41l-2.63-3.67-.8-1.15c1.02-.5,1.37-.72,1.89-1.27.77-.81,1.21-1.88,1.21-3,0-1.39-.71-2.75-1.9-3.59-1.07-.74-2.44-1.04-4.74-1.04h-4.82c.5.85.6,1.32.6,2.93v10.68c0,1.61-.1,2.08-.58,2.92h5.11c-.49-.84-.56-1.31-.56-2.92v-3.8h0Z"></path>
  <metadata></metadata>
</svg>
