<?xml version="1.0" encoding="UTF-8"?>
<svg xmlns="http://www.w3.org/2000/svg" xmlns:i="http://ns.adobe.com/AdobeIllustrator/10.0/" id="Capa_1" version="1.1" viewBox="0 0 150.96 120">
  <defs>
    <style>
      .st0 {
        fill: #fff;
      }

      .st1 {
        fill: #5db346;
      }

      .st2 {
        fill: #00952f;
      }

      .st3 {
        fill: #eeaa12;
      }

      .st4 {
        fill: #fbc419;
      }
    </style>
  </defs>
  <g>
    <path class="st0" d="M-12.52,76.48V-7.52h168v168H-12.52v-84ZM88.12,110.27c1.17-.34,2.23-1.13,2.89-2.16.55-.86.51-.96-.27-1.04-2.62-.26-2.51-.26-2.51-.06,0,.1-.21.41-.46.68-.56.6-1.07.77-2.18.7-.98-.07-1.49-.35-1.92-1.07-.28-.49-.3-.6-.3-1.87,0-1.47.11-1.93.58-2.47.65-.74,1.87-1.02,2.92-.67.53.18,1.15.7,1.27,1.07.03.11.2.11.76.02.4-.07,1.09-.16,1.54-.2.44-.04.8-.11.8-.16s-.2-.38-.45-.76c-.53-.82-1.54-1.62-2.38-1.87-2.28-.69-5.16-.35-6.59.78-1.27,1.01-1.85,2.14-1.94,3.8-.1,1.63.32,2.81,1.36,3.89.48.5,1.26,1.02,1.76,1.18,1.46.49,3.73.57,5.1.18h0ZM100.24,110.38c1.26-.23,1.97-.6,2.83-1.47l.75-.75-.5-.08c-.28-.03-.98-.1-1.56-.15l-1.07-.08-.54.42-.55.42h-1.08c-1.02,0-1.11-.02-1.5-.32-.54-.4-.84-1.07-.85-1.82v-.59h8.15v-.65c0-.67-.32-2.04-.64-2.62-.28-.55-1.24-1.51-1.87-1.85-.88-.5-1.83-.7-3.36-.71-1.5-.01-2.25.16-3.32.73-1.14.6-2.1,1.82-2.44,3.09-.21.78-.16,2.31.1,3.05.39,1.14,1.5,2.45,2.48,2.95,1.11.55,3.33.75,4.96.44h0ZM117.39,110.39l.73-.12v-.73c-.01-.4-.06-.86-.09-1.03-.08-.31-.1-.31-.96-.31-1.21,0-1.18.07-1.18-3.06v-2.47l1.15-.03,1.15-.03-.03-1.14-.03-1.14-1.14-.03-1.15-.03-.02-1.83-.03-1.84-1.7.87-1.71.86v1.94l-.75.03-.76.03-.03,1.14-.03,1.14.76.03.76.03.06,2.85c.06,2.68.08,2.88.32,3.44.32.71.85,1.2,1.49,1.36.27.07.54.15.59.17.23.09,1.93.02,2.63-.1h0ZM127.47,110.23c.89-.26,1.81-.85,2.42-1.57.25-.28.42-.51.41-.52-.01-.01-.71-.09-1.56-.16l-1.55-.13-.29.28c-.17.16-.49.37-.71.46-.48.2-1.71.23-2.18.06-.77-.29-1.44-1.4-1.35-2.25l.03-.37,4.11-.03,4.1-.02v-.4c0-.67-.34-2.08-.64-2.73-.38-.79-1.37-1.78-2.16-2.13-.95-.45-1.72-.59-3.24-.58-1.22,0-1.5.03-2.22.29-2.14.76-3.4,2.38-3.55,4.61-.06.74-.02,1.05.17,1.69.29.95.93,1.95,1.65,2.59.71.63.99.77,2.09,1.03,1.18.27,3.33.22,4.47-.1h0ZM138.85,110.37c1.57-.3,2.65-1.01,3.17-2.11.67-1.42.07-2.77-1.56-3.54-.68-.31-1.41-.48-3.63-.82-.65-.1-1.28-.26-1.42-.35-.31-.19-.41-.58-.32-1.12.11-.58.58-.83,1.6-.83s1.34.12,1.76.63l.34.39,1.12-.13c2-.22,1.87-.18,1.69-.53-.18-.35-1.01-1.15-1.4-1.36-.69-.37-1.43-.48-3.08-.48-1.8,0-2.46.11-3.35.55-.75.38-1.15.77-1.46,1.44-.48,1.03-.28,1.85.7,2.79.61.59,1.03.74,3.28,1.18,2.75.53,2.89.6,2.89,1.46,0,1.05-.44,1.36-1.9,1.36-1.12,0-1.56-.19-2.01-.87-.27-.42-.28-.42-.84-.36-.3.03-.94.1-1.4.13-.46.03-.95.08-1.09.11l-.26.06.25.41c.39.66,1.01,1.24,1.61,1.53,1.16.57,3.59.77,5.32.44h0ZM29.36,109.91c.4-.15.94-.44,1.2-.65.34-.28.58-.39.85-.39.35,0,.38.03.54.54l.17.52,1.55.03c1.45.02,1.54.01,1.45-.17-.04-.11-.12-1.75-.16-3.66-.08-3.62-.1-3.85-.64-4.76-.27-.46-1.35-1.16-2.01-1.32-1.7-.39-4.77-.3-5.95.17-1.02.4-1.89,1.22-2.07,1.95-.07.28-.06.29.56.37.35.03,1.07.1,1.61.15.95.07.99.06,1.07-.18.03-.12.26-.37.47-.55.39-.29.46-.3,1.69-.3s1.27,0,1.54.31c.21.26.27.44.27.96v.65l-.71.23c-.38.13-1.45.39-2.37.58-2.22.46-2.79.63-3.45,1.02-.78.47-1.09.98-1.15,1.9-.03.58,0,.83.18,1.18.28.52,1.02,1.22,1.55,1.44.98.41,2.66.4,3.82-.03h0ZM42.82,110.08l.55-.12-.08-.89c-.04-.49-.1-.94-.13-.99-.03-.04-.42-.09-.86-.09s-.87-.04-.95-.09c-.28-.18-.36-.89-.36-3.17v-2.31l1.15-.03,1.14-.03.03-1.14.03-1.15h-2.36v-1.84c0-1.02-.02-1.84-.06-1.84s-.82.38-1.73.84l-1.68.84v2.01h-1.56v2.35h1.54l.04,2.88.03,2.88.34.66c.41.82,1.04,1.24,2.01,1.39.76.11,2.08.06,2.89-.12h0ZM48.94,110.17c.8-.16,1.66-.65,2.27-1.28.25-.25.44-.35.69-.35h.37v1.45h3.35l-.02-4.94-.03-4.95-1.75-.03-1.75-.03-.03,3.16c-.03,3.04-.04,3.18-.29,3.63-.13.27-.39.55-.58.65-.45.23-1.88.22-2.21-.01-.56-.38-.58-.58-.58-4.12v-3.3h-3.57v3.46c0,4.26.1,4.84,1.01,5.79.51.54.85.73,1.55.87.79.18.71.18,1.6,0h0ZM109.4,105.3v-4.97l-1.75-.03-1.76-.03v10.08l1.76-.03,1.75-.03v-4.97h0ZM68.21,110.08c.07-.08.28-.69.47-1.37.2-.67.4-1.35.46-1.51.17-.46,1.99-6.39,2.12-6.89.12-.47.13-.48.6-.48.41,0,.49.03.55.26.02.13.31,1.07.64,2.09.32,1.02.63,2,.67,2.18.11.4.76,2.51,1.31,4.3.21.7.45,1.35.5,1.43.09.1.64.13,2.04.13h1.92l-.44-1.14c-.25-.64-.54-1.4-.65-1.71-.11-.3-.37-.96-.56-1.45s-.47-1.22-.61-1.62-.53-1.41-.84-2.23-.92-2.41-1.34-3.52-.79-2.1-.84-2.21c-.08-.18-.27-.19-2.31-.17l-2.23.03-.88,2.29c-.48,1.26-1.03,2.69-1.21,3.18s-.64,1.7-1.02,2.68c-.38.98-.78,2.04-.89,2.35-.11.31-.31.84-.45,1.17s-.38,1.01-.56,1.49l-.31.86h1.88c1.36,0,1.9-.03,1.98-.13h0ZM11.94,106.14v-3.85h.84l2.35,3.42c1.3,1.89,2.48,3.62,2.66,3.85l.3.44h3.8v-14.07h-3.8v7.93h-.36c-.39,0-.22.22-3.93-5.19-1.22-1.79-1.78-2.56-1.9-2.65-.07-.04-.92-.09-1.88-.09h-1.76v14.07h3.69v-3.85h0ZM61.2,107.65c0-3.24.21-4.3,1.02-4.97.32-.28.42-.3,1.24-.28l.89.02.44-.98c.23-.54.44-1.04.44-1.12,0-.23-.68-.45-1.4-.45-.82.01-1.31.3-1.84,1.08-.32.46-.42.54-.75.54h-.37v-1.46l-1.59.03-1.6.03-.03,4.95-.02,4.94h3.57v-2.33ZM109.4,97.31v-1.01l-1.75-.03-1.76-.03v2.14l1.76-.03,1.75-.03v-1.01ZM60.53,83.94c.16-.1.49-.29.75-.44.26-.15.92-.54,1.46-.87l1.01-.6-.22-.23c-.35-.37-1.01-1.39-1.47-2.3-.23-.46-.47-.88-.51-.93s-.29.48-.56,1.17c-.26.69-.54,1.42-.63,1.6-.21.51-1.13,2.87-1.21,3.15-.08.25-.07.25.51-.06.32-.18.71-.4.87-.49ZM83.6,83.49c-.22-.57-.47-1.18-.55-1.37-.08-.18-.26-.64-.39-1.01-.15-.37-.4-1.02-.58-1.44-.18-.42-.32-.84-.32-.93s-.18.18-.39.59c-.41.79-1.09,1.75-1.64,2.35l-.34.36.66.37c.36.2.7.41.76.47.21.18,3.12,1.74,3.16,1.7.03-.02-.13-.51-.37-1.08h0ZM55.23,82.77c.11-.3.4-.95.64-1.45.23-.5.42-.95.42-.99,0-.06.18-.49.4-.99.48-1.06.65-1.42,1.27-2.9.26-.61.59-1.37.74-1.68.13-.31.36-.83.48-1.15.13-.32.39-.92.57-1.31.19-.39.34-.76.34-.8s.12-.34.28-.64.26-.57.23-.6c-.03-.02-.3.03-.59.13-1.62.57-4.76,1.26-6.7,1.49l-.59.06v.41c0,.47.7,5.09.78,5.09.02,0,.2.82.45,2.12.08.37.18.71.23.78.06.06.1.19.1.31,0,.23.3,1.27.46,1.55.06.1.13.39.17.65.04.25.09.45.1.45s.11-.23.22-.53h0ZM88.65,81.45c.09-.3.23-.84.32-1.17.08-.34.23-.92.34-1.28s.22-.99.29-1.4c.06-.4.15-.83.2-.95s.16-.6.22-1.06c.08-.46.18-1.12.23-1.45.23-1.44.28-2.02.17-2.1-.07-.03-.37-.11-.68-.16-.79-.11-2.21-.38-3.13-.58-.42-.1-.95-.21-1.15-.25-.2-.04-.39-.12-.42-.17-.03-.06-.15-.1-.26-.1-.23,0-1.66-.41-1.93-.57-.11-.06-.22-.1-.25-.1-.04,0,.1.41.37,1.06.06.12.18.4.27.61.09.21.23.57.32.78.1.21.32.75.51,1.17.19.44.53,1.24.75,1.79.23.56.57,1.36.75,1.79.55,1.28.59,1.39,1.37,3.24.41.98.83,1.95.93,2.17l.17.37.22-.54c.12-.3.29-.79.38-1.11h0ZM73.7,82.18c1.46-.47,2.42-1.16,3.76-2.74,1.57-1.84,2.23-4.1,1.94-6.72-.07-.65-.17-1.25-.22-1.35-.04-.11-.18-.44-.29-.75-.29-.84-1.08-2.29-2.13-3.88-1.51-2.3-2.93-5.22-3.79-7.8-.09-.28-.21-.6-.27-.73-.1-.23-.5-1.64-.84-2.9-.03-.13-.06-.07-.4,1.06-.13.46-.29.88-.35.94-.04.07-.09.22-.09.35,0,.13-.12.48-.27.79-.15.3-.36.85-.49,1.22-.12.37-.4,1.06-.63,1.54-.22.47-.4.89-.4.93,0,.17-1.69,3.38-2.01,3.84-.12.18-.22.35-.22.39,0,.03-.45.74-.98,1.54-1.21,1.82-1.51,2.41-1.87,3.83-.55,2.07-.25,4.26.88,6.47.36.7.69,1.13,1.57,2.01,1.22,1.22,2.01,1.7,3.4,2.08.97.27,2.67.21,3.69-.12h0ZM54.72,67.65c.89-.07,1.71-.17,1.81-.22.11-.07.46-.11.78-.12.58-.01,1.26-.1,2.47-.32.31-.06.95-.17,1.4-.25.44-.07.8-.17.8-.22,0-.04.09-.09.2-.09.25,0,.29-.09,1.75-3.35.59-1.32,1.42-3.15,1.84-4.08.42-.92.99-2.2,1.28-2.85s.63-1.4.75-1.68c.13-.28.45-.98.71-1.56s.47-1.07.45-1.08c-.03-.03-5.08,2.08-11.01,4.6l-3.74,1.6-.2.71c-.2.68-.36,1.34-.7,2.94-.28,1.27-.67,4-.79,5.46l-.06.77.31-.08c.18-.03,1.05-.12,1.94-.18h0ZM48.67,66.91c.17-1.05.42-2.41.61-3.27.17-.74.31-1.22.85-2.93.31-.95.31-.96.08-.87-.53.2-7.85,3.26-8.17,3.41-.18.08-.66.28-1.06.42-.4.16-1.36.56-2.14.88-1.26.54-1.4.63-1.17.73.65.29,2.77.94,3.71,1.13.31.07.76.18,1.01.25,1.13.32,4.77.95,5.71.98l.46.02.12-.75h0ZM90.52,67.46c-.04-.11-.1-.55-.13-.98-.2-2.83-.96-7.75-1.31-8.41-.1-.19-.65-.48-2.03-1.08-1.04-.45-2.54-1.09-3.34-1.45-2.09-.92-4.65-2.03-6.72-2.94-.98-.44-1.95-.87-2.14-.96-.18-.1-.36-.18-.4-.18-.1,0-.07.23.1.59.09.2.45,1.02.79,1.81.34.8.77,1.78.95,2.18.54,1.17,2.57,5.82,2.79,6.37.58,1.45,1.56,3.62,1.69,3.74.09.08.46.2.83.27.84.17,1.98.41,2.62.57.49.12,2.04.39,3.24.55.34.06,1.18.1,1.89.11,1.16.01,1.26,0,1.18-.18h0ZM96.39,67.21c.74-.1,1.21-.18,2.9-.5.53-.1,1.25-.22,1.62-.29.37-.06.77-.16.89-.21s.4-.13.61-.17c.21-.04.55-.12.73-.17,1.66-.49,2.4-.74,2.4-.78,0-.07-.41-.28-1.28-.64-.67-.28-1.06-.45-2.37-1.05-.38-.18-1.02-.45-1.4-.61-.39-.16-1.08-.47-1.54-.68-.46-.21-.94-.42-1.06-.48-2.52-1.09-4.1-1.79-4.69-2.07-.18-.09-.35-.11-.37-.07-.01.06.1.48.26.96.16.48.28.95.28,1.06,0,.1.03.22.09.27.12.13.64,2.73.86,4.37.08.61.16,1.13.16,1.15.02.06,1.23,0,1.91-.09h0ZM107.22,61.01c0-.11-1.08-2.07-1.76-3.18-1.2-1.97-3.71-5.47-4.26-5.96-.23-.21-.25-.21-.71.13-.49.37-2.69,1.85-3.26,2.2-.18.11-.95.55-1.7.96l-1.37.74.87.36c.47.2,1.22.49,1.64.64.44.16.83.34.89.39.06.06.17.1.25.1s.42.13.78.29c.89.39.92.4,2.6,1.05.83.32,1.66.65,1.84.73.54.22,2.08.85,2.57,1.03.25.1.6.23.78.31.66.27.84.32.84.22ZM36.27,60.84c.27-.15,1.13-.51,1.65-.7.23-.09.82-.29,1.27-.46s1.04-.4,1.28-.51.8-.32,1.23-.47c.44-.13.8-.28.84-.31.08-.08.78-.35,1.22-.45.2-.06.42-.15.49-.21.07-.07.19-.12.28-.12s.34-.08.56-.18c.23-.1.53-.22.67-.28.13-.06.36-.15.5-.21.44-.19,2.25-.87,2.52-.95.23-.07.15-.15-.73-.6-1.08-.58-3.03-1.76-3.26-1.99-.08-.08-.19-.15-.25-.15-.04,0-.61-.39-1.25-.87l-1.15-.87-.5.61c-1.94,2.4-4.46,6.18-5.63,8.48-.19.37-.11.45.25.25h0ZM53.96,54.74c.45-.17,1.06-.41,1.36-.56.31-.15.6-.27.66-.27s.27-.08.48-.17c.71-.31,1.11-.48,2.45-1.01.74-.29,1.51-.59,1.7-.68.2-.09.56-.23.78-.31.23-.08.68-.26.98-.4.86-.38.96-.42,1.6-.67.31-.12.85-.32,1.17-.45.63-.25.75-.3,1.59-.67.31-.15.68-.29.83-.32.49-.13.37-.3-.46-.61-.45-.17-1.32-.5-1.93-.75-.61-.23-2.42-.92-4.02-1.51-1.6-.6-4.05-1.53-5.47-2.06-2.96-1.13-2.48-1.14-4.36.09-2.51,1.65-3.98,2.76-5.27,3.98-.75.7-.98,1.07-.71,1.07.07,0,.34.19.6.42.7.58.86.71,1.31,1.03.21.15.41.3.45.34.13.13,2.06,1.6,2.9,2.19,1.04.73,2.4,1.61,2.48,1.61.04,0,.45-.13.89-.29h0ZM91.15,54.48c1.22-.74,3.36-2.19,4.17-2.81.83-.64,2.69-2.28,2.79-2.44.06-.09-.79-.88-1.51-1.4-.18-.13-.7-.54-1.17-.9-2.33-1.82-4.09-3.07-4.84-3.45-.4-.21-.59-.18-1.85.38-.25.11-1.17.48-2.07.83-1.6.6-3.5,1.35-7.2,2.8-1.04.4-2.44.95-3.09,1.2l-1.21.46,1.37.55c.75.29,1.4.54,1.44.54s.4.15.78.32c.39.17.9.38,1.15.46.25.08.65.23.89.35.25.1,1.25.5,2.23.88s1.94.76,2.12.84c.19.08.46.18.61.22s.48.18.73.28c.25.11.87.37,1.4.56.53.2,1.15.46,1.4.57.68.31,1.06.27,1.85-.22ZM68.79,46.13c-.07-.18-.36-.86-.66-1.54-.29-.67-.95-2.18-1.45-3.35-.5-1.16-1.09-2.49-1.3-2.94-.21-.45-.38-.84-.38-.86,0-.06-.21-.55-1.23-2.85-.18-.4-.45-1.03-.6-1.4-.53-1.2-.68-1.45-1.01-1.61-.5-.23-2.33-.61-4.09-.84-.65-.09-1.17-.17-1.17-.18,0-.06-2.93-.36-3.63-.37l-.73-.02v.34c.06,1.34.8,6.7.95,6.7.01,0,.09.32.17.73.25,1.23.41,1.83.53,1.99.1.11,1.69.92,1.83.92.02,0,.37.16.77.34.4.19.76.34.78.34.03,0,.44.18.9.39.46.21.86.39.88.39s.48.2,1.01.45.99.45,1.03.45.44.18.89.39.85.39.88.39c.02,0,.3.12.63.27,1.64.74,3.45,1.52,3.53,1.52.06,0,.39.16.75.34.8.41.86.41.71.03h0ZM74.78,46.2c.3-.12.86-.38,1.24-.56.38-.18.71-.32.75-.32s.39-.15.79-.34c.4-.18.75-.34.77-.34s.48-.2,1.01-.45.98-.45,1.02-.45.44-.18.9-.39c.46-.21.87-.39.9-.39s.42-.18.88-.39c.45-.21.85-.39.88-.39.04,0,.4-.16.82-.35s.85-.38.97-.44c.12-.04.45-.19.73-.31.28-.12.68-.3.89-.39,1.68-.71,1.63-.68,1.78-1.33.07-.32.18-.79.25-1.04.06-.25.16-.69.22-1.01.06-.3.16-.76.22-1.01.06-.25.16-.79.22-1.23.06-.42.16-1.08.22-1.45.15-.84.29-2.93.22-3.28-.04-.25-.07-.26-.67-.19-.35.04-1.23.15-1.97.22-.74.07-1.42.17-1.51.2-.09.04-.41.1-.73.13-1.31.12-3.03.42-4.56.8-.47.11-.2-.45-3.47,7.08-.65,1.51-1.28,2.94-1.4,3.18-.12.25-.41.93-.66,1.51s-.66,1.51-.9,2.04c-.26.55-.46,1.02-.46,1.04,0,.08.06.06.63-.19h0ZM43.33,45.03c1.9-1.3,4.47-2.76,5.28-3,.1-.03.19-.1.19-.17,0-.06-.09-.12-.19-.16-.11-.03-.63-.25-1.15-.46-.53-.22-1.93-.82-3.13-1.31-2.08-.86-3.35-1.4-4.08-1.72-.18-.08-.71-.3-1.17-.48-.46-.19-1.37-.56-2.03-.84-.88-.37-1.17-.45-1.12-.31.25.66,2.28,4.14,3.23,5.52.32.48.59.89.59.92,0,.04.47.69,1.76,2.42.22.29.45.49.51.45.07-.03.65-.42,1.3-.86h0ZM102.14,44.42c1.12-1.46,2.8-3.93,3.65-5.36.76-1.27,1.45-2.57,1.37-2.57-.03,0-.88.32-1.88.71-2.51.99-4.91,1.93-5.78,2.27-.73.27-.83.31-1.56.64-.21.09-.71.29-1.12.44-1.8.67-2.68,1.03-2.68,1.09,0,.03.29.2.65.36.99.46,2.12,1.11,3.09,1.78.49.34.97.64,1.06.68s.57.38,1.06.75c.49.36.93.65.97.64.04-.01.56-.65,1.15-1.42ZM72.04,44.23c.26-.67.69-1.79.97-2.49s.77-1.97,1.09-2.79c.32-.83.83-2.09,1.09-2.79.28-.7.88-2.26,1.35-3.44.47-1.2.85-2.21.85-2.27,0-.25-1.66-2.69-2.93-4.31-.2-.25-.67-.85-1.04-1.32-.37-.48-.95-1.2-1.28-1.59l-.6-.73-.63.66c-.63.66-1.17,1.31-1.78,2.1-.18.25-.44.57-.55.73-.37.48-1.62,2.36-2.3,3.43-.64,1.03-.65,1.04-.47,1.39.1.2.18.4.18.47,0,.06.08.26.17.45.09.2.47,1.16.84,2.14.37.98.73,1.89.78,2.01s.26.63.45,1.12.38.99.44,1.12.2.53.35.89c.13.37.29.77.35.89.17.38,1.97,5.02,2.04,5.28.04.13.1.25.12.25.01,0,.25-.54.5-1.2h0ZM93.62,37.72c.1,0,.21-.04.25-.1.03-.04.3-.18.59-.29s.9-.37,1.35-.58c.44-.2.84-.37.89-.37.04,0,.28-.1.53-.21.7-.35,1.95-.9,2.02-.9.06,0,.78-.32,1.92-.85.45-.21.86-.38.93-.38.06,0,.19-.04.3-.1.28-.16,1.54-.74,2.42-1.11l.76-.34-.38-.11c-.21-.06-.48-.13-.6-.17s-.5-.15-.84-.25c-1.99-.59-3.9-1.01-6.2-1.35-.61-.09-1.44-.22-1.84-.28-1.4-.22-1.39-.22-1.46.35-.31,2.17-.94,5.03-1.49,6.76q-.23.76.23.5c.23-.12.5-.22.61-.22h0ZM50.7,37.99s-.16-.53-.35-1.08c-.31-.9-.54-1.73-.73-2.65-.03-.16-.1-.38-.16-.5-.1-.25-.27-1.12-.5-2.62-.09-.53-.16-.97-.16-.99-.01-.02-.2,0-.42.04-.23.04-.87.15-1.43.22-1.89.29-2.23.36-4.19.85-.53.12-1.15.28-1.4.34-.25.07-1.18.35-2.1.63-1.22.39-1.6.55-1.46.63.16.09.92.4,3,1.24.19.08.58.25.87.38.3.13.59.25.66.25.06,0,.44.16.84.34.39.19.75.34.78.34s.21.07.4.16c.2.09.57.23.83.34.26.09.68.27.95.38s.64.27.82.32c.55.2,3.33,1.37,3.38,1.43.08.08.36.07.36-.01h0ZM60.64,27.79c0-.1-1.9-4.56-2.96-6.94-.29-.65-.63-1.42-.75-1.73-.12-.3-.35-.84-.5-1.17-.32-.7-1.21-2.77-1.28-3.02-.03-.09-.11.06-.19.34-.07.28-.17.58-.21.67-.06.09-.26.85-.47,1.68-.2.83-.4,1.61-.46,1.73-.04.12-.11.48-.16.78-.03.31-.11.71-.17.89-.13.44-.57,3.14-.73,4.48l-.07.57.37.07c3.28.59,6.27,1.27,7.13,1.62.36.16.45.16.45.03h0ZM83.99,27.42c1.06-.3,1.8-.47,3.24-.76.79-.16,3.11-.56,3.18-.56.04,0,.04-.11,0-.25-.03-.15-.11-.58-.17-.98-.39-3.07-1.23-7.2-1.68-8.32-.06-.12-.19-.55-.3-.95l-.2-.71-.49,1.11c-.27.61-.65,1.5-.85,1.95-1.52,3.44-4.3,9.86-4.3,9.92,0,.02.09.01.2-.03.1-.04.71-.23,1.36-.41ZM79.84,24.09c.45-1.14.88-2.22.97-2.42.09-.19.16-.4.16-.47s.06-.21.11-.32c.07-.1.41-.97.79-1.92.37-.95,1.01-2.55,1.41-3.55.39-1.01.7-1.84.68-1.88-.11-.1-2.94,1.54-5,2.89-1.49.98-4.35,3.12-4.36,3.25,0,.07.22.4.5.75.77.98,2.54,3.76,3.14,4.95.41.8.58,1.03.67.93.07-.08.48-1.06.93-2.2h0ZM64.81,25.07c.35-.65.86-1.55,1.15-2.01.83-1.27,1.69-2.56,2.12-3.12l.38-.52-.85-.65c-1.7-1.31-5.17-3.69-6.43-4.4-1.18-.68-2.1-1.12-2.1-1.01,0,.09.25.75.58,1.56.07.16.23.58.38.95.66,1.74,1.05,2.76,1.2,3.09.1.2.3.73.47,1.15.17.44.37.94.45,1.12.08.19.45,1.14.83,2.12s.74,1.89.78,2.01c.06.12.17.39.23.59.08.2.16.35.17.34.01-.02.3-.57.65-1.23h0Z"></path>
    <path class="st0" d="M96.16,104.07c0-.59.21-1.24.54-1.61.73-.82,2.78-.82,3.51.01.28.31.54,1.11.54,1.66v.49h-4.58v-.56Z"></path>
    <path class="st0" d="M122.64,104.27c0-1.47.95-2.45,2.37-2.42,1.44.01,2.21.76,2.21,2.13v.65h-4.58v-.36h0Z"></path>
    <path class="st0" d="M27.97,108.54c-.51-.17-.73-.52-.73-1.26s.11-1.02.55-1.24c.53-.28,2.96-.96,3.4-.96h.41v.55c0,1.98-.76,2.88-2.5,2.98-.44.02-.94-.01-1.13-.07Z"></path>
  </g>
  <g>
    <path class="st2" d="M83.84,110.71c-1.08-.22-1.49-.37-2.04-.75-.9-.61-1.7-1.56-2-2.44-.44-1.24-.4-3.27.06-4.5.53-1.35,1.72-2.47,3.18-2.95,1.25-.41,3.65-.47,5.12-.13,1.08.26,2.06.82,2.65,1.53.41.49,1.01,1.69.94,1.87-.03.08-.39.17-.8.21-1.06.11-1.55.17-2.31.29-.58.1-.68.09-.78-.07-.85-1.42-2.51-1.63-3.55-.45-.45.5-.58,1.01-.58,2.13,0,.89.03,1.06.3,1.53.49.83,1.28,1.2,2.29,1.04.58-.09,1.32-.68,1.56-1.27.16-.36.18-.37.63-.31.26.03.99.12,1.64.19,1.95.21,1.92.2,1.83.48-.49,1.61-1.89,3.02-3.45,3.47-.92.28-3.62.35-4.67.12Z"></path>
    <path class="st2" d="M96.29,110.7c-1.05-.21-1.72-.56-2.4-1.23-1.2-1.21-1.62-2.18-1.69-3.86-.11-2.96,1.34-4.96,4.1-5.66,1.75-.45,4.56-.19,5.84.55.63.36,1.6,1.32,1.88,1.87.37.7.64,1.97.64,2.99v1.01l-4.08-.03-4.08-.03v.26c.01.45.41,1.16.85,1.5.37.28.51.32,1.16.32.7,0,.78-.02,1.37-.48l.61-.48.88.11c.48.06,1.34.15,1.91.19.56.03,1.06.11,1.09.17.09.15-.66,1.13-1.27,1.68-.67.6-1.46.96-2.54,1.16-1.07.21-3.19.2-4.29-.01h0ZM100.41,104.15c0-.08-.08-.38-.18-.67-.4-1.2-1.79-1.65-2.85-.94-.4.27-.88,1.08-.88,1.5v.26h1.95c1.54,0,1.95-.03,1.95-.15Z"></path>
    <path class="st2" d="M114.43,110.83c-.06-.02-.32-.1-.59-.17-.64-.17-1.16-.65-1.49-1.36-.25-.56-.27-.76-.32-3.44l-.06-2.85-.76-.03-.76-.03.03-1.47.03-1.47.76-.03.75-.03v-1.94l1.98-1.01c1.08-.55,2.01-1.02,2.07-1.04.04-.02.09.87.09,1.98v2.01l1.15.03,1.14.03.03,1.47.03,1.47-1.15.03-1.15.03v2.13c0,2.63.03,2.73.92,2.73.34,0,.7-.06.84-.12.12-.07.25-.1.27-.07.08.08.15.48.27,1.69.09.83.08,1.14-.01,1.2-.37.22-3.6.44-4.07.27h0Z"></path>
    <path class="st2" d="M122.67,110.66c-1.08-.25-1.37-.39-2.09-1.02-1.52-1.34-2.17-3.45-1.74-5.66.35-1.84,1.59-3.23,3.47-3.9.71-.25,1.04-.3,2.35-.32,2.5-.04,3.86.36,5.03,1.52.34.34.75.89.92,1.23.36.76.64,2.09.64,3.07v.73h-3.88c-2.14.02-3.97.02-4.08.01-.29-.03-.32.15-.15.67.55,1.53,2.19,1.9,3.46.79.25-.22.46-.31.68-.3,1.94.15,3.57.32,3.65.39.16.15-.92,1.44-1.61,1.95-1.05.77-2.3,1.06-4.46,1.05-.82,0-1.62-.08-2.2-.21h0ZM126.88,103.98c0-.17-.11-.54-.25-.8-.29-.56-.98-.98-1.63-.99-.74-.02-1.65.69-1.87,1.44-.03.16-.1.37-.12.48-.06.18.09.19,1.9.19h1.97v-.31h0Z"></path>
    <path class="st2" d="M134.65,110.7c-1.08-.19-1.88-.56-2.42-1.13-.45-.47-.98-1.41-.98-1.72,0-.27.15-.29,3.02-.5l1.06-.08.28.44c.4.61.87.85,1.68.85s1.34-.27,1.51-.74c.23-.67-.16-.87-2.67-1.36-2.47-.49-2.83-.61-3.45-1.22-.74-.7-.97-1.23-.97-2.14,0-1.71,1.04-2.78,3.11-3.22.58-.12,1.3-.16,2.61-.12,2.42.06,3.12.29,4.07,1.33.42.46.92,1.36.8,1.47-.06.06-1.39.21-3.06.36l-.79.07-.26-.37c-.15-.2-.42-.44-.63-.51-1.17-.49-2.62.29-1.9,1.02.26.26.85.39,2.61.61,3,.38,4.41,1.46,4.41,3.41.01,1.84-1.26,3.15-3.49,3.56-1.15.22-3.31.21-4.54,0h0Z"></path>
    <path class="st2" d="M26.22,110.55c-.85-.13-1.32-.35-1.88-.85-.74-.67-1.01-1.32-.96-2.3.04-1.17.38-1.79,1.22-2.31.58-.36,1.15-.53,3.24-.97,1.06-.22,2.23-.5,2.61-.63.64-.21.7-.26.7-.55,0-.17-.12-.46-.27-.63-.26-.3-.32-.31-1.21-.31-1.05.01-1.5.21-1.83.85-.17.32-.19.34-.8.28-1.82-.16-3.22-.32-3.3-.39-.11-.11.3-1.26.6-1.68.84-1.14,2.56-1.65,5.35-1.61,3.26.06,4.64.64,5.26,2.23.25.61.26.85.32,4.11.06,3.25.08,3.5.3,4l.25.52-2.03-.02-2.03-.03-.17-.5c-.09-.28-.18-.52-.19-.55-.01-.02-.25.15-.51.37-.73.59-1.72.93-2.98.99-.58.03-1.35.02-1.7-.03h0ZM30.06,107.97c.42-.21.9-.77,1.02-1.16s.2-1.4.12-1.4c-.19,0-2.79.8-3.07.96-.82.41-.69,1.55.18,1.83.45.13,1.24.03,1.75-.23h0Z"></path>
    <path class="st2" d="M39.59,110.55c-.97-.16-1.6-.59-2.01-1.4l-.34-.66-.03-2.88-.04-2.88h-1.54v-3.02h1.56v-2.01l2.01-1.01c1.11-.55,2.03-1.01,2.07-1.01s.06.9.06,2.01v2.01h2.36l-.03,1.49-.03,1.47-1.14.03-1.15.03v1.98c0,2.83.1,3.06,1.26,2.88.83-.12.92-.12.92-.01.02.23.18,1.7.23,2.19l.06.51-.59.12c-.84.18-2.81.26-3.61.13h0Z"></path>
    <path class="st2" d="M47,110.5c-.7-.15-1.04-.34-1.55-.87-.92-.96-1.01-1.5-1.01-6.12v-3.8h4.24v3.3c0,3.54.02,3.74.58,4.12.32.22,1.12.22,1.54.01.4-.21.76-.88.83-1.53.03-.27.06-1.7.06-3.19v-2.7s2.11.02,2.11.02l2.09.03.03,5.28.02,5.27h-4.02v-1.49l-.41.4c-1.2,1.2-2.77,1.64-4.51,1.26h0Z"></path>
    <path class="st2" d="M105.55,105.3v-5.36l2.1.02,2.09.03v10.61l-2.09.03-2.1.02v-5.36Z"></path>
    <path class="st2" d="M7.92,102.95v-7.37h2.11c1.62,0,2.16.03,2.27.15.17.18.56.73,3.06,4.38,1.02,1.47,1.97,2.86,2.12,3.07l.27.39v-7.99h4.47v14.74h-4.47l-.3-.44c-.18-.23-1.36-1.97-2.66-3.85-1.28-1.88-2.38-3.42-2.42-3.42-.06,0-.09,1.73-.09,3.85v3.85h-4.36v-7.37h0Z"></path>
    <path class="st2" d="M57.31,105.05l.03-5.28,1.92-.03,1.92-.02.03.74.03.75.38-.55c.45-.67.9-.98,1.63-1.14.65-.13,1.55,0,2.19.32l.42.21-.64,1.46c-.6,1.39-.65,1.45-.92,1.39-.16-.03-.54-.1-.84-.13-.5-.06-.61-.02-.93.25-.82.68-1.03,1.73-1.03,4.98v2.33h-4.24l.02-5.27h0Z"></path>
    <path class="st2" d="M105.54,98.66s-.03-.66-.01-1.4l.03-1.35,2.09.02,2.09.03v2.68l-2.08.03c-1.14.01-2.09,0-2.12-.02Z"></path>
    <path class="st2" d="M58.3,85.47s.23-.66.51-1.37c.28-.73.64-1.63.79-2.03.15-.4.32-.83.37-.95.06-.12.4-1.01.77-1.95.58-1.53.9-2.11.9-1.65,0,.23,1.06,2.33,1.55,3.06.45.67.68.94,1.13,1.31l.25.2-1.25.75c-.69.41-1.46.87-1.71,1.02-.26.15-.59.34-.75.44-.47.29-2.06,1.11-2.31,1.18-.15.04-.26.04-.26.01h0Z"></path>
    <path class="st2" d="M84.21,85.3c-.16-.12-.31-.22-.35-.22-.09,0-3.25-1.75-3.4-1.88-.07-.06-.45-.27-.84-.48-.4-.21-.76-.42-.8-.49-.04-.06.08-.28.26-.5,1.27-1.51,2.45-3.4,2.45-3.95,0-.31.18-.19.36.25.36.85.86,2.11,1.09,2.76.15.37.32.83.4,1.01.08.19.32.82.55,1.4s.5,1.31.63,1.61c.11.3.21.59.21.64,0,.17-.27.11-.56-.12h0Z"></path>
    <path class="st2" d="M87.84,83.83c-.11-.27-.26-.63-.34-.82-.26-.6-1.64-3.9-1.79-4.24-.08-.18-.29-.68-.48-1.12-.18-.42-.51-1.23-.75-1.79-.22-.55-.56-1.35-.75-1.79-.19-.42-.41-.95-.49-1.14-.09-.2-.23-.56-.34-.78-.88-2.08-1.05-2.54-.96-2.62.06-.06.29-.02.54.09.67.29.83.35,1.65.59.42.13.86.23.97.23s.22.04.26.1c.03.04.28.13.54.18.27.04.54.1.59.12.55.16,2.59.55,3.61.69.31.06.64.15.7.21.12.12.04,1.07-.23,2.83-.07.4-.15.85-.17,1.01-.1.71-.19,1.18-.25,1.34-.03.09-.08.29-.09.45-.06.38-.22,1.15-.45,1.95-.09.37-.25.95-.32,1.28-.27,1.06-1.08,3.51-1.22,3.64-.02.02-.13-.17-.25-.42h0Z"></path>
    <path class="st2" d="M54.8,83.88c-.09-.17-.19-.5-.23-.75-.04-.23-.12-.51-.18-.61-.15-.28-.45-1.32-.45-1.54,0-.12-.04-.26-.1-.31-.06-.07-.16-.41-.23-.78-.25-1.31-.42-2.12-.45-2.12s-.2-1.01-.44-2.46c-.07-.42-.16-.93-.19-1.12-.09-.53-.25-2.45-.2-2.52.02-.04.3-.1.63-.13.32-.04.89-.12,1.26-.19.37-.07.79-.13.95-.17.16-.02.54-.1.84-.17.31-.07.66-.15.78-.17.54-.08,2.42-.63,3.3-.95,1.45-.54,1.37-.53,1.28-.21-.04.15-.28.68-.51,1.17-.25.5-.44.95-.44.98,0,.04-.15.4-.34.79-.18.39-.44.98-.57,1.31-.12.32-.35.84-.48,1.15-.15.3-.48,1.06-.74,1.68-.63,1.49-.79,1.84-1.27,2.9-.22.5-.4.94-.4.98,0,.06-.17.45-.38.89-.2.45-.54,1.2-.74,1.66-.19.48-.4.89-.45.93-.06.03-.17-.08-.26-.25h0Z"></path>
    <path class="st2" d="M47.24,67.93c-.7-.09-1.71-.23-2.23-.34-.53-.11-1.3-.26-1.73-.34-.42-.09-.98-.21-1.23-.28s-.69-.18-1.01-.25c-.85-.17-2.77-.75-3.69-1.11-.12-.04-.41-.15-.64-.21-.23-.07-.42-.17-.42-.21,0-.06.57-.32,1.26-.6,2.87-1.16,4.05-1.65,4.27-1.75.12-.06,2.06-.86,4.3-1.79,2.25-.93,4.27-1.79,4.49-1.9.23-.12.45-.17.48-.12.02.06-.08.45-.23.86-.16.42-.39,1.09-.51,1.5-.11.4-.29.98-.39,1.28-.27.86-.57,2.31-.95,4.52-.1.58-.19.84-.31.85-.09.01-.75-.04-1.45-.12h0Z"></path>
    <path class="st2" d="M94.25,67.77c-.07-.04-.19-.6-.27-1.24-.21-1.63-.73-4.28-.86-4.41-.06-.04-.09-.17-.09-.28s-.2-.8-.45-1.55-.45-1.43-.45-1.51c0-.17.09-.13,2.46.93.4.18,2.4,1.05,3.63,1.59.12.06.6.27,1.06.48.46.21,1.15.53,1.54.68.38.17,1.02.44,1.4.61,1.51.69,1.74.79,2.32,1.02.34.13.7.3.83.38s.42.21.67.29c.25.08.54.2.65.28.19.13.17.16-.22.28-.23.07-.5.16-.59.2-.09.03-.21.07-.28.08-.06.01-.49.12-.95.26-.46.15-1.02.3-1.23.36s-.51.15-.67.19-.32.08-.39.09c-.06.01-.19.04-.28.09-.09.03-.47.11-.84.18-.37.06-.89.17-1.17.22-.28.07-.68.15-.89.17-.21.03-.69.11-1.06.18s-1.17.18-1.79.23-1.31.15-1.53.2c-.22.04-.47.06-.55.01h0Z"></path>
    <path class="st2" d="M107.78,61.77c-.27-.09-1.6-.59-1.84-.69-.12-.06-.42-.17-.67-.27-.47-.18-1.99-.78-2.57-1.03-.18-.08-1.02-.4-1.84-.73-1.69-.65-1.71-.66-2.6-1.05-.36-.16-.7-.29-.78-.29s-.19-.04-.25-.1c-.07-.06-.46-.23-.89-.38-.42-.16-1.21-.46-1.73-.68-.51-.22-.99-.4-1.07-.4-.15,0-.57-.45-.42-.46.56-.04,1.06-.28,3.06-1.42,1.31-.75,2.92-1.81,4.02-2.65.92-.69.85-.69,1.37-.1.98,1.11,3.05,4.03,4.24,5.98.76,1.25,2,3.53,2.19,4.04.12.3.09.34-.21.22h0Z"></path>
    <path class="st2" d="M35.06,61.57c0-.29,1.82-3.51,3-5.31,1.37-2.09,3.62-5.07,3.98-5.28.09-.04.28.02.47.19.59.5,2.3,1.74,2.39,1.74.04,0,.16.07.23.15.28.28,3.27,2.04,4.03,2.37.87.38.92.56.19.8-.82.27-2.49.92-2.79,1.08-.16.09-.31.17-.36.17-.16.02-.47.15-.84.3-.19.09-.4.16-.47.16-.08,0-.25.07-.38.16-.13.09-.37.19-.53.22-.51.11-1.12.35-1.12.42,0,.06-.07.09-.16.09s-.3.06-.48.13c-.17.07-.34.13-.37.15-.23.06-.68.22-1.06.4-.25.1-.83.34-1.28.5s-1.04.37-1.28.46-.49.2-.56.26c-.06.06-.13.09-.17.09-.08.01-.68.23-.95.36-.82.38-1.51.56-1.51.39Z"></path>
    <path class="st2" d="M41.33,45.96c-.73-.95-1.91-2.56-1.91-2.6,0-.02-.27-.44-.59-.92-1.4-2.04-3.65-6.1-3.65-6.57,0-.25.01-.23,1.9.56.83.35,1.89.78,2.35.97.46.18.99.4,1.17.48.73.32,2,.86,4.08,1.72,1.2.49,2.6,1.08,3.13,1.31.53.21,1.17.48,1.45.58.28.11.53.25.55.3.02.07-.2.23-.5.37-2.57,1.24-3.65,1.85-5.84,3.34-.76.53-1.44.97-1.52.99-.08.03-.35-.2-.6-.54h0Z"></path>
    <path class="st2" d="M100.69,46.32c-.07-.1-1.56-1.21-2.04-1.51-.1-.06-.58-.38-1.08-.71-.49-.34-1.07-.7-1.28-.83-.85-.49-2.78-1.42-2.94-1.42-.2,0-.45-.27-.34-.37.03-.04.16-.08.26-.08s.86-.27,1.69-.6c.83-.32,1.63-.64,1.79-.68.23-.07.7-.27,1.5-.61.12-.06.7-.28,1.28-.5,1.56-.6,4.27-1.66,6.42-2.52,1.09-.45,1.94-.71,2-.66.1.1-.87,2.01-1.8,3.57-1.65,2.75-4.74,6.96-5.14,7.01-.13.02-.27-.02-.31-.09h0Z"></path>
    <path class="st2" d="M91.9,38.88s.12-.57.34-1.2c.67-1.97,1.32-4.77,1.69-7.34l.07-.5h.67c.37.02,1.05.09,1.51.16.46.08,1.01.13,1.22.12.2,0,.42.03.5.1.07.06.35.12.63.16,1.18.12,3.72.69,5.59,1.25.34.1.77.22.95.27.65.18,1.51.48,1.56.56.02.04-.37.25-.87.46-.93.37-2.64,1.14-3.03,1.35-.11.07-.29.13-.39.16-.1.02-.5.18-.9.37-1.15.53-1.78.8-1.83.8-.07,0-1.32.56-2.02.9-.25.11-.48.21-.53.21-.06,0-.46.17-.89.37-.45.21-1.06.47-1.35.58s-.56.25-.59.29c-.03.06-.13.1-.23.1-.15,0-1.11.41-1.83.78-.1.06-.21.08-.23.04h0Z"></path>
    <path class="st2" d="M50.81,38.67c-.16-.09-.9-.41-1.68-.73s-1.66-.68-1.99-.84c-.32-.16-.67-.28-.78-.28s-.25-.04-.31-.09c-.06-.06-.45-.23-.88-.41-.42-.17-.94-.38-1.14-.46-.19-.09-.37-.16-.4-.16s-.39-.15-.78-.34c-.4-.18-.78-.34-.84-.34-.07,0-.36-.11-.66-.25-.29-.13-.68-.3-.87-.38-.5-.2-2.74-1.12-3.18-1.3-.21-.09-.49-.2-.61-.25-.32-.11-.12-.21,1.68-.8,1.75-.57,2.68-.83,5.47-1.5,1.36-.34,5.29-.89,5.32-.77,0,.02.07.47.16.99.23,1.51.4,2.38.5,2.62.06.12.12.35.16.5.26,1.25.89,3.32,1.34,4.38.1.23.18.45.18.48,0,.11-.39.04-.67-.11h0Z"></path>
    <path class="st2" d="M60.36,28.27c-.79-.29-1.69-.56-2.4-.71-.21-.06-.51-.12-.67-.16-1.02-.26-3.99-.84-4.52-.89-.29-.03-.34-.09-.37-.39-.04-.48.25-2.73.59-4.59.38-2.02.46-2.4.53-2.57.03-.09.22-.85.42-1.68.21-.83.41-1.59.46-1.68.04-.09.18-.49.3-.88.11-.4.26-.74.31-.76.13-.04.35.37.98,1.87.27.65.61,1.45.77,1.79s.38.87.5,1.17c.12.31.46,1.08.75,1.73.28.65,1.05,2.4,1.7,3.91s1.3,3,1.44,3.33c.42.94.4.95-.79.51h0Z"></path>
    <path class="st2" d="M81.64,28.42c0-.09.04-.2.1-.26.06-.07.6-1.26,1.22-2.68,1.05-2.45,2.62-6.07,3.43-7.88.2-.46.58-1.34.84-1.95s.54-1.28.63-1.5c.11-.23.21-.34.27-.28.09.09.49,1.27.71,2.11.02.07.06.19.09.28.17.46.45,1.56.66,2.57.06.28.18.8.27,1.17.09.37.19.85.21,1.06.03.21.11.69.19,1.06.07.37.13.85.16,1.06s.1.79.17,1.28c.08.49.15,1.14.16,1.45.01.51-.01.56-.27.58-.27.01-1.31.19-1.9.3-.16.03-.56.11-.89.17-.88.16-1.26.25-1.45.32-.09.03-.29.08-.45.09-.16.01-.73.16-1.28.31-.55.17-1.09.32-1.2.35-.11.02-.36.11-.56.21-.59.26-1.09.34-1.09.16h0Z"></path>
    <path class="st2" d="M78.81,27.46c-.03-.06-.36-.69-.73-1.43-.74-1.46-2.37-4.05-3.46-5.48-.38-.51-.67-.96-.64-1.02.11-.19,3.18-2.48,4.48-3.33,2.35-1.56,6.13-3.72,6.27-3.59.07.06-.21.83-1.13,3.15-.39.98-1.02,2.57-1.39,3.52-.38.95-.73,1.82-.79,1.92-.06.11-.11.26-.11.32s-.07.28-.16.47c-.09.2-.5,1.22-.9,2.26-.41,1.05-.82,2.03-.89,2.2s-.18.46-.22.65c-.08.35-.22.51-.32.36h0Z"></path>
    <path class="st2" d="M63.83,26.68c-.17-.41-.35-.85-.39-.97-.06-.12-.41-1.03-.79-2.01-.38-.98-.75-1.93-.83-2.12-.08-.18-.28-.68-.45-1.12-.17-.42-.37-.95-.47-1.15-.16-.35-.66-1.65-1.2-3.09-.15-.37-.34-.86-.44-1.08-.09-.22-.29-.73-.42-1.12-.15-.39-.35-.88-.45-1.09-.34-.68-.22-.66,1.63.31,2.16,1.13,5.29,3.18,7.91,5.18,1.24.96,1.22.84.45,1.9-1.66,2.32-2.55,3.72-3.45,5.53l-.79,1.59-.31-.75h0Z"></path>
  </g>
  <g>
    <path class="st1" d="M84.53,85.51c-.27-.15-.26-.32.02-.32.15,0,.22.08.22.22,0,.26.01.26-.25.1Z"></path>
    <path class="st1" d="M59.64,84.8c0-.09.02-.17.04-.17s.12-.03.22-.07c.26-.1.22.1-.04.27-.19.11-.22.11-.22-.03h0Z"></path>
    <path class="st1" d="M60.2,84.51c0-.11.45-.36.53-.28.03.02.02.1-.01.16-.09.15-.51.25-.51.12h0Z"></path>
    <path class="st1" d="M87.97,84.13c-.11-.29-.08-.39.1-.39.19,0,.21.2.07.42-.08.12-.11.11-.17-.03Z"></path>
    <path class="st1" d="M54.8,83.91c-.06-.11,0-.17.16-.17.13,0,.21.06.19.13-.07.2-.28.22-.35.03h0Z"></path>
    <path class="st1" d="M61.65,83.64c0-.11.34-.27.41-.19.03.03.02.1-.02.17-.09.15-.39.17-.39.02Z"></path>
    <path class="st1" d="M80.65,83.36c-.17-.09-.22-.18-.13-.22.07-.04.12-.02.12.04s.04.1.1.07c.06-.03.12.01.17.1.07.2.08.2-.26.01Z"></path>
    <path class="st1" d="M62.77,82.97c0-.12.35-.27.44-.18.03.03-.01.11-.1.17-.21.13-.34.13-.34.01Z"></path>
    <path class="st1" d="M64.11,82.06c0-.12.07-.22.16-.22.22,0,.31.3.11.38-.26.1-.27.09-.27-.16Z"></path>
    <path class="st1" d="M88.75,81.78c-.03-.1,0-.17.1-.17.18,0,.22.18.07.27-.06.03-.12-.01-.17-.1Z"></path>
    <path class="st1" d="M89.66,78.43c-.04-.19-.01-.28.09-.28.09,0,.16.1.16.21,0,.34-.19.38-.25.07Z"></path>
    <path class="st1" d="M52.2,67.07c.07-1.17.16-2,.45-3.89.22-1.46.68-3.57,1.04-4.78l.2-.71,3.74-1.6c2.06-.87,5.15-2.18,6.87-2.9s3.62-1.53,4.21-1.79c.59-.27,1.11-.46,1.13-.44.03.03-.32.87-.78,1.87-1.08,2.38-1.05,2.3-1.65,3.65-.29.65-.86,1.93-1.28,2.85-.42.93-1.27,2.8-1.89,4.19-1.27,2.83-1.52,3.31-1.69,3.26-.07-.01-.2.04-.29.13-.09.1-.23.15-.32.11-.09-.04-.26-.03-.36.02-.11.04-.32.1-.48.11-.16.02-.57.09-.92.16-1.33.23-1.94.31-2.52.32-.32.01-.67.06-.78.12-.1.06-.94.16-1.87.23-.92.07-1.94.15-2.28.18l-.59.06.07-1.16h0Z"></path>
    <path class="st1" d="M88.77,67.98c-1.08-.04-2.13-.13-2.35-.2s-.5-.12-.65-.12c-.3.01-1.08-.13-1.9-.34-.28-.07-.63-.15-.78-.17s-.5-.1-.78-.17-.63-.15-.78-.17c-.8-.15-1.01-.2-1.14-.36-.12-.15-1.15-2.47-1.65-3.72-.22-.55-2.26-5.19-2.79-6.37-.18-.4-.6-1.37-.95-2.18-.74-1.71-.71-1.68-1.18-2.71-.2-.45-.34-.83-.3-.86s.5.15,1.05.4,1.8.82,2.78,1.24c2.3,1.01,4.87,2.13,6.7,2.94.8.36,2.3,1.01,3.34,1.45,1.39.6,1.93.89,2.03,1.08.16.29.3.96.56,2.49.31,1.83.39,2.35.44,2.85.02.28.1.9.17,1.4s.15,1.17.16,1.51c.02.34.08.93.12,1.3.04.38.04.7-.01.73-.06.03-.98.02-2.08-.02h0Z"></path>
    <path class="st1" d="M46.2,67.8s-.08-.12-.08-.19c0-.08.03-.08.09.01.04.07.23.15.41.18l.34.04-.35.02c-.19,0-.38-.02-.41-.07Z"></path>
    <path class="st1" d="M95.83,67.55c0-.12.44-.28.53-.2.03.03.02.11-.02.18-.09.15-.5.17-.5.02Z"></path>
    <path class="st1" d="M98.42,67.18c.06-.17.31-.26.31-.11,0,.06-.08.15-.18.18-.11.04-.16.01-.13-.07Z"></path>
    <path class="st1" d="M99.85,66.87c0-.06.1-.11.21-.11.12,0,.26.06.29.11.04.07-.06.11-.21.11s-.29-.04-.29-.11Z"></path>
    <path class="st1" d="M101.88,66.53c.02-.08.11-.17.19-.19.09-.03.13.01.1.1-.02.08-.11.17-.19.19-.09.03-.13-.01-.1-.1Z"></path>
    <path class="st1" d="M102.68,66.28c.02-.08.13-.13.26-.13.11,0,.28-.04.36-.1.16-.09.34-.01.21.11-.03.03-.25.1-.47.16-.29.07-.39.06-.36-.03h0Z"></path>
    <path class="st1" d="M39.08,66.2c-.09-.06-.12-.13-.09-.18.04-.03.16.01.26.11.2.19.1.23-.17.07Z"></path>
    <path class="st1" d="M105.12,65.62c.06-.17.31-.26.31-.11,0,.06-.08.15-.18.18-.11.04-.16.01-.13-.07h0Z"></path>
    <path class="st1" d="M105.74,65.43c.03-.16.15-.23.32-.23.15,0,.27.06.27.11,0,.07-.09.11-.2.11s-.26.06-.32.12c-.1.1-.11.08-.07-.11Z"></path>
    <path class="st1" d="M36.44,65.34c-.2-.08-.18-.22.03-.3.1-.04.15-.02.09.06-.04.07,0,.17.08.22.17.1.02.12-.2.02Z"></path>
    <path class="st1" d="M106.44,65.08c-.09-.06-.12-.13-.09-.17.04-.04.19,0,.34.1.27.19.06.26-.25.07Z"></path>
    <path class="st1" d="M107.59,61.6c.02-.08.11-.15.19-.15s.17.07.2.15c.02.08-.06.13-.2.13s-.22-.06-.19-.13Z"></path>
    <path class="st1" d="M35.06,61.53c0-.09.82-.37.88-.29.03.02-.04.12-.17.21-.22.17-.71.22-.71.08h0Z"></path>
    <path class="st1" d="M107.12,61.52c-.1-.07-.11-.12-.02-.17.07-.04.12-.02.12.04s.06.09.11.06c.07-.03.11-.01.11.04,0,.15-.11.16-.32.02h0Z"></path>
    <path class="st1" d="M106.51,61.3c-.18-.07-.19-.1-.07-.18.1-.06.17-.04.2.03.02.08.09.11.15.07.06-.03.1,0,.1.06,0,.13-.08.15-.38.02h0Z"></path>
    <path class="st1" d="M36.53,61.05c.06-.12.16-.21.21-.21.04,0,.17-.03.27-.07.36-.13.17.13-.21.31-.37.17-.38.16-.27-.03Z"></path>
    <path class="st1" d="M105.23,60.81c-.13-.08-.22-.18-.18-.22.03-.03.15.01.23.1.1.09.25.15.32.11.09-.03.16-.01.16.04,0,.15-.22.13-.54-.03h0Z"></path>
    <path class="st1" d="M104.33,60.46c-.18-.1-.22-.17-.13-.23.08-.04.2,0,.27.09.08.09.21.19.3.22q.15.06,0,.07c-.09,0-.29-.07-.44-.15Z"></path>
    <path class="st1" d="M38.33,60.37c.06-.17.31-.26.31-.11,0,.06-.08.15-.18.18-.11.04-.16.01-.13-.07h0Z"></path>
    <path class="st1" d="M103.56,60.14c-.13-.08-.22-.18-.18-.22.03-.03.15.01.23.1.09.09.21.13.27.1.06-.04.1-.01.1.04,0,.16-.11.15-.42-.02h0Z"></path>
    <path class="st1" d="M40.65,59.4c0-.13.44-.28.54-.18.08.08-.19.28-.39.28-.08,0-.15-.04-.15-.1Z"></path>
    <path class="st1" d="M41.68,59.03c.06-.17.31-.26.31-.11,0,.06-.08.15-.18.18-.11.04-.16.01-.13-.07h0Z"></path>
    <path class="st1" d="M100.87,59.06c-.1-.07-.11-.12-.02-.17.07-.04.12-.02.12.04,0,.08.08.11.17.07.09-.03.17-.01.17.04,0,.13-.22.15-.44.01h0Z"></path>
    <path class="st1" d="M43.22,58.49c0-.1.35-.34.49-.34.18,0,.03.2-.21.31-.16.08-.28.09-.28.02Z"></path>
    <path class="st1" d="M44.11,58.17c0-.13.22-.3.54-.39.35-.11.3.07-.08.3-.37.21-.46.23-.46.09h0Z"></path>
    <path class="st1" d="M98.58,58.17c-.17-.07-.18-.1-.06-.15.09-.03.22.01.3.09.16.17.08.19-.25.06Z"></path>
    <path class="st1" d="M45.41,57.68c.08-.2.58-.47.68-.37.1.1-.09.29-.29.29-.1,0-.26.07-.34.15-.11.11-.12.09-.06-.07Z"></path>
    <path class="st1" d="M46.35,57.28c.12-.25.34-.32.34-.12,0,.06-.1.16-.23.22-.21.12-.22.11-.1-.1Z"></path>
    <path class="st1" d="M95.55,56.95c-.28-.13-.39-.23-.3-.29.08-.04.13-.02.13.04s.06.09.11.06c.07-.03.11-.01.11.06,0,.08.07.11.16.08.09-.03.19.01.22.1.03.09.04.16.03.16s-.22-.1-.47-.2h0Z"></path>
    <path class="st1" d="M47.22,56.9c.09-.1.34-.23.56-.31.22-.07.46-.17.53-.22.13-.13.39-.12.39,0,0,.06-.27.2-.58.32-.32.12-.69.27-.82.31-.2.08-.2.07-.08-.1Z"></path>
    <path class="st1" d="M49.48,56.07c.02-.29.17-.47.31-.38.19.12.08.46-.16.46-.09,0-.17-.03-.16-.08h0Z"></path>
    <path class="st1" d="M93.22,55.94c-.17-.19-.17-.21-.01-.28.11-.04.16-.02.1.07-.04.07.01.19.12.28.12.08.16.15.09.15-.06,0-.2-.09-.3-.21h0Z"></path>
    <path class="st1" d="M52.75,55.37c-.25-.1-1.35-.82-2.49-1.62-.84-.58-2.77-2.04-2.9-2.18-.03-.03-.23-.19-.45-.34-.41-.29-.51-.37-1.28-1.01-.27-.21-.64-.51-.84-.66l-.35-.27.82-.84c.45-.45,1.05-1.01,1.34-1.23,3.06-2.39,6.19-4.46,6.56-4.35.1.03,1.46.55,3.03,1.14,1.56.59,4.05,1.53,5.53,2.08,2.73,1.02,4.38,1.65,5.84,2.22.45.18.98.36,1.21.4.21.03.37.12.35.19-.04.16-.66.51-.77.46-.04-.03-.1,0-.15.07-.03.06-.15.11-.22.11-.09,0-.45.13-.8.29-.9.4-1.02.46-1.68.71-.32.12-.86.32-1.17.45-.64.25-.74.29-1.6.67-.3.15-.75.32-.98.4-.22.08-.58.22-.78.31-.19.09-.96.39-1.7.68-1.34.53-1.73.69-2.45,1.01-.21.09-.42.17-.48.17s-.35.12-.66.27c-.3.15-.87.38-1.27.51-.4.15-.77.3-.83.36-.13.11-.49.1-.82-.02h0Z"></path>
    <path class="st1" d="M89.64,55.3c-.23-.09-.59-.23-.78-.31-.19-.09-.77-.31-1.3-.51-.53-.19-1.15-.45-1.4-.56-.25-.1-.57-.23-.73-.28s-.42-.15-.61-.22c-.18-.08-1.14-.46-2.12-.84s-1.99-.78-2.23-.88c-.25-.11-.65-.27-.89-.35-.25-.08-.76-.29-1.15-.46-.38-.18-.74-.32-.78-.32-.1,0-3.06-1.17-3.36-1.34-.29-.15-.21-.34.13-.34.15,0,.9-.26,1.7-.57.8-.3,2.08-.8,2.85-1.11.77-.29,2.38-.93,3.57-1.4s2.9-1.13,3.8-1.46c.89-.35,1.82-.71,2.07-.83s.76-.31,1.14-.45c.61-.22.74-.23,1.05-.11.7.29,3.04,1.94,5.29,3.73.44.35.9.71,1.06.82.59.4,1.79,1.52,1.79,1.65,0,.15-1.81,1.89-2.36,2.26-.15.11-.55.41-.88.69-1.11.89-4.58,3.14-4.86,3.14-.09,0-.19.06-.22.11-.09.13-.22.12-.77-.07h0Z"></path>
    <path class="st1" d="M69.13,47.1c-.28-.17-2.08-1.01-2.16-1.01s-1.99-.83-3.52-1.52c-.32-.15-.6-.27-.63-.27-.03,0-.42-.18-.88-.39-.46-.21-.86-.39-.89-.39s-.5-.2-1.03-.45-.98-.45-1.01-.45-.42-.18-.88-.39c-.47-.21-.87-.39-.9-.39-.02,0-.31-.12-.64-.27s-.92-.4-1.32-.58c-1.01-.44-1.36-.64-1.46-.83-.12-.23-.23-.58-.28-.84-.16-.9-.34-1.73-.41-1.8-.04-.04-.08-.25-.08-.44s-.03-.39-.08-.44c-.06-.04-.1-.22-.11-.38-.01-.17-.1-.83-.2-1.47-.35-2.37-.56-4.8-.42-4.99.08-.11.36-.11,1.21-.02,2.7.28,3.8.4,3.8.44,0,.01.53.09,1.17.18,1.75.22,3.59.6,4.09.84.26.12.84.97.92,1.33.03.18.22.63,1.47,3.46.18.4.4.95.51,1.23.1.28.22.56.27.61.04.07.57,1.24,1.17,2.62.59,1.39,1.33,3.09,1.64,3.8.3.7.7,1.6.88,1.98.4.84.31,1.14-.23.82h0Z"></path>
    <path class="st1" d="M73.42,46.83c.17-.26,2.08-4.49,2.08-4.6,0-.03.12-.32.28-.64.15-.32.8-1.81,1.46-3.32,3.28-7.55,3-6.97,3.47-7.08,1.8-.45,3.23-.69,4.56-.82.37-.03.73-.1.78-.15.07-.04.67-.12,1.34-.16.68-.04,1.39-.12,1.56-.18.19-.06.7-.11,1.14-.15l.82-.04-.07,1.74c-.04.96-.11,1.83-.17,1.93s-.1.38-.1.6c0,.23-.04.57-.1.76-.07.19-.16.7-.22,1.13-.12.82-.37,2.03-.56,2.79-.07.25-.18.71-.25,1.04-.15.65-.1.61-1.78,1.33-.21.09-.61.27-.89.39s-.6.27-.73.31c-.12.06-.56.25-.97.44-.41.19-.77.35-.82.35-.03,0-.44.18-.88.39-.46.21-.85.39-.88.39s-.45.18-.9.39c-.47.21-.87.39-.9.39s-.49.2-1.02.45c-.53.25-.98.45-1.01.45s-.37.16-.77.34c-.4.19-.76.34-.79.34-.02,0-.42.18-.87.39-.46.21-.85.39-.88.39-.02,0-.29.11-.59.25s-.58.25-.63.26c-.03,0-.11.03-.16.09-.04.04-.23.08-.41.08q-.32,0-.15-.27h0Z"></path>
    <path class="st1" d="M71.43,46.42c-.28-.77-2.22-5.78-2.4-6.19-.06-.12-.21-.53-.35-.89-.15-.37-.29-.77-.35-.89s-.25-.63-.44-1.12-.39-.99-.45-1.12-.41-1.03-.78-2.01-.75-1.94-.84-2.14c-.09-.19-.17-.39-.17-.45s-.1-.31-.22-.58c-.15-.29-.2-.56-.16-.71.11-.39,2.17-3.61,2.97-4.66.11-.16.37-.48.55-.73,1.02-1.34,2.51-2.96,2.74-2.96.16,0,1.15,1.13,2.22,2.51.37.47.84,1.07,1.04,1.32,1.52,1.94,3.04,4.24,3.04,4.6,0,.11-.35,1.09-.77,2.17-.42,1.08-1.06,2.69-1.41,3.59s-.9,2.3-1.23,3.13-.87,2.23-1.23,3.13c-1.7,4.36-1.68,4.31-1.78,4.01h0Z"></path>
    <path class="st1" d="M100.74,46.32c0-.06.1-.11.22-.11s.22.06.22.11c0,.07-.1.11-.22.11s-.22-.04-.22-.11Z"></path>
    <path class="st1" d="M45.34,44.1c0-.12.35-.27.44-.18.03.03-.01.11-.1.17-.21.13-.34.13-.34.01Z"></path>
    <path class="st1" d="M47.46,42.91c0-.09.02-.17.04-.17s.12-.03.22-.07c.26-.1.22.1-.04.27-.19.11-.22.11-.22-.03Z"></path>
    <path class="st1" d="M48.46,42.43c.09-.18.85-.58,1.07-.58.19,0-.01.2-.36.38-.23.11-.51.25-.63.31-.18.09-.19.07-.09-.11h0Z"></path>
    <path class="st1" d="M93.82,42.05c-.28-.12-.57-.26-.65-.3-.2-.09-.19-.28.02-.32.12-.02.16.02.11.13-.07.17.11.25.44.19.04,0,.08.04.08.11,0,.06.04.09.1.04.06-.03.18.01.27.1.09.09.19.13.23.1.03-.04.07-.01.07.06,0,.18-.08.17-.67-.11h0Z"></path>
    <path class="st1" d="M50.9,38.71c-.11-.06-.2-.17-.2-.25s.04-.07.11.03c.09.13.15.15.32.03.18-.11.22-.1.28.03.03.1.07.2.07.22,0,.09-.39.03-.58-.08h0Z"></path>
    <path class="st1" d="M92.37,38.58c0-.09.12-.2.27-.23.15-.03.35-.1.45-.13.1-.03.18-.02.18.04s-.17.18-.36.26c-.2.08-.4.16-.45.19-.06.02-.09-.03-.09-.12h0Z"></path>
    <path class="st1" d="M94.15,37.81c.12-.13.26-.2.3-.17.03.04-.02.16-.15.25-.32.25-.41.2-.16-.08Z"></path>
    <path class="st1" d="M48.48,37.67c-.17-.09-.22-.18-.13-.22.07-.04.12-.02.12.04s.03.1.09.08c.04-.03.15.01.22.1.18.19.04.19-.3,0h0Z"></path>
    <path class="st1" d="M94.96,37.47c.06-.17.31-.26.31-.11,0,.06-.08.15-.18.18-.11.04-.16.01-.13-.07Z"></path>
    <path class="st1" d="M95.72,37.18c0-.06.07-.16.15-.21.2-.16,1.44-.6,1.5-.55.09.09-.09.29-.26.29-.12,0-.86.3-1.3.53-.06.02-.09,0-.09-.06h0Z"></path>
    <path class="st1" d="M46.07,36.7c-.13-.2.03-.25.22-.06.16.16.16.18.01.18-.09,0-.2-.06-.23-.12Z"></path>
    <path class="st1" d="M97.84,36.16c0-.1.46-.26.54-.18.02.02.01.09-.03.16-.09.15-.5.17-.5.02Z"></path>
    <path class="st1" d="M44.17,35.92c-.04-.07-.04-.15-.01-.18.03-.04.07-.01.07.07,0,.09.08.12.17.08.09-.03.17-.01.17.04,0,.15-.3.15-.39-.01Z"></path>
    <path class="st1" d="M98.51,35.93c0-.1.45-.34.63-.34.16,0,0,.21-.23.31-.36.17-.39.17-.39.02Z"></path>
    <path class="st1" d="M100.1,35.25c.02-.08.11-.17.19-.19.09-.03.13.01.1.1-.02.08-.11.17-.19.19-.09.03-.13-.01-.1-.1Z"></path>
    <path class="st1" d="M100.81,34.96c.25-.26.71-.44.71-.28,0,.07-.17.18-.36.26-.2.08-.41.17-.47.19-.06.03-.01-.04.11-.17Z"></path>
    <path class="st1" d="M41.66,34.94c-.1-.07-.11-.12-.02-.17.07-.04.12-.02.12.04,0,.08.08.11.17.07.09-.03.17-.01.17.04,0,.13-.22.15-.44.01Z"></path>
    <path class="st1" d="M41.07,34.69c-.11-.06-.2-.17-.2-.22,0-.07.08-.03.18.06.09.1.22.16.28.12.06-.04.1-.01.1.04,0,.16-.11.15-.36,0Z"></path>
    <path class="st1" d="M101.66,34.57c.06-.17.31-.26.31-.11,0,.06-.08.15-.18.18-.11.04-.16.01-.13-.07Z"></path>
    <path class="st1" d="M102.42,34.27c.12-.23.28-.32.87-.5.36-.12.31.13-.06.27-.18.07-.46.19-.63.29-.31.18-.32.18-.19-.06h0Z"></path>
    <path class="st1" d="M104.21,33.47c0-.1.35-.34.49-.34.18,0,.03.2-.21.31-.16.08-.28.09-.28.02Z"></path>
    <path class="st1" d="M105.21,33.03c0-.1.35-.34.49-.34.18,0,.03.2-.21.31-.16.08-.28.09-.28.02Z"></path>
    <path class="st1" d="M106.24,32.51c-.27-.29-.1-.37.25-.12.17.12.18.17.06.21-.09.03-.22-.01-.3-.09Z"></path>
    <path class="st1" d="M61.09,28.39c0-.09.08-.17.17-.17s.17.08.17.17-.08.17-.17.17-.17-.08-.17-.17Z"></path>
    <path class="st1" d="M82.89,28.09c.06-.17.31-.26.31-.11,0,.06-.08.15-.18.18-.11.04-.16.01-.13-.07Z"></path>
    <path class="st1" d="M83.32,28c0-.1.35-.34.49-.34.18,0,.03.2-.21.31-.16.08-.28.09-.28.02Z"></path>
    <path class="st1" d="M78.68,27.33c-.03-.07.01-.15.11-.18.21-.09.34,0,.22.17-.09.16-.25.16-.34.01Z"></path>
    <path class="st1" d="M86.11,27.24c.08-.17.19-.23.3-.2.1.04.25.01.34-.06.17-.15.31-.07.2.11-.03.07-.21.12-.38.12s-.37.07-.45.15c-.12.11-.12.09-.01-.12Z"></path>
    <path class="st1" d="M56.07,27.12c-.1-.07-.11-.12-.02-.17.07-.04.12-.02.12.06s.12.11.34.08c.19-.03.34-.01.34.04,0,.12-.57.11-.77-.01h0Z"></path>
    <path class="st1" d="M63.99,27.05c0-.09.08-.17.17-.17s.17.08.17.17-.08.17-.17.17-.17-.08-.17-.17Z"></path>
    <path class="st1" d="M87.45,26.88c0-.06.08-.11.17-.11s.17.06.17.11c0,.07-.08.11-.17.11s-.17-.04-.17-.11Z"></path>
    <path class="st1" d="M81.62,20.37c-.04-.21-.01-.3.09-.3.17,0,.18.07.06.39-.08.19-.09.19-.15-.09Z"></path>
    <path class="st1" d="M88.19,14.2c-.03-.1-.11-.15-.18-.11-.12.08-.16-.09-.03-.2.03-.04.15.02.23.16.09.12.13.25.1.28-.02.03-.08-.02-.12-.12h0Z"></path>
  </g>
  <path class="st3" d="M70.35,82.8s-.21-.09-.39-.11c-1.18-.16-2.46-.9-3.73-2.18-.89-.9-1.15-1.24-1.6-2.13-.29-.58-.55-1.16-.58-1.28s-.11-.47-.18-.78c-.06-.3-.16-.71-.22-.9-.06-.19-.1-.93-.1-1.64,0-1.03.06-1.53.28-2.39.36-1.39.66-1.99,1.87-3.8.54-.8.98-1.51.98-1.54,0-.04.1-.21.22-.39.32-.46,2.01-3.68,2.01-3.84,0-.03.18-.46.4-.93.22-.48.5-1.17.63-1.54.13-.37.35-.92.49-1.22.15-.31.27-.65.27-.76s.04-.29.1-.4c.13-.23.4-1.04.58-1.7.2-.75.22-.82.23-1.09.01-.39.36-.27.4.15.01.19.08.44.12.56.06.12.16.42.21.67.07.25.23.83.38,1.28.13.46.26.86.26.89.01.03.04.13.09.22.03.09.15.39.23.67.87,2.6,2.28,5.5,3.79,7.8.51.78,1.15,1.82,1.41,2.31.51.97,1.04,2.18.94,2.18-.03,0-.01.07.06.15s.18.66.25,1.31c.07.64.15,1.2.17,1.24.07.1-.27,2.67-.41,3.12-.27.89-1.04,2.29-1.63,2.99-1.95,2.3-3.31,3-6,3.12-.79.03-1.49.02-1.52-.01h0Z"></path>
  <g>
    <path class="st4" d="M63.85,110.48s.01-.26.1-.48c.09-.22.29-.73.44-1.13.15-.4.37-1.01.5-1.34s.34-.86.45-1.17c.11-.3.51-1.36.89-2.35s.84-2.19,1.02-2.68.73-1.92,1.21-3.18l.88-2.29,2.57-.03c2.37-.02,2.57-.01,2.65.17.04.11.41,1.11.84,2.21.42,1.11,1.03,2.69,1.34,3.52s.69,1.83.84,2.23.42,1.13.61,1.62.45,1.15.56,1.45c.11.31.44,1.16.71,1.89s.51,1.4.51,1.49c0,.2-4.6.21-4.78.01-.06-.08-.29-.73-.5-1.43-.55-1.79-1.2-3.9-1.31-4.3-.04-.18-.35-1.16-.67-2.18s-.61-1.95-.64-2.09c-.09-.41-.35-.29-.48.22-.13.5-1.95,6.43-2.12,6.89-.06.16-.26.84-.46,1.51-.19.68-.4,1.3-.47,1.37-.08.1-.69.13-2.37.13-1.24,0-2.28-.03-2.32-.07h0Z"></path>
    <path class="st4" d="M70.28,82.77c-.08-.02-.15-.1-.15-.16,0-.17.59-.07.65.1.04.13-.23.17-.5.06Z"></path>
    <path class="st4" d="M72.26,82.76c0-.16.69-.29.99-.19.13.04.23.02.23-.04s.06-.12.11-.12c.18,0,1.94-.82,1.99-.92.02-.06.11-.09.2-.09s.16-.04.16-.11c0-.06.08-.11.17-.11.44,0,0,.41-.93.88-.96.49-2.93.96-2.93.7Z"></path>
    <path class="st4" d="M69.51,82.58c-.11-.09-.18-.2-.12-.25.04-.04.08-.02.08.06s.03.11.09.09c.04-.03.15.01.22.1.19.2.01.2-.27,0Z"></path>
    <path class="st4" d="M68.72,82.33c-.42-.18-.51-.44-.11-.31.23.07.74.5.56.48-.04,0-.26-.08-.45-.17Z"></path>
    <path class="st4" d="M67.6,81.73c-.2-.12-.37-.27-.37-.34,0-.06.18,0,.39.12.21.13.39.28.39.34q0,.13-.41-.12Z"></path>
    <path class="st4" d="M71.61,54.17c-.01-.44.15-.57.3-.27.16.29.16.35-.03.35-.09,0-.18.07-.21.15-.02.07-.04-.03-.06-.22h0Z"></path>
  </g>
  <metadata></metadata>
</svg>
