<?xml version="1.0" encoding="UTF-8"?>
<svg xmlns="http://www.w3.org/2000/svg" xmlns:i="http://ns.adobe.com/AdobeIllustrator/10.0/" id="Capa_1" version="1.1" viewBox="0 0 274.17 120">
  <defs>
    <style>
      .st0 {
        fill: #fff;
      }

      .st0, .st1, .st2 {
        fill-rule: evenodd;
      }

      .st1 {
        fill: #edc83d;
      }

      .st2 {
        fill: #37528b;
      }
    </style>
  </defs>
  <path class="st0" d="M2.7-66.78h268.78V202H2.7V-66.78Z"></path>
  <path class="st2" d="M6.65,89.6v-43.98h46.69v43.98H6.65ZM81.28,88.02l-17.3-41.23h12.57l11.02,26.5,11.02-26.5h12.4l-17.22,41.23h-12.5ZM105.01,88.03l17.21-41.3h13.12l17.39,41.3h-12.32l-2.24-5.26h-18.81l-2.11,5.26h-12.24ZM152.78,88.02v-41.31h20.79c7.55,0,13.7,5.69,13.7,13.35,0,5.13-2.84,9.99-7.58,12.02l13.57,15.94h-14.68l-14.53-17.12v17.12h-11.26s0,0,0,0ZM201.3,88.02v-29.81h-11.2v-11.44h34.36v11.44h-11.51v29.81h-11.64ZM219.82,88.03l17.2-41.3h13.11l17.39,41.3h-12.31l-2.24-5.26h-18.82l-2.09,5.26h-12.24,0Z"></path>
  <path class="st0" d="M164.03,66.1h6.33c3.29-.02,5.51-1.44,5.51-4.98s-2.22-4.98-5.51-4.98l-6.33-.02v9.98h0Z"></path>
  <path class="st1" d="M7.07,46.05l22.63,36,23.19-35.98-45.82-.02h0Z"></path>
  <path class="st0" d="M123.33,73.14h10.82l-5.35-12.93-5.47,12.93ZM238.12,73.14h10.84l-5.35-12.93-5.49,12.93Z"></path>
  <metadata></metadata>
</svg>
