<?xml version="1.0" encoding="UTF-8"?>
<svg xmlns="http://www.w3.org/2000/svg" xmlns:i="http://ns.adobe.com/AdobeIllustrator/10.0/" id="Capa_1" version="1.1" viewBox="0 0 281.74 120">
  <defs>
    <style>
      .st0 {
        fill: #919195;
      }

      .st1 {
        fill: #fe660d;
      }
    </style>
  </defs>
  <g>
    <path class="st0" d="M136.51,60.75h1.67c3.61,0,7.01-.41,7.01-4.7,0-2.99-1.74-4.69-4.79-4.69h-3.89v9.39ZM134.12,49.32h5.97c4.54,0,7.5,2.25,7.5,6.73s-3.4,6.73-7.74,6.73h-3.34v10.27h-2.39v-23.74h0ZM161.19,64.31h-.62c-3.78,0-8.3.37-8.3,4.18,0,2.28,1.67,3.13,3.68,3.13,5.14,0,5.24-4.39,5.24-6.26v-1.06h0ZM161.4,70.27h-.07c-.97,2.07-3.43,3.2-5.62,3.2-5.03,0-5.83-3.33-5.83-4.9,0-5.81,6.32-6.09,10.9-6.09h.42v-.88c0-2.96-1.07-4.46-4.02-4.46-1.84,0-3.57.41-5.2,1.43v-2.07c1.35-.65,3.64-1.2,5.2-1.2,4.37,0,6.21,1.94,6.21,6.46v7.65c0,1.4,0,2.45.17,3.64h-2.15v-2.79h0ZM168.58,59.79c0-1.33,0-2.69-.14-4.09h2.12v3.1h.07c.73-1.57,2.04-3.51,5.72-3.51,4.38,0,6.04,2.85,6.04,6.67v11.09h-2.18v-10.55c0-3.26-1.17-5.37-4.2-5.37-3.99,0-5.25,3.44-5.25,6.33v9.59h-2.18v-13.26h0ZM195.51,57.55h-4.02v11.23c0,1.56.6,2.86,2.36,2.86.83,0,1.39-.17,2.01-.41l.15,1.77c-.52.21-1.6.48-2.68.48-3.89,0-4.02-2.62-4.02-5.78v-10.14h-3.47v-1.84h3.47v-4.18l2.18-.75v4.93h4.02v1.84h0ZM209.39,64.31h-.63c-3.78,0-8.29.37-8.29,4.18,0,2.28,1.66,3.13,3.68,3.13,5.13,0,5.24-4.39,5.24-6.26v-1.06h0ZM209.6,70.27h-.07c-.98,2.07-3.44,3.2-5.62,3.2-5.03,0-5.84-3.33-5.84-4.9,0-5.81,6.32-6.09,10.9-6.09h.42v-.88c0-2.96-1.07-4.46-4.03-4.46-1.84,0-3.57.41-5.21,1.43v-2.07c1.36-.65,3.65-1.2,5.21-1.2,4.38,0,6.22,1.94,6.22,6.46v7.65c0,1.4,0,2.45.17,3.64h-2.15v-2.79h0ZM216.78,47.55h2.19v25.51h-2.19v-25.51ZM235.28,63.16c0-3.03-1.25-6.02-4.51-6.02s-5.21,3.16-5.21,6.02h9.72ZM236.36,72.51c-1.53.61-3.51.96-5.14.96-5.87,0-8.06-3.88-8.06-9.08s2.98-9.09,7.47-9.09c5,0,7.04,3.95,7.04,8.61v1.09h-12.11c0,3.67,2.02,6.64,5.83,6.64,1.6,0,3.92-.65,4.97-1.3v2.18h0ZM248.75,71.63c3.81,0,5.87-3.23,5.87-7.25s-2.05-7.25-5.87-7.25-5.87,3.23-5.87,7.25,2.04,7.24,5.86,7.24M248.74,55.3c5.73,0,8.26,4.35,8.26,9.08s-2.53,9.08-8.26,9.08-8.26-4.36-8.26-9.08,2.53-9.08,8.26-9.08M261.13,59.79c0-1.33,0-2.69-.14-4.09h2.12v3.1h.07c.73-1.57,2.05-3.51,5.73-3.51,4.37,0,6.04,2.85,6.04,6.67v11.09h-2.19v-10.55c0-3.26-1.18-5.37-4.2-5.37-4,0-5.25,3.44-5.25,6.33v9.59h-2.19v-13.26h0Z"></path>
    <path class="st1" d="M48.83,14.59v33.36M50.04,47.95h-2.41V14.59h2.41v33.36ZM57.45,14.61v20.43M58.66,35.03h-2.41V14.61h2.41v20.43ZM82.86,24.91l-24.08,23.59M59.38,49.09l-1.19-1.17,24.08-23.59,1.2,1.18-24.08,23.59h0ZM88.94,30.9l-14.73,14.44M74.8,45.93l-1.19-1.17,14.73-14.44,1.2,1.17-14.74,14.44h0ZM99.46,55.79h-34.04M99.46,56.97h-34.04v-2.37h34.04v2.37ZM99.45,64.24h-20.84M99.45,65.42h-20.84v-2.36h20.84v2.36ZM88.93,89.13l-24.08-23.59M87.4,90.64l-24.07-23.6,3.07-3.01,24.08,23.59-3.07,3.01h0ZM82.82,95.1l-14.73-14.44M81.28,96.6l-14.73-14.44,3.07-3.01,14.74,14.44s-3.07,3.01-3.07,3.01ZM57.42,105.41v-33.36M60.08,105.41h-5.31v-33.36h5.31v33.36ZM48.79,105.39v-20.42M51.45,105.39h-5.3v-20.42h5.3v20.42h0ZM23.4,95.08l24.07-23.59M25.61,97.26l-4.44-4.35,24.08-23.59,4.44,4.35-24.08,23.59h0ZM17.31,89.1l14.73-14.45M19.53,91.27l-4.43-4.35,14.74-14.44,4.43,4.34-14.73,14.44h0ZM6.79,64.21h34.05M40.84,66.82H6.79v-5.22h34.05v5.22ZM6.8,55.76h20.85M27.65,58.37H6.8v-5.22h20.85v5.22ZM17.32,30.87l24.07,23.58M39.86,55.96l-24.07-23.59,3.07-3.01,24.08,23.59-3.07,3.01h0ZM23.43,24.9l14.73,14.44M36.64,40.85l-14.74-14.44,3.07-3.01,14.74,14.44-3.08,3.01ZM48.83,14.59v33.36"></path>
  </g>
  <path class="st1" d="M50.04,47.95h-2.42V14.59h2.42v33.36ZM57.45,14.61v20.43M58.66,35.03h-2.41V14.61h2.41v20.43Z"></path>
  <metadata></metadata>
</svg>
