<?xml version="1.0" encoding="UTF-8"?>
<svg xmlns="http://www.w3.org/2000/svg" xmlns:i="http://ns.adobe.com/AdobeIllustrator/10.0/" id="Capa_1" version="1.1" viewBox="0 0 100.43 120">
  <defs>
    <style>
      .st0 {
        fill: #61a533;
      }
    </style>
  </defs>
  <path class="st0" d="M80.68,41.16c0,16.82-13.64,30.46-30.46,30.47s-30.46-13.64-30.47-30.46c0-16.82,13.64-30.46,30.46-30.47,0,0,0,0,0,0,16.82,0,30.46,13.64,30.46,30.46M38.08,34.34h5.56c.17,0,.31-.14.31-.31.51-3.46,3.73-5.84,7.19-5.33,2.76.41,4.92,2.57,5.33,5.33.02.17.16.31.33.31h5.54c.17,0,.31-.14.31-.31,0,0,0,0,0,0-.51-6.87-6.5-12.03-13.37-11.51-6.16.46-11.05,5.36-11.51,11.51,0,.17.14.31.31.31M56.2,45.9c3.71-2.03,6.14-5.79,6.46-10,0-.17-.14-.31-.31-.31,0,0,0,0,0,0h-5.57c-.17,0-.3.14-.31.31-.51,3.46-3.73,5.84-7.19,5.33-2.76-.41-4.92-2.57-5.33-5.33,0-.17-.14-.31-.31-.31h-5.55c-.17,0-.31.14-.31.31.32,4.21,2.75,7.98,6.46,10-3.9,2.13-6.37,6.19-6.49,10.63,0,.17.14.31.31.31,0,0,0,0,0,0h5.54c.16-.01.29-.15.29-.31.16-3.49,3.13-6.19,6.62-6.03,3.26.15,5.87,2.76,6.03,6.03,0,.17.14.31.31.31h5.53c.17,0,.31-.14.31-.31h0c-.11-4.45-2.57-8.5-6.47-10.64M80.68,85.17h-4.93v23.69h4.71v-13.48l3.03,6.3h3l3.02-6.28v13.46h4.71v-23.69h-5l-4.24,9.11-4.3-9.11ZM35.36,85.17l-3.35,6.9-3.36-6.9h-5.56l6.13,11.83-6.17,11.86h5.63l3.33-6.88,3.33,6.88h5.63l-6.17-11.86,6.13-11.83h-5.56ZM64.72,92.56l1.92,7.46h-3.89l1.96-7.46ZM68.92,108.86h4.81l-6.28-23.69h-5.62l-6.18,23.69h4.83l1.1-4.2h6.27l1.08,4.2ZM55.38,99.52v-4.79h-7.16v-4.75h8.34v-4.82h-13.18v23.69h4.81v-9.34h7.19ZM16.99,102.01c0,1.83-1.88,2.45-2.98,2.45s-2.98-.62-2.98-2.45v-9.98c0-1.83,1.88-2.45,2.98-2.45s2.98.62,2.98,2.45v9.98ZM14.02,84.73c-5.32.01-7.8,3.75-7.8,6.92v10.72c0,3.17,2.47,6.91,7.8,6.92,5.32.01,7.8-3.75,7.8-6.92v-10.72c0-3.17-2.47-6.9-7.8-6.92"></path>
  <metadata></metadata>
</svg>
