<?xml version="1.0" encoding="UTF-8"?>
<svg xmlns="http://www.w3.org/2000/svg" xmlns:i="http://ns.adobe.com/AdobeIllustrator/10.0/" id="Capa_1" version="1.1" viewBox="0 0 154.96 120">
  <defs>
    <style>
      .st0 {
        fill: #154e64;
      }
    </style>
  </defs>
  <path class="st0" d="M107.55,40.15c-1.75-3.53-8.01-13.24-23.03-13.11-2.92.03-5.49.58-7.73,1.73-2.21,1.19-3.3,2.88-3.3,5.07,0,1.68.81,2.96,2.44,3.86,1.53.86,4.54,1.77,9.02,2.74,9.27,1.95,15.26,4.46,17.97,7.52,1.6,1.78,2.7,3.62,3.37,5.52.95-2.98,1.5-6.15,1.5-9.45,0-1.32-.1-2.61-.26-3.89M82.74,45.16c-5.31-1.24-8.98-2.64-11.04-4.16-2.08-1.58-3.15-3.88-3.15-6.94,0-3.44,1.56-6.21,4.66-8.31,3.06-2.06,7.56-3.09,13.54-3.08,5.58,0,13.29,3.22,16.83,5.92-5.28-8.9-15-14.89-26.1-14.89-16.75,0-30.32,13.58-30.32,30.32s13.57,30.33,30.32,30.33c4.68,0,9.11-1.07,13.07-2.96.11-.06.21-.11.32-.17,2.26-1.31,3.01-3.32,3.16-5.37.27-3.57-1.54-6.12-3.7-7.45-2.19-1.34-6.2-2.61-12.02-3.8-5.73-1.24-10-3.08-12.82-5.48-2.82-2.41-4.23-5.42-4.23-9.05,0-2.83.93-5.47,2.79-7.96-.19,1.2-.28,2.29-.28,3.3,0,2.39.71,4.64,2.15,6.73,1.33,2.01,3.22,3.54,5.65,4.59,2.39,1.05,6.4,2.27,12.04,3.65,5.34,1.28,9.23,2.86,11.67,4.72,2.39,1.87,3.59,4.57,3.59,8.1,0,.91-.1,1.78-.27,2.61,1.79-1.75,3.38-3.71,4.7-5.85-.49-2.55-1.62-4.92-3.42-7.14-2.44-3.01-8.14-5.56-17.12-7.66"></path>
  <path class="st0" d="M34.66,86.05c-2.93,0-5.45,2.5-5.45,5.61s2.52,5.61,5.45,5.61,5.5-2.51,5.5-5.61-2.5-5.61-5.5-5.61M29.36,85.12h.07c1.32-1.66,3.31-2.58,5.69-2.58,5.68,0,8.96,4.65,8.96,9.12s-3.53,9.12-9.15,9.12c-2.58,0-4.54-1.12-5.5-2.58h-.07v8.09h-3.71v-23.28h3.71v2.11Z"></path>
  <path class="st0" d="M122.08,89.48c0-4.39,2.93-6.94,6.32-6.94,2.62,0,4.5,1.25,5.18,3.08.76-1.83,2.65-3.08,5.26-3.08,3.4,0,6.33,2.55,6.33,6.94v10.82h-3.73v-10.79c0-2.07-1.32-3.25-2.85-3.25-1.79,0-3.11,1.08-3.11,3.75v10.29h-3.72v-10.29c0-2.67-1.32-3.75-3.12-3.75-1.53,0-2.85,1.18-2.85,3.25v10.79h-3.72v-10.82ZM12.31,95.16c1.32,1.43,3.5,2.54,5.43,2.54,2.15,0,3.43-1.22,3.43-2.18,0-1.13-.89-1.76-2.25-1.99l-2.12-.4c-4.86-.89-6.23-2.46-6.23-4.93,0-2.93,2.48-5.65,6.79-5.65,2.4,0,4.5.72,6.87,2.39l-2.11,2.61c-1.82-1.53-3.43-1.93-4.65-1.93-1.59,0-3.19.78-3.19,2.18,0,1.03.83,1.58,2.26,1.82l3.75.71c3.07.59,4.57,2.05,4.57,4.62s-2.07,5.83-7.32,5.83c-2.94,0-5.44-1.05-7.8-3.06l2.54-2.56ZM59.07,89.87c-.8-2.64-2.76-4.04-5.11-4.04s-4.3,1.47-4.9,4.04h10.01ZM62.49,96.56c-2.06,2.6-4.93,4.19-8.03,4.23-6.05,0-9.55-4.55-9.55-9.12s3.5-9.12,9.55-9.12c3.6,0,8.96,2.97,8.96,9.73v.68h-14.37c.21,2.64,2.67,4.55,5.28,4.55,2.01,0,3.72-.97,5.01-2.69l3.14,1.75ZM79.02,88.66c-1.01-1.53-2.4-2.61-4.51-2.61-3.25,0-5.61,2.5-5.61,5.61s2.36,5.61,5.61,5.61c2.04,0,3.51-1.04,4.51-2.61l3.24,1.94c-1.54,2.42-4.47,4.19-7.76,4.19-6.04,0-9.55-4.55-9.55-9.12s3.5-9.12,9.55-9.12c3.68,0,6.08,1.76,7.76,4.19l-3.24,1.93ZM82.99,83h2.1v-4.57l3.72-1.03v5.6h2.96v3.5h-2.96v6.83c0,1.85.43,2.72,1.52,3.36l2.01,1.14-1.65,2.94c-3.83-1.82-5.61-3.16-5.61-6.76v-7.52h-2.1v-3.5ZM94.24,83h3.5v1.89c.69-1.44,1.97-2.36,3.47-2.36.83,0,1.54.21,2.03.54l-1.32,3.69c-.35-.3-1.04-.5-1.4-.5-1.36,0-2.58,1.03-2.58,2.61v11.43h-3.71v-17.3ZM104.61,83h3.72v9.69c0,2.54,1.85,4.36,4.18,4.36s4.18-1.82,4.18-4.36v-9.69h3.71v10.01c0,4.87-3.79,7.77-7.89,7.77s-7.9-2.9-7.9-7.77v-10.01Z"></path>
  <metadata></metadata>
</svg>
