<?xml version="1.0" encoding="UTF-8"?>
<svg xmlns="http://www.w3.org/2000/svg" xmlns:i="http://ns.adobe.com/AdobeIllustrator/10.0/" id="Capa_1" version="1.1" viewBox="0 0 283.48 120">
  <defs>
    <style>
      .st0 {
        fill: #e20025;
      }
    </style>
  </defs>
  <path class="st0" d="M66.03,60l-8.12-16.62h-12.28v33.24h12.28v-16.62l8.12,16.62,8.12-16.62v16.62h12.28v-33.24h-12.28l-8.12,16.62ZM99.92,43.38l-9.55,33.24h12.28l1.57-5.46h13.1l1.57,5.46h12.28l-9.55-33.24h-21.69ZM105.78,65.71l4.98-17.35,4.98,17.35h-9.97ZM158.04,43.39h-22.97v33.23h12.27v-13.85h10.7c5.35,0,9.69-4.34,9.69-9.69s-4.34-9.69-9.69-9.69M150.21,57.15h-2.66v-9.95h2.66c2.77,0,5.46,1.48,5.46,4.5s-2.37,5.45-5.46,5.45M171.99,76.62h12.27v-13.88h20.36v-5.46h-20.36v-8.45h20.36v-5.45h-32.63v33.24ZM278.83,48.83v-5.45h-32.64v33.24h32.64v-5.46h-20.36v-8.42h20.36v-5.46h-20.36v-8.45h20.36ZM241.58,51.7c0-4.59-3.72-8.31-8.31-8.31h-24.35v33.23h12.48v-13.76h2.66c3.01,0,5.46,2.44,5.46,5.45,0,.09,0,.18,0,.27v8.04h12.07v-8.31c0-.09,0-.18,0-.27-.15-4.46-3.81-8.04-8.31-8.04,4.59,0,8.31-3.72,8.31-8.31M224.06,57.15h-2.66v-9.95h2.66c2.7,0,5.46,1.48,5.46,4.49s-2.44,5.46-5.46,5.46M21.28,43.37c-9.18,0-16.63,7.45-16.63,16.63,0,.71.05,1.4.13,2.08,1.03,8.2,8.02,14.55,16.5,14.55s15.48-6.35,16.5-14.55h-1.6c-1.02,7.33-7.3,12.96-14.9,12.96s-13.88-5.64-14.9-12.96h0c-.1-.69-.14-1.39-.14-2.08,0-8.31,6.74-15.04,15.05-15.04s15.05,6.74,15.05,15.05c0,.71-.05,1.4-.15,2.08h1.6c.09-.68.13-1.38.13-2.08,0-9.18-7.45-16.63-16.63-16.63M32.27,60.66c0-.13-.01-.24-.03-.34-.2-1.1-.59-2.17-1.15-3.14-.58-1-1.44-1.96-2.28-2.67-.56-.43-1.29-.59-1.98-.43-.27-.77-.9-1.41-1.61-1.72-1.26-.46-2.6-.69-3.94-.69-1.37,0-2.7.24-3.92.69-.09.03-.21.08-.32.15-.64.33-1.11.91-1.32,1.6-.73-.13-1.52.08-2.09.5-.86.73-1.59,1.6-2.16,2.58-.56.97-.95,2.03-1.15,3.14-.02.09-.03.21-.03.34-.02.5.11,1,.38,1.42h0c.21.34.5.61.85.81.41.24.88.35,1.35.33h5.41c.38,0,1.4,0,2.18,0v5.09h1.63v-5.09c.78,0,1.8,0,2.18-.02h5.41c.47.04.94-.08,1.35-.31.34-.2.64-.48.85-.81h-10.61,10.61c.27-.42.4-.92.38-1.42M18.72,61.37c-.08.14-.23.22-.39.2h-5.5c-.17.03-.34,0-.48-.09-.28-.16-.44-.47-.41-.79.16-.97.48-1.86.96-2.69.47-.81,1.08-1.54,1.79-2.14l.03-.02c.27-.2.63-.22.92-.06.15.09.27.22.34.37l2.74,4.78c.08.13.09.3.01.44M21.28,61.59c-.2,0-.38-.11-.46-.29l-3.4-5.85c-.12-.17-.18-.37-.18-.58,0-.41.24-.76.59-.92,1.14-.42,2.27-.63,3.46-.63s2.33.21,3.38.59l.04.02c.38.16.62.53.62.94,0,.21-.07.42-.19.59l-3.4,5.85c-.09.17-.26.28-.45.28M30.23,61.48c-.15.09-.32.12-.48.11h-5.5c-.15,0-.31-.08-.39-.22-.08-.14-.07-.3.01-.44l2.74-4.78c.07-.15.19-.29.34-.37.29-.17.65-.15.92.06l.03.02c.72.6,1.33,1.33,1.79,2.14.48.83.8,1.72.96,2.69.03.32-.13.63-.41.79"></path>
  <metadata></metadata>
</svg>
