<?xml version="1.0" encoding="UTF-8"?>
<svg xmlns="http://www.w3.org/2000/svg" xmlns:i="http://ns.adobe.com/AdobeIllustrator/10.0/" id="Capa_1" version="1.1" viewBox="0 0 139.3 120">
  <defs>
    <style>
      .st0 {
        fill: #fcc300;
      }

      .st1 {
        fill: #003762;
      }

      .st2 {
        fill: #1eb8d9;
      }
    </style>
  </defs>
  <path class="st1" d="M63.67,69.4s9.51-3,9.51-15.44c0-13.61-9.46-20.18-27.2-20.18H10.76v57.26c0,3.7,3.03,6.68,6.73,6.68h10.1v-20.19h20.22c8.19,0,13.43,2.92,13.43,10.1s-5.24,10.1-13.43,10.1h-20.22v13.46h22.54c14.62,0,28.61-5.36,28.61-23.55,0-11.56-8.16-17.06-15.06-18.22h0ZM42.17,64.06h-14.58v-16.83h14.58c8.42,0,13.32,1.99,13.32,8.28,0,6.85-4.9,8.55-13.32,8.55h0Z"></path>
  <path class="st1" d="M91.53,57.33c-3.7,0-6.73,3.03-6.73,6.73v47.11h16.83v-53.84h-10.1,0Z"></path>
  <path class="st2" d="M88.16,33.77c-1.85,0-3.36,1.52-3.36,3.36v10.1h13.46c1.85,0,3.37-1.52,3.37-3.36v-10.09h-13.46Z"></path>
  <path class="st0" d="M128.54,10.22h-20.19c-3.7,0-6.73,3.03-6.73,6.73v16.83h20.19c3.7,0,6.73-3.03,6.73-6.73V10.22Z"></path>
  <metadata></metadata>
</svg>
