<?xml version="1.0" encoding="UTF-8"?>
<svg xmlns="http://www.w3.org/2000/svg" xmlns:i="http://ns.adobe.com/AdobeIllustrator/10.0/" id="Capa_1" version="1.1" viewBox="0 0 288 120">
  <defs>
    <style>
      .st0 {
        fill: #f96a53;
      }

      .st1 {
        fill: #004192;
      }
    </style>
  </defs>
  <path class="st1" d="M101.08,57.98c6.72,2.24,10.53,6.11,11.01,12.83.54,7.44-2.66,13.01-8.65,17.13-3.45,2.42-7.38,3.87-11.5,4.6-7.81,1.45-15.67,1.51-23.48.24-7.87-1.27-11.32-6.05-9.62-13.92,3.51-16.22,7.26-32.44,10.95-48.6.3-1.27.67-2.24,2.3-2.36,8.84-.79,17.61-2.12,26.51-.61,3.27.54,6.42,1.33,9.32,2.78,10.05,4.96,11.07,16.95,2.18,23.66-2.54,1.88-5.39,3.09-9.02,4.24h0ZM77.96,64.15c-1.15,5.27-2.24,10.11-3.33,14.89-.42,1.82-.18,3.27,2,3.39,5.08.24,10.17,0,14.71-2.66,3.45-2,4.9-5.14,4.42-9.14-.48-3.81-3.21-5.33-6.54-6.35-3.69-1.09-7.26.73-11.26-.12h0ZM89.16,37.71c-1.57,1.03-4.54-1.45-5.51,1.82-1.03,3.63-1.76,7.38-2.6,11.14-.3,1.27.12,2.42,1.51,2.48,5.45.3,10.89.36,15.31-3.51,4.3-3.75,2.97-9.56-2.48-11.32-1.94-.54-3.93-.54-6.23-.61h0ZM232.47,38.62c-3.09-8.47-10.89-10.47-18.88-11.26-7.38-.73-14.83-.36-22.21.48-2.54.3-3.81,1.27-4.42,3.93-4.36,19.85-8.9,39.7-13.31,59.55-.18.73-.54,1.51.42,2.42h5.81c7.38,0,9.56-1.76,11.2-8.9.97-4.24,1.94-8.53,2.84-12.65,1.51-.54,2.72-.12,3.93-.06,10.65.36,20.76-1.39,28.56-9.38,6.66-6.78,9.44-15.01,6.05-24.15h0ZM219.15,49.21c-1.45,6.9-7.38,11.2-15.55,11.26-5.33,0-5.81-.61-4.66-5.99.97-4.42,2-8.78,2.78-13.19.36-2.18,1.45-3.03,3.57-3.03,2.24-.06,4.48-.18,6.72.24,5.81,1.09,8.35,4.9,7.14,10.71h0ZM172.73,28.51c-13.98-5.08-27.42-4.18-38.97,5.81-11.07,9.56-14.59,22.27-13.19,36.55.79,8.17,4.24,15.01,11.56,19.18,9.32,5.33,19.31,5.51,29.35,2.54,2.24-.67,3.93-2.24,4.54-4.6.91-3.57,1.69-7.14,2.6-11.2-3.15,1.69-5.69,3.27-8.59,4.18-9.14,2.84-18.28-.67-21.48-8.29-4.42-10.53,1.88-27.11,12.35-31.95,8.59-3.93,16.88-2.18,25.18,2.42.48-1.82.97-3.45,1.39-5.08,1.21-5.02.18-7.75-4.72-9.56h0Z"></path>
  <path class="st0" d="M32.33,33.47c8.23,4.18,14.83,10.17,19.67,17.91,2.97,4.78,2.6,10.05-.73,14.65-6.84,9.56-15.92,16.58-26.45,21.42-7.08,3.27-14.89-.54-17.91-8.23,4.24-2.24,8.47-4.54,12.35-7.38,5.81-4.24,10.83-9.14,13.31-16.1,3.39-7.44,3.69-14.89-.24-22.27h0ZM259.28,33.47c8.23,4.12,14.83,10.23,19.73,17.91,2.97,4.66,2.72,9.8-.48,14.34-6.9,9.8-16.16,16.95-26.93,21.85-7.02,3.15-14.65-.73-17.61-8.23,3.99-2.18,8.05-4.36,11.74-7.08,5.99-4.36,11.32-9.32,13.86-16.52,3.45-7.5,3.69-14.95-.3-22.27h0Z"></path>
  <path class="st1" d="M32.33,33.47c3.93,7.38,3.57,14.77.18,22.21-5.14-5.57-11.56-9.38-18.34-12.41,3.57-9.62,11.68-13.86,18.16-9.8h0ZM259.28,33.47c3.99,7.38,3.75,14.77.24,22.27-5.08-5.57-11.44-9.32-18.58-12.53,2.36-5.33,5.75-9.2,11.07-11.2,2.72-1.09,5.08-.3,7.26,1.45h0Z"></path>
  <metadata></metadata>
</svg>
