<?xml version="1.0" encoding="UTF-8"?>
<svg xmlns="http://www.w3.org/2000/svg" xmlns:i="http://ns.adobe.com/AdobeIllustrator/10.0/" id="Capa_1" version="1.1" viewBox="0 0 287.39 120">
  <defs>
    <style>
      .st0 {
        fill: #a34585;
      }

      .st1 {
        fill: #f57f1e;
      }
    </style>
  </defs>
  <path class="st0" d="M6.62,28.09h4.42v45.16s0,3.25,2.92,3.25h23.73v4.9H11.87s-5.26-.01-5.26-5.85c0-5.74.01-47.47.01-47.47M12.72,28.09h4.4v38.73s-.31,3,2.57,3c14.17-.03,17.98,0,17.98,0v4.84H15.3s-2.61-.2-2.58-2.87c.01-1.9,0-43.71,0-43.71M18.78,28.09h4.43v32.76s-.25,2.23,1.87,2.23h12.62l-.04,4.88h-16.98s-1.88-.38-1.88-2.64V28.09ZM24.88,28.09h4.43v26.45s-.28,1.88,1.66,1.88h6.72v4.84h-10.25c-1.84,0-2.58-.55-2.58-2.42v-30.75h.01Z"></path>
  <path class="st1" d="M61.98,81.34h-4.42v-45.16s.01-3.25-2.89-3.25c-2.74,0-23.75-.01-23.75-.01v-4.9s25.83.01,25.83.01c0,0,5.26.01,5.26,5.85-.01,5.76-.04,47.47-.04,47.47M55.88,81.34h-4.42v-38.73s.31-3.02-2.57-3h-17.98v-4.83h22.36s2.61.2,2.58,2.87c0,1.9,0,43.71.01,43.69M49.82,81.34h-4.43v-32.76s.26-2.23-1.85-2.23h-12.61v-4.87h17s1.9.38,1.88,2.64v37.23M43.73,81.34h-4.43v-26.45s.28-1.88-1.66-1.88h-6.72v-4.83h10.23c1.84,0,2.58.55,2.58,2.42v30.73"></path>
  <path class="st0" d="M106.85,39.08h4.52v5.09h-4.52v-5.09ZM106.85,50.17h4.52v31.23h-4.52v-31.23ZM267.06,39.04h4.52v42.36h-4.52v-42.36ZM136.6,50.17l-9.11,25.13-9.11-25.13h-5.16l11.33,31.23h5.9l11.33-31.23h-5.18ZM94.08,76.44c-1.53,0-2.68-1.36-2.68-3.02v-34.33h-4.52v35.13c0,3.94,2.86,7.14,6.46,7.14h11.87v-4.93h-11.12ZM179.87,55.2c-1.53,0-2.68,1.36-2.68,3.02v23.31h-4.52v-24.13c0-3.94,2.84-7.14,6.46-7.14h4.75v4.93h-4.01ZM145.13,61.55c1.52-4.94,5.67-8.11,10.22-8.11s8.69,3.16,10.2,8.11h-20.42ZM170.28,66.14v-.96c0-8.99-6.71-16.33-14.93-16.33s-14.93,7.33-14.93,16.33,6.69,16.33,14.93,16.33c6.95,0,12.87-5.1,14.51-12.46h-4.37c-1.52,4.71-5.55,7.87-10.13,7.87-5.55,0-10.16-4.58-10.72-10.79h25.64ZM249.75,76.75c-5.83,0-10.58-5.19-10.58-11.56s4.75-11.58,10.58-11.58,10.58,5.19,10.58,11.58-4.75,11.56-10.58,11.56M224.04,76.75c-5.85,0-10.58-5.19-10.58-11.56s4.74-11.58,10.58-11.58,10.58,5.19,10.58,11.58-4.75,11.56-10.58,11.56M198.34,76.75c-5.83,0-10.58-5.19-10.58-11.56s4.75-11.58,10.58-11.58,10.58,5.19,10.58,11.58-4.74,11.56-10.58,11.56M249.75,48.67c-5.42,0-10.19,3.13-12.84,7.84-2.65-4.71-7.42-7.84-12.84-7.84s-10.19,3.13-12.84,7.84c-2.67-4.71-7.42-7.84-12.86-7.84-8.34,0-15.09,7.39-15.09,16.5v26.81h4.56v-14.99c2.73,2.9,6.44,4.68,10.53,4.68,5.42,0,10.19-3.13,12.86-7.84,2.65,4.71,7.41,7.84,12.84,7.84s10.19-3.13,12.84-7.84c2.65,4.71,7.42,7.84,12.84,7.84,8.34,0,15.09-7.39,15.09-16.5s-6.75-16.5-15.09-16.5M277.12,42.3c.48,0,.8-.2.8-.64,0-.39-.28-.63-.69-.63h-1.01v1.27h.89ZM275.59,40.45h1.72c.96,0,1.28.66,1.28,1.12,0,.69-.45,1.18-1.11,1.22v.03c.34.13.58.5.9,1.06l.47.82h-.77l-.34-.66c-.48-.96-.67-1.14-1.15-1.14h-.38v1.79h-.63v-4.26h0ZM277.17,39.21c-1.66,0-3,1.47-3,3.29s1.34,3.31,3,3.31,3.02-1.49,3.02-3.31-1.36-3.29-3.02-3.29M277.17,46.46c-2,0-3.6-1.76-3.6-3.95s1.6-3.94,3.6-3.94,3.62,1.75,3.62,3.94-1.62,3.95-3.62,3.95"></path>
  <metadata></metadata>
</svg>
