<?xml version="1.0" encoding="UTF-8"?>
<svg xmlns="http://www.w3.org/2000/svg" xmlns:i="http://ns.adobe.com/AdobeIllustrator/10.0/" id="Capa_1" version="1.1" viewBox="0 0 147.04 120">
  <defs>
    <style>
      .st0 {
        fill-rule: evenodd;
      }
    </style>
  </defs>
  <path class="st0" d="M141.69,66.74c0-6.62-3.62-7.96-11.87-12.13-4.12-2.09-10.25-5.02-8.12-9.31,1.37-2.57,3.75-3.55,6.75-3.55,3.37,0,7.62,2.21,9.62,3.18v-6.86c-6-1.35-19.75-3.31-23.37,6.25-2.12,5.76-.13,10.91,6.5,14.46,3.87,2.09,12.62,4.66,13.12,8.82.5,3.31-1.5,5.15-3.87,6.01-.87.25-1.88.49-2.88.61-2.87.25-5.12-.12-7-.61-3.25-1.1-5.12-2.94-7.25-3.68,0,.12.38,1.84.87,3.68.5,2.09,1,4.41,1,4.41,6,1.59,14.37,3.55,21.74-1.96,1-.74,1.75-1.59,2.5-2.45,1.5-2.21,2.25-4.78,2.25-6.86Z"></path>
  <path class="st0" d="M140.82,19.44v-8.58c-5,3.68-18.75,3.8-24.99,2.69-7.5-1.35-16.25-2.09-20.25-2.09-10,0-16.49,3.31-22.37,7.47v-.12c-5.88-4.17-12.37-7.35-22.49-7.35-3.87,0-12.62.61-20.25,1.96-6.12,1.23-19.87.98-24.99-2.57v8.58c5.37,2.2,17.99,2.82,23.87,1.96,8.5-1.47,17.5-2.82,24.99-1.96,9,.86,14.37,5.76,18.87,10.17,4.38-4.41,9.87-9.19,18.75-10.17,7.62-.86,16.62.61,24.99,1.96,5.87.98,18.5.25,23.87-1.96Z"></path>
  <path class="st0" d="M111.33,79.36c-.25-.25-2.5-3.31-2.5-4.9v-31.62c0-2.33,1.37-3.92,2.25-4.78h-11.25c.5.86,2,2.21,2,4.78v31.62c0,2.82-1.75,4.41-2,4.9h11.5Z"></path>
  <path class="st0" d="M97.83,78.02v-19.85h-8.37c1.12,1.1,1.63,1.96,2.12,3.31v12.38c-8.62,2.82-13.37,1.1-16.25,0-.25-.12-.38-.12-.63-.25-4.5-2.21-9.12-9.31-8.62-16.18.63-6.98,5.37-13.23,10.75-14.58,9.25-2.45,14.87,1.35,16.49,2.45,0,0-.13-6.74,0-6.62-.13-.12-8-2.94-18.25-.25-4.12,1.1-10.12,4.04-13.37,10.91-1.75,3.43-2.25,7.6-2.25,9.68,0,4.41.87,10.05,5.5,14.58,1.38,1.35,3,2.57,5.12,3.55,9.5,5.03,21.87,2.82,27.74.86Z"></path>
  <path class="st0" d="M60.59,72.01s-1.37.86-2.87,1.59c-.75.37-1.63.74-2.25.86-2.5.25-6.37,0-14,0v-15.2c3.62,0,7-.25,9.87,1.96v-6.62h-9.87v-11.77h9.87c2.5.49,3.25,2.09,3.75,2.09,0-4.41.13-5.15.13-6.86h-22.75c.25.74,2,1.72,2,4.78v31.62s0,2.09-2.25,4.9h26.12c.38-2.69,1-4.41,1.63-5.76.25-.61.38-1.1.63-1.59Z"></path>
  <path class="st0" d="M140.69,98.97v-8.58c-5.12,3.68-18.75,3.8-24.99,2.69-7.62-1.35-16.25-2.09-20.25-2.09-10.12,0-16.49,3.31-22.37,7.47l-.13-.12c-5.88-4.17-12.25-7.35-22.37-7.35-4,0-12.62.61-20.25,1.96-6.25,1.23-19.87.98-24.99-2.57v8.58c5.37,2.21,17.99,2.82,23.87,1.96,8.5-1.47,17.37-2.82,24.99-1.96,9,.86,14.37,5.76,18.87,10.17,4.5-4.41,9.75-9.19,18.75-10.17,7.62-.86,16.62.61,24.99,1.96,5.88.99,18.5.25,23.87-1.96Z"></path>
  <path class="st0" d="M32.47,73.12c-.38.12-.63.37-1,.49-1.37.61-2.25.74-3.75.86-2.5.25-6.5,0-13,0l.13-.86c0-5.15-.13-30.76-.13-30.76,0,0,0-3.06,2.37-4.78H5.85c1.88,2.57,1.88,4.78,1.88,4.78v31.62s-.25,3.06-2.25,5.02h25.37c0-2.69.87-4.17,1.5-5.88l.13-.49Z"></path>
  <metadata></metadata>
</svg>
