<?xml version="1.0" encoding="UTF-8"?>
<svg xmlns="http://www.w3.org/2000/svg" xmlns:i="http://ns.adobe.com/AdobeIllustrator/10.0/" xmlns:xlink="http://www.w3.org/1999/xlink" id="Capa_1" version="1.1" viewBox="0 0 189.65 120">
  <defs>
    <style>
      .st0 {
        fill: #2dbfd5;
      }

      .st1 {
        fill: #362f7f;
      }

      .st2 {
        fill: #00b059;
      }

      .st3 {
        fill: #e9892b;
      }

      .st4 {
        clip-path: url(#clippath-4);
      }

      .st5 {
        fill: #ffda00;
      }

      .st6 {
        fill: #6dcce4;
      }

      .st7 {
        fill: #cd4c9a;
      }

      .st8 {
        fill: #f3b138;
      }

      .st9 {
        fill: #e02929;
      }

      .st10 {
        fill: #f0d72f;
      }

      .st11 {
        fill: #e9c41c;
      }

      .st12 {
        stroke: #ea0029;
      }

      .st12, .st13 {
        stroke-miterlimit: 6;
        stroke-width: .02px;
      }

      .st12, .st14 {
        fill: #ea0029;
      }

      .st15 {
        fill: #fff;
      }

      .st16 {
        fill: #ef5530;
      }

      .st17 {
        fill: #59b851;
      }

      .st18 {
        fill: #002169;
      }

      .st19 {
        fill: #1500a3;
      }

      .st20 {
        fill: #a4d925;
      }

      .st21 {
        fill: #de2141;
      }

      .st22 {
        fill: none;
      }

      .st23 {
        fill: red;
      }

      .st24 {
        fill: #96c13d;
      }

      .st25 {
        clip-path: url(#clippath-1);
      }

      .st26 {
        fill: #809e3e;
      }

      .st27 {
        fill: #c84696;
      }

      .st28 {
        fill: #4e4499;
      }

      .st29 {
        fill: #fde551;
      }

      .st30 {
        fill: #4b3c95;
      }

      .st31 {
        fill: #9c489a;
      }

      .st32 {
        clip-path: url(#clippath-3);
      }

      .st33 {
        fill: #225d38;
      }

      .st34 {
        fill: #463590;
      }

      .st35 {
        fill: #c6e7f9;
      }

      .st36 {
        fill: #ac3d94;
      }

      .st37 {
        fill: #82b040;
      }

      .st38 {
        fill: #3885c5;
      }

      .st39 {
        fill: #962587;
      }

      .st40 {
        fill: #db5f39;
      }

      .st41 {
        fill: #c10230;
      }

      .st42 {
        clip-path: url(#clippath-2);
      }

      .st43 {
        fill: #bb4095;
      }

      .st44 {
        fill: #ba3992;
      }

      .st13 {
        fill: #fe5500;
        stroke: #fe5500;
      }

      .st45 {
        fill: #03bada;
      }

      .st46 {
        fill: #ee4025;
      }

      .st47 {
        clip-path: url(#clippath);
      }

      .st48 {
        fill: #c64596;
      }

      .st49 {
        fill: #e9862c;
      }

      .st50 {
        fill: #3c9745;
      }
    </style>
    <clipPath id="clippath">
      <ellipse class="st22" cx="100.51" cy="99.69" rx="8.93" ry="9"></ellipse>
    </clipPath>
    <clipPath id="clippath-1">
      <polygon class="st22" points="79.62 99.16 79.77 98.77 79.17 99 78.85 99.13 78.32 99.94 79.49 99.49 79.62 99.16"></polygon>
    </clipPath>
    <clipPath id="clippath-2">
      <polygon class="st22" points="82.26 97.05 81.22 98.3 81.77 98.11 82.19 97.97 83.53 96.44 82.46 96.79 82.26 97.05"></polygon>
    </clipPath>
    <clipPath id="clippath-3">
      <polygon class="st22" points="82.56 97.63 82.25 97.95 78.62 101.7 78.27 102.04 77.63 103.64 83.92 97.16 82.56 97.63"></polygon>
    </clipPath>
    <clipPath id="clippath-4">
      <path class="st22" d="M128.2,97.81s-3.79-1-8.39-.19c-4.6.81-7.42-.12-7.42-.12l7.14-3.62,2.96.44,5.48,3.26.22.22h.01Z"></path>
    </clipPath>
  </defs>
  <g>
    <g>
      <circle class="st15" cx="164.26" cy="30.34" r="18.49"></circle>
      <path d="M164.26,11.85c10.21,0,18.49,8.28,18.49,18.49s-8.28,18.49-18.49,18.49-18.49-8.28-18.49-18.49,8.28-18.49,18.49-18.49M164.26,11.14c-2.59,0-5.1.51-7.47,1.51-2.29.97-4.34,2.35-6.1,4.11-1.76,1.76-3.15,3.82-4.11,6.1-1,2.37-1.51,4.88-1.51,7.47s.51,5.1,1.51,7.47c.97,2.29,2.35,4.34,4.11,6.1,1.76,1.76,3.82,3.15,6.1,4.11,2.37,1,4.88,1.51,7.47,1.51s5.1-.51,7.47-1.51c2.29-.97,4.34-2.35,6.1-4.11,1.76-1.76,3.15-3.82,4.11-6.1,1-2.37,1.51-4.88,1.51-7.47s-.51-5.1-1.51-7.47c-.97-2.29-2.35-4.34-4.11-6.1-1.76-1.76-3.82-3.15-6.1-4.11-2.37-1-4.88-1.51-7.47-1.51h0Z"></path>
    </g>
    <path class="st23" d="M148.48,23.49c2.13.72,4.64,1.21,6.93,1.21,5.8,0,11.83-2.15,17.8-2.15,2.61,0,4.99.29,6.83.93-2.73-6.27-8.92-10.35-15.76-10.35s-13.02,4.13-15.8,10.35h0Z"></path>
    <path class="st19" d="M180.05,37.21c-2.13-.72-4.64-1.21-6.93-1.21-5.8,0-11.83,2.15-17.8,2.15-2.61,0-4.99-.29-6.83-.93,2.73,6.27,8.92,10.35,15.76,10.35s13.02-4.13,15.8-10.35h0Z"></path>
    <path d="M155.81,26.77h6.17v1.76h-3.72v.91h2.93v1.69h-2.93v.91h3.77v1.76h-6.21v-7.04h0ZM177.66,33.81h2.49v-7.16l-2.47.88-.02,6.28ZM169.72,32.27c.47,1.21,1.85,1.78,3.91,1.78s3.34-.84,3.34-2.34c0-2.58-4.38-1.94-4.38-2.89,0-.27.32-.48.88-.48.78,0,1.2.25,1.36.75l1.98-.75c-.25-.98-1.24-1.74-3.41-1.74-1.83,0-3.18.79-3.18,2.24,0,2.7,4.38,2,4.38,3,0,.3-.31.48-.98.48-1,0-1.67-.25-1.94-.8l-1.96.74h0ZM152.56,31.81l-1.76.66v1.34h-2.44v-7.04h3.81c1.98,0,2.97.85,2.97,2.36s-1.09,2.14-2.57,2.69h0ZM151.79,28.53h-.99v2.11l.92-.37c.59-.22.92-.48.92-1.03,0-.45-.32-.71-.86-.71h0ZM167.21,31.81l-1.76.66v1.34h-2.44v-7.04h3.81c1.98,0,2.97.85,2.97,2.36s-1.09,2.14-2.57,2.69h0ZM166.44,28.53h-.99v2.11l.92-.37c.59-.22.92-.48.92-1.03,0-.45-.32-.71-.86-.71h0Z"></path>
  </g>
  <g>
    <path class="st19" d="M28.45,75.72c-13.18,0-22.25-9.25-22.25-21.76v-.12c0-12.03,9.38-21.89,22.2-21.89,7.61,0,12.21,2.06,16.62,5.8l-5.86,7.08c-3.27-2.72-6.17-4.29-11.06-4.29-6.77,0-12.15,5.98-12.15,13.18v.12c0,7.74,5.32,13.42,12.82,13.42,3.39,0,6.41-.85,8.76-2.54v-6.04h-9.37v-8.04h18.38v18.38c-4.36,3.69-10.34,6.71-18.08,6.71h0Z"></path>
    <path class="st19" d="M50.7,75v-42.32h31.92v8.28h-22.67v8.58h19.95v8.28h-19.95v8.89h22.98v8.28h-32.23Z"></path>
    <g>
      <path class="st19" d="M128.86,32.67h-13.28c3.26,1.63,5.36,4.76,6.29,8.4h6.2c4.66,0,7.56,2.24,7.56,6.41v.12c0,3.63-2.72,6.41-7.38,6.41h-7.82c-1.76,3.48-4.71,6.33-8.87,7.59v13.39h9.31v-12.69h7.08c9.49,0,17.11-5.08,17.11-14.87v-.12c0-8.65-6.1-14.63-16.2-14.63h0Z"></path>
      <path class="st19" d="M102.85,62.29h-7.07v12.69h-9.31v-42.32h17.29c10.1,0,16.2,5.98,16.2,14.63v.12c0,9.79-7.62,14.87-17.11,14.87h0ZM110.53,47.48c0-4.17-2.9-6.41-7.55-6.41h-7.19v12.94h7.37c4.66,0,7.38-2.78,7.38-6.41v-.12h0Z"></path>
    </g>
  </g>
  <path class="st19" d="M156.17,99.01c3.54-15.72-18.27-22.88-42.67-20.95-.04,0-.08,0-.12.01-.04,0-.08,0-.12,0-24.1,1.48-46.09,11.22-53.5,17.56-.12.1,0,.47.33.25.06-.04.22-.14.3-.19,8.99-5.56,30.8-13.99,51.93-14.65h.2c23.99-.66,41.45,5.96,42.37,18.11.05.62,1.15.78,1.28-.15h0Z"></path>
  <g>
    <path class="st15" d="M146.84,105.66c-3.59,3.59-9.43,3.59-13.02,0-3.59-3.59-3.59-9.43,0-13.02,3.59-3.59,9.43-3.59,13.02,0,3.59,3.59,3.59,9.43,0,13.02Z"></path>
    <g>
      <path class="st5" d="M140.84,108.86c-5.07,0-9.2-4.13-9.2-9.2s4.13-9.2,9.2-9.2,9.2,4.13,9.2,9.2-4.13,9.2-9.2,9.2Z"></path>
      <g>
        <path class="st15" d="M134.29,97.01c1.17-2.66,3.81-4.51,6.88-4.51,2.54,0,4.79,1.27,6.15,3.22-1.33-2.31-3.81-3.86-6.64-3.86-3.32,0-6.15,2.13-7.22,5.11l.83.03h0Z"></path>
        <path class="st15" d="M133.43,102.16c.61,1.77,1.84,3.25,3.42,4.17-1.41-.99-2.46-2.45-2.94-4.17h-.49,0Z"></path>
        <path class="st15" d="M147.88,102.16c-1.24,2.83-4.16,5.05-7.18,5.05h-.16c.39.07.73.07,1.14.07,2.93,0,5.77-2.25,6.67-5.1l-.47-.02h0Z"></path>
      </g>
      <path class="st15" d="M140.82,95.71c-3.41,0-3.82,1.13-7.84,1.13v5.47c4.02,0,4.43,1.13,7.84,1.13s3.82-1.13,7.84-1.13v-5.47c-4.02,0-4.43-1.13-7.84-1.13Z"></path>
      <path class="st41" d="M140.82,96.01c-3.41,0-3.82,1.13-7.84,1.13v4.88c4.02,0,4.43,1.13,7.84,1.13s3.82-1.13,7.84-1.13v-4.88c-4.02,0-4.43-1.13-7.84-1.13Z"></path>
      <g>
        <path class="st15" d="M136.68,98.56h-.09s-.03,0,0,.02c.04.03.09.09.09.26v1.83h0c0,.17-.05.23-.09.26-.02.02,0,.02,0,.02h.77v-2.39h-.68"></path>
        <path class="st15" d="M139.19,98.5c-.26,0-.51.11-.7.31l-.05.06v-.3h-.72s-.03,0,0,.02c.04.03.09.09.09.26h0v2.87s.26.1.77.16c.01,0,.03,0,0-.02-.04-.02-.08-.08-.09-.22v-.94l.05.06c.16.18.37.26.64.26.4,0,.65-.22.79-.4.18-.23.28-.55.28-.86,0-.35-.11-.67-.29-.9-.19-.23-.47-.36-.76-.36M139.35,100.31c-.12.15-.3.24-.48.24-.08,0-.23-.02-.37-.15h-.01v-1.02s0-.42.53-.42c.34,0,.54.29.54.79,0,.2-.07.4-.2.56"></path>
        <path class="st15" d="M143.45,98.5c-.69,0-1.26.56-1.26,1.26s.56,1.26,1.26,1.26,1.26-.56,1.26-1.26-.56-1.26-1.26-1.26M143.45,100.55c-.34,0-.61-.35-.61-.79s.27-.79.61-.79.61.35.61.79-.27.79-.61.79"></path>
        <path class="st15" d="M136.41,100.28s0-.03-.02,0c-.02.04-.09.09-.24.09h-.88v-2.48h-.87s-.03,0,0,.02c.04.03.09.09.09.26v2.5c0,.16-.05.23-.09.26-.02.02,0,.02,0,.02h1.74c.17,0,.27-.11.27-.31v-.27h0v-.09"></path>
        <path class="st15" d="M142.07,100.36c-.06.06-.23.18-.42.18-.23,0-.28-.16-.28-.42v-1.09h.22c.43,0,.42-.46.42-.46h-.64v-.68l-.68.27v.41h-.26v.46h.26v1.14c0,.52.3.85.77.85.59,0,.65-.5.65-.65,0-.02-.01-.03-.03-.01"></path>
        <path class="st15" d="M147.25,100.94s-.08-.07-.09-.19v-1.39c0-.28-.07-.5-.2-.64s-.32-.22-.57-.22c-.36,0-.6.18-.74.32l-.05.06v-.32h-.72s-.03,0,0,.02c.04.03.09.09.09.26h0v.79h0v1.32h.77s.03,0,0-.02c-.04-.02-.08-.07-.09-.19v-1c0-.43.29-.72.56-.72.19,0,.27.11.27.4v1.53h.77s.03,0,0-.02"></path>
        <path class="st15" d="M137.01,97.64c-.19,0-.35.16-.35.35s.16.35.35.35.35-.16.35-.35-.16-.35-.35-.35"></path>
      </g>
    </g>
    <path class="st15" d="M149.54,97.06c-.04-.07-.09-.13-.17-.17-.14-.08-.3-.08-.45,0-.07.04-.13.09-.17.17-.04.07-.06.15-.06.23s.02.16.06.23c.04.07.09.13.17.17.07.04.15.06.22.06s.15-.02.22-.06c.07-.04.13-.1.17-.17.04-.07.06-.15.06-.23s-.02-.15-.06-.23"></path>
    <path class="st41" d="M149.26,97.36s-.02-.03-.03-.03h0s.04-.02.06-.04c.02-.02.03-.05.03-.08,0-.02,0-.05-.02-.06-.01-.02-.02-.03-.04-.04-.02,0-.04-.01-.07-.02h-.22v.43h.11v-.16h.01s.04,0,.05.01c.01,0,.03.03.05.08l.04.07h.13l-.06-.1s-.03-.05-.03-.05M149.2,97.21s0,.02,0,.02c0,0-.01.01-.02.02,0,0-.03,0-.08,0h-.02v-.09h.02c.06,0,.08,0,.08,0,.01,0,.02,0,.02.01,0,0,0,.02,0,.02"></path>
    <path class="st41" d="M149.48,97.09c-.04-.06-.08-.11-.15-.15-.12-.07-.26-.07-.39,0-.06.04-.11.08-.15.15s-.05.13-.05.2.02.14.05.2c.04.06.08.11.15.15.06.04.13.05.2.05s.13-.02.2-.05c.06-.04.11-.08.15-.15.04-.06.05-.13.05-.2s-.02-.13-.05-.2M149,97.55s-.08-.06-.11-.11c-.03-.05-.04-.09-.04-.15s.01-.1.04-.15c.03-.05.06-.08.11-.11.05-.02.09-.04.15-.04s.1.01.15.04c.05.02.08.06.11.11.03.05.04.1.04.15s-.01.1-.04.15c-.03.05-.06.08-.11.11-.09.05-.2.05-.29,0"></path>
  </g>
  <g class="st47">
    <g>
      <ellipse class="st2" cx="100.51" cy="99.69" rx="8.93" ry="9"></ellipse>
      <g>
        <path class="st20" d="M110.82,99.74l-6.99-6.29s.04.06.03.09c-.9,3.96-2.9,4.17-4.09,10.73l-.04.25h0l5.18,4.66h3.14l2.77-9.44h0Z"></path>
        <g>
          <path class="st33" d="M101.1,96.03s-.04.02-.13.05c-.01,0-.02,0-.04.01,0,0-.01,0-.02,0-.01,0-.02,0-.04.01-.04.01-.07.02-.12.04-.02,0-.04.01-.05.01-.01,0-.02,0-.03,0-.07.02-.14.04-.23.06-.02,0-.05.01-.07.02-.32.07-.76.14-1.33.18-.45.04-.85.09-1.2.15-.04,0-.08.01-.12.02-.06.01-.12.02-.17.04-.04,0-.07.02-.11.02-.01,0-.02,0-.03,0-.04,0-.07.02-.1.02s-.07.02-.1.02c-.05.01-.1.03-.15.04-.09.03-.18.05-.26.08-.06.02-.12.04-.17.06-.01,0-.02.01-.04.01-.02,0-.04.01-.06.02-.06.02-.12.05-.17.07-.02,0-.04.02-.06.02-.01,0-.02.01-.03.01-.03.01-.06.03-.09.04l-.11.05c-.05.03-.11.05-.15.08-.03.02-.06.04-.09.05-.02.01-.04.02-.05.03s-.04.02-.05.03c-.02.01-.03.02-.05.03-.03.02-.06.04-.08.06,0,0-.01,0-.01,0h0s0,0-.01,0h-.04s0,0-.01,0h0s0,0-.01,0h0s0,0-.01,0h0l2.6,2.34c1.48-2.44,2.99-3.72,2.99-3.72h-.01Z"></path>
          <g>
            <path class="st33" d="M104.91,109.18l-5.18-4.66h0s-1.03.18-1.87.37c-.48.12-1.09.28-1.89.48-.03,0-.06,0-.08-.02l4.25,3.82h4.78,0Z"></path>
            <g>
              <path class="st15" d="M103.76,93.43c-4.05.78-7.35.19-7.59,1.14-.22.87-.69,2.75-.69,2.75-.02.08.07.15.14.1.4-.29,1.41-.84,3.43-.99,1.45-.11,2.05-.39,2.05-.39,0,0-3.84,3.25-5.25,9.23-.01.07.05.13.11.11.8-.21,1.41-.37,1.89-.48.84-.2,1.87-.37,1.87-.37l.04-.25c1.2-6.56,3.19-6.77,4.09-10.73.01-.07-.04-.12-.11-.11h0Z"></path>
              <g>
                <g>
                  <circle class="st14" cx="103.59" cy="99.84" r="3.46"></circle>
                  <path class="st15" d="M102.92,101.17l-.82.1.04-.13s-.11.13-.36.16c-.5.06-.82-.16-.7-.7.02-.09.59-2.15.59-2.15l.83-.1-.61,2.19c-.08.32.28.23.37.18l.67-2.42.82-.1-.82,2.98h0ZM105.94,98.75c-.03.15-.3,1.11-.33,1.26-.15.54-.45.89-1.22.98l-.3.04h0s-.24.89-.24.89l-.85.11,1.09-3.88.83-.1-.03.1s.15-.09.27-.13c.27-.09.5,0,.58.06.2.13.25.38.19.67h0ZM104.85,98.51h-.07s-.54,1.97-.54,1.97h.1c.28-.06.37-.16.43-.37l.35-1.28c.05-.18,0-.35-.28-.32h0Z"></path>
                </g>
                <path class="st15" d="M106.52,102.29c-.28,0-.5.22-.49.48s.22.49.5.49.49-.22.49-.49-.22-.48-.5-.48h0ZM106.49,103.16c-.2-.02-.34-.18-.34-.38s.16-.39.37-.39.38.18.37.4-.19.39-.4.37h0ZM106.63,102.79h0c.06-.02.1-.07.1-.12,0-.05-.02-.08-.05-.11-.04-.02-.08-.04-.17-.04-.08,0-.14,0-.19.01v.48h.11v-.19h.05c.06,0,.09.02.1.08.01.06.02.1.04.12h.12s-.02-.05-.04-.12c-.01-.06-.04-.1-.09-.12h0ZM106.5,102.75h-.05v-.14s.03,0,.06,0c.07,0,.1.03.1.07,0,.05-.05.07-.11.07Z"></path>
              </g>
            </g>
          </g>
        </g>
      </g>
    </g>
  </g>
  <g>
    <ellipse class="st13" cx="80.15" cy="99.7" rx="8.93" ry="9"></ellipse>
    <g>
      <path class="st15" d="M86.05,94.76c-.12.12-.26.18-.42.18s-.31-.06-.42-.18-.18-.26-.18-.42.06-.3.18-.42c.12-.12.26-.18.42-.18s.31.06.42.18c.12.12.18.26.18.42s-.06.31-.18.42h0ZM85.27,93.98c-.1.1-.15.22-.15.36s.05.27.15.37c.1.1.22.15.36.15s.27-.05.36-.15c.1-.1.15-.22.15-.37s-.05-.27-.15-.36c-.1-.1-.22-.15-.36-.15s-.26.05-.36.15ZM85.62,94.01c.08,0,.14,0,.18.02.07.03.1.08.1.17,0,.06-.02.1-.06.13-.02.01-.06.02-.09.03.05,0,.09.03.11.06.02.04.04.07.04.1v.1s0,.03,0,.04h0s-.11,0-.11,0h0v-.09c0-.08-.02-.13-.06-.15-.02-.01-.07-.02-.13-.02h-.09v.26h-.12v-.66h.23,0ZM85.75,94.11s-.08-.02-.14-.02h-.1v.24h.11s.09,0,.11-.01c.05-.02.07-.05.07-.1s-.01-.08-.04-.1h0Z"></path>
      <g>
        <path class="st15" d="M81.59,99.31l-2.15,2.21h2.43v1.69c-.46.19-.76.27-1.24.27-.77,0-1.47-.25-2.02-.67,0,0-.16-.12-.33-.28-.16-.16-.25-.28-.25-.28-.43-.59-.71-1.43-.71-2.29,0-1.87,1.27-3.25,3.02-3.25.43,0,.83.06,1.22.21l.5.19-.18.68h.98l.13-.06h1.71v-3.96h-1.87v.58c-.75-.29-1.57-.43-2.48-.43-3.72,0-6.41,2.6-6.41,6.24s2.58,5.99,6.29,5.99c1.75,0,3.32-.48,4.68-1.41v-5.42h-3.34Z"></path>
        <g>
          <polygon class="st13" points="79.96 97.81 82.81 96.86 81.77 98.11 82.9 97.73 78.32 102.44 79.62 99.16 78.88 99.44 79.96 97.81"></polygon>
          <g>
            <g class="st25">
              <polygon class="st12" points="79.77 98.77 79.17 99 78.88 99.44 79.62 99.16 79.77 98.77"></polygon>
            </g>
            <g class="st42">
              <polygon class="st12" points="81.22 98.3 81.77 98.11 82.81 96.86 82.26 97.05 81.22 98.3"></polygon>
            </g>
            <g class="st32">
              <polygon class="st12" points="78.62 101.7 82.25 97.95 82.9 97.73 78.32 102.44 78.62 101.7"></polygon>
            </g>
          </g>
          <path d="M77.63,103.64c.21-.52,1.61-4.05,1.61-4.05l-.92.35,1.51-2.3,3.83-1.27-1.03,1.24,1.29-.45-6.29,6.48M78.88,99.44l.74-.28-1.3,3.28,4.58-4.72-1.12.39,1.04-1.25-2.86.95-1.07,1.63h0Z"></path>
        </g>
      </g>
    </g>
  </g>
  <ellipse class="st18" cx="120.62" cy="99.62" rx="9.02" ry="9.08"></ellipse>
  <g>
    <g>
      <g class="st4">
        <g>
          <polygon class="st28" points="118.28 95.21 119.57 94.2 120.41 94.81 121.18 94.49 121.96 95.72 121.06 97.86 119.43 97.86 118.28 95.21"></polygon>
          <polygon class="st9" points="126.79 97.05 128.25 97.86 126.12 97.86 126.79 97.05"></polygon>
          <polygon class="st21" points="126.79 97.05 128.5 98.01 126.07 97.92 126.79 97.05"></polygon>
          <polygon class="st8" points="126.7 97.17 126.08 96.54 125.13 96.77 125.77 97.86 126.12 97.86 126.7 97.17"></polygon>
          <polygon class="st7" points="124.57 96.51 124.02 97.28 123.7 97.86 125.77 97.86 125.13 96.77 124.57 96.51"></polygon>
          <polygon class="st31" points="121.96 95.72 122.34 95.18 123.17 95.77 123.93 95.41 124.57 96.51 124.02 97.28 123.7 97.86 121.06 97.86 121.96 95.72"></polygon>
          <polygon class="st30" points="121.18 94.49 120.41 94.81 120.62 96.76 121.96 95.72 121.18 94.49"></polygon>
          <polygon class="st43" points="123.93 95.41 123.17 95.77 123.4 96.37 123.93 95.41"></polygon>
          <polygon class="st46" points="113.68 97.05 112.23 97.86 114.36 97.86 113.68 97.05"></polygon>
          <polygon class="st29" points="113.68 97.05 111.97 97.99 114.42 97.94 113.68 97.05"></polygon>
          <polygon class="st24" points="113.78 97.16 114.4 96.54 115.35 96.77 114.71 97.86 114.36 97.86 113.78 97.16"></polygon>
          <polygon class="st17" points="115.91 96.4 116.84 97.92 114.74 97.94 115.07 97.18 115.35 96.77 115.91 96.4"></polygon>
          <polygon class="st6" points="118.52 95.72 118.28 95.21 117.43 95.62 116.43 95.54 115.91 96.4 116.8 97.9 119.42 97.86 118.52 95.72"></polygon>
          <polygon class="st0" points="117.43 95.62 117.08 96.37 116.43 95.54 117.43 95.62"></polygon>
          <polygon class="st40" points="126.79 97.05 127.05 97.27 126.12 97.86 126.79 97.05"></polygon>
          <polygon class="st16" points="127.05 97.27 126.79 97.05 128.52 98.01 127.05 97.27"></polygon>
          <polygon class="st3" points="126.08 96.54 125.38 97.18 126.7 97.17 126.08 96.54"></polygon>
          <polygon class="st49" points="126.18 97.92 125.8 97.92 125.37 97.18 126.18 97.92"></polygon>
          <polygon class="st48" points="124.57 96.51 125.13 96.77 124.99 97.47 124.57 96.51"></polygon>
          <polygon class="st48" points="125.77 97.86 125.15 97.86 124.99 97.47 125.77 97.86"></polygon>
          <polygon class="st27" points="123.7 97.86 124.99 97.47 124.02 97.28 123.7 97.86"></polygon>
          <polygon class="st44" points="123.41 96.34 121.96 95.72 122.34 95.18 123.41 96.34"></polygon>
          <polygon class="st10" points="113.68 97.05 113.42 97.27 114.36 97.86 113.68 97.05"></polygon>
          <polygon class="st11" points="113.43 97.27 113.68 97.05 111.96 97.99 113.43 97.27"></polygon>
          <polygon class="st26" points="114.4 96.54 115.07 97.18 113.78 97.16 114.4 96.54"></polygon>
          <polygon class="st37" points="114.3 97.91 114.71 97.92 115.07 97.17 114.3 97.91"></polygon>
          <polygon class="st50" points="115.91 96.4 115.35 96.77 115.07 97.17 115.91 96.4"></polygon>
          <polygon class="st50" points="114.67 97.98 115.37 97.95 115.07 97.17 114.67 97.98"></polygon>
          <polygon class="st50" points="116.79 97.86 115.07 97.17 116.46 97.28 116.79 97.86"></polygon>
          <polygon class="st45" points="116.79 97.86 117.08 96.37 115.91 96.4 116.79 97.86"></polygon>
          <polygon class="st38" points="117.08 96.37 119.42 97.86 118.52 95.72 117.08 96.37"></polygon>
          <polygon class="st34" points="120.62 96.76 119.55 97.88 121.16 97.89 120.62 96.76"></polygon>
          <polygon class="st1" points="119.57 94.2 120.62 96.76 118.52 95.72 118.28 95.21 119.57 94.2"></polygon>
          <polygon class="st36" points="123.41 96.34 124.45 96.69 124.02 97.28 123.41 96.34"></polygon>
          <polygon class="st39" points="123.41 96.34 123.7 97.86 121.06 97.86 123.41 96.34"></polygon>
        </g>
      </g>
      <path class="st35" d="M112.33,97.47s2.58,1.26,7.65.32c4.32-.8,8.34.05,8.34.05,0,0-3.63-1.06-8.34-.25-4.7.81-7.65-.12-7.65-.12h0Z"></path>
    </g>
    <g>
      <path class="st15" d="M124.86,99.01h-.08s-.56.05-.56.8v1.54c0,.11-.07.34-.47.34h-.05v-3.15h.07c.42,0,.4.29.4.29v.02c.08-.11.18-.19.31-.26.16-.08.29-.12.46-.12h.2v.21s.02.29-.29.33h0Z"></path>
      <path class="st15" d="M117.25,102.76h-.05v-2.65c0-.45.16-.84.49-1.17.33-.33.72-.49,1.18-.48.43.01.81.18,1.11.5.3.32.46.7.46,1.14s-.16.85-.49,1.18c-.31.31-.69.47-1.11.47h-.06c-.42-.01-.78-.18-1.08-.47v1.13c0,.1-.07.34-.44.34h0ZM118.8,98.96c-.3,0-.55.11-.77.34-.23.24-.34.52-.33.84,0,.3.12.57.33.79.21.22.46.33.77.33s.57-.11.79-.33c.22-.22.34-.48.34-.8,0-.31-.09-.57-.31-.81-.21-.23-.47-.35-.77-.36h-.06Z"></path>
      <path class="st15" d="M126.47,101.76h-.06c-.43-.02-.81-.19-1.11-.5-.3-.32-.46-.7-.46-1.14s.16-.85.49-1.18c.32-.33.72-.48,1.18-.47.44.02.82.19,1.12.51.31.32.46.7.44,1.14v1.58h-.05c-.39,0-.44-.26-.44-.34v-.07c-.31.32-.69.48-1.12.48h0ZM126.48,98.95c-.32,0-.57.11-.8.33s-.33.48-.34.8c0,.32.1.59.3.82s.47.35.77.36h.06c.3,0,.55-.11.76-.34.23-.24.34-.52.34-.85,0-.3-.12-.57-.33-.79-.21-.22-.47-.33-.76-.33h0Z"></path>
      <path class="st15" d="M122.05,101.76c-.1,0-.2-.01-.29-.03-.27-.05-.51-.18-.71-.39-.21-.22-.34-.49-.38-.8-.01-.08-.01-.15-.01-.22v-1.79h.1c.12,0,.38.06.41.44v1.4c0,.24.09.45.27.63.17.16.36.25.59.26h.07c.22,0,.42-.09.59-.26.18-.18.27-.39.27-.63v-1.39c.02-.38.29-.43.4-.44h.1v1.79c0,.41-.13.75-.39,1.02-.2.2-.44.33-.71.39-.09.02-.19.03-.29.03h0Z"></path>
      <path class="st15" d="M115.32,100.65h.2c-.12.34-.32.61-.6.81-.28.2-.58.3-.93.3h-.02c-.42,0-.8-.16-1.12-.47-.34-.33-.5-.71-.51-1.15-.01-.47.16-.88.5-1.21.35-.34.76-.5,1.22-.48.42.03.79.2,1.09.52.3.32.45.67.45,1.06v.27h-2.74c.04.27.16.5.37.68.22.19.47.28.76.28h.02c.35,0,.61-.12.81-.36,0,0,.18-.27.5-.25h0ZM112.87,99.83h2.22c-.06-.25-.19-.45-.37-.61-.2-.17-.44-.26-.72-.26h-.02c-.27,0-.51.08-.72.25-.19.16-.32.36-.38.62h0Z"></path>
      <path class="st15" d="M116.8,99.31c-.48.22-1.25,1.02-.92,1.67.23.44.91.3,1.03-.25.13-.63-.38-.9-.11-1.42Z"></path>
      <path class="st15" d="M128.16,98.31c.22,0,.41.18.41.41s-.19.42-.41.42-.42-.18-.42-.42.19-.41.42-.41M128.16,99.08c.19,0,.34-.15.34-.35s-.15-.35-.34-.35-.34.15-.34.35.15.35.34.35M128,98.49h.19c.12,0,.17.05.17.14,0,.09-.06.12-.13.13l.14.21h-.08l-.13-.21h-.08v.21h-.07v-.48h0ZM128.07,98.7h.08c.07,0,.13,0,.13-.08,0-.06-.06-.07-.11-.07h-.1v.15Z"></path>
    </g>
  </g>
  <metadata></metadata>
</svg>
