<?xml version="1.0" encoding="UTF-8"?>
<svg xmlns="http://www.w3.org/2000/svg" xmlns:i="http://ns.adobe.com/AdobeIllustrator/10.0/" id="Capa_1" version="1.1" viewBox="0 0 300 120">
  <defs>
    <style>
      .st0 {
        fill: #ffcb04;
      }

      .st0, .st1, .st2 {
        fill-rule: evenodd;
      }

      .st1 {
        fill: #231f20;
      }

      .st2 {
        fill: #0066b3;
      }
    </style>
  </defs>
  <g id="surface1">
    <path class="st0" d="M81.88,15.65c-4.92,0-20.91,6.6-20.91,25.75,0,14.27,10.04,23.37,19.61,25.74,1.06.5,1.27.66,1.25.68-.02.03-.36-.14.09-.14,14.58,0,24.37-15.46,23.96-25.28-.66-15.79-11.23-26.75-24-26.75M111.55,42.03c.02,14.03-11.58,26.55-29.59,26.55-.55,0-.12.18-.11.15.01-.02-.25-.19-1.55-.71-11.82-2.49-24.22-12.05-24.22-27.04,0-20.11,19.74-25.85,25.82-25.98,17.37-.4,29.62,10.43,29.64,27.04"></path>
    <path class="st2" d="M83.38,67.66c4.92,0,21.43-6.6,21.43-25.75,0-14.27-9.62-24.28-20.14-25.74-1.06-.5-1.27-.65-1.25-.68.02-.02.36.14-.09.14-14.58,0-24.37,15.45-23.96,25.28.66,15.79,11.23,26.75,24,26.75M53.71,41.28c-.02-14.02,11.58-26.54,29.59-26.55.55,0,.12-.18.11-.15-.01.03.25.72,1.55,1.24,12.21,2.07,21.04,11.52,21.05,26.51.02,15.44-13.2,24.28-22.65,25.99-17.11,3.08-29.62-10.43-29.64-27.04"></path>
    <path class="st2" d="M75.45,8.08h12.77v1.2h-2.79c-1.14,0-1.57.47-1.57,1.06l-.19,61.8c0,1.32.46,1.98,1.35,2h3.12v1.11s-13.09,0-13.09,0v-1.12h3.05c.81,0,1.36-.62,1.36-1.84l.38-61.58c0-.49-.71-1.47-1.65-1.48h-2.73"></path>
    <path class="st0" d="M76.51,8.08h12.77v1.2h-2.79c-1.14,0-1.56.47-1.57,1.06l-.2,61.8c0,1.32.46,1.98,1.35,2h3.12v1.11h-13.09v-1.12h3.05c.81,0,1.36-.62,1.36-1.84l.38-61.58c.01-.49-.71-1.47-1.65-1.48h-2.73"></path>
    <path class="st1" d="M246.29,68.68v-.5h-2.09v-3.77h-.57v4.28h2.66ZM240.46,66.92h1.45l-.44-1.19c-.13-.36-.23-.66-.3-.89-.06.28-.14.55-.23.82l-.47,1.26ZM239.84,68.68l.46-1.3h1.79l.49,1.3h.64l-1.73-4.28h-.62l-1.63,4.28h.6ZM238.72,64.4h-.56v4.28h.56v-4.28ZM236.36,67.99c-.22.18-.48.27-.8.27-.26,0-.5-.07-.72-.2-.22-.13-.38-.34-.49-.61-.11-.27-.16-.59-.16-.95,0-.29.04-.56.13-.82.09-.27.24-.48.46-.64s.49-.23.82-.23c.29,0,.52.07.71.21.19.14.33.37.43.68l.55-.13c-.11-.39-.32-.7-.61-.92-.29-.21-.64-.32-1.07-.32-.38,0-.72.09-1.03.26s-.55.42-.72.75-.25.72-.25,1.16c0,.41.07.79.22,1.15.15.36.37.62.66.81.29.19.66.28,1.11.28s.82-.12,1.12-.36c.3-.25.52-.6.63-1.06l-.56-.14c-.08.36-.22.63-.44.81M230.06,66.29h1.21c.26,0,.46-.02.6-.08s.25-.14.33-.26.11-.25.11-.38c0-.2-.07-.37-.22-.5s-.38-.2-.69-.2h-1.34v1.41ZM230.06,68.68v-1.9h.65c.14,0,.25,0,.31.02.09.02.17.06.26.11.08.05.18.15.28.29.11.14.24.33.41.59l.56.89h.7l-.74-1.16c-.14-.23-.3-.42-.46-.57-.08-.07-.19-.14-.34-.21.41-.06.71-.19.9-.4s.29-.46.29-.77c0-.23-.06-.45-.18-.64s-.28-.33-.47-.41c-.2-.08-.48-.12-.86-.12h-1.88v4.28h.56ZM228.71,68.68v-.5h-2.61v-1.46h2.34v-.5h-2.34v-1.31h2.5v-.5h-3.07v4.28h3.17ZM221.1,68.68v-3.64l1.23,3.64h.51l1.24-3.58v3.58h.54v-4.28h-.75l-1.02,2.98c-.1.3-.18.53-.23.68-.04-.14-.11-.35-.2-.63l-1-3.03h-.84v4.28h.54ZM216.37,66.61c0,.51.14.92.41,1.21.28.3.62.44,1.04.44s.77-.15,1.05-.45c.27-.3.41-.72.41-1.27,0-.35-.06-.65-.18-.91-.12-.26-.29-.46-.51-.6-.23-.14-.48-.21-.76-.21-.4,0-.74.14-1.03.41-.29.27-.43.73-.43,1.38M216.03,67.66c.16.34.4.6.71.8.32.19.68.29,1.07.29.37,0,.71-.09,1.03-.26.32-.18.57-.43.74-.78.17-.34.26-.73.26-1.16s-.09-.81-.25-1.15-.41-.6-.72-.79c-.31-.19-.67-.28-1.06-.28-.6,0-1.09.2-1.47.6s-.57.96-.57,1.66c0,.38.08.73.25,1.07M214.26,67.99c-.22.18-.48.27-.8.27-.26,0-.5-.07-.72-.2s-.39-.34-.49-.61c-.11-.27-.16-.59-.16-.95,0-.29.04-.56.13-.82.09-.27.24-.48.46-.64.22-.16.49-.23.82-.23.28,0,.52.07.71.21.18.14.33.37.43.68l.55-.13c-.11-.39-.31-.7-.61-.92-.29-.21-.64-.32-1.07-.32-.38,0-.72.09-1.03.26-.31.17-.55.42-.72.75s-.25.72-.25,1.16c0,.41.07.79.23,1.15.15.36.37.62.65.81.29.19.66.28,1.12.28s.82-.12,1.12-.36c.3-.25.52-.6.64-1.06l-.57-.14c-.07.36-.22.63-.44.81M205.82,66.61c0,.51.14.92.41,1.21s.62.44,1.04.44.77-.15,1.04-.45c.28-.3.41-.72.41-1.27,0-.35-.05-.65-.17-.91-.12-.26-.29-.46-.52-.6-.22-.14-.48-.21-.75-.21-.4,0-.74.14-1.03.41-.29.27-.43.73-.43,1.38M205.48,67.66c.16.34.4.6.71.8.32.19.67.29,1.07.29.37,0,.71-.09,1.03-.26.32-.18.57-.43.74-.78.17-.34.26-.73.26-1.16s-.08-.81-.25-1.15-.41-.6-.72-.79c-.31-.19-.67-.28-1.06-.28-.6,0-1.09.2-1.47.6s-.57.96-.57,1.66c0,.38.08.73.25,1.07M203.52,68.68v-3.77h1.4v-.5h-3.37v.5h1.4v3.77h.57ZM198.12,68.68v-3.36l2.23,3.36h.58v-4.28h-.54v3.36l-2.23-3.36h-.58v4.28h.54ZM196.81,68.68v-.5h-2.61v-1.46h2.34v-.5h-2.34v-1.31h2.5v-.5h-3.07v4.28h3.17ZM192.64,64.4h-.56v4.28h.56v-4.28ZM187.56,68.68v-3.64l1.23,3.64h.5l1.24-3.58v3.58h.54v-4.28h-.75l-1.03,2.98c-.1.3-.18.53-.23.68-.04-.14-.11-.35-.2-.63l-1-3.03h-.84v4.28h.54ZM183.84,66.92h1.45l-.45-1.19c-.13-.36-.23-.66-.3-.89-.06.28-.14.55-.23.82l-.46,1.26ZM183.21,68.68l.46-1.3h1.79l.49,1.3h.64l-1.73-4.28h-.62l-1.63,4.28h.6ZM182.09,64.4h-.56v4.28h.56v-4.28ZM179.73,67.99c-.21.18-.48.27-.8.27-.26,0-.5-.07-.72-.2s-.38-.34-.49-.61c-.11-.27-.16-.59-.16-.95,0-.29.05-.56.14-.82.09-.27.24-.48.46-.64.22-.16.49-.23.82-.23.28,0,.52.07.71.21.19.14.33.37.43.68l.55-.13c-.12-.39-.32-.7-.61-.92-.29-.21-.65-.32-1.07-.32-.38,0-.71.09-1.03.26s-.55.42-.72.75c-.17.33-.25.72-.25,1.16,0,.41.07.79.23,1.15.15.36.37.62.65.81.29.19.66.28,1.12.28s.82-.12,1.12-.36c.31-.25.52-.6.64-1.06l-.57-.14c-.07.36-.22.63-.44.81M173.39,68.68v-3.36l2.23,3.36h.58v-4.28h-.54v3.36l-2.23-3.36h-.58v4.28h.54ZM169.66,66.92h1.45l-.45-1.19c-.13-.36-.23-.66-.3-.89-.06.28-.14.55-.23.82l-.46,1.26ZM169.03,68.68l.46-1.3h1.79l.49,1.3h.64l-1.73-4.28h-.62l-1.63,4.28h.59ZM165.14,68.68v-3.36l2.23,3.36h.58v-4.28h-.54v3.36l-2.23-3.36h-.58v4.28h.54ZM163.62,64.4h-.56v4.28h.56v-4.28ZM159.93,68.68v-1.94h2v-.5h-2v-1.33h2.3v-.5h-2.87v4.28h.56ZM156.92,68.68v-.5h-2.61v-1.46h2.35v-.5h-2.35v-1.31h2.5v-.5h-3.07v4.28h3.17ZM150.01,68.17h.91c.28,0,.5-.02.66-.08.16-.05.29-.12.38-.22.13-.14.23-.32.31-.54s.11-.5.11-.83c0-.45-.07-.79-.22-1.03-.14-.24-.32-.4-.53-.48-.15-.06-.39-.09-.73-.09h-.89v3.27ZM150.98,68.68c.26,0,.48-.02.68-.07.2-.05.37-.12.51-.21s.27-.22.39-.39.21-.37.29-.62c.07-.25.11-.54.11-.86,0-.38-.05-.72-.17-1.02-.11-.3-.28-.54-.5-.73-.17-.15-.38-.25-.62-.3-.18-.04-.43-.06-.76-.06h-1.46v4.28h1.54ZM144.89,66.92h1.45l-.45-1.19c-.13-.36-.23-.66-.3-.89-.06.28-.14.55-.23.82l-.46,1.26ZM144.27,68.68l.46-1.3h1.79l.49,1.3h.64l-1.73-4.28h-.62l-1.63,4.28h.6ZM143.15,64.4h-.56v4.28h.56v-4.28ZM139.37,64.15c0-.09.02-.16.06-.21.04-.05.09-.07.16-.07.06,0,.16.04.29.11.2.11.36.16.48.16.16,0,.29-.05.4-.17.11-.11.16-.27.17-.49h-.38c-.01.1-.04.16-.07.2-.03.03-.08.05-.14.05-.07,0-.16-.03-.27-.09-.21-.1-.37-.16-.49-.16-.17,0-.32.06-.43.18-.11.12-.16.28-.16.48h.39ZM138.74,68.68v-3.36l2.23,3.36h.58v-4.28h-.54v3.36l-2.23-3.36h-.58v4.28h.54ZM135,66.92h1.45l-.44-1.19c-.14-.36-.24-.66-.3-.89-.06.28-.14.55-.24.82l-.46,1.26ZM134.38,68.68l.46-1.3h1.79l.49,1.3h.64l-1.73-4.28h-.62l-1.63,4.28h.6ZM131.25,66.43h1.1c.36,0,.62-.07.78-.2.15-.14.23-.33.23-.57,0-.18-.04-.33-.14-.46-.09-.13-.21-.21-.35-.25-.09-.02-.27-.04-.52-.04h-1.09v1.53ZM131.25,68.68v-1.74h1.09c.6,0,1.02-.13,1.25-.38.23-.25.34-.56.34-.92,0-.21-.04-.41-.13-.58s-.2-.31-.34-.41c-.14-.1-.32-.16-.53-.2-.15-.03-.36-.04-.64-.04h-1.61v4.28h.56ZM126.26,68.68v-3.64l1.23,3.64h.51l1.24-3.58v3.58h.54v-4.28h-.75l-1.02,2.98c-.1.3-.18.53-.23.68-.04-.14-.11-.35-.2-.63l-1-3.03h-.84v4.28h.54ZM121.53,66.61c0,.51.14.92.41,1.21.28.3.62.44,1.04.44s.77-.15,1.04-.45c.27-.3.41-.72.41-1.27,0-.35-.06-.65-.18-.91-.12-.26-.29-.46-.51-.6-.23-.14-.48-.21-.76-.21-.4,0-.74.14-1.03.41-.29.27-.43.73-.43,1.38M121.19,67.66c.16.34.4.6.72.8.31.19.67.29,1.07.29.37,0,.71-.09,1.03-.26.32-.18.57-.43.74-.78.17-.34.26-.73.26-1.16s-.09-.81-.25-1.15-.4-.6-.72-.79c-.32-.19-.67-.28-1.06-.28-.6,0-1.09.2-1.47.6s-.57.96-.57,1.66c0,.38.09.73.25,1.07M119.86,67.18l.56.14c-.12.46-.33.82-.64,1.06-.3.24-.68.36-1.12.36s-.83-.09-1.12-.28c-.29-.19-.5-.46-.65-.81s-.22-.74-.22-1.15c0-.44.08-.83.25-1.16s.41-.58.72-.75.65-.26,1.03-.26c.42,0,.78.11,1.07.32.29.22.49.53.61.92l-.55.13c-.1-.31-.24-.54-.43-.68-.19-.14-.43-.21-.71-.21-.33,0-.6.08-.82.23-.21.16-.37.37-.46.64-.09.26-.13.54-.13.82,0,.36.05.68.16.95.11.27.27.48.49.61s.46.2.72.2c.32,0,.58-.09.8-.27.21-.18.36-.45.44-.81"></path>
    <path class="st1" d="M135.06,37.79c-.1,0-.2-.02-.29-.07-.07-.04-.11-.08-.14-.13-.03-.07-.04-.2-.04-.41v-2.64c0-.24.03-.4.08-.46.08-.1.21-.15.39-.15h.16v-.11h-1.89v.11h.16c.1,0,.2.02.3.07.07.04.11.08.13.13.03.06.04.2.04.41v2.64c0,.24-.02.39-.08.46-.08.1-.21.14-.39.14h-.16v.11h1.89v-.11h-.16ZM136.68,33.94c.12,0,.21,0,.27.03.12.04.21.08.28.12.06.04.16.13.28.27v2.83c0,.23-.02.38-.07.44-.07.1-.2.16-.39.16h-.14v.11h1.48v-.11h-.15c-.17,0-.29-.04-.37-.13-.05-.06-.08-.22-.08-.47v-2.51l2.77,3.28h.11v-3.43c0-.23.02-.37.07-.44.07-.11.2-.16.38-.16h.15v-.11h-1.48v.11h.14c.17,0,.29.04.37.12.06.06.09.22.09.47v2.35l-2.58-3.05h-1.13v.11ZM145.97,33.86v.11h.05c.14.03.25.07.31.12.06.05.09.11.09.16,0,.09-.05.25-.15.48l-1.01,2.34-1.09-2.37c-.1-.21-.14-.37-.14-.46,0-.07.03-.13.09-.18.06-.05.19-.08.39-.1v-.11h-1.75v.11c.13.01.23.04.31.07.08.04.14.08.2.14.04.04.09.15.17.33l1.6,3.48h.12l1.49-3.44c.09-.2.18-.35.29-.45.08-.07.2-.11.34-.14v-.11h-1.31ZM151.1,34.08c.21,0,.35.02.43.05.1.04.18.11.23.19.05.08.1.23.14.45h.12l-.04-.91h-3.21v.11h.15c.18,0,.3.04.37.12.05.06.08.22.08.48v2.67c0,.2,0,.33-.04.4-.02.07-.07.11-.13.14-.09.05-.18.07-.28.07h-.15v.11h3.21l.36-1.03h-.12c-.13.25-.26.44-.39.57-.1.09-.2.16-.3.19-.11.04-.28.05-.51.05h-.71c-.11,0-.19-.01-.23-.04-.04-.02-.07-.05-.09-.09s-.03-.15-.03-.33v-1.36h.92c.18,0,.3.02.39.06.09.04.14.09.18.16.03.06.06.19.09.39h.11v-1.43h-.11c-.02.23-.07.39-.18.49-.08.07-.24.11-.48.11h-.92v-1.62h1.14ZM157.96,37.83c-.21-.02-.39-.08-.52-.17-.13-.09-.29-.27-.48-.54l-.82-1.17c.33-.07.58-.21.73-.39.16-.18.24-.4.24-.65,0-.23-.07-.44-.21-.61-.14-.17-.31-.29-.51-.35-.2-.06-.51-.09-.93-.09h-1.44v.11h.15c.15,0,.26.04.34.13.05.06.08.22.08.47v2.64c0,.23-.02.38-.06.44-.07.11-.19.17-.36.17h-.15v.11h1.69v-.11h-.15c-.15,0-.26-.04-.33-.13-.05-.06-.08-.22-.08-.48v-1.19h.09s.08,0,.08,0h.24s1.34,1.9,1.34,1.9h1.06v-.11ZM155.15,35.84h.16c.37,0,.65-.08.84-.25.19-.17.28-.39.28-.64s-.07-.46-.23-.62c-.15-.16-.35-.24-.61-.24-.11,0-.26.02-.45.05v1.7ZM162.22,33.86c-.02.09-.05.16-.08.18-.03.03-.07.05-.12.05-.04,0-.12-.02-.23-.07-.24-.1-.46-.16-.67-.16-.34,0-.61.11-.83.31s-.32.45-.32.74c0,.16.04.32.11.45s.18.27.32.38c.14.11.38.27.72.46.34.19.54.32.62.38.11.09.2.18.25.28.05.1.08.2.08.3,0,.18-.07.33-.21.46-.14.13-.33.2-.57.2-.21,0-.4-.05-.57-.14-.18-.09-.31-.21-.39-.36-.09-.14-.15-.36-.2-.64h-.11v1.37h.11c.01-.09.03-.15.06-.18.03-.03.07-.04.11-.04.05,0,.17.03.36.09s.31.1.37.11c.1.02.21.03.32.03.36,0,.66-.11.89-.33s.35-.48.35-.78c0-.16-.04-.31-.11-.46-.07-.15-.18-.27-.31-.38-.14-.11-.39-.26-.75-.46-.45-.25-.74-.44-.86-.59-.08-.1-.12-.21-.12-.33,0-.16.07-.3.2-.43.13-.12.3-.19.5-.19.18,0,.35.05.52.14.17.09.3.22.39.38s.15.37.19.63h.11v-1.38h-.11ZM165.38,34.33c-.44.41-.66.93-.66,1.57s.19,1.14.57,1.54.84.59,1.4.59,1.02-.2,1.41-.61.58-.92.58-1.54-.19-1.1-.58-1.5c-.38-.4-.84-.6-1.36-.6s-.98.18-1.36.53M166.69,34.01c-.36,0-.65.14-.87.41-.27.33-.41.82-.41,1.47s.14,1.17.42,1.53c.21.27.5.41.86.41.38,0,.7-.15.94-.45s.37-.77.37-1.41c0-.7-.14-1.21-.41-1.55-.22-.27-.52-.41-.9-.41M174.62,37.81c-.21-.02-.38-.08-.5-.16-.13-.09-.28-.26-.46-.52l-.78-1.14c.32-.07.55-.2.7-.38.15-.18.23-.39.23-.63s-.07-.43-.2-.59c-.13-.17-.29-.28-.48-.34-.19-.06-.48-.09-.88-.09h-1.37v.11h.14c.14,0,.25.04.32.13.05.06.08.21.08.46v2.57c0,.23-.02.37-.06.43-.07.11-.18.16-.34.16h-.14v.11h1.61v-.11h-.15c-.14,0-.24-.04-.31-.13-.05-.06-.08-.21-.08-.46v-1.16h.09s.07,0,.07,0h.22s1.28,1.85,1.28,1.85h1.01v-.11ZM171.95,35.88h.15c.36,0,.62-.08.8-.24s.27-.38.27-.63-.07-.45-.21-.61c-.15-.16-.34-.23-.58-.23-.11,0-.25.02-.43.05v1.65ZM179.1,37.16c.08.19.12.32.12.41,0,.06-.03.12-.09.16-.06.04-.17.07-.33.08v.11h1.61v-.11c-.16-.01-.29-.05-.39-.13-.1-.08-.2-.25-.31-.52l-1.43-3.3h-.1l-1.44,3.27c-.12.29-.24.48-.34.57-.05.05-.16.08-.33.11v.11h1.29v-.11c-.2-.02-.32-.04-.39-.09-.06-.05-.09-.1-.09-.16,0-.07.03-.19.1-.34l.27-.62h1.59l.24.56ZM177.37,36.38l.71-1.61.69,1.61"></path>
    <path class="st1" d="M124.15,47.75c.54.09,1.05.13,1.52.13,1.91,0,3.39-.62,4.44-1.87,1.05-1.25,1.57-2.86,1.57-4.85,0-1.46-.35-2.72-1.04-3.79s-1.54-1.82-2.54-2.27c-1.01-.45-2.38-.68-4.12-.68h-7.13v.66h.73c.74,0,1.3.27,1.67.79.26.37.39,1.32.39,2.85v15.77c0,1.39-.1,2.27-.29,2.64-.35.67-.95,1-1.77,1h-.73v.66h8.34v-.66h-.74c-.74,0-1.29-.26-1.65-.79-.27-.37-.4-1.32-.4-2.85v-7.12c.62.17,1.2.3,1.75.38M122.4,46.34c.5.12.95.21,1.34.27.39.06.72.09,1,.09.99,0,1.85-.48,2.57-1.45.72-.96,1.08-2.21,1.08-3.73,0-1.05-.18-2.03-.52-2.93-.34-.9-.83-1.58-1.46-2.03-.63-.45-1.34-.67-2.14-.67-.48,0-1.11.11-1.87.34v10.11ZM139.58,58.28c-.37,0-.71-.11-1.04-.34-.25-.17-.41-.37-.48-.6-.1-.31-.15-.95-.15-1.91v-12.32c0-1.14.1-1.86.29-2.16.29-.46.75-.69,1.39-.69h.56v-.52h-6.68v.52h.55c.37,0,.72.11,1.06.34.24.17.39.37.47.6.1.31.15.95.15,1.91v12.32c0,1.14-.09,1.86-.28,2.16-.29.46-.76.69-1.41.69h-.55v.52h6.68v-.52h-.56ZM152.04,39.34c-.08.45-.21.81-.39,1.06-.14.18-.31.27-.5.27-.13,0-.34-.11-.64-.31-1-.68-2.03-1.02-3.06-1.02-1.33,0-2.56.44-3.68,1.32-1.12.89-2,2.13-2.64,3.73s-.96,3.37-.96,5.28c0,2.38.48,4.45,1.46,6.2,1.3,2.36,3.14,3.54,5.52,3.54,1.32,0,2.46-.4,3.41-1.19.96-.79,1.8-2.04,2.52-3.74l-.33-.29c-.85,1.58-1.63,2.64-2.34,3.17s-1.53.8-2.46.8c-1.07,0-2.02-.34-2.86-1.02-.83-.68-1.46-1.66-1.87-2.93-.42-1.28-.62-2.78-.62-4.52,0-2.11.22-3.87.66-5.29.44-1.42,1.04-2.45,1.81-3.09.77-.65,1.62-.97,2.57-.97,1.13,0,2.11.43,2.91,1.29.81.86,1.43,2.27,1.87,4.22h.32l-.32-6.52h-.39ZM159.96,43.12c0-.93.05-1.54.14-1.84.1-.3.27-.53.51-.68.34-.21.7-.32,1.09-.32h.58v-.52h-6.94v.52h.57c.38,0,.75.11,1.1.33.25.17.41.37.49.6.11.3.16.94.16,1.91v12.32c0,1.14-.1,1.86-.29,2.16-.3.46-.79.68-1.46.68h-.57v.52h6.94v-.52h-.58c-.38,0-.74-.11-1.09-.34-.25-.17-.42-.37-.5-.6-.11-.31-.16-.94-.16-1.9v-5.8h7.5v5.8c0,1.14-.1,1.86-.3,2.16-.3.46-.79.68-1.45.68h-.57v.52h6.94v-.52h-.57c-.38,0-.75-.11-1.1-.34-.25-.17-.41-.37-.49-.6-.11-.31-.16-.94-.16-1.9v-12.32c0-.93.04-1.54.14-1.84s.27-.53.52-.68c.34-.21.71-.32,1.09-.32h.57v-.52h-6.94v.52h.57c.38,0,.75.11,1.09.33.26.17.43.37.5.6.11.3.16.94.16,1.91v5.48h-7.5v-5.48ZM179.67,58.38c-.38,0-.73-.11-1.07-.34-.25-.17-.41-.37-.49-.6-.1-.31-.15-.95-.15-1.91v-12.35c0-1.14.1-1.86.29-2.16.3-.46.77-.69,1.42-.69h.57v-.52h-6.83v.52h.56c.38,0,.74.11,1.09.34.24.17.4.37.48.61.1.31.15.95.15,1.91v12.35c0,1.14-.09,1.86-.28,2.16-.3.46-.78.69-1.44.69h-.56v.52h6.83v-.52h-.57ZM181.67,40.26c.41,0,.72.04.92.12.41.18.73.37.94.57.21.21.53.63.94,1.28v13.22c0,1.07-.08,1.75-.23,2.05-.25.48-.69.73-1.31.73h-.5v.52h5.01v-.52h-.51c-.56,0-.98-.2-1.25-.59-.19-.29-.29-1.02-.29-2.19v-11.71l9.38,15.32h.38v-16.02c0-1.07.08-1.75.23-2.05.25-.49.69-.73,1.3-.73h.51v-.52h-5.01v.52h.5c.57,0,.98.2,1.25.59.2.29.3,1.02.3,2.19v10.98l-8.73-14.27h-3.83v.52ZM209.33,39.22c-.08.46-.2.81-.38,1.07-.14.18-.3.27-.49.27-.12,0-.33-.11-.62-.31-.99-.68-1.99-1.03-3.01-1.03-1.31,0-2.51.45-3.62,1.33-1.1.89-1.97,2.14-2.6,3.75-.63,1.61-.94,3.38-.94,5.31,0,2.39.48,4.47,1.43,6.24,1.28,2.38,3.09,3.56,5.42,3.56,1.3,0,2.41-.4,3.36-1.2.94-.79,1.77-2.05,2.47-3.76l-.32-.29c-.84,1.59-1.6,2.65-2.3,3.19-.7.54-1.5.8-2.41.8-1.05,0-1.98-.34-2.8-1.03-.82-.68-1.43-1.67-1.84-2.95-.41-1.28-.61-2.8-.61-4.54,0-2.12.21-3.89.65-5.32.43-1.43,1.02-2.46,1.78-3.11.75-.65,1.6-.98,2.53-.98,1.11,0,2.07.43,2.86,1.3.8.86,1.41,2.28,1.84,4.24h.32l-.32-6.56h-.38ZM216.31,43.14c0-.93.05-1.55.14-1.86s.26-.53.51-.68c.34-.21.7-.32,1.08-.32h.58v-.52h-6.89v.52h.57c.38,0,.75.11,1.09.34.25.17.41.37.49.6.1.31.15.95.15,1.92v12.38c0,1.14-.09,1.87-.29,2.17-.3.46-.79.69-1.45.69h-.57v.52h6.89v-.52h-.58c-.38,0-.74-.11-1.08-.34-.25-.17-.42-.37-.5-.61-.1-.31-.16-.95-.16-1.91v-5.83h7.46v5.83c0,1.14-.1,1.87-.3,2.17-.3.46-.78.69-1.44.69h-.57v.52h6.9v-.52h-.57c-.38,0-.75-.11-1.1-.34-.25-.17-.41-.37-.48-.61-.11-.31-.16-.95-.16-1.91v-12.38c0-.93.05-1.55.14-1.86s.27-.53.52-.68c.34-.21.7-.32,1.08-.32h.57v-.52h-6.9v.52h.57c.38,0,.74.11,1.08.34.25.17.42.37.5.6.1.31.16.95.16,1.92v5.52h-7.46v-5.52ZM240.46,55.37c.29.88.43,1.52.43,1.93,0,.3-.1.56-.31.77-.2.21-.59.34-1.18.38v.51h5.75v-.51c-.59-.05-1.06-.25-1.39-.63-.34-.38-.71-1.19-1.11-2.45l-5.07-15.63h-.36l-5.13,15.46c-.45,1.36-.85,2.26-1.21,2.7-.18.22-.57.4-1.18.54v.51h4.61v-.51c-.7-.06-1.16-.21-1.37-.42-.21-.22-.32-.47-.32-.75,0-.36.12-.91.37-1.63l.98-2.94h5.65l.87,2.67ZM234.28,51.67l2.52-7.58,2.46,7.58"></path>
    <path class="st1" d="M218.84,93.93c3.13.32,3.24.93.84,3.18l.74-.1c4.43-3.52.89-3.28-1.39-3.57-9.09-1.18-60.03,10.3-77.07,18.48,24.35-8.71,67.62-19.22,76.88-17.99M211.85,87.18c.27.21-.39,1.05.49,1.61.87.37,2.76-.62,5.65-3,.26.29-.39,1.07.29,1.48.85.54,2.55-.67,5.11-3.64-.04,4.17,1.59,5.89,4.41,6.46.59.15-4.94-2.3-3.24-7.52.04-.15.11-.29.2-.41,3.9-4.53,5.47-8.81,4.3-9.07-1.23-.23-2.89,2.59-4.97,8.46-.85-1.12-2.63-.11-5.34,3.03,0,0-5.09,4.6-5.81,3.27,0,0-.77-.88.28-1.7,0,0,1.58-.79,2.91-1.84,1.17-.92,2.14-2.09,1.88-2.4-.46-.57-1.98.29-3.23,1.5-1.39,1.34-2.5,3.08-2.63,3.07-.4.17-.66.36-.78.55-.2.17.24.21.47.12M216.99,82.65c-.44-.43-3.6,2.54-3.34,2.8.24.27,3.68-2.39,3.34-2.8M221.76,84.81c.99-1.05,1.86-2.12,1.26-2.77-.53-.43-1.67.25-2.99,1.74l.05.34s-1.91,1.53-1.13,2.31c.51.52,1.73-.48,2.81-1.63M228.47,74.1c-.55-.2-3.71,6.47-3.34,6.74.36.32,4.16-6.5,3.34-6.74M212.53,81.4c-.26.2-3.05.57-2.77,1.23.12.43,2.11-1.09,2.42-.54.09.4-3.45,7.16-3.25,7.48,0,0,.92.17.86-.8,0,0,2.54-6.04,3.31-6.96.26-.23,1.71-.29,1.66-.66-.03-.23-1.31.14-1.38-.03-.11-.31,4.07-7.15,2.81-7.47-1.12-.29-2.27,3.96-2.15,4.68.09.29-1.12,2.71-1.52,3.08M207.37,85.08l.43-.57s-4.63.14-4.66,1.41c.06.77,3.68,1.57,3.74,2.99-.01.95-2.35,1.35-3.15,1-.47-.26.37-.89.2-1.15-.36-.26-1.42,1-.87,1.78.52.69,4.87-.46,4.87-1.98-.07-1.62-3.51-2.36-3.51-2.88,0-.39.98-.59,2.95-.6M195.45,82.08c-1.05,2.47-5.07,10.12-2.88,10.96,1.29.46,2.3-.43,6.2-4.51-1.58,9.11.93,12.85,4.68,12.13-4.37-.61-5.12-5.88-3.64-13.32,0,0,3.59-4.62,5.11-7.4.41-.58,4.47-8.2,3.35-8.48-1.3-.26-3.9,3.52-5.53,7-1.64,3.29-2.76,6.27-3.37,8.94,0,0-2.53,2.53-3.3,3.34-3.8,3.34-4.14.77-1.88-4.26,2.81-6.25,4.6-9.61,4.2-10.34l-.91.77c-.08.8-.76,2.52-2.04,5.17M207.46,72.46c-1.41-.29-7.81,13.14-7.07,13.48.69.32,8.38-13.21,7.07-13.48M177.24,93.96l-1.67,2c-.43.5-.09.86.39.48,0,0,1.84-1.48,1.9-1.89.04-.49.19-.88.45-1.15,0,0,1.88-2.15,2.93-2.72,1.22-.66,1.39-.12.84.44,0,0-2.67,3.3-1.48,4.44.59.57,2.51-.52,4.83-2.68,0,0,3.64-3.04,2.01-4.15-.98-.5-2.45.7-2.74.83-.23.09-.48.16-.76.23-.61.13-1.85.16-2.06.22-1.9.76-3.35,2.75-3.41,2.15,0,0-.03-1.82-2.14-1.14,0,0-1.21.52-.2.55,1.15.05,1.65,1.3,1.12,2.38M181.63,94.76c.57.43,2.54-1.24,3.52-2.21.75-.75,2.08-2.38,1.54-3.13-.59-.39-2.2.61-3.18,1.76-.59.88-2.49,3.21-1.88,3.59M158.33,95.45l.37-.13c.39-.06.48.05.29.36,0,0-1.5,2.73-2.02,3.63-.42.66-.32,1.18.57.45l3.01-2.73s.89-.86.35.18l-.55,1.32c-.1.36-.03,1.89,1.77.05l3.05-3.05s.43-.42.19.27c0,0-.56,1.62.08,1.95.96.47,3.86-1.98,3.84-1.68-.03.34.07.69.29,1.04.45.82,1.7.41,3.75-1.22.21-.16.24-.48-.08-.26l-1.71,1.06c-1.27.45-1.5-.94-.84-1.85,1.22-.82,2.45-1.86,3.54-3.18.39-.48.2-1.04-.53-.8-3.28,1.03-3.92,4.22-4.34,4.58-1.35,1.22-2.4,1.74-3.16,1.55-.28-.93.23-2.17,1.51-3.73,0,0,.27-1.11-.48-.32l-5.48,5.5s-.85.34-.35-.6l1.66-3.15c.2-.35.24-.77-.27-.22l-4.08,3.87s-.8.61-.32-.32l1.62-3.05s.37-1.22-.89-.51c-.52.33-1.19,1.01-.79,1M173.28,91.71c-.38-.25-2.61,2.29-2.39,2.43.25.22,2.77-2.05,2.39-2.43M150.36,101.19c-.66,1.01.23.99.76.7.93-.57,2-1.36,3.21-2.36.34-.43.28-.5-.19-.21l-1.82,1.27c-.58.46-.66.22-.23-.31l2.8-3.83c.6-.73.27-1.33-.6-.36l-3.93,5.1ZM156.68,93.91c.34,0,.61-.31.61-.7s-.11-.5-.44-.5-.73.35-.73.73.23.46.57.46M146.17,97.29l1.38.05c.7.13.84.57.42,1.33l-3.95,4.03c-.53.76-.36.94.39.37,1.29-.97,2.35-1.9,3.16-2.8,1.17-.89,1.57-3.13,4.79-4.4,1.02-.4.85-1.03-.39-.42-.91.45-1.75,1.05-2.54,1.84-1.09-1.12-2.18-1.12-3.27,0M146.24,101.03c.41-.21.79-.6,1.13-1.17-.52.34-.9.73-1.13,1.17M132.88,92.94c.25,1.3-.49,1.2-.66.18.45-2.68,4.68-6.12,12.4-9.29,7.48-2.9,13.42-3.71,15.2-1.77.71.77.88,5.81-17.26,15.43l-4.57,7.68c-.53.75-.82.64-.42-.14l4.03-6.96c-4,1.65-6.47,2.33-7.42,2.02-2.34-.78-2.77-2.45-1.19-5.28-.3,2.73.27,4.21,1.7,4.44.89.14,2.67.02,4.45-.72,3.38-1.28,2.92-1.41,4.06-3.58l2.89-5.62c.13-.33.08-.68-.14-1.05.12.32.92-.73.91-.72.68-.44.08.78.49.86l-4.57,8.31c1.33.12,14.73-7.7,16.14-12.4.91-4.09-8.24-3.46-19.45,2.45-3.44,1.81-6.83,4.89-6.58,6.17"></path>
  </g>
  <metadata></metadata>
</svg>
