<?xml version="1.0" encoding="UTF-8"?>
<svg xmlns="http://www.w3.org/2000/svg" xmlns:i="http://ns.adobe.com/AdobeIllustrator/10.0/" id="Capa_1" version="1.1" viewBox="0 0 274.17 120">
  <defs>
    <style>
      .st0 {
        fill: #0872b8;
      }

      .st1 {
        fill: #144992;
      }

      .st2 {
        fill: #96d1f1;
      }

      .st3 {
        fill: #fafdff;
      }

      .st4 {
        fill: #203b75;
      }

      .st5 {
        fill: #43a7da;
      }
    </style>
  </defs>
  <g>
    <path class="st3" d="M5.04,84.59c0-10.17.03-10.62.58-10.62.36,0,1.09.85,2.19,2.52,1.88,2.91,7.59,8.77,10.11,10.38.91.58,2.34,1.24,3.13,1.46.82.21,2.34.88,3.43,1.49,2.19,1.24,3.92,2.03,5.31,2.4.52.12,1.88.52,3.04.85,1.18.33,2.91.64,3.89.64,1.64,0,1.73.03,1.73.76v.76H5.04v-10.62Z"></path>
    <path class="st3" d="M44.5,94.94c0-.88.42-1.24,1.49-1.24,1.49,0,5.34-1.03,8.38-2.22,6.22-2.43,11.78-6.62,15.57-11.72,1.67-2.25,4.52-7.65,5.22-9.9.21-.67.52-1.4.7-1.61.15-.21.33-.94.36-1.67.15-2.88.76-8.07,1.15-9.77.36-1.61.33-2.12-.12-4.25-1.15-5.37-4.37-11.53-8.68-16.7-2.03-2.43-4.01-3.64-6.68-4.13-.97-.18-2.7-.85-3.89-1.49-3.98-2.16-9.2-3.7-13.72-4.1-2.19-.18-2.52-.3-2.52-.79,0-.58,2.28-.58,113.68-.58h113.68v19.12h-6.37v39.16h6.37v12.14h-112.31c-67.99,0-112.31-.12-112.31-.27ZM142.55,68.95v-14.42h-5.46v28.84h5.46v-14.42ZM127.07,81.13v-1.97l-12.51-.09-12.54-.09-1.27-.73c-2.37-1.37-2.37-1.27-2.37-14.96,0-11.75,0-12.05.64-12.9.36-.46,1.09-1.12,1.67-1.46.97-.58,1.67-.61,13.87-.7l12.84-.09-.09-2.03-.09-2.03h-12.9c-14.02,0-15.66.15-18.36,1.61-1.88,1.03-3.34,2.91-3.76,4.92-.21.97-.33,5.83-.33,12.81,0,9.47.09,11.57.49,13.02.64,2.22,1.97,3.82,4.13,4.92,3.07,1.55,4.46,1.67,18.09,1.7l12.51.03v-1.94h0ZM157.73,72.66c0-14.51-.64-13.66,10.59-13.81,8.14-.12,9.5.06,10.75,1.43,1.34,1.43,1.43,2.28,1.43,12.66v9.83h5.16v-10.56c0-11.5-.12-12.48-1.67-14.51-1.03-1.37-2.67-2.4-4.83-3.01-1.43-.42-3.1-.49-10.87-.39l-9.2.09-2.09,1.06c-4.46,2.25-4.74,3.28-4.74,17.21v10.41h5.46v-10.41h0ZM214.8,81.43v-1.61l-5.71-.15c-6.37-.18-7.59-.49-8.38-2.03-.42-.76-.49-2.37-.49-10.35v-9.41h9.11v-3.34h-9.11v-10.62h-5.46v16.12c0,11.38.09,16.48.36,17.3.18.67.79,1.73,1.37,2.37,2.09,2.46,5.4,3.31,13.23,3.34l5.07.03v-1.64h0ZM253.35,81.43v-1.64l-12.66-.12c-13.9-.09-13.51-.03-14.69-1.97-.73-1.15-1.15-4.74-.61-5.07.36-.24,6.04-1.91,17.03-5.04,9.96-2.85,10.78-3.1,10.99-3.43.24-.39-.03-3.4-.42-4.74-.39-1.27-2.16-3.25-3.4-3.79-2.58-1.15-3.07-1.21-11.87-1.34-7.68-.09-9.11-.06-11.23.42-2.94.67-4.86,1.88-5.92,3.76l-.76,1.37v8.5c0,8.1.03,8.56.64,9.71.82,1.52,2.06,2.79,3.46,3.49.91.46,1.79.7,5.01,1.34.33.06,5.98.12,12.54.15l11.9.03v-1.64h0ZM142.49,46.13l-.09-1.76h-4.86l-.09,1.76-.09,1.73h5.22l-.09-1.73h0Z"></path>
    <path class="st3" d="M225.24,68.99c-.09-.24-.12-2.34-.06-4.67.09-4.01.12-4.31.82-5.04,1.4-1.49,2.79-1.7,11.02-1.7s8.86.12,10.11,1.52c.46.52.61,1.09.61,2.49v1.85l-3.95,1.12c-2.16.61-5.65,1.61-7.74,2.25-9.93,2.88-10.5,3.01-10.81,2.19Z"></path>
    <path class="st3" d="M37.07,91.24c-1-.15-2.4-.42-3.1-.61-1.18-.33-1.31-.42-1.31-1.34,0-.55.27-1.34.61-1.76.79-.97,5.71-8.68,6.74-10.53.42-.76,1.06-1.85,1.43-2.46l.64-1.09-7.65-.18c-4.22-.12-8.99-.3-10.56-.42-2.85-.18-2.88-.18-2.34.42.27.33.52,1,.52,1.52,0,.88-.06.91-1.94,1.24-3.4.64-3.64.58-4.83-1.21-2.7-4.1-3.79-7.53-4.07-12.66-.12-2.25-.27-3.28-.46-2.94-.18.3-.67.49-1.37.49h-1.09l.15-3.1c.12-2.4.39-3.79,1.12-6.01,1.21-3.55,2.09-5.13,4.25-7.38,2.55-2.7,5.52-4.31,10.23-5.52,7.47-1.97,18.85-1,27.44,2.37,3.31,1.27,8.07,4.1,8.41,4.95.09.24.42.42.73.42s1.03.39,1.58.91c.58.49,1.21.91,1.4.91.49,0,.39,2-.12,3.04-.39.76-.67.91-1.61.91-1.06,0-1.21-.09-1.73-1.27l-.58-1.31-.7,2.73c-.39,1.52-.85,3.22-1,3.79-.46,1.73-4.43,13.02-5.43,15.45-.52,1.21-.94,2.25-.94,2.31s.24.06.55,0c1.15-.24,4.37-.79,8.1-1.4,2.19-.36,5.1-.91,6.53-1.24s3.22-.67,4.04-.76l1.43-.18v1.09c0,3.28-3.92,9.83-8.01,13.39-3.4,2.94-5.8,4.31-10.35,5.95-4.4,1.58-11.6,2.22-16.7,1.49Z"></path>
    <path class="st3" d="M5.04,46.67v-21.89h17.76c16.97,0,17.76.03,17.76.55,0,.49-.42.61-2.94.91-5.8.67-12.6,3.46-17.36,7.07-6.19,4.7-10.2,10.56-12.57,18.46-.94,3.19-.94,3.28-.97,9.9v6.68l-.82.09-.85.09v-21.86Z"></path>
  </g>
  <g>
    <path class="st4" d="M50.33,93.24c.09-.7.42-.94,2.82-1.91,1.52-.61,3.4-1.49,4.16-1.94.79-.49,1.64-.85,1.88-.85.27,0,.49-.15.49-.3,0-.42,1.55-1.79,2.03-1.82.46,0,1.61-.94,1.61-1.31,0-.58.94-1.12,1.94-1.12.94,0,1.09-.09,1.09-.73,0-.42.3-1,.7-1.31s.79-.79.91-1.06c.12-.33.55-.55,1.03-.58.52-.03.64-.09.33-.18-.39-.09-.55-.46-.55-1.18,0-.88.09-1.03.73-1.03s.97-.39,1.91-2.12c1.12-2.03,1.18-2.12,2.28-2.12s1.12.03.85.73c-1.58,4.22-6.37,10.11-10.93,13.45-3.1,2.25-8.14,4.77-11.53,5.71-.42.09-1,.27-1.31.36-.46.12-.55,0-.46-.67Z"></path>
    <path class="st4" d="M19.46,89.08c-.49-.18-1.58-.79-2.43-1.31-1.67-1.09-6.22-5.19-6.22-5.65,0-.15.55-.27,1.21-.27,1,0,1.21.09,1.21.61,0,.39.21.61.55.61.7,0,1.27.58,1.27,1.27,0,.3.21.55.46.55s1.27.55,2.31,1.21c1,.64,2.16,1.27,2.49,1.4.79.24,1.12.67,1.12,1.43,0,.58-.61.64-1.97.15Z"></path>
    <path class="st4" d="M33.06,88.93c-.46-.18-.55-2.22-.09-2.22.18,0,.3-.21.3-.46s.27-.73.61-1.06.61-.73.61-.91c0-.15.12-.3.27-.3s.36-.33.46-.76c.15-.64.39-.76,1.34-.79.61,0,.94-.09.76-.18-1.06-.39.24-4.04,1.43-4.04.3,0,.67-.27.76-.61.21-.64,1.67-.88,1.67-.3s-7.22,11.87-7.56,11.81c-.09,0-.36-.09-.55-.18Z"></path>
    <path class="st4" d="M136.18,68.89v-15.42h7.29v30.81h-7.29v-15.39Z"></path>
    <path class="st4" d="M99.17,83.52c-2.61-.58-5.04-1.85-6.25-3.28-1.85-2.16-1.97-3.22-1.97-16.85,0-7.65.12-12.75.33-13.72.42-2,1.88-3.89,3.76-4.92,2.73-1.49,4.28-1.61,19.28-1.61h13.81l.09,2.94.09,2.94-12.84.09c-12.2.09-12.9.12-13.87.7-.58.33-1.31,1-1.67,1.46-.61.85-.64,1.15-.64,11.99,0,12.66,0,12.69,2.37,14.05l1.27.73,12.6.09,12.6.09-.06,2.79-.03,2.79-13.48.06c-10.56.03-13.87-.03-15.39-.36h0Z"></path>
    <path class="st4" d="M151.35,72.66c0-12.48.18-13.96,1.79-16,.46-.61,1.76-1.52,2.94-2.12l2.09-1.06,10.11-.09c8.62-.09,10.35-.03,11.81.39,2.12.61,3.76,1.64,4.8,3.01,1.58,2.06,1.67,2.94,1.67,15.39v11.47l-3.49.09-3.49.09v-9.9c0-10.47-.09-11.32-1.43-12.75-1.24-1.34-2.67-1.55-9.83-1.43-5.83.09-6.59.15-7.53.7-2.12,1.24-2.16,1.49-2.16,13.11v10.41h-7.29v-11.32h0Z"></path>
    <path class="st4" d="M201.53,83.52c-3.95-.7-6.53-2.55-7.32-5.28-.27-.82-.36-6.16-.36-18.21v-17.03h7.29v10.62h4.49c2.49,0,4.58.06,4.64.12.06.06.09,1.24.03,2.58l-.12,2.46h-9.05v8.5c0,7.16.09,8.68.49,9.44.79,1.55,2,1.85,8.38,2.03l5.71.15v5.07l-5.98-.03c-3.52,0-6.92-.18-8.2-.42h0Z"></path>
    <path class="st4" d="M228,83.8c-3.22-.64-4.1-.88-5.01-1.34-1.4-.7-2.64-1.97-3.46-3.49-.61-1.15-.64-1.58-.64-10.62v-9.41l.76-1.37c1.06-1.88,2.97-3.1,5.92-3.76,2.12-.49,3.61-.52,12.14-.42,9.74.12,10.17.18,12.75,1.31,1.21.55,2.76,2.19,3.28,3.49.52,1.21.97,6.34.61,6.86-.24.36-1.03.61-11.02,3.46-10.75,3.07-16.66,4.8-17,5.01-.42.27-.06,2.19.64,3.34,1.12,1.85.76,1.82,14.63,1.91l12.66.12v5.1l-12.81-.03c-7.07-.03-13.11-.09-13.45-.15ZM234.53,66.04c1.91-.55,5.46-1.55,7.89-2.28l4.4-1.27-.06-.97c0-.52-.27-1.24-.61-1.58-1.15-1.31-2.12-1.46-9.14-1.46s-8.74.24-10.11,1.7c-.67.7-.73,1.09-.82,4.1-.06,1.85-.03,3.52.03,3.76.15.33.61.27,2.55-.3,1.31-.36,3.95-1.12,5.86-1.7Z"></path>
    <path class="st4" d="M261.85,63.49v-20.49h7.29v40.98h-7.29v-20.49Z"></path>
    <path class="st4" d="M40.95,76.24c-1.09-1.21.27-3.49,2.06-3.49.52,0,.88.09.82.24-.27.67-2.22,3.7-2.37,3.7-.09-.03-.33-.21-.52-.46Z"></path>
    <path class="st4" d="M53.06,72.69c.09-.97.12-1,1.91-1.21,3.16-.36,5.43-.76,6.53-1.12.58-.18,1.64-.33,2.34-.33s1.37-.12,1.46-.3c.09-.15.85-.3,1.67-.3,1.21,0,1.52.09,1.67.64.12.33.15.7.06.76-.24.27-3.49.94-7.65,1.61-2.16.36-4.61.79-5.4.94-2.46.52-2.7.46-2.58-.67Z"></path>
    <path class="st4" d="M75.16,70.05c0-.49.21-1.4.49-2.03.33-.79.39-1.18.15-1.27-.55-.18-.42-2.49.12-2.49.24,0,.46-.12.46-.3,0-.15.27-.3.64-.3.58,0,.61.12.42,1.31-.12.7-.24,1.4-.27,1.55,0,.15.49.64,1.15,1.06l1.15.79-1,.27c-.58.12-1.21.3-1.43.36s-.55.52-.7,1.03c-.42,1.18-1.18,1.21-1.18.03Z"></path>
    <path class="st4" d="M75.77,60.3c0-1.31.09-1.52.61-1.52.33,0,.61-.21.61-.46,0-.27.27-.46.64-.46.58,0,.64.12.46,1-.12.52-.3,1.43-.39,1.97-.15.82-.3.97-1.03.97-.85,0-.88-.06-.88-1.52Z"></path>
    <path class="st4" d="M5.74,57.66c.12-2.7.39-4.37,1.09-6.8,1-3.55,2.85-7.86,3.34-7.86.7,0,.36,3.86-.52,6.13-1.58,4.1-2.79,8.71-2.79,10.72,0,1.18-.09,1.37-.64,1.37-.64,0-.67-.06-.49-3.55Z"></path>
    <path class="st4" d="M76.68,56.36c0-.88.12-1.21.46-1.21.24,0,.46-.12.46-.3,0-.15-.18-.3-.42-.3-.3,0-.55-.67-.79-2.19-.21-1.21-.64-2.82-.94-3.55-.3-.73-.58-1.97-.58-2.79,0-1.27-.09-1.49-.61-1.49-.49,0-.61-.21-.61-1.09s.09-1.06.52-.97c.3.06.79.58,1.06,1.15,2.37,4.83,3.76,9.99,3.43,12.51-.18,1.37-.27,1.46-1.09,1.46s-.88-.09-.88-1.21Z"></path>
    <path class="st4" d="M136.54,46.13l.09-2.67h6.68l.09,2.67.09,2.64h-7.04l.09-2.64h0Z"></path>
    <path class="st4" d="M60.59,31.35c0-1.03.03-1.03.94-.79.55.15,1.09.21,1.21.12.15-.09.27.27.27.76,0,.88-.06.94-1.21.94s-1.21-.03-1.21-1.03Z"></path>
    <path class="st4" d="M55.98,29.74c-.3-.06-.55-.33-.55-.58,0-.27-.33-.42-1.03-.42-1.58,0-2-.27-2-1.24v-.88l2.22.79c2.43.88,4.46,1.91,4.46,2.31,0,.24-2.19.27-3.1.03Z"></path>
  </g>
  <g>
    <path class="st1" d="M49.36,93.6c0-.42.21-.85.49-.94.67-.24,2.25-.21,2.25.06-.03.3-1.24,1.15-2.03,1.4-.61.18-.7.12-.7-.52Z"></path>
    <path class="st1" d="M30.3,93.54c-.97-.42-1.09-.58-1.4-1.97-.15-.73-.21-.76-2.58-.67-2.16.09-2.52.03-3.64-.67-.67-.42-1.46-.79-1.7-.79-.27,0-.55-.21-.67-.49-.09-.24-.33-.39-.58-.3-.21.09-.46,0-.55-.21-.09-.27-.15-.27-.15.03-.03.18-.15.36-.33.36-.15,0-.18-.21-.09-.52.12-.33.09-.42-.15-.27-.21.12-.36.06-.36-.18,0-.27-.09-.27-.3.06-.24.39-.3.39-.3-.06,0-.27-.15-.61-.36-.73-.24-.15-.27-.06-.15.3.12.3.09.46-.09.33-.18-.09-.3-.36-.3-.61s-.15-.52-.36-.64c-.24-.15-.27-.06-.15.27.09.3.12.52.03.52-.06,0-.27-.33-.42-.76s-.39-.73-.52-.7c-.52.09-1.24-.42-1.12-.82.18-.42-.36-.88-1.09-.91-.24,0-.49-.3-.55-.7-.06-.42-.27-.67-.52-.58-.33.15-1.79-1.15-2.85-2.58-.36-.49-.3-.55.7-.55s1.09.09,1.09.76.15.76.88.76c.49,0,.94.12,1,.27.12.33,10.23-.21,10.93-.58.3-.18.88-.3,1.31-.3s.76-.12.76-.3c0-.15.49-.3,1.06-.3s1.06-.12,1.06-.3c0-.15.3-.3.7-.3,1.06,0,4.34-1.18,5.55-2.03.61-.39,1.64-.94,2.28-1.21.67-.24,1.18-.64,1.18-.88s.27-.42.64-.42,1.24-.39,2-.91c1.27-.88,3.13-1.24,3.13-.61,0,.15-.27.42-.61.61s-.55.46-.46.64c.12.15-.06.27-.36.27-.46,0-.49.06-.09.3.39.24.36.42-.15,1.43-.33.64-.79,1.34-.97,1.55-.21.21-.39.55-.39.7s-.24.27-.55.27c-.82,0-1.03.33-.46.76.42.3.39.36-.24.33-.42-.03-.7.12-.64.36.03.18-.12.36-.3.36-.27,0-.24.09.06.3.39.24.39.39-.09,1.31-.46.82-.73,1.03-1.21.91-.55-.12-.58-.09-.21.18.39.27.36.33-.15.36-.33,0-.42.09-.21.18.67.27.42.94-.3.82-.39-.06-.52-.06-.3.06.52.24.46,1.06-.09.85-.73-.3-1.15.18-.55.64.52.39.49.42-.21.27-.42-.06-.58-.06-.36.06.67.3.42,1-.3.82-.52-.09-.58-.06-.27.15s.3.42.06.91c-.27.49-.21.64.3.76.58.15.52.33-.85,2.31-.79,1.18-1.58,2.16-1.76,2.16-.15-.03-.76-.21-1.31-.46h0Z"></path>
    <path class="st1" d="M58.77,88.99c0-.79.52-1.06,1.91-1.06.88.03.91.06.42.42-.49.39-.49.42-.03.61.76.3.3.58-1.09.64-1.09.06-1.21,0-1.21-.61Z"></path>
    <path class="st1" d="M61.81,86.89c0-.3.91-1.46,2-2.58,3.58-3.58,7.13-8.95,8.17-12.42.18-.64.12-.7-.46-.52s-.64.12-.46-.46c.18-.61.12-.64-.52-.42-1.88.61-2.7.67-2.88.24-.15-.39-1.09-.42-1.49-.03-.12.12-.64.21-1.15.24-.52,0-.76.09-.55.18.52.21.46.7-.09.7-.24,0-.46-.21-.46-.46,0-.52-.76-.61-1.06-.15-.12.18-.3.24-.46.15-.12-.09-.49-.06-.79.06-.49.18-.49.21.06.61.49.36.49.39-.27.39-.46,0-.82-.12-.82-.27,0-.3-2.64-.24-2.94.09-.12.09-.03.18.15.18.21,0,.36.15.36.3,0,.18-.27.3-.61.3s-.61-.12-.61-.27c0-.33-2.7-.33-2.91,0-.06.12.09.36.36.52.36.21.06.33-1.18.46-.91.12-1.88.3-2.16.39-.36.15-.49,0-.49-.55s.61-1.18,2.58-2.64c1.43-1.09,2.58-2.16,2.58-2.37s.18-.39.39-.39.55-.27.76-.61.67-.61,1-.61c.36,0,.7-.24.79-.61.09-.33.39-.61.67-.61.85,0,6.71-6.4,6.71-7.32,0-.24.27-.61.61-.82s.61-.64.61-.97.21-.61.46-.61c.27,0,.55-.36.67-.91.09-.49.27-.91.42-.91s.27-.27.27-.61.18-.61.42-.61c.46,0,1.4-2.06,1.4-3.04,0-.33.12-.61.24-.61.46,0,1.27-2.12,1.27-3.34,0-.67.15-1.21.3-1.21.18,0,.3-.36.3-.85s.27-1.06.64-1.4c.64-.55.67-.55,1,0,.91,1.55,1.64,3.73,1.31,3.89-.27.15-.27.24.03.36.18.09.27.33.15.52s0,.24.3.12c.36-.12.58.15.94,1.21.58,1.73.61,1.61-.03,1.64-.42,0-.39.09.15.33.76.36.91,1.15.21,1.15s-.55.52.15.7c.76.18.79.82.09.85-.46,0-.46.06.06.24.85.33.91,2.46.09,2.46-.3,0-.55.15-.55.3,0,.18.21.3.49.3.36,0,.46.18.3.79-.12.46-.27,1.18-.36,1.64-.15.64-.33.79-.76.7-.42-.12-.58,0-.58.49,0,.36.18.64.46.64.33,0,.46.39.46,1.64,0,1.94-.21,2.61-.79,2.61-.24,0-.42.15-.42.3,0,.18.15.3.3.3.18,0,.3.27.3.61s.12.61.3.61c.15,0,.21.21.12.46-.12.24.03.52.3.64.61.24.64.73.03.73-.24,0-.46-.12-.46-.3,0-.15-.15-.3-.33-.3s-.27.18-.18.42c.09.24.06.49-.12.55-.15.06-.36.52-.46,1-.09.52-.52,1.7-.94,2.67-.58,1.27-.94,1.73-1.4,1.73-.61,0-.64,0-.03.46.55.39.55.42-.18.27-.61-.15-.67-.09-.3.15.39.27.36.33-.15.33s-.52.06-.15.3c.39.24.39.3-.06.3-.79,0-1.21.97-.61,1.43.46.3.42.33-.24.21-.61-.15-.67-.09-.3.15.39.27.39.33-.03.33-.7,0-1.34.79-.82,1,.67.21-.49,1.91-1.24,1.79-.3-.06-.67.06-.79.24-.09.15-.03.3.12.3.18,0,.33.21.33.46,0,.27-.18.36-.46.24-.64-.21-1.82.82-1.31,1.15.73.46-.58,1.43-1.73,1.34-.67-.06-1.03.03-.97.24.03.21-.15.33-.39.27-.33-.06-.33.03.09.33.64.52.67.85.09.64-.24-.09-.7-.03-1,.15s-.36.33-.15.33c.18,0,.36.09.36.24,0,.12-.49.21-1.06.21-.85,0-1.06-.12-1.06-.58h0Z"></path>
    <path class="st1" d="M5.71,59.79c0-2.16.12-3.61.24-3.31.18.55.21.55.39-.12.12-.52.3-.64.52-.42.18.18.24,1.61.09,4.01-.15,3.31-.24,3.7-.73,3.7-.52,0-.55-.33-.52-3.86Z"></path>
    <path class="st1" d="M9.29,46.77c.27-.64.21-.88-.21-1.21-.3-.21-.39-.42-.21-.42.21,0,.46-.36.58-.82.33-1.34,3.43-5.83,5.59-8.1,5.74-5.95,13.63-9.87,22.34-10.99,3.34-.42,4.07-.42,7.62,0,3.43.39,4.77.67,7.92,1.58.39.09.61.3.52.46-.15.24,1.03.67,1.58.55.15-.03.67.03,1.12.18.58.15.76.3.52.46s0,.33.64.46c.58.12,1.67.55,2.46.94.76.39,1.97.79,2.7.88,1.61.21,2.73.91,4.8,3.01l1.64,1.67-.18,2.16c-.21,2.55-.52,3.04-1.91,3.04-.82,0-1.27-.27-2.28-1.37-1.37-1.46-5.71-4.86-7.32-5.68-2.76-1.43-5.55-2.67-6.01-2.67-.27,0-.61-.12-.76-.27-.42-.39-5.71-1.49-8.26-1.73-4.13-.39-11.02,1.03-15.81,3.25-5.34,2.46-10.75,7.1-13.99,12.08-1,1.55-1.85,2.94-1.85,3.1s-.33.27-.76.27c-.67,0-.73-.06-.46-.79Z"></path>
  </g>
  <g>
    <path class="st0" d="M46.39,94c.06-.61.36-.76,1.91-1.09,2.12-.46,3.49-.52,3.49-.18,0,.12-.27.46-.61.76-.33.27-.61.42-.61.33,0-.12-.18-.06-.39.12-.21.18-1.18.42-2.16.55-1.7.21-1.76.18-1.64-.49Z"></path>
    <path class="st0" d="M9.9,81.34c-1.46-1.67-4.86-6.59-4.86-7.07,0-.42,1-.39,3.64.18,1.67.36,3.04.42,5.1.27,2.4-.15,2.91-.12,3.19.3.33.42.58.42,2.25.09l1.88-.39-1.52-1.64c-.82-.91-1.46-1.7-1.4-1.76s1.06.03,2.22.18c3.67.52,15.94,1.03,19.94.82,2.49-.12,3.86-.09,3.86.12,0,.39-1.12,1.52-1.49,1.52-.18,0-.91.42-1.64.91-.76.52-1.67.91-2.03.91s-.55.12-.46.3c.12.18-.46.61-1.27.97-.79.36-1.79.88-2.22,1.21-1,.73-5.49,2.4-5.86,2.16-.15-.09-.39,0-.52.21-.12.21-.61.39-1.09.39-.46,0-1.03.18-1.27.42-.24.24-.64.36-.91.24-.24-.09-.64,0-.88.18-.21.21-1.27.33-2.37.33-1.09-.03-1.97.06-1.97.18s-1.91.24-4.25.24c-2.97.03-4.25-.06-4.25-.3,0-.21-.12-.18-.27.06-.18.3-.58.03-1.55-1.06Z"></path>
    <path class="st0" d="M49.82,73.96c.09-.3.73-1.91,1.4-3.55,1.31-3.16,5.28-14.39,5.74-16.18.12-.58.7-2.64,1.21-4.55.73-2.7.88-3.61.61-4.04-.3-.49-.24-.55.64-.46.76.06,1.12.33,1.55,1.09l.55.97-.76-.49c-1.03-.67-1.15-.46-.46.82.33.58.76,1.4.94,1.88.42,1.06.76,1.03,1.34-.09.58-1.09.58-1.21,0-1.21-.24,0-.46-.06-.46-.12s.73-1.52,1.64-3.28c.91-1.73,1.82-3.7,2.03-4.43.24-.82.46-1.15.61-.91.39.64,1.09-.27,1.34-1.76.18-1.21.09-1.52-.49-2.12-.36-.39-.52-.73-.33-.73.21,0,.36-.46.36-1.12v-1.09l.64.58c1.15,1,4.8,5.89,5.92,7.92.91,1.61,1.03,2,.7,2.4-.21.24-.39.82-.42,1.21,0,.42-.15.85-.3.97-.18.12-.3.67-.33,1.21-.03,1.12-.97,3.4-1.4,3.4-.15,0-.21.12-.12.27.27.42-1.06,3.37-1.52,3.37-.24,0-.33.18-.24.46.12.24-.03.52-.3.64-.27.09-.42.3-.33.46.24.33-.52,1.49-.97,1.49-.21,0-.3.18-.21.42.09.21-.18.7-.61,1-.42.33-.7.7-.58.79.39.42-6.1,7.5-6.92,7.5-.27,0-.58.27-.67.61s-.42.61-.76.61c-.64,0-1.4.7-1.06,1,.09.12-.09.21-.46.21s-.67.18-.67.39c0,.49-5.98,5.07-6.59,5.07-.3,0-.36-.18-.24-.61Z"></path>
    <path class="st0" d="M5.86,64.92c-.21-2.4,0-3.4.73-3.4.52,0,.58.24.58,2.58s-.06,2.58-.58,2.58c-.46,0-.58-.3-.73-1.76Z"></path>
    <path class="st0" d="M6.11,57.97c.3-2.31.49-2.82.94-2.82s.52.7.24,2.85c-.15,1.12-.33,1.4-.79,1.4-.55,0-.61-.15-.39-1.43Z"></path>
  </g>
  <g>
    <path class="st5" d="M37.67,94.91c-.09-.15-.97-.3-1.91-.3-1.67-.03-4.37-.58-4.8-.97-.09-.12.42-1.09,1.12-2.22,1.18-1.76,1.43-1.97,2.09-1.82.42.09,2.25.39,4.04.67,7.19,1.09,15.78-.82,21.76-4.86,4.8-3.22,8.71-8.1,10.59-13.11.76-2,1-2.28,2.25-2.28.97,0,.97.12.33,2.03-2.34,6.95-7.62,13.54-14.24,17.76-2.4,1.55-6.83,3.4-9.29,3.92-.91.18-1.91.46-2.25.58-2,.76-3.13.91-6.16.91-1.91,0-3.43-.12-3.55-.3Z"></path>
    <path class="st5" d="M29.48,93.33c-2.52-.88-4.1-1.55-5.68-2.46l-1.7-.97,3.76-.06c3.64-.03,3.76-.03,3.92.61.33,1.52.7,3.25.64,3.22,0-.03-.42-.18-.94-.33Z"></path>
    <path class="st5" d="M9.14,75.63c-.15-.06-.82-.18-1.43-.3-.73-.12-1.15-.33-1.15-.61,0-.24.15-.46.3-.46.18,0,.3-.21.3-.46s-.12-.46-.27-.46c-.24,0-.85-1.85-1.46-4.43-.24-1.03-.21-1.31.18-1.55.39-.27.49-.94.42-4.07-.18-10.17,3.07-18.7,9.59-25.16,8.62-8.53,20.49-11.99,32.36-9.41,1.67.36,3.16.79,3.34.94.15.15.49.27.76.27.46,0,3.25,1.24,6.01,2.67,1.64.85,5.89,4.16,7.47,5.83,1.21,1.27,1.43,1.67,1.27,2.31-.42,1.58-1.24,3.16-1.7,3.16-.42,0-1.52-1-1.52-1.37,0-.39-3.73-4.04-5.31-5.16-2.06-1.49-6.19-3.49-8.62-4.22-.88-.27-1.79-.61-1.97-.76-1.06-.85-8.62-.97-12.48-.18-1.49.3-2.79.67-2.88.76-.09.12-.91.55-1.85.97-2.06.94-6.13,3.64-6.71,4.46-.24.33-1.18.85-2.16,1.18-3.67,1.31-7.53,4.43-9.41,7.65-1.27,2.19-2.61,6.68-2.82,9.32-.15,2.06-.12,2.31.27,1.85.36-.49.46-.15.64,2.73.18,3.1.7,5.86,1.18,6.31.12.12.21.42.21.67,0,.55,2.49,5.62,2.82,5.77.12.06.21.52.21,1v.88l-2.64-.03c-1.49,0-2.79-.06-2.97-.12h0Z"></path>
  </g>
  <g>
    <path class="st2" d="M13.85,75.36c0-.24-.09-.49-.21-.55-.33-.12-2.82-5.22-2.82-5.74,0-.24-.12-.58-.3-.76-.15-.15-.33-.64-.42-1.03-.06-.42-.15-.76-.18-.76-.09,0-.3-1.24-.42-2.43-.33-3.16-.42-5.62-.21-5.49.12.09.88-.88,1.7-2.12,1.49-2.28,2.25-2.94,1.61-1.4-.21.49-.36,2.58-.36,5.07-.03,3.52.09,4.64.67,6.62.73,2.55,1.88,5.01,3.34,7.19.52.73.91,1.37.88,1.4s-.79.12-1.64.24c-1.31.15-1.61.12-1.61-.24Z"></path>
    <path class="st2" d="M7.75,75.36c-.09-.09-.7-.21-1.34-.27l-1.21-.12-.09-3.58c-.06-3.13,0-3.61.46-3.95.46-.36.58-.33.76.09.12.27.21.88.21,1.37.03.46.18.82.36.82s.27.27.18.61-.03.61.15.61c.15,0,.21.12.09.27-.09.15-.03.36.15.49.18.12.24.33.15.49-.12.15-.06.27.06.27.15,0,.46.52.67,1.15.24.61.49,1.31.55,1.52.15.33-.85.55-1.15.24Z"></path>
    <path class="st2" d="M62.72,48.22c-.24-.06-.79-.46-1.21-.82s-1.12-.88-1.55-1.09c-.42-.24-1.43-.88-2.19-1.46-5.31-3.95-13.93-6.68-22.4-7.16-4.89-.27-8.99.27-13.23,1.76-.73.24-1.31.36-1.31.24,0-.09.73-.88,1.61-1.73,1.82-1.82,5.68-4.4,7.65-5.16.76-.27,1.37-.64,1.37-.76,0-.15.42-.27.91-.27.52,0,.91-.12.91-.24,0-.15.67-.27,1.52-.3.82,0,1.79-.18,2.19-.39.79-.42,7.56-.42,8.41,0,.27.12,1,.27,1.61.27.64.03,1.49.27,1.88.55.42.24.91.39,1.06.3.15-.12.36-.06.46.09s.55.36,1,.49c1.52.36,5.98,2.61,7.83,3.95s5.31,4.77,5.31,5.31c0,.18.12.3.24.3.15,0,.42.33.64.73.33.61.27.91-.39,2.28-1.34,2.64-1.82,3.28-2.31,3.13Z"></path>
    <path class="st2" d="M66.21,34.47c-1-.94-2.58-2.22-3.49-2.82l-1.67-1.12,1.34.18c1.55.18,4.64,1.49,5.34,2.28.33.36.46.97.39,1.85l-.09,1.34-1.82-1.7Z"></path>
  </g>
  <metadata></metadata>
</svg>
