<?xml version="1.0" encoding="UTF-8"?>
<svg xmlns="http://www.w3.org/2000/svg" xmlns:i="http://ns.adobe.com/AdobeIllustrator/10.0/" id="Capa_1" version="1.1" viewBox="0 0 230.09 120">
  <defs>
    <style>
      .st0 {
        fill: #5a5b5e;
        font-family: Colaborate-Medium, Colaborate-Medium;
        font-size: 11.14px;
        font-weight: 500;
      }

      .st1 {
        letter-spacing: .1em;
      }

      .st2 {
        letter-spacing: .1em;
      }

      .st3 {
        letter-spacing: .09em;
      }

      .st4 {
        letter-spacing: .03em;
      }

      .st5 {
        letter-spacing: .1em;
      }

      .st6 {
        fill: #f18a00;
      }

      .st7 {
        letter-spacing: .1em;
      }

      .st8 {
        fill: #53575a;
      }

      .st9 {
        letter-spacing: .1em;
      }

      .st10 {
        letter-spacing: 0em;
      }
    </style>
  </defs>
  <path class="st8" d="M136.8,64.41h5.99l-1.2,11.97h-4.79c-17.3,0-25.95-8.65-25.95-25.95s8.65-25.94,25.95-25.94h4.79l1.2,11.97h-5.99c-9.32,0-13.97,4.66-13.97,13.97s4.65,13.97,13.97,13.97"></path>
  <path class="st8" d="M182.7,42.46v33.93h-11.97v-33.93c0-3.99-1.99-5.99-5.99-5.99s-5.99,1.99-5.99,5.99v33.93h-11.98v-33.93c0-11.97,5.99-17.96,17.96-17.96,6.65,0,10.65,1.99,11.98,5.99,1.33-3.99,5.32-5.99,11.97-5.99,11.97,0,17.96,5.99,17.96,17.96v33.93h-11.97v-33.93c0-3.99-2-5.99-5.99-5.99s-5.99,1.99-5.99,5.99"></path>
  <rect class="st8" x="210.64" y="24.5" width="11.98" height="51.89"></rect>
  <path class="st8" d="M38.72,66.73c-1.04,0-2.34.07-2.4.07-.77.05-1.44.07-2.03.07-1.68,0-2.67-.19-3.53-.69-.05-.03-.11-.06-.15-.08-.92-.63-1.09-1.57-1.06-2.24.13-2.17,1.13-3.8,2.64-6.02,4.91-7.26,8.66-13.93,13.8-20.78-.81-1.16-2.21-3.03-3.46-3.97-6.05,8.1-10.71,16.04-16.4,24.63-2.92,4.55-2.69,7.34-1.98,8.88.7,1.52,1.64,3.33,6.52,3.33,1.56,0,3.34-.18,5.3-.55,3.54-.76,4.74-1.07,4.66-1.82-.08-.83-.85-.83-1.91-.83"></path>
  <path class="st8" d="M88.86,66.51c.72-1.56.98-4.35-1.87-8.78-5.84-8.83-11.03-17.52-17.29-25.88l-2.33-2.73c-.57-.63-1.15-1.23-1.75-1.8v-.02s-.07-.05-.15-.13c-.05-.04-.09-.1-.14-.14,0,0,0,0-.01,0-.21-.18-.5-.44-.82-.7l-1.11-.83c-1.89-1.28-4.09-2.11-6.88-2.11-2.61,0-5,.86-7.24,2.58.77.69,2.1,2.03,3.12,3.78,1.13-.78,2.52-1.42,4.07-1.42s3,.63,4.16,1.41c.05.03.1.07.16.11.11.07.22.16.32.23.26.19.56.43.88.71t0,.01c1.04.93,2.44,2.8,2.46,2.83,6.18,8.04,10.6,15.52,16.49,24.22,1.51,2.23,2.51,3.85,2.64,5.99.02.68-.14,1.61-1.07,2.27-.04.02-.08.04-.13.07-.86.5-1.86.7-3.55.7-.6,0-1.27-.02-2.03-.07-.06,0-1.35-.07-2.4-.07s-1.83,0-1.91.83c-.07.76.2,1.06,3.75,1.82,1.87.38,3.59.57,5.13.57,3.86,0,6.45-1.19,7.49-3.45"></path>
  <path class="st6" d="M55.35,36.99h0c-.46-.65-.9-1.29-1.34-1.93-1.2-1.74-2.33-3.38-3.56-5-3.44-4.43-7.27-6.67-11.39-6.67-.48,0-.98.03-1.46.09-4.04.52-7.98,4.31-11.73,11.07l-6.04,10.39-.59,1.04c-.75,1.32-1.51,2.65-2.25,3.98-.03.06-.06.12-.07.18-1.85,3.3-3.63,6.54-5.04,9.13-1.76,3.24-2.22,4.16-2.39,4.6-1.47,2.84-2.25,5.45-2.25,7.54,0,1.1.21,2.06.62,2.86.87,1.71,2.53,2.57,4.95,2.57,2,0,4.51-.56,7.7-1.71.44-.16.95-.35,1.51-.57,4.49-1.75,4.4-2.12,4.24-2.85-.06-.29-.26-.64-.84-.64-.66,0-2.43.35-2.6.38-1.97.3-3.58.44-4.9.44-1.72,0-2.96-.25-3.66-.76l-.08-.06c-.48-.35-.71-.82-.75-1.53-.07-1.29.56-3.28,1.73-5.45,2.35-4.34,4.88-8.88,7.53-13.48,1.02-1.77,2.05-3.53,3.08-5.28l.56-.96c.27-.47.55-.94.83-1.41,1.62-2.72,3.12-5.21,4.59-7.58,2.05-3.33,3.82-5.37,6.8-5.64.16-.01,0-.02.16-.02,1.14,0,2.27.34,3.27.86,1.16.6,2.16,1.45,2.83,2.29l.85,1.05c.64.82,1.56,2.1,2.71,3.73.87,1.22,1.88,2.64,3.01,4.19h0s0,.01.01.02c.26.36.54.74.82,1.11.45.59,3.29,4.3,5.28,7.29h0c.66.96,1.28,1.9,1.82,2.75,1.01,1.41,1.9,3.12,1.96,4.84v.26h0c-.05,2.72-2.27,4.91-5,4.91s-4.95-2.19-5-4.9h0s0-.07,0-.1,0-.06,0-.08v-.08c.06-1.79,1.01-3.57,2.07-5,.68-1.05,1.12-1.73,1.95-2.88-.98-1.35-2.32-3.2-3.38-4.66-2.89,4.43-6.29,9-6.29,12.5,0,6.05,5.14,10.98,10.66,10.98s10.66-4.93,10.66-10.98c0-3.15-3.25-8.1-5.91-12.34-.27-.41-4.37-6.62-5.67-8.48"></path>
  <path class="st6" d="M60.88,32.34c-.48.61-.55.62-1.04,1.24-.99,1.25-1.68,2.11-2.67,3.42.96,1.4,2.57,3.75,3.7,5.5,1.88-2.52,2.76-3.61,4.03-5.27-.77-1.15-2.21-3.2-4.01-4.89"></path>
  <path class="st6" d="M103.54,63.89c-.17-.45-.63-1.37-2.39-4.61-1.4-2.58-3.18-5.81-5.04-9.13-.02-.07-.04-.13-.08-.19-.73-1.32-1.48-2.63-2.22-3.94l-.63-1.09-6.17-10.62c-3.76-6.78-7.55-10.32-11.59-10.83-.49-.06-.98-.09-1.46-.09-2.53,0-4.96.86-7.25,2.55.99.87,2.98,2.76,4.17,4.78,1.05-.58,2.23-.98,3.45-.98.16,0,.32,0,.47.02,2.99.27,4.44,2.31,6.49,5.64,1.47,2.38,2.97,4.86,4.6,7.58.28.47.56.96.85,1.44l.54.93c1.04,1.75,2.06,3.51,3.08,5.28,2.65,4.6,5.18,9.14,7.53,13.48,1.17,2.17,1.8,4.16,1.73,5.45-.04.71-.27,1.18-.76,1.53l-.08.06c-.7.51-1.93.76-3.66.76-1.33,0-2.93-.15-4.88-.44-.2-.04-1.96-.39-2.63-.39-.58,0-.78.35-.84.64-.16.73-.24,1.09,4.24,2.85.56.22,1.07.41,1.51.57,3.18,1.16,5.7,1.71,7.69,1.71,2.42,0,4.08-.86,4.95-2.57.41-.8.62-1.76.62-2.86,0-2.1-.78-4.7-2.25-7.54"></path>
  <text class="st0" transform="translate(6.24 93.88)">
    <tspan class="st5" x="0" y="0">C</tspan>
    <tspan class="st2" x="7.51" y="0">ORPO</tspan>
    <tspan class="st7" x="41.97" y="0">R</tspan>
    <tspan class="st3" x="50.23" y="0">A</tspan>
    <tspan class="st1" x="58.8" y="0">C</tspan>
    <tspan class="st7" x="66.32" y="0">I</tspan>
    <tspan class="st1" x="70.66" y="0">ÓN MU</tspan>
    <tspan class="st4" x="113.78" y="0">L</tspan>
    <tspan class="st2" x="119.69" y="0">T</tspan>
    <tspan class="st7" x="126.67" y="0">I</tspan>
    <tspan class="st1" x="131" y="0" xml:space="preserve"> INV</tspan>
    <tspan class="st7" x="157.07" y="0">E</tspan>
    <tspan class="st9" x="164.65" y="0">RS</tspan>
    <tspan class="st7" x="180.65" y="0">I</tspan>
    <tspan class="st1" x="184.99" y="0">ONE</tspan>
    <tspan class="st10" x="210.99" y="0">S</tspan>
  </text>
  <metadata></metadata>
</svg>
