<?xml version="1.0" encoding="UTF-8"?>
<svg xmlns="http://www.w3.org/2000/svg" xmlns:i="http://ns.adobe.com/AdobeIllustrator/10.0/" id="Capa_1" version="1.1" viewBox="0 0 118.96 120">
  <defs>
    <style>
      .st0 {
        fill: #ff6719;
      }
    </style>
  </defs>
  <path class="st0" d="M59.83,10.59c-6.03,0-10.91,4.9-10.9,10.93,0,6.03,4.9,10.91,10.93,10.91,6.03,0,10.91-4.89,10.91-10.92v-.02c-.01-6.03-4.91-10.91-10.93-10.9h0ZM23.81,35.81c-1.92.01-3.87.12-5.7.58-1.21.31-2.37.81-3.13,1.59-.95.98-1.07,2.31-.61,3.44.41,1,1.53,1.75,2.77,2.18,2.67.92,5.64,1.11,8.45,1.69.52.13,1.09.27,1.41.62.33.42.14,1-.41,1.26-.91.46-2.08.47-3.14.45-.97-.04-2.04-.12-2.81-.61-.57-.35-.67-.94-.54-1.46h-6.26c-.02.95.17,1.95.87,2.77.58.7,1.53,1.19,2.54,1.49,1.62.48,3.38.62,5.1.66,2.34.04,4.74-.03,6.99-.56,1.34-.33,2.66-.86,3.52-1.71,1.53-1.53,1.17-3.96-.86-5.15-1.01-.59-2.22-.95-3.45-1.19-1.8-.37-3.64-.65-5.47-.95-.64-.12-1.32-.24-1.86-.54-.56-.3-.61-1.02-.03-1.33.74-.42,1.73-.42,2.63-.42.94.02,1.96.08,2.73.52.38.21.61.61.61,1.04h5.95c-.02-.77-.16-1.55-.71-2.2-.64-.8-1.77-1.31-2.92-1.6-1.82-.46-3.75-.55-5.66-.56h0ZM36.72,36.26v14.23s17.36,0,17.36,0v-3.1h-10.99v-2.76h9.81v-3.03h-9.81v-2.26s10.6,0,10.6,0v-3.07h-16.96ZM65.33,36.27h-8.05s0,14.23,0,14.23h6.1v-9.57s8.35,9.57,8.35,9.57h8.37s0-14.22,0-14.22h-6.1s0,9.51,0,9.51l-8.66-9.51ZM90.96,36.29s-6.57,9.49-9.87,14.23h6.4l1.53-2.57h9.89l1.43,2.57h7.11s-9.42-14.23-9.42-14.23h-7.07ZM94.16,39.69l3.03,5.15h-6.27s3.24-5.15,3.24-5.15ZM8.83,54.52l.05,7.74,28.94-.1c1.48.32,2.33,1.28,2.03,3.46l-17.8,31.16,5.8,5.42,27.57-47.69H8.83ZM64.05,54.58l27.11,47.48,5.99-5.39-18.01-31.08c-.3-2.19.56-3.16,2.03-3.48l28.95.1v-7.62s-46.08-.02-46.08-.02ZM59.48,62.44l-25.43,43.64,6.75,3.29,16.97-28.67c.59-.48,1.18-.73,1.77-.76.62-.02,1.26.21,1.89.7l16.93,28.76,6.97-3.63-25.84-43.33Z"></path>
  <metadata></metadata>
</svg>
