<?xml version="1.0" encoding="UTF-8"?>
<svg xmlns="http://www.w3.org/2000/svg" xmlns:i="http://ns.adobe.com/AdobeIllustrator/10.0/" xmlns:xlink="http://www.w3.org/1999/xlink" id="Capa_1" version="1.1" viewBox="0 0 274.17 120">
  <defs>
    <style>
      .st0 {
        fill: #939ca1;
      }

      .st1 {
        fill: none;
      }

      .st2 {
        clip-path: url(#clippath-1);
      }

      .st3 {
        clip-path: url(#clippath);
      }
    </style>
    <clipPath id="clippath">
      <rect class="st1" x="-730.55" y="-17.2" width="1044.07" height="1286.54"></rect>
    </clipPath>
    <clipPath id="clippath-1">
      <rect class="st1" x="-730.55" y="-17.2" width="1044.07" height="1286.54"></rect>
    </clipPath>
  </defs>
  <g id="layer1">
    <g class="st3">
      <path id="path15912" class="st0" d="M143.44,50.53c-.35.42-.54.89-.54,1.7v22.37h-.12s-12.24-21.83-12.83-22.83c-.42-.72-.89-1.21-1.5-1.58-.62-.34-1.26-.57-2.49-.57h-4.04c-.94,0-1.53.32-1.95.81-.35.42-.54.89-.54,1.7v31.7c0,.81.2,1.28.54,1.7.42.49,1.01.81,1.95.81h2.29c.94,0,1.53-.32,1.95-.81.34-.42.54-.89.54-1.7v-22.91h.12s12.71,22.52,13.23,23.35c.71,1.18,1.92,2.07,3.64,2.07h3.92c.94,0,1.53-.32,1.95-.81.34-.42.54-.89.54-1.7v-28.6h51.46c.52,0,.91-.15,1.21-.39.32-.3.47-.69.47-1.28v-2.17c0-.59-.15-.99-.47-1.28-.3-.25-.69-.39-1.21-.39h-56.16c-.94,0-1.53.32-1.95.81M165.91,59c-8.55,0-13.35,6.68-13.35,13.72,0,7.51,5.15,14.12,13.4,14.12,4.11,0,8.15-1.55,10.47-4.29,1.01-1.18,1.82-2.83,1.82-3.84,0-.35-.08-.64-.27-.86-.2-.25-.49-.39-1.01-.39h-3.97c-.79,0-1.33.3-1.72.89-1.16,1.7-2.83,2.59-5.3,2.59-3.7,0-6.08-2.81-6.26-5.89h17.15c.76,0,1.3-.17,1.67-.54.42-.39.62-.96.62-2.02,0-3.23-1.01-6.58-3.13-9.14-2.17-2.59-5.47-4.34-10.12-4.34M192.34,59c-6.75,0-11.18,3.2-11.18,8.33,0,1.82.67,3.3,1.75,4.46,1.26,1.36,3.05,2.29,5.67,2.96l5.64,1.43c1.55.39,2.93.86,2.93,2.22,0,2.09-2.22,2.81-4.58,2.81-1.16,0-2.37-.22-3.35-.71-.69-.35-1.28-.84-1.7-1.5-.37-.57-.49-.99-1.06-1.31-.35-.2-.76-.22-1.33-.22h-3.05c-.67,0-.98.2-1.21.47s-.3.67-.3,1.06c0,.98.35,2.22,1.16,3.33,1.87,2.51,5.79,4.53,10.79,4.53s11.75-2.05,11.75-8.65c0-1.7-.49-3.15-1.41-4.33-1.16-1.5-2.81-2.54-5.62-3.25l-5.59-1.43c-2.32-.59-3.4-1.01-3.4-2.44s1.23-2.49,4.09-2.49c1.68,0,3.2.37,4.19,1.41.81.86.67,1.31,1.31,1.65.39.2.84.2,1.53.2h2.78c.44,0,.76-.07,1.01-.35.2-.22.32-.57.32-1.13,0-1.28-.84-2.93-2.31-4.19-1.97-1.7-5.07-2.83-8.82-2.83M207.69,59.94h-1.38c-.52,0-.91.15-1.21.39-.32.3-.47.69-.47,1.28v1.7c0,.59.15.98.47,1.28.3.25.69.39,1.21.39h1.38v12.29c0,3.15.86,5.12,2.46,6.7,1.48,1.45,3.4,2.36,6.75,2.36h2.09c.52,0,.91-.15,1.21-.39.32-.3.52-.69.52-1.28v-2.14c0-.59-.2-.98-.52-1.28-.3-.25-.69-.39-1.21-.39h-.3c-1.33,0-2.24-.34-2.86-.94-.74-.69-1.11-1.75-1.11-3.13v-11.8h4.48c.52,0,.91-.15,1.21-.39.32-.3.47-.69.47-1.28v-1.7c0-.59-.15-.98-.47-1.28-.3-.25-.69-.39-1.21-.39h-4.46v-8.03c0-.64-.2-1.11-.49-1.48-.37-.44-.89-.72-1.65-.72h-2.78c-.76,0-1.28.27-1.65.72-.3.37-.49.84-.49,1.48,0,0,0,8.03,0,8.03ZM222.76,84.15c0,.64.2,1.11.49,1.48.37.44.89.71,1.65.71h2.93c.76,0,1.28-.27,1.65-.71.3-.37.49-.84.49-1.48v-32.24c0-.64-.2-1.11-.49-1.48-.37-.44-.89-.72-1.65-.72h-2.93c-.76,0-1.28.27-1.65.72-.3.37-.49.84-.49,1.48v32.24ZM159.78,69.79c.32-3.03,2.64-5.3,6.16-5.3s5.84,2.27,6.16,5.3c0,0-12.32,0-12.32,0ZM256.66,55.23c.52,0,.91-.15,1.21-.39.32-.3.47-.69.47-1.28v-2.29c0-.89-.17-1.33-.47-1.65-.27-.3-.71-.47-1.21-.47-.39,0-.79.05-1.45.12l-19.66,1.95c-.57.05-.84.22-1.03.44-.22.25-.32.57-.32,1.01v1.28c0,.49.1.72.27.91.22.25.54.37.98.37h21.21ZM245.8,59c-8.55,0-13.35,6.68-13.35,13.72,0,7.51,5.15,14.12,13.4,14.12,4.11,0,8.15-1.55,10.47-4.29,1.01-1.18,1.82-2.83,1.82-3.84,0-.35-.08-.64-.27-.86-.2-.25-.49-.39-1.01-.39h-3.97c-.79,0-1.33.3-1.72.89-1.16,1.7-2.83,2.59-5.3,2.59-3.7,0-6.09-2.81-6.26-5.89h17.19c.76,0,1.31-.17,1.67-.54.42-.39.62-.96.62-2.02,0-3.23-1.01-6.58-3.13-9.14-2.17-2.59-5.52-4.34-10.17-4.34M239.66,69.79c.32-3.03,2.64-5.3,6.16-5.3s5.84,2.27,6.16,5.3h-12.32Z"></path>
      <path id="path15916" class="st0" d="M91.64,55.53c-6.38-9.51-11.98-12.72-13.56-14.23-1.73-1.66-3.05-3.55-3.89-4.46-1.87-2.04-4.29-4.56-8.26-4.56s-6.38,2.5-7.2,4.66c-.24.62-.43,1.37-.6,1.64-.38.62-2.07,3.51-2.78,4.66h3.17l-1.54,2.91c1.8-.39,3.08-.69,4.8-.69,1.53,0,2.62.36,3.1,1.32.89,1.78.89,7.18,2.4,11.25,1.41,3.82,4.83,7.56,8.69,10.42.05.03.1.05.17.05.19,0,.31-.14.31-.27,0-.1-.03-.17-.12-.26-3.22-3.22-5.84-6.79-7.25-10.69-1.39-3.81-1.17-9.15-2.38-11.54-.81-1.58-2.52-1.99-4.1-1.99-1.27,0-2.45.26-3,.38l1.39-2.35h-2.35c.5-.87,1.01-1.68,1.27-2.16.22-.41.31-.93.58-1.63.89-2.25,2.86-3.67,5.43-3.67,3.22,0,5.11,2.07,6.98,4.15.86.96,2.26,2.97,3.89,4.46,1.11,1.03,3.24,2.18,6.51,5.55,1.89,1.95,4.08,4.49,6.39,7.88,8.28,12.12,13.71,22.79,16.75,31.12l-.05.03c-8.69-5.9-16.22-11.47-22.28-18.34-4.3-4.88-8.04-10.54-11.3-17.76-.22-.48-.41-.93-.62-1.39-.09-.19-.17-.24-.31-.24-.17,0-.29.12-.29.29,0,.19.09.6.27,1.42,1.73,7.47,6.53,14.17,11.66,19.74,5.11,5.54,10.88,10.3,15.63,13.76l3.7,10.59c.09.26.19.53.19.79,0,.19-.05.34-.17.45-.1.1-.24.16-.55.16h-1.11c-.48,0-.67-.07-.84-.21-.17-.14-.29-.34-.38-.58-.32-1-2.28-6.57-2.66-7.7-.07-.2-.19-.27-.33-.27-.17,0-.29.14-.29.29,0,.14.05.29.14.77.5,2.54,1.08,5.38,1.32,6.46.1.5.22.96.22,1.3,0,.31-.07.48-.32.74l-1.15,1.17c-.27.27-.43.34-.65.34-.27,0-.5-.19-.6-.67-1.3-6.09-3.27-13.62-3.79-15.72-.12-.46-.21-.72-.48-.72-.24,0-.32.17-.32.38,0,.15.03.34.05.48.31,2.16,1.56,10.03,2.91,17.21.24,1.23.7,1.92,1.77,1.92.48,0,.94-.19,1.37-.6.7-.7.91-.89,1.75-1.71.6-.58,1.01-.82,2.04-.82h2.54c.6,0,.93-.15,1.22-.43.27-.26.45-.62.45-1.13s-.14-.96-.32-1.49c-.65-1.75-2.74-7.66-3.36-9.32l.05-.03c2.14,1.63,5.26,3.7,6.63,3.7.43,0,.69-.19.69-.86,0-3.15-5.25-16.13-17.23-33.99"></path>
      <path id="path15920" class="st0" d="M32.8,35.61c.36-.79,1.15-1.34,2.09-1.34,1.28,0,2.31,1,2.31,2.31,0,.77-.36,1.44-.93,1.85.12.45.21.84.21,1.22,0,1.44-.86,2.45-2.43,2.98-.21.87-.58,1.66-1.2,2.24-1.03.99-2.07.99-2.07,1.41,0,.22.16.36.58.36,1.9,0,3.77-1.06,3.99-2.83,1.82-.62,2.91-2.45,2.91-3.91,0-.38-.03-.7-.19-1.01.5-.48,1.08-1.3,1.08-2.52,0-1.06-.46-2.14-1.29-2.93-.72-.7-1.73-1.17-2.91-1.17-1.71,0-2.83.93-3.46,1.83-1.87,0-4.29,2.07-4.29,5.04h-.26c-.17-1.03-1.23-1.72-2.13-1.77-.72-2.16-2.35-4.01-5.02-4.01-.31,0-.68.02-1.01.07-.79-.72-1.66-1.17-2.88-1.17-2.33,0-4.23,1.87-4.23,4.23,0,1.48.67,2.49,1.94,3.38,0,0-.02.19-.02.27,0,1.89,2.06,4.83,5.11,4.83,0,.48.6,1.13,1.27,1.25v.24h-.26c-4.2,0-5.98,2.02-5.98,3.38-1.25.51-2.06,1.9-2.06,3.19,0,2.55,1.87,4.37,4.34,4.37.82,0,1.66-.32,2.24-.77.43.15.98.24,1.54.24,1.18,0,2.5-.41,3.43-1.76.14.02.26.02.39.02,1.51,0,2.81-1,3.5-2.3.17-.32.24-.58.24-.77s-.09-.34-.27-.34c-.24,0-.27.22-.7.62-.96.87-2.44,1.2-3.94,1.2-.74,1.08-1.64,1.65-2.69,1.65-.77,0-1.37-.21-1.99-.62-.5.55-1.11.77-1.71.77-1.35,0-2.31-.94-2.31-2.31,0-.96.62-1.82,1.47-2.14.15-1.7,1.97-2.85,4.23-2.85.29,0,.58.02.89.05.34-.55,1.16-1.13,2.33-1.29.24-.03.43-.05.57-.12.14-.07.21-.21.21-.36,0-.14-.05-.26-.19-.34-.12-.07-.33-.1-.57-.15-1.08-.21-2.37-.87-3.02-2.5-2.59,0-4.49-2.07-4.49-4.4v-.15c-.86-.34-1.44-1.17-1.44-2.14,0-1.28,1.01-2.31,2.3-2.31.77,0,1.44.38,1.87.94.36-.1.77-.14,1.16-.14,1.92,0,3.98,1.22,4.37,3.58,2.47.22,3.05,2.31,3.2,3.19.09.45.15.82.45.82.31,0,.38-.34.48-.81.19-.87.51-1.58,1.17-2.12,0-2.25,1.68-4.18,4.06-4.18"></path>
      <path id="path15924" class="st0" d="M37.79,49.05c-.81,1.15-1.39,1.71-3.22,3.87-2.42,2.86-3.69,5.18-5.79,10.32.34-.03.84-.07,1.39-.07.27,0,.5,0,.86.02l.26-.55c1.18-2.54,2.78-5.96,5-8.6l.77-.91c2.3-2.69,3.72-4.29,4.61-7.95.31-1.3.57-2.47,1.44-3.31.79-.75,1.78-1.08,2.79-1.08.86,0,1.49.21,2.42.6.84.36,1.15.43,2.04.43.31,0,.53-.02.74-.03l-1.2,1.61,1.63,1.15c-2.04.6-3.12,2.57-3.48,3.48-.07.19-.1.31-.1.43,0,.14.07.27.27.27.22,0,.39-.17.68-.51,1-1.2,1.78-2.02,5.45-3.17l-2.59-1.96,1.95-2.86h-1.83c-1.17,0-1.94-.02-2.95-.48-1.37-.63-2.07-.91-3.29-.91-1.49,0-2.85.53-3.96,1.56-1.29,1.18-1.68,2.76-2.14,4.49-.36,1.34-.79,2.81-1.75,4.16"></path>
      <path id="path15928" class="st0" d="M41.73,60.72c-.98,1.32-2.31,3.05-3.34,4.88.33.16,1.41.74,1.78.94,1.18-1.78,2.83-3.97,3.91-5.64.98-1.51,1.37-2.16,1.44-4.18.02-.34.02-.67.05-.99.09-1.05.36-2.11,1.35-3.08.74-.74,1.8-1.11,2.86-1.11s1.63.29,2.52.29c.63,0,1.1-.15,1.51-.31l.33-.12-.79,1.89,1.85.75c-1.18.74-3.77,3.91-3.77,7.66,0,1.35.21,2.6.5,3.72.03.12.1.24.29.24.17,0,.29-.1.31-.29l.02-.39c.05-1.15.14-2.96.6-4.59.77-2.74,2.85-5.31,4.92-6.55l-2.95-1.28,1.27-3.1-1.39.29c-.84.17-1.46.32-2.19.32-.48,0-1.03-.07-1.68-.22-.5-.12-1.03-.22-1.78-.22-1.35,0-2.81.51-3.81,1.47-1.82,1.73-1.92,3.6-2.04,5.26-.15,2.21-.57,2.76-1.76,4.37"></path>
      <path id="path15932" class="st0" d="M85.71,61.76c-.12-.15-.22-.22-.36-.22-.21,0-.31.14-.31.29,0,.24.17.53.6,1.25,1.3,2.21,2.91,4.44,4.9,6.53,2.14,2.28,4.66,4.4,7.35,6.31l.84.58c.12.09.21.14.31.14.17,0,.29-.17.29-.31,0-.09-.03-.17-.14-.26-2.5-2.28-5.19-5.06-7.71-7.73-1.97-2.11-3.99-4.34-5.78-6.58"></path>
      <path id="path15936" class="st0" d="M30.56,54c.26-.43,1.03-1.47,1.34-1.8-1.32-2.67-3.48-5.23-4.42-6.24l-.79.77c.91,1.32,2.43,3.87,3.87,7.27"></path>
      <path id="path15940" class="st0" d="M17.99,38.52c-.16-.14-.19-.22-.19-.33,0-.12.09-.26.27-.26.07,0,.14.02.22.05,1.27.51,2.35,1.11,3.31,1.85.8.62,1.59,1.37,2.36,2.28l-.72.82c-.89-.74-3.77-3.15-5.26-4.42"></path>
      <path id="path15944" class="st0" d="M30.15,44.27l-.93-.57c.6-1.42,1.34-2.72,2.21-3.7.62-.7,1.2-1.27,1.85-1.83.15-.12.24-.22.39-.22.17,0,.29.14.29.27,0,.07-.03.15-.1.26-1.05,1.63-3.09,4.85-3.72,5.79"></path>
      <path id="path15948" class="st0" d="M18.53,52.22c-.22.09-.33.14-.45.14-.19,0-.28-.16-.28-.28s.05-.19.17-.29c2.11-1.64,3.96-2.3,6.51-2.72l.31,1.03-6.27,2.12Z"></path>
      <path id="path15952" class="st0" d="M62.49,38.92c0-.6.31-1.68,1.42-1.68.38,0,.74.09,1.03.22.41.19.69.46.69.75,0,.31-.31.62-.77,1-.48.39-1.1.75-1.59.75-.6,0-.77-.57-.77-1.05"></path>
      <path id="path15956" class="st0" d="M45.09,43.92c0-.74.45-1.54,1.3-1.54.38,0,.82.15,1.15.46.19.17.27.36.27.55,0,.41-.39.8-.86,1.08-.36.21-.74.34-1.06.34-.53,0-.81-.33-.81-.89"></path>
      <path id="path15960" class="st0" d="M49.12,54.5c0-.17.02-.38.09-.58.14-.45.43-.87,1.15-.87.33,0,.68.09.98.29.26.17.36.39.36.62,0,.74-1.23,1.59-1.85,1.59-.45,0-.72-.43-.72-1.05"></path>
      <path id="path15964" class="st0" d="M42.37,76.13c-2.31,0-3.34-1.1-3.34-2.48,0-2.44,4.27-4.82,8.11-6.29l1,1.29c-2.37.94-7.13,2.97-7.13,4.71,0,.62.36,1.06,1.8,1.06,2.5,0,5.19-1.22,7.68-2.44.19-.09.41-.17.62-.17.32,0,.53.1.77.45l.41.57c-2.9,1.6-6.51,3.31-9.91,3.31"></path>
      <path id="path15968" class="st0" d="M48.74,76.78c-2.26,1.27-4.61,2.11-6.68,2.11-2.31,0-4.37-1-6.09-3.58-.72-1.1-1.28-2.47-1.97-3.68-.82-1.44-1.71-2.21-3.27-2.21-1.42,0-2.81.58-4.29,1.22l.07.33c.12.53.33.91.82.91.22,0,.45-.1.57-.14.82-.26,1.42-.48,2.26-.48,1.28,0,1.9.76,2.78,2.61l.33.69c-.89.31-2.98.46-4.54.46h-.74l.12.74c.05.31.17.57.43.69.31.15.75.17,1.53.17,1.95,0,3.38-.24,4.2-.45,2.11,3.14,5,4.34,7.8,4.34,2.38,0,4.8-.87,7.11-2.14l-.43-1.56Z"></path>
      <path id="path15972" class="st0" d="M51.07,77.55l-.41-1.58c3.53-1.9,6.75-3.43,11.89-3.92.1,1.97-.03,4.46,1.42,4.46,1.34,0,4.25-3.45,7.61-7.76.31.29.8.6,1.25.94l-.86,1.11c-3.27,4.22-6.07,7.82-8.37,7.82-2.14,0-2.95-2.52-2.98-4.41-3.27.33-6.36,1.42-9.56,3.34"></path>
      <path id="path15976" class="st0" d="M96.42,43.15c-1.34,0-1.71-.74-1.71-1.78,0-2.16,1.35-5.26,2.21-7.03h-2.08c-1.08,2.09-5.33,8.79-7.63,11.57l1.32,1.42c1.23-1.37,2.59-3.7,4.06-6h.27c0,.12-.02.26-.02.38,0,1.94.99,3.38,3.44,3.38,1.51,0,3.87-.75,6.1-1.51,1.85-.63,3.55-1.28,4.39-1.52v-2.06c-.96.29-2.91,1.04-4.94,1.75-2.12.74-4.22,1.41-5.43,1.41"></path>
      <path id="path15980" class="st0" d="M101,49.37c2.06-.87,5.74-2.35,7.87-3.12v-2.09c-4.27,1.58-11.76,4.68-16.87,7.46.14.17,1.03,1.42,1.13,1.58,2.16-.89,4.1-1.48,5.84-1.48,2.45,0,4.46,0,7.82-.79v-1.58c-1.89.34-3.89.75-5.19.75-.77,0-1-.1-1-.36,0-.15.1-.26.39-.38"></path>
    </g>
    <g id="g15982">
      <path id="path15984" class="st0" d="M57.09,59.01l-.82,1.58h8.76l-.65-1.58h-7.28Z"></path>
    </g>
    <g id="g15986">
      <g class="st2">
        <g id="g15988">
          <g id="g15994">
            <path id="path15996" class="st0" d="M25.54,68.42c.93,0,1.68-.31,2.4-.6.68-.28,1.37-.55,2.3-.55,2.19,0,4.9,1.06,7.28,2.07.14.05.29.09.45.09.38,0,.67-.17.86-.53l.31-.57c-2.62-1.53-6.8-3.15-8.98-3.15-.99,0-1.71.26-2.4.53-.77.31-1.44.64-2.14.64-1.73,0-6.17-1.71-6.17-3.38,0-1.95,7.06-2.71,7.83-2.71l.7-1.6c-5.12,0-11.23,1.8-11.23,4.18,0,.69.39,1.03.39,1.66,0,.86-.39,1.44-.39,2.4,0,.63.38,1.44.82,2.14.48.74,1.05,1.21,1.05,1.83,0,.46-.31,1.01-.31,2.09,0,2.31,1.32,3.72,3.89,6.48l.51.55c-2.12.82-6.09,2.54-7.01,2.93-3.2,1.34-4.01,2.97-4.01,5.54,0,.99,0,2.12.07,3.14h.62c1.29,0,1.44-.77,1.44-1.51,0-.5-.02-1.06-.02-1.68.02-1.42.07-2.69,2.37-3.72.93-.41,5.47-2.26,8.85-3.7.99-.43,1.92-.79,2.95-.79,1.15,0,2.47.5,4.11,1.48,1.39.82,2.85,1.94,3.99,3.22l1.46-1.11c-1.25-1.47-2.98-2.79-4.71-3.82-1.73-1.03-3.27-1.63-4.58-1.63-.57,0-1.03.1-1.42.21-.46.12-.89.26-1.44.26-.63,0-1.17-.15-1.94-1.05-.29-.32-2.14-2.43-2.54-3.05-.19-.29-.53-.87-.53-1.56,0-.29.05-.63.22-.94,1.59,1.23,3.56,1.99,5.96,2.28l-.32-1.63c-3.45-.91-7.11-3.94-7.11-5.89,0-.41.1-.7.26-1.06,1.34,1.23,4.47,2.52,6.17,2.52"></path>
          </g>
          <g id="g15998">
            <path id="path16000" class="st0" d="M50.2,68.72c2.16-1.53,4.39-1.7,6.19-1.7,1.08,0,2.35.15,3.69.32,1.08.14,2.06.24,3.22.24,2.35,0,4.71-.86,5.74-1.3.29.36.79.84,1.18,1.18-.5.31-3.65,2.02-6.87,2.02-1.42,0-2.78-.17-3.94-.32-1.03-.14-2.14-.26-3.22-.26-1.18,0-3.56.34-5.04,1.05l-.94-1.23Z"></path>
          </g>
          <g id="g16002">
            <path id="path16004" class="st0" d="M82.03,74.84c-2.57,5.42-6.48,9.36-10.49,11.64-1.9,1.08-3.62,1.78-7.32,1.78h-8.01c-2.86,0-4.66.38-6.07.74-1.51.39-2.47.79-3.99.79-2.26,0-4.35-1.11-5.36-2.18l1.89-1.49-.94-1.25c-.55.4-7.25,5.35-8.66,6.46l-.09-.05c.03-.34.03-.65.03-.96,0-3.77-1.75-4.68-4.4-5.74l-1.8,1.06c3.65,1.22,4.56,2.19,4.56,4.92,0,2.16-.77,3.02-1.89,3.67-1.15.67-2.57.98-3.82.98-.53,0-.77.1-.96.29-.21.21-.31.51-.31.94v.6h.43c2.3,0,4.42-.36,6.75-2.19l7.59-5.93c1.08,1.23,3.81,2.95,7.03,2.95,1.82,0,2.98-.45,4.66-.87,1.3-.33,2.57-.62,5.35-.62h8.04c4.11,0,6.1-.86,8.3-2.09,4.77-2.67,8.83-7.2,11.12-12.39-.6-.38-1.17-.72-1.65-1.04"></path>
          </g>
          <g id="g16006">
            <path id="path16008" class="st0" d="M69.12,81.29c2.07-3.33,3.92-6.27,8.47-8.67-.48-.29-1.16-.74-1.53-.98-1.76.77-3.51,2.31-5,3.87-3.43,3.56-3.12,5.62-6.74,7.01-.91.34-2.02.72-3.45,1.05-.84-2.59-2.95-5.16-5.18-5.16-1.54,0-3.33.8-5.38,1.71-2.42,1.06-4.63,2.28-5.33,2.74l.94,1.27c.72-.4,2.79-1.42,4.87-2.31,1.8-.77,3.43-1.41,4.52-1.41,1.76,0,2.91,2.01,3.55,3.62-2.31.55-6.12.69-7.27.69-.53,0-.72.09-.91.24-.17.15-.31.43-.39.8l-.14.58h1.23c6.41,0,12.46-1.01,16.35-3.38.55.16,1.03.26,1.65.26,2.23,0,4.52-1.22,5.96-2.33.51-.39.63-.76.63-1.15,0-.19-.02-.36-.03-.53l-.07-.67c-2.06,1.63-3.77,2.85-5.89,2.85-.38,0-.65-.03-.87-.1"></path>
          </g>
        </g>
      </g>
    </g>
  </g>
  <metadata></metadata>
</svg>
