<?xml version="1.0" encoding="UTF-8"?>
<svg xmlns="http://www.w3.org/2000/svg" xmlns:i="http://ns.adobe.com/AdobeIllustrator/10.0/" id="Capa_1" version="1.1" viewBox="0 0 283.3 120">
  <defs>
    <style>
      .st0 {
        fill: #212e5c;
      }
    </style>
  </defs>
  <g id="g12">
    <path id="path14" class="st0" d="M22.28,70.46c-4.16,0-7.62-2.96-8.4-6.92l-9.32,1.8c1.59,8.33,8.93,14.61,17.71,14.61,5.01,0,9.53-2.05,12.81-5.33l-7.62-5.89c-1.45,1.06-3.25,1.73-5.19,1.73M22.28,53.35c1.94,0,3.74.67,5.19,1.76l7.62-5.89c-3.28-3.28-7.8-5.33-12.81-5.33-8.79,0-16.13,6.28-17.71,14.61l9.32,1.84c.74-3.99,4.2-6.99,8.4-6.99M150.79,71.73c-4.73,0-8.19-3.46-8.72-8.54v-2.68c.53-5.01,3.99-8.47,8.72-8.47,5.4,0,9.21,4.06,9.21,9.81-.04,5.82-3.81,9.88-9.21,9.88M153.58,43.89c-4.8,0-8.79,2.08-11.54,5.61v-4.83h-9.74v45.94h9.74v-16.34c2.72,3.6,6.74,5.68,11.54,5.68,9.21,0,15.88-7.48,15.88-18.07s-6.67-17.99-15.88-17.99M192.18,71.73c-5.19,0-9.53-4.52-9.53-9.88s4.34-9.81,9.53-9.81,9.46,4.48,9.46,9.81c.04,5.37-4.31,9.88-9.46,9.88M192.18,43.89c-10.27,0-18.88,8.19-18.88,17.99s8.61,18.07,18.88,18.07,18.74-8.26,18.74-18.07-8.54-17.99-18.74-17.99M215.54,79.14h9.74v-46.58h-9.74v46.58ZM262.26,57.76c-4.66-1.27-6.07-1.8-6.07-3.67,0-1.2,1.66-2.08,4.06-2.08,2.93,0,6.53,1.13,9.67,3.07l3.92-6.91c-3.81-2.54-8.68-4.27-13.58-4.27-8.12,0-13.52,4.66-13.48,11.19.07,6.81,5.54,8.75,12.6,10.48,3.53.92,6.07,1.59,6.07,3.74,0,1.52-1.87,2.61-4.48,2.61-4.59,0-8.47-1.66-11.54-3.88l-4.16,6.7c4.13,3.32,9.99,5.19,15.53,5.19,8.47,0,14.01-4.34,14.01-11.12,0-7.52-6.6-9.53-12.53-11.04M231.67,79.14h9.74v-34.47h-9.74v34.48h0ZM236.57,29.43c-3,0-5.33,2.47-5.33,5.19,0,2.93,2.33,5.33,5.33,5.33s5.19-2.4,5.19-5.33c.04-2.72-2.29-5.19-5.19-5.19M118.89,32.6h-9.74l-3.63,7.41h9.74l3.63-7.41ZM102.98,58.08c1.27-3.46,4.34-5.61,8.01-5.61,3.95,0,6.46,2.19,7.41,5.61h-15.42ZM110.6,43.86c-10.06,0-17.75,7.55-17.75,17.93s8.01,18.14,18.28,18.14c5.08,0,11.01-2.12,14.08-5.33l-6.21-6.35c-1.87,1.8-5.19,3.07-7.94,3.07-4.06,0-7.06-2.54-8.19-6.28h24.84c0-12.95-6.32-21.17-17.11-21.17M75.77,43.89c-4.48,0-8.33,1.98-10.41,5.12v-4.34h-9.74v34.48h9.74v-20.43c0-3.74,3.21-6.63,7.27-6.63s6.53,2.93,6.53,7.2v19.87h9.38v-21.95c.04-7.8-5.29-13.3-12.77-13.3M43.91,29.39c-3,0-5.33,2.47-5.33,5.19,0,2.93,2.33,5.33,5.33,5.33s5.19-2.4,5.19-5.33c0-2.72-2.33-5.19-5.19-5.19M38.97,79.14h9.74v-34.47h-9.74v34.48h0Z"></path>
    <path id="path16" class="st0" d="M278.74,78.02c0,1.16-.92,2.08-2.12,2.08s-2.15-.92-2.15-2.08.95-2.08,2.15-2.08c1.2.04,2.12.95,2.12,2.08ZM275,78.02c0,.92.67,1.66,1.62,1.66s1.59-.74,1.59-1.66-.67-1.66-1.59-1.66-1.62.74-1.62,1.66ZM276.3,79.11h-.49v-2.08c.18-.04.46-.07.81-.07.39,0,.56.07.7.14.11.1.21.25.21.46s-.18.39-.42.5v.04c.21.07.32.21.39.49.07.32.11.46.14.53h-.53c-.07-.07-.1-.28-.18-.5-.03-.21-.18-.32-.42-.32h-.21v.81h0ZM276.3,77.94h.21c.28,0,.49-.1.49-.32,0-.18-.14-.32-.46-.32-.14,0-.21,0-.28.04l.04.6Z"></path>
  </g>
  <metadata></metadata>
</svg>
