<?xml version="1.0" encoding="UTF-8"?>
<svg xmlns="http://www.w3.org/2000/svg" id="Capa_1" data-name="Capa 1" viewBox="0 0 74.5 72.11">
  <defs>
    <style>
      .cls-1 {
        fill: #fff;
      }

      .cls-2 {
        fill: #5eba47;
      }
    </style>
  </defs>
  <g>
    <g>
      <path class="cls-1" d="M10.33,71.88c-.08,0-.17-.02-.25-.05-.22-.1-.36-.32-.36-.56v-8.24H.84c-.34,0-.61-.27-.61-.61v-29.53c0-.34.27-.61.61-.61h38.3c.34,0,.61.27.61.61v29.53c0,.34-.27.61-.61.61h-18.91l-9.48,8.69c-.12.11-.26.16-.41.16ZM1.45,61.81h8.88c.34,0,.61.27.61.61v7.46l8.63-7.91c.11-.1.26-.16.41-.16h18.54v-28.31H1.45v28.31Z"></path>
      <path class="cls-1" d="M10.33,72.11c-.12,0-.23-.02-.34-.07-.31-.13-.5-.44-.5-.77v-8.01H.84c-.46,0-.84-.38-.84-.84v-29.53c0-.46.38-.84.84-.84h38.3c.46,0,.84.38.84.84v29.53c0,.46-.38.84-.84.84h-18.82l-9.42,8.63c-.15.14-.36.22-.57.22ZM.84,32.52c-.21,0-.38.17-.38.38v29.53c0,.21.17.38.38.38h8.88c.13,0,.23.1.23.23v8.24c0,.15.09.29.23.35.13.06.3.03.41-.07l9.48-8.69s.1-.06.15-.06h18.91c.21,0,.38-.17.38-.38v-29.53c0-.21-.17-.38-.38-.38H.84ZM10.94,70.12s-.06,0-.09-.02c-.08-.04-.14-.12-.14-.21v-7.46c0-.21-.17-.38-.38-.38H1.45c-.13,0-.23-.1-.23-.23v-28.31c0-.13.1-.23.23-.23h37.08c.13,0,.23.1.23.23v28.31c0,.13-.1.23-.23.23h-18.54c-.1,0-.19.04-.26.1l-8.63,7.91s-.1.06-.15.06ZM1.68,61.59h8.65c.46,0,.84.38.84.84v6.94l8.25-7.56c.15-.14.36-.22.57-.22h18.31v-27.85H1.68v27.85Z"></path>
    </g>
    <g>
      <path class="cls-1" d="M44.51,59.88h-5.37c-.34,0-.61-.27-.61-.61s.27-.61.61-.61h4.76v-29.33H6.82v3.56c0,.34-.27.61-.61.61s-.61-.27-.61-.61v-4.17c0-.34.27-.61.61-.61h38.3c.34,0,.61.27.61.61v30.55c0,.34-.27.61-.61.61Z"></path>
      <path class="cls-1" d="M44.51,60.11h-5.37c-.46,0-.84-.38-.84-.84s.38-.84.84-.84h4.53v-28.87H7.05v3.33c0,.46-.38.84-.84.84s-.84-.38-.84-.84v-4.17c0-.46.38-.84.84-.84h38.3c.46,0,.84.38.84.84v30.55c0,.46-.38.84-.84.84ZM39.14,58.89c-.21,0-.38.17-.38.38s.17.38.38.38h5.37c.21,0,.38-.17.38-.38v-30.55c0-.21-.17-.38-.38-.38H6.21c-.21,0-.38.17-.38.38v4.17c0,.21.17.38.38.38s.38-.17.38-.38v-3.56c0-.13.1-.23.23-.23h37.08c.13,0,.23.1.23.23v29.33c0,.13-.1.23-.23.23h-4.76Z"></path>
    </g>
    <g>
      <path class="cls-1" d="M35.02,68.73c-.15,0-.3-.05-.41-.16l-6.22-5.7c-.25-.23-.27-.61-.04-.86.23-.25.61-.27.86-.04l5.2,4.76v-4.31c0-.34.27-.61.61-.61s.61.27.61.61v5.7c0,.24-.14.46-.36.56-.08.03-.16.05-.25.05Z"></path>
      <path class="cls-1" d="M35.02,68.96c-.21,0-.41-.08-.57-.22l-6.22-5.7c-.34-.31-.36-.84-.05-1.19.31-.34.84-.36,1.19-.05l4.81,4.41v-3.79c0-.46.38-.84.84-.84s.84.38.84.84v5.7c0,.33-.2.63-.5.77-.11.05-.22.07-.34.07ZM28.8,62.04c-.1,0-.21.04-.28.12-.07.08-.1.17-.1.27,0,.1.05.2.12.26l6.22,5.7c.11.1.28.13.41.07.14-.06.23-.2.23-.35v-5.7c0-.21-.17-.38-.38-.38s-.38.17-.38.38v4.31c0,.09-.05.17-.14.21-.08.04-.18.02-.25-.04l-5.2-4.76c-.07-.07-.17-.1-.26-.1Z"></path>
    </g>
    <g>
      <path class="cls-1" d="M33.49,41.78H6.21c-.34,0-.61-.27-.61-.61s.27-.61.61-.61h27.28c.34,0,.61.27.61.61s-.27.61-.61.61Z"></path>
      <path class="cls-1" d="M33.49,42.01H6.21c-.46,0-.84-.38-.84-.84s.38-.84.84-.84h27.28c.46,0,.84.38.84.84s-.38.84-.84.84ZM6.21,40.78c-.21,0-.38.17-.38.38s.17.38.38.38h27.28c.21,0,.38-.17.38-.38s-.17-.38-.38-.38H6.21Z"></path>
    </g>
    <g>
      <path class="cls-1" d="M33.49,47.24H6.21c-.34,0-.61-.27-.61-.61s.27-.61.61-.61h27.28c.34,0,.61.27.61.61s-.27.61-.61.61Z"></path>
      <path class="cls-1" d="M33.49,47.47H6.21c-.46,0-.84-.38-.84-.84s.38-.84.84-.84h27.28c.46,0,.84.38.84.84s-.38.84-.84.84ZM6.21,46.24c-.21,0-.38.17-.38.38s.17.38.38.38h27.28c.21,0,.38-.17.38-.38s-.17-.38-.38-.38H6.21Z"></path>
    </g>
    <g>
      <path class="cls-1" d="M17.11,52.7H6.21c-.34,0-.61-.27-.61-.61s.27-.61.61-.61h10.9c.34,0,.61.27.61.61s-.27.61-.61.61Z"></path>
      <path class="cls-1" d="M17.11,52.93H6.21c-.46,0-.84-.38-.84-.84s.38-.84.84-.84h10.9c.46,0,.84.38.84.84s-.38.84-.84.84ZM6.21,51.7c-.21,0-.38.17-.38.38s.17.38.38.38h10.9c.21,0,.38-.17.38-.38s-.17-.38-.38-.38H6.21Z"></path>
    </g>
  </g>
  <g>
    <path class="cls-2" d="M64.49,20.23c-5-.58-8.95-4.52-9.53-9.53l-.48-4.12c-.02-.16-.25-.16-.27,0l-.48,4.12c-.58,5-4.52,8.95-9.53,9.53l-4.12.48c-.16.02-.16.25,0,.27l4.12.48c5,.58,8.95,4.52,9.53,9.53l.48,4.12c.02.16.25.16.27,0l.48-4.12c.58-5,4.52-8.95,9.53-9.53l4.12-.48c.16-.02.16-.25,0-.27l-4.12-.48Z"></path>
    <path class="cls-2" d="M72.21,7.68c-2.83-.33-5.06-2.56-5.39-5.39l-.26-2.21c-.01-.1-.16-.1-.17,0l-.26,2.21c-.33,2.83-2.56,5.06-5.39,5.39l-2.21.26c-.1.01-.1.16,0,.17l2.21.26c2.83.33,5.06,2.56,5.39,5.39l.26,2.21c.01.1.16.1.17,0l.26-2.21c.33-2.83,2.56-5.06,5.39-5.39l2.21-.26c.1-.01.1-.16,0-.17l-2.21-.26Z"></path>
    <path class="cls-2" d="M65.76,32.09c-1.43-.16-2.56-1.29-2.72-2.72l-.12-1.03c0-.06-.1-.06-.11,0l-.12,1.03c-.16,1.43-1.29,2.56-2.72,2.72l-1.03.12c-.06,0-.06.1,0,.11l1.03.12c1.43.16,2.56,1.29,2.72,2.72l.12,1.03c0,.06.1.06.11,0l.12-1.03c.16-1.43,1.29-2.56,2.72-2.72l1.03-.12c.06,0,.06-.1,0-.11l-1.03-.12Z"></path>
  </g>
</svg>
