<?xml version="1.0" encoding="UTF-8"?>
<svg xmlns="http://www.w3.org/2000/svg" xmlns:i="http://ns.adobe.com/AdobeIllustrator/10.0/" id="Capa_1" version="1.1" viewBox="0 0 284.87 120">
  <defs>
    <style>
      .st0 {
        fill: #1d1d1b;
        fill-rule: evenodd;
      }
    </style>
  </defs>
  <path class="st0" d="M275.35,74.7c-2.32,0-4.19,1.87-4.19,4.17s1.87,4.19,4.19,4.19,4.17-1.87,4.17-4.19-1.86-4.17-4.17-4.17h0ZM275.35,82.56c-2.04,0-3.68-1.64-3.68-3.69s1.64-3.66,3.68-3.66,3.66,1.64,3.66,3.66-1.64,3.69-3.66,3.69h0Z"></path>
  <path class="st0" d="M277.49,77.78c0-.39-.18-.81-.52-1.01-.35-.21-.74-.23-1.14-.23h-2.04v4.67h.57v-2.15h1.05l1.34,2.15h.68l-1.41-2.15c.83-.02,1.48-.36,1.48-1.28h0ZM275.24,78.61h-.88v-1.65h1.34c.58,0,1.21.09,1.21.81,0,.95-1.02.84-1.67.84h0Z"></path>
  <path class="st0" d="M250.86,55.2l8.54-9.12c.49-.67.74-1.14.74-1.54,0-.67-.58-.94-2.39-.94h-2.16v-5.77h23.34v5.76h-3.07c-3.54,0-4.2.54-9.14,6.76l-13.52,14.6v8.91c0,2.28,1.15,3.08,4.45,3.08h5.1v5.56h-32.68v-5.56h5.1c3.29,0,4.44-.8,4.44-3.08v-8.91l-15.92-17.61c-2.63-3.08-2.27-3.75-9.59-3.75v-5.76h29.56v5.76h-2.1c-2.14,0-3.05.4-3.05,1.21,0,.67.66,1.21,1.07,1.74l8.06,8.78c.95.99,2.12,1.13,3.21-.12h0Z"></path>
  <path class="st0" d="M52.55,37.84h7.13v16.07h-6.58c-.58-3.21-2.59-4.46-4.43-6.15-3.31-3.04-10.47-5.57-16.49-5.57-7.78,0-14.34,2.41-14.34,5.96,0,9.85,44.47,2.01,44.47,20.62,0,9.71-9.53,15.13-26.63,15.13-5.92,0-14.88-1.84-20.17-4.65-1.66-.96-2.36.91-2.67,3.24h-7.32v-16.61h6.61c1.46,4.22,3.47,5.09,5.32,6.77,3.21,2.95,10.84,5.09,17.84,5.02,10.55-.11,14.18-2.41,14.18-5.76s-3.59-4.15-15.15-5.96l-9.82-1.61c-11.08-1.68-19.15-4.16-19.15-13s10.2-14.93,26.34-14.93c6.8,0,12.49.91,17.95,4,1.51.98,2.93,1.1,2.92-2.59h0Z"></path>
  <path class="st0" d="M191.69,64.74l.14-17.86c0-2.34-1.22-3.15-4.7-3.15h-4.09v-5.56h26.04v5.56h-3.4c-3.49,0-4.7.81-4.7,3.15v35.96l-10.2-.08-33-31.26v22.7c0,2.28,1.22,3.14,4.7,3.14h4.53v5.49h-27.04v-5.49h4.48c3.48,0,4.7-.87,4.7-3.14v-27.32c0-2.34-1.22-3.15-4.7-3.15h-4.48v-5.56h23.39l28.34,26.56h0Z"></path>
  <path class="st0" d="M104.46,36.09c-20.76,0-33.75,9.18-33.75,23.9s12.81,23.57,33.11,23.57c21.56,0,34.1-8.97,34.1-24.31,0-13.79-13.53-23.17-33.47-23.17h0ZM103.99,77.74c-11.49,0-18.09-6.63-18.09-18.08s6.89-17.81,18.66-17.81,17.9,6.77,17.9,18.28-6.7,17.61-18.47,17.61h0Z"></path>
  <metadata></metadata>
</svg>
