<?xml version="1.0" encoding="UTF-8"?>
<svg xmlns="http://www.w3.org/2000/svg" xmlns:i="http://ns.adobe.com/AdobeIllustrator/10.0/" id="Capa_1" version="1.1" viewBox="0 0 138.52 120">
  <defs>
    <style>
      .st0 {
        fill: #fbbe00;
      }

      .st1, .st2 {
        fill: #fff;
      }

      .st2, .st3 {
        fill-rule: evenodd;
      }

      .st4, .st3 {
        fill: #00904a;
      }
    </style>
  </defs>
  <rect class="st4" x="8.97" y="10.42" width="120.6" height="99.36"></rect>
  <path class="st2" d="M25.19,78.13c0,.56-.14.9-.46.97-.14.03-.27,0-.38-.04-.1-.04-.2-.09-.28-.14-.34-.19-.72-.3-1.22-.3-2.23,0-2.84,2.47-2.84,4.39,0,2.03.6,4.39,2.74,4.39.52,0,.95-.11,1.32-.28.2-.11.48-.21.73-.19.3.03.51.24.51.65l-.25,2.95c-.08.91-.55,1.14-.87,1.24-.64.21-1.34.31-2.06.31-3.92,0-7.22-2.99-7.22-8.95,0-7.83,5.4-9.18,7.72-9.18.47,0,.91.02,1.36.12.39.07,1.19.52,1.19,1.22v2.85Z"></path>
  <path class="st2" d="M34.73,79.01c0-.55-.5-.59-.74-.55-1.41.25-2.38,1.36-2.85,2.75l-.05-.05.15-1.29c.07-.67-.55-1.21-1.21-1.21h-1.81c-.94,0-1.73.79-1.73,1.73v10.11c0,.67.54,1.24,1.21,1.24h2.4c.67,0,1.24-.57,1.24-1.24v-4.06c0-1.36.22-3.1,2.03-3.1.2,0,.52.07.79.2.4.17.57,0,.57-.55v-3.99Z"></path>
  <path class="st2" d="M37.36,78.66c-.62,0-1.12.52-1.12,1.14v6.57c0,3.57,2.03,5.65,5.8,5.65,3.57,0,5.82-1.78,5.82-5.65v-6.57c0-.62-.52-1.14-1.14-1.14h-2.6c-.62,0-1.11.52-1.11,1.14v5.9c0,1.59-.1,2.26-.97,2.26s-.94-.69-.94-2.26v-5.9c0-.62-.52-1.14-1.14-1.14h-2.6Z"></path>
  <path class="st2" d="M58.73,78.66h-8.28c-.52,0-.97.42-.97.94v2.01c0,.52.45.94.97.94h.89c.62,0,1.26-.05,1.88-.07l-3.94,8.2c-.2.4.05,1.07.5,1.07h8.65c.45,0,.82-.35.82-.79v-2.35c0-.45-.37-.82-.82-.82h-1.19c-.54,0-1.06.02-1.61.05l3.67-7.68c.37-.77.05-1.49-.57-1.49"></path>
  <path class="st2" d="M67.66,84.58c.11-.99.2-1.98.37-2.95l1.05-5.63c.19-1.04.64-1.58,1.4-1.58h3.08c.46,0,.73.22.83.57.09.32.03.71-.07,1.09l-3.69,13.79c-.1.4-.24.91-.51,1.33-.27.42-.68.76-1.3.76h-2.55c-.96,0-1.49-.84-1.79-2.12l-3.15-13.77c-.27-1.15.17-1.65,1.01-1.65h2.76c.97,0,1.2.65,1.33,1.58l.87,5.63c.15.99.25,1.96.36,2.95"></path>
  <path class="st2" d="M80.23,87.31c-.25,0-.2.12-.45.47-.2.27-.5.45-.87.45-1.02,0-1.14-1.24-1.14-2.01h6.27c.57,0,.89-.79.87-1.16-.07-1.61-.4-3.15-1.41-4.53-.94-1.29-2.4-2.13-4.41-2.13-4.01,0-6.17,3.32-6.17,7.06s2.01,6.57,6.05,6.57c2.58,0,4.68-1.41,5.5-3.79.12-.32-.02-.92-.42-.92h-3.82ZM77.78,83.59c-.02-.67.27-1.66,1.09-1.66.87,0,1.14.94,1.16,1.66h-2.26Z"></path>
  <path class="st2" d="M94.64,79.01c0-.55-.5-.59-.74-.55-1.41.25-2.38,1.36-2.85,2.75l-.05-.05.15-1.29c.07-.67-.55-1.21-1.21-1.21h-1.81c-.94,0-1.73.79-1.73,1.73v10.11c0,.67.55,1.24,1.21,1.24h2.4c.67,0,1.24-.57,1.24-1.24v-4.06c0-1.36.22-3.1,2.03-3.1.2,0,.52.07.79.2.4.17.57,0,.57-.55v-3.99Z"></path>
  <path class="st2" d="M102.79,85.1c0-1.29-.17-2.68-1.07-2.68-1.02,0-1.26,1.26-1.26,2.7,0,1.34.22,2.73,1.16,2.73,1.07,0,1.16-1.36,1.16-2.75M107.5,90.83v-15.87c0-.59-.47-1.09-1.07-1.09h-2.7c-.59,0-1.09.5-1.09,1.09v3.76l.07,1.78-.05.05c-.57-1.31-1.51-2.16-3.02-2.16-3.54,0-4.19,4.24-4.19,6.94,0,1.81.37,6.69,4.19,6.69,1.49,0,2.3-.84,2.95-2.03l.05.05-.05.99c-.02.4.35.72.74.72h3.25c.5,0,.92-.42.92-.92"></path>
  <path class="st2" d="M116.04,87.31c-.25,0-.2.12-.45.47-.2.27-.5.45-.87.45-1.02,0-1.14-1.24-1.14-2.01h6.27c.57,0,.89-.79.87-1.16-.07-1.61-.4-3.15-1.41-4.53-.94-1.29-2.4-2.13-4.41-2.13-4.01,0-6.17,3.32-6.17,7.06s2.01,6.57,6.05,6.57c2.58,0,4.68-1.41,5.5-3.79.12-.32-.02-.92-.42-.92h-3.82ZM113.58,83.59c-.03-.67.27-1.66,1.09-1.66.87,0,1.14.94,1.16,1.66h-2.26Z"></path>
  <polygon class="st2" points="29.2 74.13 29.2 73.38 27.23 73.38 27.23 76.81 28.12 76.81 28.12 75.46 29.1 75.46 29.1 74.71 28.12 74.71 28.12 74.13 29.2 74.13"></polygon>
  <path class="st2" d="M31.89,75.53h-.74l.37-1.09h0l.36,1.09ZM32.14,76.21l.22.6h.95l-1.29-3.43h-.97l-1.32,3.43h.95l.24-.6h1.23Z"></path>
  <path class="st2" d="M35.07,74.06h.09c.29,0,.62.05.62.43s-.33.43-.62.43h-.09v-.85ZM35.95,75.4c.49-.09.75-.5.75-.97,0-.73-.51-1.05-1.19-1.05h-1.33v3.43h.89v-1.32h0l.84,1.32h1.11l-1.08-1.41Z"></path>
  <polygon class="st2" points="37.66 76.81 38.55 76.81 38.83 74.83 38.84 74.83 39.63 76.81 39.98 76.81 40.81 74.83 40.82 74.83 41.07 76.81 41.96 76.81 41.44 73.38 40.55 73.38 39.81 75.21 39.12 73.38 38.24 73.38 37.66 76.81"></polygon>
  <path class="st2" d="M44.79,75.53h-.74l.37-1.09h0l.36,1.09ZM45.03,76.21l.22.6h.95l-1.29-3.43h-.97l-1.32,3.43h.95l.24-.6h1.23Z"></path>
  <path class="st2" d="M49.52,73.46c-.26-.11-.53-.17-.81-.17-.48,0-.97.21-1.31.55-.33.34-.51.79-.51,1.26,0,.51.17.96.55,1.3.35.32.81.51,1.29.51.28,0,.49-.07.79-.16v-1.07c-.19.22-.48.36-.77.36-.56,0-.93-.39-.93-.93s.37-.95.91-.95c.3,0,.6.13.78.38v-1.07Z"></path>
  <rect class="st1" x="50.67" y="73.38" width=".89" height="3.43"></rect>
  <path class="st2" d="M54.59,75.53h-.74l.37-1.09h0l.36,1.09ZM54.83,76.21l.22.6h.95l-1.29-3.43h-.97l-1.32,3.43h.95l.24-.6h1.23Z"></path>
  <path class="st2" d="M59.12,73.57c-.31-.17-.73-.28-1.07-.28-.69,0-1.18.45-1.18,1.15s.37.81.93.97c.19.05.54.14.54.39s-.22.35-.43.35c-.3,0-.57-.16-.79-.35l-.38.72c.35.25.77.39,1.21.39.35,0,.7-.1.97-.32.27-.23.35-.58.35-.92,0-.56-.37-.8-.85-.94l-.23-.07c-.15-.05-.4-.13-.4-.33s.22-.29.38-.29c.22,0,.43.09.59.23l.35-.69Z"></path>
  <path class="st2" d="M122.28,91.7v-1.78c.11,0,.28,0,.49,0,.22,0,.34,0,.37,0,.14.01.26.04.35.09.16.09.24.23.24.42,0,.15-.04.26-.13.32-.08.07-.18.11-.31.12.11.02.2.06.25.1.1.08.16.22.16.4v.16s0,.03,0,.05c0,.02,0,.03.01.05v.05s-.43,0-.43,0c-.01-.06-.02-.14-.03-.25,0-.11-.01-.18-.03-.22-.02-.06-.07-.11-.13-.13-.03-.01-.09-.02-.16-.03h-.1s-.1,0-.1,0v.63h-.47ZM123.13,90.27c-.06-.02-.15-.04-.27-.04h-.11v.52h.18c.11,0,.19-.02.25-.07.06-.04.09-.11.09-.21s-.05-.17-.14-.2M124.11,91.96c-.31.3-.69.45-1.12.45s-.83-.15-1.14-.46c-.31-.31-.46-.69-.46-1.14s.17-.86.5-1.17c.31-.29.68-.44,1.1-.44s.82.16,1.13.47c.31.31.47.69.47,1.13s-.16.84-.48,1.15M122.04,89.88c-.26.26-.38.57-.38.93s.13.69.39.95c.26.26.57.39.94.39s.68-.13.93-.39c.26-.26.39-.58.39-.95,0-.36-.13-.67-.39-.93-.26-.27-.57-.4-.94-.4s-.68.13-.94.4"></path>
  <rect class="st1" x="8.94" y="10.22" width="120.63" height="51.65"></rect>
  <polygon class="st3" points="77.88 61.92 129.58 10.22 129.58 61.92 77.88 61.92"></polygon>
  <polygon class="st3" points="60.64 10.22 8.94 61.92 8.94 10.22 60.64 10.22"></polygon>
  <polygon class="st4" points="60.65 10.22 77.88 10.22 77.88 27.45 95.11 27.45 95.11 44.68 77.88 44.68 77.88 61.92 60.65 61.92 60.65 44.68 43.41 44.68 43.41 27.45 60.65 27.45 60.65 10.22"></polygon>
  <rect class="st0" x="8.97" y="99.84" width="120.6" height="9.94"></rect>
  <metadata></metadata>
</svg>
