<?xml version="1.0" encoding="UTF-8"?>
<svg xmlns="http://www.w3.org/2000/svg" xmlns:xlink="http://www.w3.org/1999/xlink" width="px" height="125px" viewBox="0 0 390 125" version="1.1">
  <g id="surface1">
    <path style=" stroke:none;fill-rule:nonzero;fill:rgb(78.823531%,0%,17.254902%);fill-opacity:1;" d="M 114.683594 1.976562 C 112.386719 1.980469 110.09375 2.089844 107.808594 2.308594 C 101.125 2.972656 94.496094 4.585938 88.394531 7.429688 C 85.660156 8.714844 83.03125 10.246094 80.640625 12.101562 C 82.816406 13.785156 84.8125 15.722656 86.421875 17.957031 C 88.195312 20.398438 89.488281 23.222656 89.984375 26.210938 C 90.796875 23.464844 92.6875 21.171875 94.898438 19.421875 C 97.332031 17.503906 100.160156 16.148438 103.089844 15.195312 C 106.566406 14.074219 110.214844 13.527344 113.859375 13.445312 C 118.558594 13.359375 123.300781 14.039062 127.714844 15.691406 C 130.535156 16.757812 133.238281 18.230469 135.484375 20.265625 C 137.273438 21.894531 138.769531 23.9375 139.429688 26.292969 C 140 28.257812 139.914062 30.390625 139.222656 32.308594 C 138.515625 34.292969 137.230469 36.03125 135.707031 37.46875 C 134.597656 38.511719 133.355469 39.414062 132.042969 40.1875 C 129.460938 41.710938 126.621094 42.761719 123.710938 43.460938 C 119.769531 44.398438 115.683594 44.671875 111.644531 44.378906 C 108.128906 44.113281 104.628906 43.394531 101.335938 42.117188 C 98.785156 41.121094 96.34375 39.789062 94.261719 37.996094 C 92.328125 36.335938 90.726562 34.214844 89.984375 31.757812 C 89.722656 33.289062 89.261719 34.789062 88.625 36.207031 C 86.890625 40.066406 83.964844 43.277344 80.636719 45.839844 C 84.839844 49.074219 89.699219 51.371094 94.730469 52.984375 C 100.75 54.902344 107.0625 55.839844 113.371094 55.960938 C 119.652344 56.074219 125.964844 55.386719 132.042969 53.757812 C 137.859375 52.183594 143.511719 49.761719 148.363281 46.140625 C 151.289062 43.9375 153.914062 41.269531 155.761719 38.085938 C 157.234375 35.558594 158.152344 32.695312 158.292969 29.765625 L 158.292969 28.167969 C 158.21875 26.910156 158.03125 25.660156 157.695312 24.449219 C 156.746094 20.941406 154.71875 17.808594 152.21875 15.203125 C 149.019531 11.882812 145.078125 9.34375 140.917969 7.394531 C 134.828125 4.570312 128.21875 2.964844 121.554688 2.308594 C 119.269531 2.085938 116.976562 1.976562 114.683594 1.976562 Z M 44.941406 1.980469 C 42.644531 1.980469 40.351562 2.089844 38.066406 2.308594 C 31.402344 2.96875 24.792969 4.570312 18.707031 7.398438 C 14.542969 9.347656 10.605469 11.882812 7.402344 15.207031 C 4.902344 17.808594 2.875 20.941406 1.925781 24.449219 C 1.59375 25.664062 1.402344 26.914062 1.328125 28.171875 L 1.328125 29.769531 C 1.472656 32.695312 2.386719 35.5625 3.863281 38.085938 C 5.707031 41.273438 8.335938 43.941406 11.261719 46.140625 C 16.109375 49.761719 21.765625 52.183594 27.582031 53.757812 C 33.65625 55.386719 39.96875 56.074219 46.253906 55.964844 C 52.5625 55.84375 58.871094 54.90625 64.890625 52.988281 C 69.921875 51.375 74.785156 49.078125 78.984375 45.839844 C 75.660156 43.28125 72.730469 40.070312 71 36.207031 C 70.363281 34.789062 69.902344 33.289062 69.636719 31.757812 C 68.894531 34.21875 67.292969 36.339844 65.359375 37.996094 C 63.28125 39.792969 60.835938 41.121094 58.289062 42.121094 C 54.992188 43.394531 51.496094 44.113281 47.976562 44.382812 C 43.941406 44.675781 39.851562 44.398438 35.910156 43.460938 C 33 42.765625 30.160156 41.714844 27.578125 40.1875 C 26.265625 39.414062 25.027344 38.515625 23.914062 37.46875 C 22.390625 36.035156 21.105469 34.296875 20.402344 32.3125 C 19.707031 30.390625 19.625 28.257812 20.191406 26.296875 C 20.855469 23.941406 22.347656 21.898438 24.140625 20.265625 C 26.382812 18.230469 29.085938 16.757812 31.910156 15.695312 C 36.320312 14.042969 41.0625 13.363281 45.761719 13.445312 C 49.410156 13.53125 53.054688 14.074219 56.53125 15.199219 C 59.464844 16.152344 62.292969 17.507812 64.722656 19.421875 C 66.9375 21.171875 68.828125 23.46875 69.636719 26.210938 C 70.136719 23.222656 71.425781 20.402344 73.199219 17.957031 C 74.8125 15.722656 76.808594 13.785156 78.980469 12.105469 C 76.59375 10.25 73.964844 8.71875 71.230469 7.429688 C 65.128906 4.585938 58.496094 2.972656 51.8125 2.3125 C 49.53125 2.089844 47.234375 1.980469 44.941406 1.980469 Z M 114.601562 59.84375 C 109.714844 59.847656 104.828125 60.351562 100.054688 61.398438 C 96.09375 62.273438 92.210938 63.527344 88.53125 65.238281 C 85.746094 66.535156 83.070312 68.085938 80.640625 69.96875 C 82.867188 71.699219 84.90625 73.695312 86.542969 76.003906 C 88.25 78.402344 89.492188 81.15625 89.988281 84.070312 C 90.804688 81.308594 92.71875 79 94.953125 77.25 C 97.847656 74.980469 101.289062 73.496094 104.820312 72.546875 C 110.257812 71.121094 116 70.929688 121.535156 71.882812 C 124.511719 72.40625 127.441406 73.28125 130.167969 74.601562 C 132.335938 75.660156 134.390625 77 136.101562 78.71875 C 137.769531 80.386719 139.097656 82.46875 139.589844 84.800781 C 140.0625 86.945312 139.746094 89.230469 138.796875 91.207031 C 137.597656 93.722656 135.546875 95.734375 133.269531 97.289062 C 130.636719 99.074219 127.65625 100.300781 124.59375 101.121094 C 120.597656 102.183594 116.429688 102.539062 112.304688 102.308594 C 108.914062 102.105469 105.539062 101.484375 102.328125 100.359375 C 99.554688 99.382812 96.882812 98.023438 94.601562 96.152344 C 92.539062 94.453125 90.789062 92.265625 90 89.679688 C 89.84375 90.253906 89.757812 90.84375 89.585938 91.414062 C 88.925781 93.800781 87.769531 96.03125 86.304688 98.023438 C 84.710938 100.191406 82.761719 102.078125 80.636719 103.714844 C 81.527344 104.402344 82.449219 105.046875 83.398438 105.648438 C 88.808594 109.082031 94.941406 111.253906 101.199219 112.527344 C 109.285156 114.132812 117.660156 114.261719 125.800781 112.960938 C 132.203125 111.914062 138.507812 109.949219 144.175781 106.746094 C 146.859375 105.21875 149.390625 103.40625 151.597656 101.242188 C 153.664062 99.214844 155.449219 96.863281 156.660156 94.21875 C 157.613281 92.144531 158.179688 89.894531 158.292969 87.613281 L 158.292969 86.015625 C 158.125 82.585938 156.882812 79.265625 154.957031 76.445312 C 153.367188 74.078125 151.347656 72.027344 149.125 70.261719 C 146.695312 68.332031 144.019531 66.734375 141.222656 65.40625 C 134.960938 62.445312 128.132812 60.792969 121.253906 60.144531 C 119.042969 59.941406 116.824219 59.839844 114.601562 59.84375 Z M 45.019531 59.84375 C 42.800781 59.84375 40.578125 59.945312 38.367188 60.148438 C 31.488281 60.796875 24.660156 62.449219 18.398438 65.40625 C 15.605469 66.734375 12.925781 68.335938 10.5 70.261719 C 8.277344 72.03125 6.253906 74.082031 4.664062 76.445312 C 2.738281 79.265625 1.5 82.589844 1.328125 86.015625 L 1.328125 87.613281 C 1.445312 89.894531 2.007812 92.148438 2.964844 94.21875 C 4.171875 96.863281 5.957031 99.21875 8.027344 101.246094 C 10.234375 103.410156 12.765625 105.222656 15.445312 106.746094 C 21.113281 109.953125 27.417969 111.914062 33.824219 112.964844 C 41.960938 114.265625 50.335938 114.136719 58.421875 112.527344 C 64.679688 111.257812 70.8125 109.082031 76.226562 105.652344 C 77.171875 105.046875 78.09375 104.402344 78.984375 103.71875 C 76.859375 102.078125 74.910156 100.191406 73.320312 98.023438 C 71.855469 96.035156 70.699219 93.800781 70.039062 91.414062 C 69.863281 90.847656 69.777344 90.253906 69.621094 89.683594 C 68.832031 92.269531 67.085938 94.453125 65.023438 96.152344 C 62.738281 98.027344 60.070312 99.382812 57.292969 100.363281 C 54.082031 101.488281 50.707031 102.109375 47.316406 102.308594 C 43.195312 102.539062 39.027344 102.1875 35.03125 101.121094 C 31.964844 100.304688 28.988281 99.074219 26.355469 97.289062 C 24.074219 95.738281 22.027344 93.722656 20.828125 91.207031 C 19.878906 89.234375 19.558594 86.949219 20.03125 84.800781 C 20.523438 82.46875 21.855469 80.390625 23.523438 78.722656 C 25.230469 77.003906 27.285156 75.660156 29.457031 74.605469 C 32.183594 73.285156 35.109375 72.40625 38.085938 71.882812 C 43.621094 70.933594 49.363281 71.125 54.800781 72.550781 C 58.335938 73.496094 61.773438 74.980469 64.667969 77.25 C 66.902344 79.003906 68.816406 81.3125 69.632812 84.074219 C 70.128906 81.160156 71.371094 78.402344 73.082031 76.003906 C 74.714844 73.699219 76.753906 71.699219 78.984375 69.972656 C 76.550781 68.085938 73.875 66.535156 71.089844 65.238281 C 67.410156 63.53125 63.527344 62.277344 59.570312 61.402344 C 54.792969 60.355469 49.90625 59.847656 45.019531 59.84375 Z M 45.019531 59.84375 "></path>
    <path style=" stroke:none;fill-rule:nonzero;fill:rgb(0%,0%,0%);fill-opacity:1;" d="M 203.898438 0.945312 C 203.453125 1.023438 203.050781 1.261719 202.753906 1.597656 C 201.328125 3.171875 199.902344 4.746094 198.480469 6.324219 C 199.117188 7.074219 199.757812 7.816406 200.402344 8.558594 C 201.992188 7.484375 203.585938 6.410156 205.175781 5.332031 C 205.570312 5.054688 206.019531 4.824219 206.308594 4.417969 C 206.667969 3.917969 206.699219 3.238281 206.511719 2.664062 C 206.203125 1.828125 205.476562 1.125 204.59375 0.945312 Z M 182.15625 1.972656 C 180.929688 1.96875 179.699219 2.089844 178.5 2.34375 C 176.902344 2.691406 175.355469 3.292969 173.992188 4.199219 C 172.511719 5.164062 171.257812 6.449219 170.246094 7.894531 C 168.308594 10.644531 167.464844 14.050781 167.46875 17.386719 C 167.4375 19.554688 167.757812 21.742188 168.535156 23.773438 C 169.652344 26.699219 171.78125 29.210938 174.441406 30.851562 C 177.128906 32.511719 180.347656 33.136719 183.472656 33.027344 C 186.082031 32.949219 188.636719 32.203125 190.96875 31.050781 C 190.484375 29.628906 190.027344 28.195312 189.535156 26.777344 C 187.675781 27.660156 185.632812 28.238281 183.5625 28.199219 C 181.796875 28.222656 180 27.875 178.433594 27.03125 C 177.109375 26.320312 175.980469 25.253906 175.175781 23.984375 C 174.285156 22.597656 173.777344 20.992188 173.550781 19.363281 C 173.347656 17.789062 173.332031 16.175781 173.59375 14.605469 C 173.875 12.914062 174.550781 11.28125 175.621094 9.9375 C 176.511719 8.746094 177.734375 7.792969 179.144531 7.304688 C 180.816406 6.707031 182.648438 6.722656 184.375 7.046875 C 185.992188 7.347656 187.554688 7.898438 189.058594 8.558594 C 189.664062 7.050781 190.277344 5.546875 190.882812 4.035156 C 189.578125 3.4375 188.222656 2.941406 186.835938 2.582031 C 185.308594 2.183594 183.730469 1.976562 182.15625 1.972656 Z M 258.871094 10.050781 C 257.777344 10.042969 256.679688 10.140625 255.597656 10.292969 C 253.707031 10.582031 251.863281 11.144531 250.125 11.9375 C 250.730469 13.296875 251.339844 14.65625 251.960938 16.007812 C 254.171875 15.023438 256.621094 14.511719 259.042969 14.699219 C 259.785156 14.785156 260.574219 14.914062 261.167969 15.402344 C 261.742188 15.855469 261.960938 16.785156 261.5 17.390625 C 261.183594 17.804688 260.71875 18.066406 260.253906 18.277344 C 259.246094 18.726562 258.152344 18.914062 257.085938 19.167969 C 256.113281 19.390625 255.148438 19.628906 254.1875 19.886719 C 252.867188 20.25 251.511719 20.644531 250.414062 21.5 C 249.269531 22.34375 248.460938 23.628906 248.226562 25.035156 C 248.003906 26.277344 248.074219 27.597656 248.582031 28.761719 C 249.039062 29.808594 249.851562 30.667969 250.796875 31.285156 C 252.269531 32.25 253.996094 32.75 255.726562 32.960938 C 257.652344 33.195312 259.605469 33.097656 261.515625 32.78125 C 263.5 32.460938 265.453125 31.964844 267.375 31.371094 C 267.191406 30.207031 267.019531 29.039062 267.070312 27.859375 L 267.070312 19.433594 C 267.058594 18.453125 267.101562 17.46875 267.035156 16.488281 C 266.953125 15.078125 266.503906 13.652344 265.582031 12.5625 C 264.539062 11.308594 262.984375 10.589844 261.410156 10.285156 C 260.570312 10.128906 259.722656 10.054688 258.871094 10.050781 Z M 293.539062 10.050781 C 292.457031 10.042969 291.375 10.136719 290.308594 10.289062 C 288.40625 10.570312 286.546875 11.132812 284.800781 11.9375 C 285.398438 13.296875 285.992188 14.660156 286.621094 16.007812 C 288.828125 15.023438 291.273438 14.515625 293.691406 14.695312 C 294.472656 14.78125 295.3125 14.925781 295.917969 15.472656 C 296.429688 15.949219 296.605469 16.839844 296.148438 17.414062 C 295.785156 17.871094 295.25 18.136719 294.722656 18.359375 C 293.648438 18.796875 292.5 18.984375 291.378906 19.257812 C 289.84375 19.628906 288.296875 19.980469 286.8125 20.535156 C 285.511719 21.0625 284.304688 21.9375 283.585938 23.167969 C 282.800781 24.496094 282.640625 26.121094 282.902344 27.621094 C 283.160156 29.097656 284.113281 30.378906 285.339844 31.210938 C 286.824219 32.21875 288.589844 32.730469 290.359375 32.953125 C 292.4375 33.21875 294.550781 33.078125 296.609375 32.710938 C 298.449219 32.382812 300.265625 31.921875 302.054688 31.371094 C 301.953125 30.800781 301.875 30.226562 301.816406 29.648438 C 301.699219 28.757812 301.757812 27.859375 301.742188 26.964844 C 301.742188 23.605469 301.746094 20.25 301.742188 16.894531 C 301.699219 15.355469 301.273438 13.777344 300.269531 12.585938 C 299.222656 11.304688 297.640625 10.582031 296.042969 10.277344 C 295.214844 10.125 294.375 10.054688 293.539062 10.050781 Z M 280.753906 10.050781 C 279.101562 10.039062 277.4375 10.269531 275.835938 10.664062 C 273.996094 11.109375 272.203125 11.742188 270.453125 12.46875 C 270.65625 13.691406 270.871094 14.917969 270.878906 16.160156 C 270.878906 21.640625 270.878906 27.125 270.878906 32.605469 C 272.644531 32.605469 274.410156 32.605469 276.179688 32.605469 C 276.175781 27.777344 276.175781 22.953125 276.175781 18.125 C 276.15625 17.167969 276.226562 16.207031 276.132812 15.253906 C 278.335938 14.5625 280.757812 14.417969 282.980469 15.109375 C 283.511719 13.589844 284.042969 12.070312 284.574219 10.554688 C 283.328125 10.214844 282.042969 10.058594 280.753906 10.050781 Z M 238.511719 10.050781 C 237.75 10.042969 236.984375 10.105469 236.234375 10.21875 C 234.40625 10.507812 232.644531 11.164062 231.03125 12.078125 C 229.882812 10.925781 228.269531 10.40625 226.691406 10.195312 C 224.363281 9.875 221.988281 10.117188 219.707031 10.644531 C 217.949219 11.054688 216.210938 11.589844 214.53125 12.261719 C 214.648438 12.957031 214.699219 13.664062 214.769531 14.367188 C 214.820312 15.484375 214.78125 16.601562 214.792969 17.714844 L 214.792969 32.605469 C 216.5625 32.605469 218.332031 32.605469 220.101562 32.605469 L 220.101562 18.613281 C 220.089844 17.609375 220.140625 16.605469 220.054688 15.609375 C 221.570312 14.949219 223.25 14.542969 224.902344 14.800781 C 225.757812 14.929688 226.59375 15.367188 227.070312 16.109375 C 227.613281 16.941406 227.730469 17.96875 227.699219 18.941406 C 227.699219 23.496094 227.699219 28.050781 227.699219 32.605469 C 229.46875 32.605469 231.238281 32.605469 233.007812 32.605469 L 233.007812 18.53125 C 233.019531 17.621094 232.984375 16.707031 232.851562 15.804688 C 234.382812 15.019531 236.148438 14.496094 237.875 14.820312 C 238.621094 14.964844 239.351562 15.324219 239.816406 15.941406 C 240.378906 16.675781 240.5625 17.625 240.585938 18.53125 C 240.585938 23.222656 240.585938 27.914062 240.585938 32.605469 C 242.351562 32.605469 244.117188 32.605469 245.886719 32.605469 L 245.886719 17.796875 C 245.925781 16.292969 245.675781 14.742188 244.945312 13.414062 C 244.1875 12.046875 242.894531 10.980469 241.40625 10.5 C 240.46875 10.195312 239.492188 10.0625 238.511719 10.050781 Z M 202.753906 10.054688 C 199.8125 10.066406 196.878906 10.707031 194.203125 11.9375 C 194.804688 13.292969 195.421875 14.648438 196.023438 16.003906 C 197.4375 15.386719 198.9375 14.949219 200.46875 14.761719 C 201.609375 14.632812 202.777344 14.59375 203.90625 14.816406 C 204.546875 14.953125 205.222656 15.207031 205.59375 15.777344 C 205.878906 16.253906 205.949219 16.917969 205.601562 17.375 C 205.289062 17.792969 204.828125 18.058594 204.363281 18.269531 C 203.597656 18.605469 202.785156 18.8125 201.96875 18.984375 C 200.570312 19.304688 199.171875 19.632812 197.789062 20.023438 C 196.9375 20.277344 196.074219 20.519531 195.300781 20.976562 C 194.085938 21.652344 193.054688 22.722656 192.582031 24.046875 C 192.148438 25.25 192.078125 26.578125 192.351562 27.820312 C 192.632812 29.078125 193.410156 30.1875 194.425781 30.960938 C 195.496094 31.796875 196.785156 32.3125 198.09375 32.648438 C 200.476562 33.226562 202.96875 33.191406 205.378906 32.816406 C 207.445312 32.496094 209.476562 31.980469 211.472656 31.371094 C 211.222656 30.023438 211.09375 28.65625 211.140625 27.285156 L 211.140625 18.699219 C 211.132812 17.542969 211.210938 16.375 210.941406 15.238281 C 210.695312 14.125 210.179688 13.046875 209.359375 12.238281 C 208.460938 11.296875 207.246094 10.710938 205.996094 10.398438 C 204.9375 10.136719 203.84375 10.042969 202.753906 10.054688 Z M 296.425781 21.796875 C 296.402344 23.109375 296.421875 24.421875 296.417969 25.734375 C 296.433594 26.5 296.363281 27.269531 296.496094 28.03125 C 295.550781 28.332031 294.570312 28.523438 293.578125 28.601562 C 292.503906 28.652344 291.394531 28.660156 290.363281 28.3125 C 289.726562 28.09375 289.113281 27.683594 288.835938 27.050781 C 288.5625 26.410156 288.503906 25.632812 288.863281 25.015625 C 289.191406 24.472656 289.738281 24.089844 290.3125 23.84375 C 291.0625 23.570312 291.84375 23.386719 292.617188 23.191406 C 293.636719 22.929688 294.691406 22.761719 295.65625 22.320312 C 295.933594 22.179688 296.230469 22.050781 296.425781 21.796875 Z M 205.839844 21.824219 C 205.820312 23.101562 205.835938 24.375 205.832031 25.652344 C 205.839844 26.445312 205.789062 27.242188 205.914062 28.027344 C 204.6875 28.417969 203.398438 28.636719 202.109375 28.625 C 201.304688 28.628906 200.484375 28.5625 199.722656 28.285156 C 199.289062 28.132812 198.882812 27.882812 198.578125 27.53125 C 198.140625 27.023438 197.996094 26.3125 198.078125 25.660156 C 198.152344 25.039062 198.582031 24.519531 199.09375 24.191406 C 199.734375 23.75 200.507812 23.597656 201.246094 23.390625 C 202.261719 23.109375 203.304688 22.921875 204.3125 22.609375 C 204.851562 22.421875 205.421875 22.234375 205.839844 21.824219 Z M 261.746094 21.847656 C 261.738281 23.167969 261.746094 24.492188 261.742188 25.816406 C 261.75 26.554688 261.703125 27.296875 261.832031 28.03125 C 260.871094 28.335938 259.871094 28.527344 258.867188 28.601562 C 257.753906 28.652344 256.601562 28.65625 255.546875 28.253906 C 254.910156 28.019531 254.335938 27.539062 254.109375 26.886719 C 253.917969 26.316406 253.875 25.65625 254.15625 25.105469 C 254.472656 24.476562 255.097656 24.070312 255.734375 23.8125 C 256.746094 23.464844 257.792969 23.230469 258.832031 22.976562 C 259.839844 22.726562 260.925781 22.527344 261.746094 21.847656 Z M 360.605469 40.183594 C 360.328125 40.179688 360.054688 40.207031 359.789062 40.261719 C 358.582031 40.507812 357.617188 41.574219 357.429688 42.785156 C 357.308594 43.574219 357.445312 44.425781 357.902344 45.09375 C 358.355469 45.738281 359.046875 46.222656 359.828125 46.363281 C 360.511719 46.488281 361.238281 46.449219 361.894531 46.203125 C 362.644531 45.902344 363.308594 45.332031 363.617188 44.570312 C 363.867188 43.984375 363.875 43.324219 363.796875 42.703125 C 363.632812 41.84375 363.054688 41.117188 362.332031 40.652344 C 361.816406 40.328125 361.210938 40.183594 360.605469 40.183594 Z M 182.253906 40.539062 L 182.253906 51.542969 C 181.070312 50.914062 179.761719 50.527344 178.429688 50.398438 C 176.671875 50.253906 174.855469 50.425781 173.226562 51.128906 C 171.816406 51.722656 170.585938 52.714844 169.65625 53.929688 C 168.65625 55.199219 167.96875 56.703125 167.605469 58.273438 C 167.199219 60.046875 167.144531 61.898438 167.40625 63.699219 C 167.660156 65.375 168.265625 67.003906 169.230469 68.394531 C 170.667969 70.464844 172.789062 72.070312 175.203125 72.808594 C 176.613281 73.25 178.101562 73.40625 179.574219 73.394531 C 182.402344 73.332031 185.207031 72.742188 187.847656 71.742188 C 187.722656 70.863281 187.625 69.980469 187.566406 69.09375 C 187.5625 59.578125 187.566406 50.058594 187.5625 40.539062 Z M 235.234375 42.296875 C 234.808594 42.296875 234.378906 42.3125 233.949219 42.34375 C 232.289062 42.445312 230.632812 42.789062 229.09375 43.429688 C 227.644531 44.03125 226.3125 44.90625 225.179688 45.992188 C 222.929688 48.136719 221.425781 51.027344 220.859375 54.082031 C 220.429688 56.359375 220.394531 58.714844 220.761719 61.003906 C 221.015625 62.554688 221.496094 64.074219 222.21875 65.46875 C 223.613281 68.144531 225.847656 70.382812 228.542969 71.738281 C 230.132812 72.53125 231.871094 73.007812 233.632812 73.207031 C 235.453125 73.421875 237.304688 73.386719 239.105469 73.035156 C 240.8125 72.707031 242.460938 72.125 244.015625 71.355469 C 243.535156 69.9375 243.089844 68.511719 242.597656 67.097656 C 241.132812 67.785156 239.566406 68.28125 237.949219 68.445312 C 236.195312 68.628906 234.390625 68.46875 232.722656 67.886719 C 231.136719 67.328125 229.710938 66.308594 228.695312 64.964844 C 227.714844 63.683594 227.09375 62.160156 226.773438 60.585938 C 226.441406 58.90625 226.382812 57.171875 226.578125 55.472656 C 226.796875 53.65625 227.433594 51.871094 228.546875 50.40625 C 229.296875 49.367188 230.28125 48.480469 231.441406 47.925781 C 233.074219 47.125 234.957031 47.003906 236.734375 47.238281 C 238.601562 47.488281 240.398438 48.105469 242.117188 48.863281 C 242.722656 47.351562 243.320312 45.832031 243.933594 44.324219 C 241.210938 43.082031 238.234375 42.296875 235.234375 42.296875 Z M 291.691406 50.347656 C 289.144531 50.351562 286.632812 51.136719 284.414062 52.375 C 283.191406 51.105469 281.398438 50.617188 279.695312 50.441406 C 277.65625 50.226562 275.589844 50.40625 273.59375 50.84375 C 271.664062 51.257812 269.78125 51.863281 267.941406 52.574219 C 268.082031 53.601562 268.238281 54.636719 268.214844 55.675781 C 268.214844 61.421875 268.210938 67.164062 268.214844 72.90625 C 269.992188 72.910156 271.769531 72.910156 273.542969 72.90625 C 273.550781 68.171875 273.546875 63.4375 273.546875 58.703125 C 273.535156 57.78125 273.589844 56.855469 273.445312 55.941406 C 275.078125 55.214844 276.941406 54.761719 278.714844 55.191406 C 279.390625 55.367188 280.03125 55.753906 280.425781 56.339844 C 280.960938 57.121094 281.105469 58.097656 281.101562 59.023438 C 281.101562 63.652344 281.097656 68.28125 281.101562 72.90625 C 282.878906 72.910156 284.652344 72.914062 286.429688 72.90625 C 286.429688 68.171875 286.425781 63.4375 286.429688 58.703125 C 286.394531 57.839844 286.417969 56.96875 286.253906 56.113281 C 287.816406 55.339844 289.601562 54.769531 291.351562 55.140625 C 292.121094 55.292969 292.863281 55.703125 293.308594 56.363281 C 293.808594 57.09375 293.960938 57.996094 293.996094 58.863281 C 293.996094 63.546875 293.996094 68.230469 293.996094 72.910156 C 295.773438 72.90625 297.554688 72.914062 299.332031 72.90625 C 299.335938 68.144531 299.332031 63.382812 299.335938 58.617188 C 299.339844 57.578125 299.304688 56.523438 299.050781 55.511719 C 298.703125 54.070312 297.90625 52.707031 296.714844 51.808594 C 295.4375 50.816406 293.796875 50.398438 292.203125 50.359375 C 292.03125 50.351562 291.863281 50.347656 291.691406 50.347656 Z M 311.585938 50.351562 C 310.503906 50.355469 309.425781 50.488281 308.390625 50.796875 C 306.882812 51.25 305.496094 52.113281 304.429688 53.277344 C 303.414062 54.363281 302.648438 55.671875 302.175781 57.078125 C 301.539062 58.90625 301.375 60.863281 301.453125 62.785156 C 301.535156 64.246094 301.816406 65.707031 302.394531 67.054688 C 303.117188 68.75 304.300781 70.257812 305.796875 71.339844 C 306.917969 72.164062 308.21875 72.734375 309.574219 73.050781 C 311.347656 73.460938 313.195312 73.46875 314.996094 73.242188 C 316.828125 73.003906 318.617188 72.484375 320.308594 71.753906 C 319.761719 70.375 319.191406 69.003906 318.625 67.636719 C 316.898438 68.417969 314.996094 68.785156 313.105469 68.777344 C 311.570312 68.800781 309.902344 68.496094 308.738281 67.417969 C 307.730469 66.507812 307.289062 65.144531 307.136719 63.828125 C 311.871094 63.828125 316.605469 63.832031 321.34375 63.828125 C 321.445312 63.1875 321.515625 62.546875 321.589844 61.90625 C 321.734375 60.675781 321.636719 59.425781 321.421875 58.207031 C 321.042969 56.101562 320.019531 54.082031 318.40625 52.664062 C 317.058594 51.441406 315.308594 50.722656 313.519531 50.472656 C 312.878906 50.394531 312.234375 50.347656 311.585938 50.351562 Z M 334.1875 50.351562 C 332.523438 50.339844 330.851562 50.570312 329.238281 50.980469 C 327.425781 51.433594 325.652344 52.050781 323.933594 52.789062 C 324.050781 53.796875 324.265625 54.816406 324.3125 55.839844 C 324.3125 61.527344 324.308594 67.21875 324.3125 72.910156 C 326.085938 72.910156 327.863281 72.914062 329.636719 72.90625 C 329.640625 68.007812 329.636719 63.109375 329.636719 58.210938 C 329.617188 57.316406 329.6875 56.414062 329.59375 55.523438 C 331.804688 54.90625 334.214844 54.726562 336.429688 55.414062 C 336.960938 53.890625 337.511719 52.375 338.035156 50.847656 C 336.777344 50.515625 335.484375 50.359375 334.1875 50.351562 Z M 200.152344 50.351562 C 199.726562 50.351562 199.300781 50.375 198.878906 50.414062 C 197.550781 50.546875 196.238281 50.917969 195.078125 51.582031 C 194.0625 52.15625 193.175781 52.945312 192.453125 53.859375 C 190.953125 55.707031 190.203125 58.070312 190.019531 60.421875 C 189.816406 62.898438 190.078125 65.488281 191.222656 67.726562 C 192.320312 69.859375 194.179688 71.597656 196.398438 72.511719 C 198.5 73.378906 200.832031 73.527344 203.070312 73.292969 C 205.050781 73.089844 206.988281 72.539062 208.816406 71.757812 C 208.28125 70.371094 207.691406 69.007812 207.128906 67.636719 C 205.128906 68.550781 202.894531 68.886719 200.707031 68.753906 C 199.332031 68.644531 197.90625 68.1875 196.96875 67.128906 C 196.148438 66.226562 195.800781 65.011719 195.644531 63.828125 C 200.382812 63.832031 205.121094 63.824219 209.863281 63.832031 C 210.0625 62.441406 210.285156 61.027344 210.132812 59.617188 C 210.03125 58.339844 209.753906 57.066406 209.242188 55.886719 C 208.488281 54.113281 207.160156 52.578125 205.480469 51.628906 C 203.867188 50.695312 202 50.34375 200.152344 50.351562 Z M 377.238281 50.351562 C 376.75 50.347656 376.261719 50.371094 375.777344 50.410156 C 374.019531 50.570312 372.285156 51.128906 370.824219 52.128906 C 368.796875 53.535156 367.261719 55.644531 366.582031 58.019531 C 366.054688 59.851562 365.960938 61.789062 366.167969 63.679688 C 366.347656 65.226562 366.796875 66.761719 367.582031 68.113281 C 368.222656 69.226562 369.070312 70.21875 370.054688 71.039062 C 371.378906 72.140625 373 72.871094 374.695312 73.175781 C 376.335938 73.472656 378.027344 73.464844 379.664062 73.15625 C 381.140625 72.875 382.5625 72.285156 383.773438 71.390625 C 385.898438 69.816406 387.386719 67.421875 387.898438 64.828125 C 388.050781 64.085938 388.140625 63.335938 388.175781 62.578125 L 388.175781 61.203125 C 388.105469 59.445312 387.722656 57.683594 386.921875 56.113281 C 385.78125 53.890625 383.867188 52.035156 381.527344 51.128906 C 380.164062 50.585938 378.699219 50.359375 377.238281 50.351562 Z M 254.769531 50.351562 C 254.300781 50.351562 253.828125 50.375 253.363281 50.417969 C 252.386719 50.515625 251.425781 50.726562 250.511719 51.078125 C 248.070312 51.992188 246.078125 53.9375 244.914062 56.253906 C 244.023438 58.050781 243.671875 60.074219 243.699219 62.070312 C 243.722656 63.886719 244.050781 65.722656 244.839844 67.371094 C 246.011719 69.816406 248.132812 71.824219 250.695312 72.730469 C 252.628906 73.417969 254.734375 73.53125 256.757812 73.25 C 258.582031 72.996094 260.355469 72.273438 261.785156 71.101562 C 262.878906 70.199219 263.792969 69.082031 264.464844 67.832031 C 265.328125 66.210938 265.757812 64.375 265.8125 62.546875 C 265.90625 60.609375 265.652344 58.628906 264.894531 56.832031 C 263.785156 54.214844 261.625 52.003906 258.933594 51.039062 C 257.601562 50.546875 256.183594 50.347656 254.769531 50.351562 Z M 347.824219 50.351562 C 346.4375 50.34375 345.054688 50.503906 343.734375 50.929688 C 340.949219 51.800781 338.5625 53.882812 337.324219 56.527344 C 336.578125 58.125 336.246094 59.894531 336.234375 61.652344 C 336.191406 63.691406 336.585938 65.773438 337.578125 67.570312 C 338.933594 70.011719 341.273438 71.867188 343.914062 72.742188 C 345.820312 73.363281 347.867188 73.515625 349.855469 73.300781 C 351.644531 73.097656 353.390625 72.585938 355.035156 71.855469 C 354.523438 70.453125 353.996094 69.0625 353.476562 67.667969 C 351.4375 68.40625 349.242188 69.078125 347.058594 68.644531 C 345.582031 68.371094 344.25 67.5 343.355469 66.300781 C 342.261719 64.902344 341.8125 63.078125 341.914062 61.324219 C 341.953125 59.570312 342.644531 57.816406 343.914062 56.589844 C 344.921875 55.53125 346.390625 55 347.832031 54.984375 C 349.761719 54.945312 351.644531 55.519531 353.425781 56.21875 C 353.960938 54.789062 354.507812 53.359375 355.035156 51.925781 C 353.1875 51.113281 351.214844 50.578125 349.203125 50.410156 C 348.746094 50.375 348.285156 50.355469 347.824219 50.351562 Z M 358.003906 50.847656 C 358.003906 58.203125 358.003906 65.554688 358.003906 72.90625 C 359.78125 72.914062 361.554688 72.910156 363.332031 72.910156 C 363.335938 65.554688 363.332031 58.203125 363.332031 50.851562 C 361.554688 50.847656 359.78125 50.847656 358.003906 50.847656 Z M 311.597656 54.761719 C 311.664062 54.761719 311.734375 54.761719 311.800781 54.765625 C 313.152344 54.75 314.554688 55.359375 315.296875 56.523438 C 315.898438 57.449219 316.164062 58.558594 316.1875 59.65625 C 313.171875 59.65625 310.15625 59.65625 307.140625 59.65625 C 307.207031 58.246094 307.742188 56.824219 308.789062 55.851562 C 309.527344 55.121094 310.570312 54.773438 311.597656 54.761719 Z M 200.457031 54.761719 C 201.605469 54.789062 202.765625 55.246094 203.523438 56.128906 C 204.324219 57.113281 204.675781 58.398438 204.691406 59.65625 C 201.675781 59.65625 198.660156 59.65625 195.644531 59.65625 C 195.71875 58.378906 196.152344 57.105469 197.019531 56.144531 C 197.796875 55.210938 199.023438 54.734375 200.226562 54.761719 C 200.300781 54.761719 200.378906 54.761719 200.457031 54.761719 Z M 178.679688 54.976562 C 179.9375 54.972656 181.234375 55.25 182.253906 56.015625 C 182.253906 59.773438 182.257812 63.53125 182.253906 67.289062 C 182.230469 67.664062 182.289062 68.03125 182.335938 68.398438 C 181.382812 68.679688 180.386719 68.789062 179.394531 68.777344 C 178.136719 68.800781 176.835938 68.523438 175.792969 67.796875 C 174.609375 66.96875 173.808594 65.667969 173.46875 64.277344 C 173.089844 62.738281 173.09375 61.117188 173.386719 59.566406 C 173.664062 58.15625 174.316406 56.734375 175.515625 55.878906 C 176.355469 55.269531 177.402344 55.007812 178.425781 54.984375 C 178.511719 54.980469 178.59375 54.976562 178.679688 54.976562 Z M 254.757812 54.976562 C 255.621094 54.976562 256.488281 55.15625 257.230469 55.605469 C 258.464844 56.347656 259.203125 57.695312 259.585938 59.050781 C 260.023438 60.683594 260.046875 62.414062 259.757812 64.074219 C 259.5 65.464844 258.890625 66.847656 257.808594 67.789062 C 257.125 68.378906 256.246094 68.71875 255.355469 68.792969 C 254.316406 68.890625 253.226562 68.75 252.316406 68.210938 C 251.25 67.585938 250.539062 66.488281 250.125 65.34375 C 249.6875 64.132812 249.566406 62.832031 249.597656 61.554688 C 249.644531 59.847656 250.015625 58.074219 251.070312 56.695312 C 251.746094 55.789062 252.789062 55.195312 253.902344 55.039062 C 254.183594 55 254.46875 54.980469 254.757812 54.976562 Z M 377.101562 54.976562 C 377.929688 54.976562 378.761719 55.136719 379.488281 55.542969 C 380.445312 56.070312 381.109375 56.996094 381.558594 57.972656 C 382.085938 59.148438 382.277344 60.449219 382.296875 61.730469 C 382.308594 63.203125 382.132812 64.722656 381.472656 66.058594 C 381.074219 66.820312 380.5625 67.550781 379.84375 68.039062 C 379.191406 68.5 378.402344 68.742188 377.613281 68.804688 C 376.589844 68.882812 375.515625 68.730469 374.628906 68.1875 C 373.597656 67.566406 372.910156 66.503906 372.492188 65.402344 C 372.023438 64.128906 371.917969 62.757812 371.957031 61.414062 C 372.011719 59.714844 372.414062 57.949219 373.5 56.601562 C 374.179688 55.742188 375.195312 55.179688 376.28125 55.03125 C 376.550781 55 376.828125 54.980469 377.101562 54.976562 Z M 182.253906 80.875 L 182.253906 91.859375 C 180.761719 91.050781 179.054688 90.652344 177.355469 90.691406 C 175.386719 90.644531 173.371094 91.140625 171.738281 92.265625 C 170.457031 93.152344 169.425781 94.375 168.679688 95.742188 C 167.5 97.894531 167.125 100.414062 167.28125 102.84375 C 167.378906 104.371094 167.730469 105.886719 168.398438 107.269531 C 169.746094 110.070312 172.3125 112.25 175.285156 113.144531 C 177.539062 113.835938 179.945312 113.804688 182.265625 113.492188 C 184.171875 113.226562 186.039062 112.722656 187.84375 112.058594 C 187.664062 110.75 187.515625 109.4375 187.5625 108.113281 L 187.5625 80.875 Z M 229.675781 82.554688 C 227.058594 82.558594 224.4375 82.941406 221.871094 83.429688 C 221.871094 93.261719 221.871094 103.089844 221.871094 112.917969 C 225.40625 113.609375 229.039062 113.914062 232.632812 113.546875 C 234.386719 113.359375 236.144531 113 237.746094 112.238281 C 239.105469 111.601562 240.335938 110.613281 241.109375 109.308594 C 242.027344 107.78125 242.289062 105.9375 242.179688 104.179688 C 242.050781 102.488281 241.378906 100.8125 240.183594 99.597656 C 239.214844 98.589844 237.929688 97.941406 236.582031 97.617188 C 236.851562 97.457031 237.144531 97.34375 237.417969 97.179688 C 238.910156 96.339844 240.117188 94.976562 240.710938 93.359375 C 241.257812 91.910156 241.191406 90.308594 240.878906 88.816406 C 240.554688 87.339844 239.765625 85.953125 238.59375 84.988281 C 237.085938 83.726562 235.148438 83.121094 233.238281 82.816406 C 232.054688 82.632812 230.867188 82.554688 229.675781 82.554688 Z M 319.019531 85.128906 C 317.25 85.128906 315.480469 85.128906 313.707031 85.128906 C 313.714844 87.160156 313.703125 89.191406 313.714844 91.226562 C 312.878906 91.304688 312.039062 91.332031 311.203125 91.382812 C 311.199219 92.78125 311.199219 94.183594 311.203125 95.585938 C 312.035156 95.648438 312.875 95.671875 313.710938 95.742188 C 313.707031 99.292969 313.710938 102.84375 313.710938 106.398438 C 313.722656 107.464844 313.644531 108.542969 313.863281 109.597656 C 314.097656 110.90625 314.804688 112.160156 315.933594 112.898438 C 317.453125 113.898438 319.347656 114.066406 321.121094 113.996094 C 322.9375 113.851562 324.707031 113.355469 326.417969 112.753906 C 325.921875 111.328125 325.445312 109.894531 324.957031 108.464844 C 324.039062 108.769531 323.113281 109.050781 322.164062 109.222656 C 321.472656 109.335938 320.742188 109.425781 320.066406 109.1875 C 319.683594 109.054688 319.347656 108.777344 319.191406 108.398438 C 319 107.949219 319.015625 107.449219 319.019531 106.972656 C 319.019531 103.234375 319.019531 99.5 319.019531 95.765625 C 321.074219 95.761719 323.132812 95.765625 325.1875 95.765625 L 325.1875 91.15625 C 323.132812 91.148438 321.074219 91.15625 319.019531 91.152344 Z M 229.785156 87.339844 C 230.929688 87.386719 232.097656 87.40625 233.199219 87.769531 C 233.945312 87.984375 234.585938 88.519531 234.960938 89.199219 C 235.335938 89.875 235.449219 90.664062 235.429688 91.429688 C 235.402344 92.234375 235.191406 93.066406 234.679688 93.707031 C 234.101562 94.4375 233.21875 94.855469 232.328125 95.058594 C 230.703125 95.4375 229.023438 95.257812 227.375 95.300781 C 227.371094 92.726562 227.371094 90.152344 227.371094 87.582031 C 228.171875 87.4375 228.976562 87.378906 229.785156 87.339844 Z M 200.253906 90.683594 C 198.800781 90.671875 197.34375 90.878906 196.003906 91.449219 C 194.140625 92.210938 192.625 93.679688 191.613281 95.402344 C 190.582031 97.144531 190.097656 99.167969 189.992188 101.175781 C 189.859375 103.394531 190.109375 105.6875 191.070312 107.714844 C 192.273438 110.292969 194.59375 112.328125 197.316406 113.152344 C 199.316406 113.773438 201.453125 113.8125 203.515625 113.554688 C 205.34375 113.3125 207.125 112.785156 208.816406 112.0625 C 208.285156 110.679688 207.6875 109.320312 207.136719 107.945312 C 205.632812 108.617188 204 108.996094 202.351562 109.0625 C 201.5625 109.132812 200.765625 109.082031 199.984375 108.964844 C 198.992188 108.796875 198.011719 108.421875 197.265625 107.730469 C 196.246094 106.824219 195.804688 105.457031 195.652344 104.136719 C 200.390625 104.140625 205.132812 104.136719 209.875 104.136719 C 209.941406 103.660156 209.996094 103.179688 210.054688 102.703125 C 210.328125 100.792969 210.144531 98.820312 209.546875 96.988281 C 208.976562 95.289062 207.9375 93.738281 206.519531 92.640625 C 205.144531 91.550781 203.433594 90.941406 201.699219 90.757812 C 201.222656 90.714844 200.738281 90.683594 200.253906 90.683594 Z M 299.28125 90.683594 C 298.785156 90.683594 298.289062 90.710938 297.800781 90.753906 C 295.738281 90.953125 293.710938 91.722656 292.132812 93.082031 C 290.820312 94.210938 289.769531 95.648438 289.121094 97.257812 C 288.488281 98.804688 288.242188 100.484375 288.222656 102.148438 C 288.230469 103.960938 288.515625 105.796875 289.265625 107.457031 C 290.503906 110.21875 292.949219 112.449219 295.882812 113.253906 C 297.734375 113.769531 299.703125 113.828125 301.59375 113.515625 C 303.089844 113.261719 304.535156 112.699219 305.777344 111.820312 C 307.140625 110.851562 308.261719 109.542969 309.035156 108.058594 C 309.808594 106.585938 310.210938 104.941406 310.324219 103.289062 C 310.460938 101.199219 310.230469 99.050781 309.40625 97.109375 C 308.332031 94.558594 306.253906 92.390625 303.644531 91.414062 C 302.253906 90.878906 300.765625 90.675781 299.28125 90.683594 Z M 254.351562 90.683594 C 253.882812 90.6875 253.414062 90.710938 252.949219 90.75 C 251.816406 90.863281 250.691406 91.136719 249.648438 91.589844 C 246.992188 92.738281 244.964844 95.125 244.035156 97.84375 C 243.382812 99.773438 243.242188 101.855469 243.453125 103.875 C 243.632812 105.617188 244.167969 107.335938 245.109375 108.816406 C 246.441406 110.933594 248.542969 112.570312 250.957031 113.242188 C 252.921875 113.792969 255.011719 113.835938 257.011719 113.460938 C 258.597656 113.148438 260.125 112.472656 261.382812 111.449219 C 262.550781 110.507812 263.515625 109.316406 264.203125 107.984375 C 264.9375 106.558594 265.324219 104.972656 265.445312 103.378906 C 265.578125 101.367188 265.398438 99.300781 264.65625 97.410156 C 263.582031 94.640625 261.328125 92.285156 258.496094 91.316406 C 257.167969 90.84375 255.757812 90.671875 254.351562 90.683594 Z M 276.402344 90.683594 C 274.992188 90.699219 273.582031 90.960938 272.285156 91.53125 C 270.859375 92.167969 269.574219 93.164062 268.699219 94.472656 C 267.816406 95.78125 267.414062 97.382812 267.449219 98.957031 C 267.417969 100.507812 267.796875 102.089844 268.65625 103.390625 C 269.402344 104.53125 270.488281 105.414062 271.675781 106.070312 C 271.226562 106.460938 270.800781 106.902344 270.527344 107.4375 C 270.171875 108.085938 270.066406 108.863281 270.222656 109.585938 C 270.34375 110.226562 270.65625 110.808594 271.027344 111.339844 C 269.546875 111.78125 268.066406 112.496094 267.097656 113.738281 C 266.09375 115 265.855469 116.71875 266.128906 118.273438 C 266.339844 119.414062 266.976562 120.445312 267.855469 121.195312 C 268.996094 122.183594 270.429688 122.761719 271.875 123.144531 C 272.980469 123.429688 274.117188 123.597656 275.253906 123.664062 L 278.191406 123.664062 C 280.023438 123.542969 281.855469 123.183594 283.535156 122.429688 C 284.746094 121.878906 285.890625 121.105469 286.667969 120.007812 C 287.617188 118.691406 287.871094 116.976562 287.605469 115.398438 C 287.414062 114.195312 286.757812 113.070312 285.789062 112.328125 C 284.726562 111.484375 283.402344 111.070312 282.09375 110.78125 C 281.03125 110.535156 279.957031 110.351562 278.882812 110.175781 C 277.824219 110.007812 276.746094 109.871094 275.753906 109.453125 C 275.394531 109.289062 275.007812 109.09375 274.832031 108.71875 C 274.679688 108.410156 274.832031 108.035156 275.089844 107.835938 C 275.433594 107.5625 275.851562 107.371094 276.289062 107.316406 C 277.261719 107.222656 278.234375 107.148438 279.199219 107.015625 C 280.695312 106.675781 282.128906 106.003906 283.285156 104.992188 C 284.214844 104.199219 284.957031 103.1875 285.394531 102.042969 C 285.8125 100.960938 285.976562 99.789062 285.929688 98.632812 C 285.863281 97.28125 285.285156 96.027344 284.65625 94.855469 C 285.632812 95.171875 286.667969 95.328125 287.695312 95.238281 C 287.695312 93.878906 287.695312 92.515625 287.695312 91.15625 C 285.359375 91.152344 283.019531 91.152344 280.683594 91.152344 C 279.679688 91.199219 278.71875 90.835938 277.726562 90.742188 C 277.378906 90.707031 277.03125 90.691406 276.6875 90.683594 C 276.589844 90.683594 276.496094 90.683594 276.402344 90.683594 Z M 337.351562 90.6875 C 336.921875 90.6875 336.492188 90.695312 336.0625 90.703125 C 333.449219 90.835938 330.851562 91.457031 328.484375 92.578125 C 329.09375 93.921875 329.691406 95.269531 330.304688 96.613281 C 332.542969 95.660156 334.996094 95.136719 337.433594 95.339844 C 338.152344 95.414062 338.90625 95.550781 339.496094 96 C 339.988281 96.367188 340.21875 97.046875 340.050781 97.636719 C 339.910156 98.074219 339.53125 98.382812 339.152344 98.617188 C 338.410156 99.042969 337.582031 99.289062 336.753906 99.492188 C 334.957031 99.894531 333.15625 100.292969 331.398438 100.839844 C 330.148438 101.210938 328.945312 101.824219 328.039062 102.777344 C 327.070312 103.761719 326.550781 105.125 326.488281 106.492188 C 326.410156 107.617188 326.585938 108.785156 327.140625 109.777344 C 327.757812 110.921875 328.804688 111.773438 329.941406 112.371094 C 331.605469 113.210938 333.472656 113.59375 335.328125 113.675781 C 337.332031 113.792969 339.339844 113.535156 341.304688 113.136719 C 342.800781 112.824219 344.28125 112.441406 345.738281 111.980469 C 345.625 111.242188 345.515625 110.5 345.449219 109.757812 C 345.40625 109.019531 345.433594 108.277344 345.425781 107.542969 L 345.425781 99.53125 C 345.410156 98.628906 345.46875 97.726562 345.371094 96.828125 C 345.25 95.457031 344.757812 94.09375 343.835938 93.058594 C 342.734375 91.804688 341.109375 91.132812 339.492188 90.859375 C 338.785156 90.726562 338.066406 90.691406 337.351562 90.6875 Z M 200.3125 95.066406 C 201.464844 95.078125 202.625 95.46875 203.421875 96.328125 C 204.308594 97.308594 204.671875 98.664062 204.691406 99.964844 C 201.675781 99.964844 198.660156 99.964844 195.644531 99.964844 C 195.714844 98.910156 195.996094 97.851562 196.609375 96.976562 C 197.191406 96.078125 198.117188 95.394531 199.171875 95.179688 C 199.542969 95.101562 199.925781 95.0625 200.3125 95.066406 Z M 276.660156 95.191406 C 277.21875 95.191406 277.777344 95.277344 278.3125 95.441406 C 279.132812 95.714844 279.902344 96.242188 280.34375 97 C 280.839844 97.859375 280.9375 98.90625 280.78125 99.871094 C 280.660156 100.6875 280.253906 101.457031 279.621094 101.988281 C 278.46875 102.976562 276.8125 103.164062 275.378906 102.824219 C 274.128906 102.53125 273.027344 101.570312 272.6875 100.316406 C 272.394531 99.25 272.453125 98.050781 272.992188 97.070312 C 273.582031 96.027344 274.730469 95.382812 275.902344 95.25 C 276.152344 95.214844 276.40625 95.195312 276.660156 95.191406 Z M 254.367188 95.296875 C 255.234375 95.285156 256.113281 95.453125 256.859375 95.90625 C 257.9375 96.550781 258.640625 97.667969 259.058594 98.828125 C 259.472656 99.992188 259.601562 101.242188 259.578125 102.472656 C 259.558594 103.980469 259.289062 105.535156 258.507812 106.84375 C 258.007812 107.691406 257.265625 108.421875 256.34375 108.789062 C 255.546875 109.128906 254.664062 109.171875 253.8125 109.109375 C 252.941406 109.019531 252.089844 108.699219 251.414062 108.136719 C 250.285156 107.183594 249.664062 105.75 249.414062 104.316406 C 249.253906 103.328125 249.1875 102.3125 249.28125 101.3125 C 249.371094 99.675781 249.84375 97.992188 250.953125 96.746094 C 251.664062 95.929688 252.699219 95.4375 253.773438 95.332031 C 253.96875 95.3125 254.167969 95.300781 254.367188 95.296875 Z M 299.398438 95.296875 C 300.179688 95.308594 300.964844 95.46875 301.648438 95.859375 C 302.671875 96.417969 303.367188 97.417969 303.808594 98.472656 C 304.265625 99.582031 304.453125 100.789062 304.460938 101.984375 C 304.503906 103.777344 304.21875 105.671875 303.179688 107.175781 C 302.515625 108.164062 301.449219 108.867188 300.273438 109.058594 C 299.101562 109.238281 297.835938 109.125 296.800781 108.5 C 295.839844 107.929688 295.175781 106.96875 294.757812 105.949219 C 294.34375 104.921875 294.171875 103.808594 294.140625 102.707031 C 294.074219 100.796875 294.34375 98.761719 295.484375 97.171875 C 296.191406 96.132812 297.371094 95.453125 298.617188 95.332031 C 298.875 95.304688 299.136719 95.292969 299.398438 95.296875 Z M 178.566406 95.300781 C 178.625 95.300781 178.683594 95.300781 178.738281 95.300781 C 179.972656 95.292969 181.269531 95.566406 182.253906 96.347656 C 182.253906 100.214844 182.253906 104.085938 182.253906 107.953125 C 182.253906 108.199219 182.300781 108.445312 182.351562 108.691406 C 181.429688 109.023438 180.445312 109.050781 179.480469 109.101562 C 178.292969 109.09375 177.074219 108.894531 176.046875 108.269531 C 174.984375 107.625 174.183594 106.589844 173.734375 105.433594 C 173.265625 104.210938 173.140625 102.882812 173.183594 101.582031 C 173.246094 100.351562 173.453125 99.101562 174.015625 97.992188 C 174.453125 97.089844 175.171875 96.3125 176.074219 95.863281 C 176.839844 95.464844 177.707031 95.300781 178.566406 95.300781 Z M 229.519531 100.066406 C 230.710938 100.066406 231.902344 100.101562 233.066406 100.386719 C 233.832031 100.578125 234.582031 100.886719 235.191406 101.398438 C 235.792969 101.890625 236.203125 102.601562 236.375 103.359375 C 236.574219 104.265625 236.550781 105.242188 236.195312 106.105469 C 235.871094 106.890625 235.226562 107.519531 234.476562 107.902344 C 233.210938 108.558594 231.761719 108.722656 230.359375 108.777344 C 229.359375 108.8125 228.355469 108.738281 227.371094 108.550781 C 227.371094 105.726562 227.371094 102.898438 227.375 100.070312 C 228.085938 100.085938 228.800781 100.070312 229.519531 100.066406 Z M 340.125 102.453125 C 340.105469 103.742188 340.121094 105.03125 340.117188 106.316406 C 340.128906 107.097656 340.070312 107.882812 340.1875 108.660156 C 338.410156 109.179688 336.511719 109.460938 334.671875 109.109375 C 333.863281 108.953125 333.015625 108.574219 332.605469 107.820312 C 332.277344 107.179688 332.203125 106.375 332.519531 105.714844 C 332.855469 105.042969 333.554688 104.65625 334.230469 104.402344 C 335.285156 104.039062 336.371094 103.78125 337.457031 103.527344 C 338.382812 103.300781 339.367188 103.074219 340.125 102.453125 Z M 273.941406 113.765625 C 273.953125 113.765625 273.964844 113.765625 273.976562 113.769531 C 274.058594 113.773438 274.140625 113.796875 274.21875 113.808594 C 275.253906 113.972656 276.289062 114.136719 277.320312 114.304688 C 278.089844 114.4375 278.871094 114.515625 279.617188 114.753906 C 280.460938 115.019531 281.363281 115.316406 281.96875 116 C 282.363281 116.4375 282.34375 117.089844 282.175781 117.621094 C 281.976562 118.230469 281.464844 118.6875 280.902344 118.964844 C 279.929688 119.449219 278.828125 119.5625 277.761719 119.644531 C 276.445312 119.707031 275.113281 119.65625 273.824219 119.359375 C 273.085938 119.175781 272.335938 118.949219 271.71875 118.488281 C 271.265625 118.148438 270.910156 117.625 270.910156 117.039062 C 270.855469 116.261719 271.191406 115.492188 271.75 114.960938 C 272.335938 114.40625 273.078125 114.042969 273.839844 113.789062 C 273.871094 113.773438 273.90625 113.769531 273.941406 113.765625 Z M 273.941406 113.765625 "></path>
  </g>
</svg>
