<?xml version="1.0" encoding="UTF-8"?>
<svg xmlns="http://www.w3.org/2000/svg" xmlns:i="http://ns.adobe.com/AdobeIllustrator/10.0/" xmlns:xlink="http://www.w3.org/1999/xlink" id="Capa_1" version="1.1" viewBox="0 0 281.74 120">
  <defs>
    <style>
      .st0 {
        fill: #0a1d3d;
      }

      .st1 {
        fill: none;
      }

      .st2 {
        fill: #0994dc;
      }

      .st3 {
        clip-path: url(#clippath);
      }
    </style>
    <clipPath id="clippath">
      <rect class="st1" x="5.33" y="11.56" width="270.75" height="96.88"></rect>
    </clipPath>
  </defs>
  <path id="path34-1" class="st2" d="M258.48,39.82l-27.6-28.13-27.61,28.13,6.41,6.53,21.2-21.58,14.76,15.05-14.76,15.03-6.3-6.41-6.43,6.53,12.72,12.96,27.6-28.11"></path>
  <path id="path32-7" class="st2" d="M219.78,94.9c.5-.67,1.25-.92,2.29-.92,1.92,0,2.85.76,3.14,3.16l.08,1.13h-6.33c.06-1.63.32-2.71.82-3.37h0ZM222.36,105.45c-2.31,0-3.09-1.04-3.33-3.34l-.07-1.07h10.92v-1.89c0-5.43-2.73-7.95-7.97-7.95-4.86,0-7.7,2.26-7.7,8.51,0,2.47.34,4.6,1.52,6.12,1.18,1.52,3.21,2.41,6.59,2.41,1.66,0,3.34-.16,5.13-.46l1.82-.35-.48-2.78c-1.64.38-4.89.8-6.42.8ZM266.31,94.92c.5-.66,1.25-.92,2.29-.92,1.93,0,2.86.76,3.14,3.16l.08,1.13h-6.32c.06-1.63.32-2.7.82-3.37ZM268.88,105.47c-2.3,0-3.08-1.05-3.32-3.35l-.07-1.06h10.92v-1.88c0-5.44-2.74-7.96-7.98-7.96-4.87,0-7.69,2.27-7.69,8.51,0,2.47.34,4.61,1.52,6.12,1.18,1.52,3.21,2.41,6.58,2.41,1.67,0,3.35-.16,5.14-.46l1.82-.35-.5-2.77c-1.63.35-4.88.79-6.42.79h0ZM203.03,54.63l27.6,28.13,27.61-28.13-6.42-6.54-21.19,21.57-14.76-15.03,14.76-15.03,6.3,6.4,6.41-6.54-12.71-12.94-27.6,28.11"></path>
  <g id="g10-4">
    <g id="g12-0">
      <g id="g14-9">
        <g class="st3">
          <g id="g16-4">
            <path id="path22-8" class="st0" d="M71.77,105.11c-1.71.35-3.42.53-4.33.56-1.55.08-2.47-.21-3-1.09-.53-.88-.68-2.36-.68-4.66,0-4.6.6-5.92,3.68-5.79.91.04,2.87.47,4.34.61l.42-2.68c-1.44-.26-3.33-.61-4.62-.66-6.85-.31-8.51,2.63-8.51,8.52s1.67,8.79,8.52,8.51c1.39-.05,3.26-.31,4.73-.6l-.55-2.72ZM18.67,101.18c0,2.65-.9,3.5-2.76,3.67l-.86.04h-5.17v-6.89h4.93c1.64,0,3.86.02,3.86,3.19ZM17.85,91.27c0,2.27-.59,3.27-2.26,3.48l-.78.05h-4.93v-6.45h4.59c2.61,0,3.37.6,3.37,2.92ZM5.33,85.14v22.96h9.73c4.6,0,8.22-1.66,8.22-6.92,0-2.77-1.39-4.23-2.98-5.03.65-.45,1.19-1.06,1.56-1.86.37-.8.58-1.79.58-3.02,0-3.79-2.61-5.87-7.05-6.11l-.91-.02H5.33"></path>
            <path id="path24-8" class="st0" d="M31.25,105.45c-1.66-.33-2.05-1.39-2.05-2.6,0-.81.22-1.41.63-1.84.41-.43,1.01-.67,1.78-.77.5-.06,1-.1,1.44-.13l1.54-.04v5.38c-1.25.14-2.31.21-3.35,0ZM32.55,94.22c1.28,0,1.89.6,2.02,1.88l.03.59v.63s-2.27.01-4.15.24c-4.3.51-5.94,2.5-5.94,5.29,0,3.08,2.3,5.03,6.03,5.42,2.28.23,4.43.11,6.52-.11l2.07-.24v-11.05c0-1.66-.51-3.04-1.59-3.99-1.08-.96-2.72-1.49-4.98-1.49-1.96,0-3.83.39-6.52.93l.5,2.78c2.56-.51,4.47-.88,6.03-.88ZM80.87,105.63c-3.05,0-3.68-1.28-3.68-6.06,0-2.23.24-3.59.81-4.38.58-.79,1.5-1.03,2.87-1.03,2.03,0,3.37,1.12,3.53,4.71l.02.75c0,4.48-.54,6-3.54,6ZM87.41,106.15c1.23-1.48,1.66-3.67,1.66-6.52,0-5.36-2.69-7.92-7.25-8.22l-.94-.03c-5.62,0-8.33,2.4-8.33,8.19,0,6.14,1.89,8.82,8.33,8.82,3.25,0,5.3-.77,6.54-2.24ZM105.42,105.6c-3.38-.2-3.85-1.95-3.85-6.01,0-1.93.14-3.21.56-4.06.42-.84,1.12-1.25,2.25-1.41.88-.11,1.76-.04,2.48.09l.66.15v11.18s-.74.13-2.1.05ZM104.38,91.36c-5.79,0-7.51,3.13-7.51,8.18,0,5.68,1.56,8.88,9.2,8.88,1.35,0,2.62-.06,4.23-.21l1.74-.19v-22.86h-4.53v6.4c-.87-.12-1.95-.2-3.13-.2ZM119.49,95.09c.5-.66,1.25-.92,2.29-.92,1.94,0,2.86.76,3.14,3.16l.08,1.13h-6.34c.06-1.63.32-2.7.82-3.37ZM122.06,105.64c-2.3,0-3.08-1.05-3.32-3.35l-.07-1.06h10.92v-1.88c0-5.44-2.74-7.96-7.98-7.96-4.85,0-7.7,2.27-7.7,8.51,0,2.47.34,4.61,1.52,6.12,1.18,1.52,3.21,2.41,6.59,2.41,1.67,0,3.35-.16,5.14-.46l1.82-.35-.49-2.77c-1.63.35-4.88.79-6.41.79"></path>
            <path id="path26-2" class="st0" d="M41.55,108.08h4.48v-13.47c.83-.22,2.12-.49,3.3-.49,2.1,0,3.04,1.03,3.25,4.02l.04,1.4v8.53h4.56v-8.53c0-2.65-.5-4.7-1.73-6.09-1.23-1.39-3.19-2.11-6.12-2.11-2.4,0-4.55.46-6.8,1.29l-.97.38v15.06"></path>
            <path id="path28-4" class="st2" d="M187.11,105.11c-1.71.35-3.42.53-4.34.56-1.54.08-2.45-.21-2.98-1.09-.53-.88-.68-2.36-.68-4.66,0-4.6.59-5.92,3.66-5.79.92.04,2.89.47,4.35.61l.42-2.68c-1.44-.26-3.32-.61-4.61-.66-6.86-.31-8.53,2.63-8.53,8.52s1.68,8.79,8.53,8.51c1.38-.05,3.26-.31,4.72-.6l-.54-2.72ZM173.14,105.11c-1.71.35-3.42.53-4.35.56-1.54.08-2.45-.21-2.98-1.09-.53-.88-.67-2.36-.67-4.66,0-4.6.58-5.92,3.66-5.79.93.04,2.89.47,4.35.61l.43-2.68c-1.43-.26-3.32-.61-4.62-.66-6.85-.31-8.51,2.63-8.51,8.52s1.68,8.79,8.52,8.51c1.39-.05,3.27-.31,4.72-.6l-.54-2.72"></path>
            <path id="path30-5" class="st2" d="M148.09,105.15c-5.07,0-6.07-2.16-6.07-8.97,0-6.44,1.68-8.09,6.07-8.09,1.81,0,3.29.52,4.31,1.8,1.02,1.28,1.59,3.33,1.59,6.37,0,5.93-.78,8.55-5,8.86l-.89.03ZM148.09,84.9c-7.36,0-10.75,3.2-10.75,11.28,0,4.3.58,7.35,2.22,9.32,1.64,1.97,4.32,2.87,8.53,2.87,7.96,0,10.27-3.63,10.53-10.65l.03-1.45c0-7.99-3.84-11.36-10.55-11.36ZM189.74,108.1h4.49v-16.41h-4.49v16.41ZM189.74,89.21h4.49v-3.45h-4.49v3.45ZM205.82,105.62c-.29,0-.58-.01-.8-.02-3.37-.17-3.84-1.95-3.84-6.01,0-1.93.14-3.21.56-4.06.42-.84,1.12-1.25,2.25-1.41.88-.11,1.76-.04,2.48.09l.65.15v11.18c-.38,0-.9.07-1.3.07h0ZM203.99,91.36c-5.79,0-7.51,3.13-7.51,8.18,0,5.68,1.57,8.88,9.2,8.88.9,0,1.75-.04,2.7-.12l3.27-.28v-22.86h-4.53v6.4c-.87-.12-1.94-.2-3.13-.2ZM231.68,108.08h4.47v-13.47c.82-.22,2.11-.49,3.3-.49,2.1,0,3.05,1.03,3.25,4.02l.04,1.4v8.53h4.56v-8.53c0-2.65-.5-4.7-1.73-6.09-1.23-1.39-3.19-2.11-6.12-2.11-2.39,0-4.54.46-6.79,1.29l-.97.38v15.06ZM251.03,87.89v3.88h-2.77v2.78h2.77v8.14c0,3.85.68,5.72,4.66,5.72.55,0,1.56-.01,2.96-.22l1.1-.19-.53-2.73c-1.24.11-1.94.24-2.64.13-.59-.08-.82-.51-.9-1.51l-.04-1.2v-8.14h3.58v-2.78h-3.58v-3.88h-4.62"></path>
          </g>
        </g>
      </g>
    </g>
  </g>
  <metadata></metadata>
</svg>
