<?xml version="1.0" encoding="UTF-8"?>
<svg xmlns="http://www.w3.org/2000/svg" xmlns:i="http://ns.adobe.com/AdobeIllustrator/10.0/" id="Capa_1" version="1.1" viewBox="0 0 283.57 120">
  <defs>
    <style>
      .st0 {
        fill: #0185ca;
        fill-rule: evenodd;
      }
    </style>
  </defs>
  <path class="st0" d="M45.1,50.51c-5.03,0-9.2,4.03-9.2,9.06s4.17,9.06,9.2,9.06,9.2-4.03,9.2-9.06-4.17-9.06-9.2-9.06ZM45.1,74.09c-8.05,0-14.52-6.47-14.52-14.52s6.47-14.52,14.52-14.52,14.52,6.47,14.52,14.52c0,8.05-6.47,14.52-14.52,14.52Z"></path>
  <path class="st0" d="M18.21,82.57c-5.18-6.18-8.2-14.23-8.2-23,0-7.04,2.01-13.51,5.32-18.98l-4.17-3.31c-4.03,6.47-6.47,14.09-6.47,22.28,0,10.21,3.74,19.7,9.78,26.89l3.74-3.88Z"></path>
  <path class="st0" d="M14.33,33.11l4.03,4.03c1.29-1.44,2.59-2.73,4.03-4.03l-4.03-4.03c-1.29,1.29-2.73,2.59-4.03,4.03Z"></path>
  <path class="st0" d="M44.95,19.46c-8.34,0-15.96,2.44-22.43,6.47l3.31,4.17c5.61-3.45,12.08-5.46,19.27-5.46,9.2,0,17.97,3.31,24.44,9.35l4.74-2.73c-7.76-7.62-18.12-11.79-29.33-11.79Z"></path>
  <path class="st0" d="M61.63,74.52c-4.03,4.31-9.92,7.04-16.39,7.04-12.36,0-22.28-9.92-22.28-22s10.06-22,22.28-22c4.6,0,8.91,1.44,12.51,3.88l4.89-3.02c-4.89-3.88-11.07-6.18-17.54-6.18-15.24,0-27.75,12.22-27.75,27.32s12.36,27.32,27.75,27.32c8.2,0,15.67-3.59,20.7-9.2l-4.17-3.16Z"></path>
  <path class="st0" d="M65.22,89.62c-5.61,3.59-12.22,5.75-19.41,5.75-8.63,0-16.68-3.02-22.72-8.05l-3.74,3.59c7.04,6.04,16.39,9.63,26.45,9.63,8.48,0,16.25-2.44,22.72-6.76l-3.31-4.17Z"></path>
  <path class="st0" d="M78.74,37.72l-1.44-2.16-16.1,9.78,1.58,2.3c.14.14.14.29.29.43,2.3,3.59,3.59,7.62,3.59,11.93,0,3.88-1.01,7.48-2.88,10.78l4.46,3.16c2.44-4.03,3.88-8.77,3.88-13.95,0-4.6-1.15-9.06-3.31-12.94l6.76-4.03c2.88,5.18,4.46,11.07,4.46,17.11,0,10.21-4.46,19.55-11.65,25.88l3.45,4.17c8.34-7.48,13.66-18.26,13.66-30.19,0-7.91-2.3-15.67-6.76-22.28Z"></path>
  <path class="st0" d="M155.66,68.48c-4.46,0-8.05-3.59-8.05-8.05s3.59-8.05,8.05-8.05,8.05,3.59,8.05,8.05-3.45,8.05-8.05,8.05ZM155.66,46.77c-7.62,0-13.66,6.18-13.66,13.66s6.18,13.66,13.66,13.66,13.8-6.18,13.8-13.66-6.18-13.66-13.8-13.66Z"></path>
  <path class="st0" d="M108.07,47.35c-1.87,0-3.16-1.58-3.16-3.45,0-2.01,1.44-3.45,3.16-3.45,1.87,0,3.16,1.58,3.16,3.45.14,1.87-1.29,3.45-3.16,3.45ZM105.48,74.09h5.32v-23.72h-5.32v23.72Z"></path>
  <path class="st0" d="M130.21,74.09c-7.76,0-13.95-6.18-13.95-13.66s6.33-13.66,13.95-13.66c3.74,0,7.19,1.44,9.92,4.03l.29.29-3.74,4.46-.43-.43c-1.58-1.73-3.74-2.73-6.04-2.73-4.46,0-8.2,3.59-8.2,7.91s3.59,7.91,8.2,7.91c2.3,0,4.6-1.01,6.18-2.73l.43-.43,3.74,4.46-.29.29c-2.88,2.88-6.33,4.31-10.06,4.31Z"></path>
  <path class="st0" d="M268.81,74.09c-7.48,0-13.66-6.18-13.66-13.66s6.18-13.66,13.66-13.66c3.59,0,7.04,1.44,9.63,4.03l.29.29-3.59,4.46-.29-.43c-1.44-1.73-3.59-2.73-5.89-2.73-4.31,0-7.91,3.59-7.91,7.91s3.59,7.91,7.91,7.91c2.3,0,4.46-1.01,6.04-2.73l.29-.43,3.59,4.46-.29.29c-2.59,2.88-6.04,4.31-9.78,4.31Z"></path>
  <path class="st0" d="M188.01,46.77c-7.62,0-13.66,6.18-13.66,13.95v13.37h6.18v-13.8c0-4.31,3.45-7.76,7.62-7.76s7.62,3.45,7.62,7.62v13.95h6.18v-13.37c-.14-7.76-6.33-13.95-13.95-13.95Z"></path>
  <path class="st0" d="M230.56,57.7c.43-3.45,3.31-5.75,6.76-5.75s6.33,2.3,6.61,5.75h-13.37ZM237.32,46.77c-3.59,0-6.9,1.44-9.2,3.88-2.44,2.59-3.74,6.04-3.74,9.92,0,8.05,5.75,13.51,13.8,13.51,7.33,0,10.64-4.74,11.21-5.75l.14-.29-.29-.14-3.59-2.59-.29-.29-.29.29c-.72,1.01-2.88,3.31-6.76,3.31-4.31,0-7.62-2.59-7.91-6.61h19.7v-1.58c0-4.03-1.15-7.48-3.45-9.92-2.16-2.44-5.32-3.74-9.35-3.74Z"></path>
  <path class="st0" d="M220.93,68.91h-1.29c-2.44,0-3.59-.58-3.59-4.03v-13.37h5.18v-4.46h-5.18v-5.32h-6.04v5.32h-3.45v4.46h3.45v12.51c0,1.87.14,4.46,1.29,6.61,1.29,2.3,3.45,3.45,6.61,3.45,1.58,0,2.44-.14,2.44-.14h.43v-5.03h.14Z"></path>
  <metadata></metadata>
</svg>
