<?xml version="1.0" encoding="UTF-8"?>
<svg xmlns="http://www.w3.org/2000/svg" xmlns:xlink="http://www.w3.org/1999/xlink" width="px" height="125px" viewBox="0 0 446 125" version="1.1">
  <defs>
    <linearGradient id="linear0" gradientUnits="userSpaceOnUse" x1="49.918098" y1="26.0144" x2="117.638802" y2="162.676102" gradientTransform="matrix(0.726523,0,0,0.727221,1.117542,1.250838)">
      <stop offset="0.00256587" style="stop-color:rgb(82.745098%,14.509804%,41.960784%);stop-opacity:1;"></stop>
      <stop offset="0.1272" style="stop-color:rgb(69.803922%,16.078431%,44.705882%);stop-opacity:1;"></stop>
      <stop offset="0.3065" style="stop-color:rgb(53.72549%,18.039216%,48.235294%);stop-opacity:1;"></stop>
      <stop offset="0.3988" style="stop-color:rgb(47.45098%,18.823529%,49.803922%);stop-opacity:1;"></stop>
      <stop offset="0.4562" style="stop-color:rgb(40.784314%,19.607843%,50.196078%);stop-opacity:1;"></stop>
      <stop offset="0.5801" style="stop-color:rgb(29.019608%,21.176471%,50.980392%);stop-opacity:1;"></stop>
      <stop offset="0.7017" style="stop-color:rgb(20.392157%,22.352941%,51.764706%);stop-opacity:1;"></stop>
      <stop offset="0.8189" style="stop-color:rgb(15.294118%,22.745098%,52.156863%);stop-opacity:1;"></stop>
      <stop offset="0.9268" style="stop-color:rgb(13.72549%,23.137255%,52.156863%);stop-opacity:1;"></stop>
    </linearGradient>
    <linearGradient id="linear1" gradientUnits="userSpaceOnUse" x1="84.190002" y1="147.186295" x2="81.704903" y2="17.336" gradientTransform="matrix(0.726523,0,0,0.727221,1.117542,1.250838)">
      <stop offset="0.0736196" style="stop-color:rgb(29.803922%,66.27451%,50.196078%);stop-opacity:1;"></stop>
      <stop offset="0.1551" style="stop-color:rgb(26.666667%,61.176471%,51.764706%);stop-opacity:1;"></stop>
      <stop offset="0.3061" style="stop-color:rgb(18.039216%,47.45098%,56.470588%);stop-opacity:1;"></stop>
      <stop offset="0.4294" style="stop-color:rgb(9.803922%,34.509804%,60.784314%);stop-opacity:1;"></stop>
      <stop offset="0.5361" style="stop-color:rgb(11.372549%,29.803922%,57.254902%);stop-opacity:1;"></stop>
      <stop offset="0.7136" style="stop-color:rgb(12.941176%,24.705882%,53.333333%);stop-opacity:1;"></stop>
      <stop offset="0.8773" style="stop-color:rgb(13.72549%,23.137255%,52.156863%);stop-opacity:1;"></stop>
    </linearGradient>
    <linearGradient id="linear2" gradientUnits="userSpaceOnUse" x1="64.157402" y1="44.4772" x2="102.405998" y2="131.633698" gradientTransform="matrix(0.726523,0,0,0.727221,1.117542,1.250838)">
      <stop offset="0" style="stop-color:rgb(41.960784%,72.941176%,79.607843%);stop-opacity:1;"></stop>
      <stop offset="0.272" style="stop-color:rgb(23.529412%,51.372549%,69.411765%);stop-opacity:1;"></stop>
      <stop offset="0.4969" style="stop-color:rgb(9.803922%,35.294118%,61.568627%);stop-opacity:1;"></stop>
      <stop offset="0.8221" style="stop-color:rgb(13.72549%,23.137255%,52.156863%);stop-opacity:1;"></stop>
    </linearGradient>
  </defs>
  <g id="surface1">
    <path style=" stroke:none;fill-rule:nonzero;fill:rgb(13.725491%,23.137255%,52.156866%);fill-opacity:1;" d="M 151 84.808594 C 146.347656 84.808594 142.863281 83.5 140.464844 80.953125 C 138.066406 78.410156 136.832031 74.699219 136.832031 69.972656 C 136.832031 67.644531 137.195312 65.539062 137.921875 63.644531 C 138.648438 61.828125 139.664062 60.226562 140.972656 58.992188 C 142.28125 57.757812 143.804688 56.738281 145.550781 56.082031 C 147.292969 55.429688 149.253906 55.066406 151.363281 55.066406 C 152.597656 55.066406 153.6875 55.136719 154.632812 55.355469 C 155.648438 55.5 156.449219 55.71875 157.246094 55.9375 C 157.972656 56.15625 158.628906 56.375 159.0625 56.664062 C 159.570312 56.882812 159.933594 57.101562 160.152344 57.246094 L 158.335938 62.410156 C 157.464844 61.972656 156.449219 61.539062 155.285156 61.246094 C 154.125 60.882812 152.816406 60.738281 151.363281 60.738281 C 150.34375 60.738281 149.402344 60.882812 148.457031 61.246094 C 147.511719 61.539062 146.710938 62.121094 145.984375 62.847656 C 145.257812 63.574219 144.679688 64.519531 144.242188 65.683594 C 143.804688 66.847656 143.589844 68.226562 143.589844 69.902344 C 143.589844 71.210938 143.734375 72.445312 144.023438 73.535156 C 144.316406 74.699219 144.75 75.644531 145.40625 76.445312 C 146.058594 77.246094 146.859375 77.898438 147.949219 78.410156 C 148.964844 78.917969 150.273438 79.136719 151.726562 79.136719 C 152.671875 79.136719 153.46875 79.0625 154.195312 78.992188 C 154.921875 78.917969 155.578125 78.773438 156.15625 78.628906 C 156.738281 78.480469 157.246094 78.335938 157.683594 78.117188 C 158.117188 77.898438 158.480469 77.753906 158.84375 77.609375 L 160.589844 82.699219 C 159.71875 83.28125 158.410156 83.71875 156.8125 84.152344 C 155.066406 84.589844 153.179688 84.808594 151 84.808594 Z M 151 84.808594 "></path>
    <path style=" stroke:none;fill-rule:nonzero;fill:rgb(13.725491%,23.137255%,52.156866%);fill-opacity:1;" d="M 171.558594 62.121094 C 173.375 62.121094 174.828125 62.335938 176.0625 62.699219 C 177.300781 63.136719 178.242188 63.71875 178.96875 64.445312 C 179.695312 65.246094 180.207031 66.117188 180.496094 67.210938 C 180.785156 68.300781 180.933594 69.535156 180.933594 70.847656 L 180.933594 83.570312 C 180.058594 83.789062 178.824219 84.007812 177.300781 84.226562 C 175.773438 84.519531 173.882812 84.589844 171.632812 84.589844 C 170.253906 84.589844 168.945312 84.445312 167.855469 84.226562 C 166.691406 84.007812 165.746094 83.570312 164.949219 82.992188 C 164.148438 82.410156 163.496094 81.679688 163.058594 80.808594 C 162.625 79.9375 162.40625 78.773438 162.40625 77.464844 C 162.40625 76.226562 162.625 75.136719 163.132812 74.265625 C 163.640625 73.390625 164.292969 72.664062 165.167969 72.15625 C 166.039062 71.644531 166.984375 71.28125 168.074219 71.0625 C 169.164062 70.847656 170.324219 70.699219 171.488281 70.699219 C 172.285156 70.699219 173.011719 70.699219 173.59375 70.773438 C 174.175781 70.847656 174.683594 70.917969 175.121094 71.0625 L 175.121094 70.480469 C 175.121094 69.464844 174.828125 68.589844 174.175781 68.007812 C 173.519531 67.355469 172.429688 67.0625 170.90625 67.0625 C 169.890625 67.0625 168.871094 67.136719 167.855469 67.28125 C 166.835938 67.429688 165.964844 67.644531 165.238281 67.9375 L 164.441406 62.992188 C 164.804688 62.917969 165.238281 62.773438 165.746094 62.628906 C 166.257812 62.484375 166.835938 62.410156 167.492188 62.265625 C 168.144531 62.191406 168.800781 62.121094 169.453125 62.046875 C 170.105469 62.121094 170.832031 62.121094 171.558594 62.121094 Z M 177.445312 56.082031 L 168.800781 60.445312 L 166.765625 57.246094 L 174.828125 51.867188 Z M 171.996094 79.9375 C 172.578125 79.9375 173.15625 79.9375 173.738281 79.863281 C 174.320312 79.863281 174.757812 79.789062 175.046875 79.71875 L 175.046875 75.0625 C 174.828125 74.992188 174.464844 74.992188 173.957031 74.917969 C 173.449219 74.84375 173.011719 74.84375 172.578125 74.84375 C 171.996094 74.84375 171.488281 74.84375 170.980469 74.917969 C 170.46875 74.992188 170.035156 75.136719 169.671875 75.28125 C 169.308594 75.5 169.015625 75.71875 168.800781 76.082031 C 168.582031 76.445312 168.4375 76.808594 168.4375 77.316406 C 168.4375 78.261719 168.726562 78.917969 169.378906 79.28125 C 170.035156 79.789062 170.90625 79.9375 171.996094 79.9375 Z M 171.996094 79.9375 "></path>
    <path style=" stroke:none;fill-rule:nonzero;fill:rgb(13.725491%,23.137255%,52.156866%);fill-opacity:1;" d="M 197.640625 72.808594 C 197.640625 70.847656 197.425781 69.464844 196.914062 68.589844 C 196.40625 67.792969 195.535156 67.355469 194.300781 67.355469 C 193.9375 67.355469 193.5 67.355469 193.136719 67.429688 C 192.703125 67.5 192.339844 67.5 191.976562 67.574219 L 191.976562 84.226562 L 185.871094 84.226562 L 185.871094 63.429688 C 186.378906 63.28125 187.035156 63.136719 187.6875 62.992188 C 188.414062 62.847656 189.140625 62.699219 189.867188 62.554688 C 190.667969 62.410156 191.464844 62.335938 192.265625 62.265625 C 193.066406 62.191406 193.863281 62.191406 194.664062 62.191406 C 196.1875 62.191406 197.496094 62.410156 198.441406 62.773438 C 199.386719 63.136719 200.183594 63.644531 200.839844 64.15625 C 201.710938 63.5 202.726562 63.066406 203.816406 62.699219 C 204.980469 62.335938 205.996094 62.191406 206.941406 62.191406 C 208.683594 62.191406 210.066406 62.410156 211.15625 62.917969 C 212.246094 63.429688 213.117188 64.082031 213.769531 64.957031 C 214.425781 65.828125 214.859375 66.847656 215.152344 68.082031 C 215.367188 69.320312 215.515625 70.628906 215.515625 72.082031 L 215.515625 84.226562 L 209.410156 84.226562 L 209.410156 72.808594 C 209.410156 70.847656 209.195312 69.464844 208.683594 68.589844 C 208.175781 67.792969 207.304688 67.355469 206.070312 67.355469 C 205.707031 67.355469 205.269531 67.429688 204.6875 67.574219 C 204.109375 67.71875 203.597656 67.9375 203.234375 68.15625 C 203.453125 68.808594 203.527344 69.464844 203.597656 70.117188 C 203.671875 70.847656 203.671875 71.574219 203.671875 72.371094 L 203.671875 84.152344 L 197.570312 84.152344 L 197.570312 72.808594 Z M 197.640625 72.808594 "></path>
    <path style=" stroke:none;fill-rule:nonzero;fill:rgb(13.725491%,23.137255%,52.156866%);fill-opacity:1;" d="M 228.226562 62.121094 C 230.042969 62.121094 231.496094 62.335938 232.734375 62.699219 C 233.96875 63.136719 234.914062 63.71875 235.640625 64.445312 C 236.367188 65.246094 236.875 66.117188 237.164062 67.210938 C 237.457031 68.300781 237.601562 69.535156 237.601562 70.847656 L 237.601562 83.570312 C 236.730469 83.789062 235.492188 84.007812 233.96875 84.226562 C 232.441406 84.519531 230.554688 84.589844 228.300781 84.589844 C 226.921875 84.589844 225.613281 84.445312 224.523438 84.226562 C 223.359375 84.007812 222.417969 83.570312 221.617188 82.992188 C 220.816406 82.410156 220.164062 81.679688 219.726562 80.808594 C 219.292969 79.9375 219.074219 78.773438 219.074219 77.464844 C 219.074219 76.226562 219.292969 75.136719 219.800781 74.265625 C 220.308594 73.390625 220.964844 72.664062 221.835938 72.15625 C 222.707031 71.644531 223.652344 71.28125 224.742188 71.0625 C 225.832031 70.847656 226.992188 70.699219 228.15625 70.699219 C 228.953125 70.699219 229.679688 70.699219 230.261719 70.773438 C 230.84375 70.847656 231.351562 70.917969 231.789062 71.0625 L 231.789062 70.480469 C 231.789062 69.464844 231.496094 68.589844 230.84375 68.007812 C 230.191406 67.355469 229.101562 67.0625 227.574219 67.0625 C 226.558594 67.0625 225.539062 67.136719 224.523438 67.28125 C 223.507812 67.429688 222.632812 67.644531 221.90625 67.9375 L 221.109375 62.992188 C 221.472656 62.917969 221.90625 62.773438 222.417969 62.628906 C 222.925781 62.484375 223.507812 62.410156 224.160156 62.265625 C 224.8125 62.191406 225.46875 62.121094 226.121094 62.046875 C 226.847656 62.121094 227.503906 62.121094 228.226562 62.121094 Z M 228.738281 79.9375 C 229.316406 79.9375 229.898438 79.9375 230.480469 79.863281 C 231.0625 79.789062 231.496094 79.789062 231.789062 79.71875 L 231.789062 75.0625 C 231.570312 74.992188 231.207031 74.992188 230.699219 74.917969 C 230.191406 74.84375 229.753906 74.84375 229.316406 74.84375 C 228.738281 74.84375 228.226562 74.84375 227.71875 74.917969 C 227.210938 74.992188 226.777344 75.136719 226.414062 75.28125 C 226.050781 75.5 225.757812 75.71875 225.539062 76.082031 C 225.324219 76.445312 225.175781 76.808594 225.175781 77.316406 C 225.175781 78.261719 225.46875 78.917969 226.121094 79.28125 C 226.703125 79.789062 227.574219 79.9375 228.738281 79.9375 Z M 228.738281 79.9375 "></path>
    <path style=" stroke:none;fill-rule:nonzero;fill:rgb(13.725491%,23.137255%,52.156866%);fill-opacity:1;" d="M 255.472656 68.082031 C 254.890625 67.9375 254.3125 67.792969 253.511719 67.644531 C 252.785156 67.5 251.984375 67.429688 251.113281 67.429688 C 250.75 67.429688 250.242188 67.429688 249.734375 67.5 C 249.226562 67.574219 248.789062 67.644531 248.5 67.71875 L 248.5 84.226562 L 242.394531 84.226562 L 242.394531 63.792969 C 243.484375 63.429688 244.792969 63.066406 246.246094 62.699219 C 247.699219 62.335938 249.371094 62.191406 251.257812 62.191406 C 251.550781 62.191406 251.984375 62.191406 252.421875 62.265625 C 252.859375 62.335938 253.367188 62.335938 253.800781 62.410156 C 254.238281 62.484375 254.746094 62.554688 255.183594 62.628906 C 255.617188 62.699219 256.054688 62.847656 256.34375 62.992188 Z M 255.472656 68.082031 "></path>
    <path style=" stroke:none;fill-rule:nonzero;fill:rgb(13.725491%,23.137255%,52.156866%);fill-opacity:1;" d="M 266.660156 62.121094 C 268.476562 62.121094 269.929688 62.335938 271.164062 62.699219 C 272.402344 63.136719 273.34375 63.71875 274.070312 64.445312 C 274.796875 65.246094 275.308594 66.117188 275.597656 67.210938 C 275.886719 68.300781 276.035156 69.535156 276.035156 70.847656 L 276.035156 83.570312 C 275.160156 83.789062 273.925781 84.007812 272.402344 84.226562 C 270.875 84.519531 268.988281 84.589844 266.734375 84.589844 C 265.355469 84.589844 264.046875 84.445312 262.957031 84.226562 C 261.792969 84.007812 260.847656 83.570312 260.050781 82.992188 C 259.25 82.410156 258.597656 81.679688 258.160156 80.808594 C 257.726562 79.9375 257.507812 78.773438 257.507812 77.464844 C 257.507812 76.226562 257.726562 75.136719 258.234375 74.265625 C 258.742188 73.390625 259.394531 72.664062 260.269531 72.15625 C 261.140625 71.644531 262.085938 71.28125 263.175781 71.0625 C 264.265625 70.847656 265.425781 70.699219 266.589844 70.699219 C 267.386719 70.699219 268.113281 70.699219 268.695312 70.773438 C 269.277344 70.847656 269.785156 70.917969 270.222656 71.0625 L 270.222656 70.480469 C 270.222656 69.464844 269.929688 68.589844 269.277344 68.007812 C 268.625 67.355469 267.535156 67.0625 266.007812 67.0625 C 264.992188 67.0625 263.972656 67.136719 262.957031 67.28125 C 261.9375 67.429688 261.066406 67.644531 260.339844 67.9375 L 259.542969 62.992188 C 259.90625 62.917969 260.339844 62.773438 260.847656 62.628906 C 261.359375 62.484375 261.9375 62.410156 262.59375 62.265625 C 263.246094 62.191406 263.902344 62.121094 264.554688 62.046875 C 265.28125 62.121094 265.933594 62.121094 266.660156 62.121094 Z M 267.171875 79.9375 C 267.75 79.9375 268.332031 79.9375 268.914062 79.863281 C 269.496094 79.863281 269.929688 79.789062 270.222656 79.71875 L 270.222656 75.0625 C 270.003906 74.992188 269.640625 74.992188 269.132812 74.917969 C 268.625 74.84375 268.1875 74.84375 267.75 74.84375 C 267.171875 74.84375 266.660156 74.84375 266.152344 74.917969 C 265.644531 74.992188 265.207031 75.136719 264.84375 75.28125 C 264.480469 75.5 264.191406 75.71875 263.972656 76.082031 C 263.753906 76.445312 263.609375 76.808594 263.609375 77.316406 C 263.609375 78.261719 263.902344 78.917969 264.554688 79.28125 C 265.136719 79.789062 266.082031 79.9375 267.171875 79.9375 Z M 267.171875 79.9375 "></path>
    <path style=" stroke:none;fill-rule:nonzero;fill:rgb(13.725491%,23.137255%,52.156866%);fill-opacity:1;" d="M 308.144531 83.5 C 307.566406 83.644531 306.984375 83.789062 306.257812 83.9375 C 305.53125 84.082031 304.804688 84.226562 304.003906 84.300781 C 303.207031 84.371094 302.40625 84.519531 301.605469 84.589844 C 300.808594 84.664062 300.007812 84.664062 299.28125 84.664062 C 297.539062 84.664062 295.941406 84.371094 294.558594 83.863281 C 293.179688 83.355469 292.015625 82.625 291.074219 81.609375 C 290.128906 80.664062 289.402344 79.425781 288.894531 78.117188 C 288.382812 76.738281 288.167969 75.210938 288.167969 73.464844 C 288.167969 71.71875 288.382812 70.117188 288.820312 68.738281 C 289.257812 67.355469 289.910156 66.117188 290.710938 65.171875 C 291.507812 64.15625 292.527344 63.429688 293.6875 62.917969 C 294.851562 62.410156 296.230469 62.121094 297.757812 62.121094 C 298.628906 62.121094 299.355469 62.191406 300.007812 62.335938 C 300.664062 62.484375 301.390625 62.699219 302.042969 63.066406 L 302.042969 53.390625 L 308.144531 52.375 Z M 294.34375 73.246094 C 294.34375 75.136719 294.777344 76.664062 295.578125 77.828125 C 296.449219 78.992188 297.683594 79.574219 299.355469 79.574219 C 299.9375 79.574219 300.371094 79.574219 300.878906 79.5 C 301.316406 79.425781 301.753906 79.425781 302.042969 79.355469 L 302.042969 68.226562 C 301.679688 68.007812 301.171875 67.792969 300.515625 67.644531 C 299.9375 67.5 299.28125 67.429688 298.628906 67.429688 C 295.796875 67.355469 294.34375 69.320312 294.34375 73.246094 Z M 294.34375 73.246094 "></path>
    <path style=" stroke:none;fill-rule:nonzero;fill:rgb(13.725491%,23.137255%,52.156866%);fill-opacity:1;" d="M 312.140625 73.609375 C 312.140625 71.71875 312.433594 70.046875 313.015625 68.589844 C 313.59375 67.136719 314.394531 65.972656 315.339844 65.027344 C 316.28125 64.082031 317.371094 63.355469 318.609375 62.847656 C 319.84375 62.335938 321.152344 62.121094 322.457031 62.121094 C 325.511719 62.121094 327.90625 63.066406 329.722656 64.957031 C 331.46875 66.847656 332.410156 69.609375 332.410156 73.246094 C 332.410156 73.609375 332.410156 73.972656 332.339844 74.410156 C 332.339844 74.84375 332.265625 75.210938 332.265625 75.574219 L 318.390625 75.574219 C 318.535156 76.808594 319.117188 77.828125 320.132812 78.554688 C 321.152344 79.28125 322.53125 79.644531 324.347656 79.644531 C 325.4375 79.644531 326.601562 79.574219 327.617188 79.355469 C 328.707031 79.136719 329.578125 78.917969 330.230469 78.628906 L 331.03125 83.570312 C 330.667969 83.71875 330.230469 83.9375 329.722656 84.082031 C 329.140625 84.226562 328.5625 84.371094 327.90625 84.519531 C 327.253906 84.664062 326.527344 84.734375 325.726562 84.808594 C 324.929688 84.882812 324.203125 84.953125 323.402344 84.953125 C 321.441406 84.953125 319.769531 84.664062 318.316406 84.082031 C 316.863281 83.5 315.703125 82.699219 314.757812 81.753906 C 313.8125 80.734375 313.085938 79.574219 312.652344 78.191406 C 312.359375 76.664062 312.140625 75.210938 312.140625 73.609375 Z M 326.527344 71.28125 C 326.527344 70.773438 326.382812 70.265625 326.238281 69.753906 C 326.089844 69.246094 325.875 68.808594 325.511719 68.445312 C 325.21875 68.082031 324.785156 67.71875 324.347656 67.5 C 323.839844 67.28125 323.257812 67.136719 322.53125 67.136719 C 321.878906 67.136719 321.296875 67.28125 320.789062 67.5 C 320.277344 67.71875 319.914062 68.007812 319.550781 68.445312 C 319.1875 68.808594 318.972656 69.246094 318.824219 69.753906 C 318.679688 70.265625 318.535156 70.773438 318.460938 71.28125 Z M 326.527344 71.28125 "></path>
    <path style=" stroke:none;fill-rule:nonzero;fill:rgb(13.725491%,23.137255%,52.156866%);fill-opacity:1;" d="M 341.710938 121.097656 C 341.128906 121.242188 340.550781 121.386719 339.824219 121.53125 C 339.097656 121.679688 338.371094 121.824219 337.570312 121.898438 C 336.769531 121.96875 335.972656 122.113281 335.171875 122.1875 C 334.375 122.261719 333.574219 122.261719 332.847656 122.261719 C 331.105469 122.261719 329.503906 121.96875 328.125 121.460938 C 326.746094 120.953125 325.582031 120.222656 324.636719 119.207031 C 323.695312 118.261719 322.96875 117.023438 322.457031 115.714844 C 321.949219 114.332031 321.730469 112.804688 321.730469 111.0625 C 321.730469 109.316406 321.949219 107.714844 322.386719 106.335938 C 322.820312 104.953125 323.476562 103.714844 324.273438 102.769531 C 325.074219 101.753906 326.089844 101.027344 327.253906 100.515625 C 328.414062 100.007812 329.796875 99.714844 331.320312 99.714844 C 332.195312 99.714844 332.921875 99.789062 333.574219 99.933594 C 334.226562 100.082031 334.953125 100.296875 335.609375 100.660156 L 335.609375 90.917969 L 341.710938 89.898438 Z M 327.90625 110.84375 C 327.90625 112.734375 328.34375 114.261719 329.140625 115.425781 C 330.015625 116.589844 331.25 117.167969 332.921875 117.167969 C 333.5 117.167969 333.9375 117.167969 334.445312 117.097656 C 334.882812 117.023438 335.316406 117.023438 335.609375 116.953125 L 335.609375 105.824219 C 335.246094 105.605469 334.738281 105.390625 334.082031 105.242188 C 333.5 105.097656 332.847656 105.023438 332.195312 105.023438 C 329.359375 104.953125 327.90625 106.914062 327.90625 110.84375 Z M 327.90625 110.84375 "></path>
    <path style=" stroke:none;fill-rule:nonzero;fill:rgb(13.725491%,23.137255%,52.156866%);fill-opacity:1;" d="M 345.707031 111.207031 C 345.707031 109.316406 345.996094 107.644531 346.578125 106.1875 C 347.160156 104.734375 347.960938 103.570312 348.902344 102.625 C 349.847656 101.679688 350.9375 100.953125 352.171875 100.445312 C 353.410156 99.933594 354.714844 99.714844 356.023438 99.714844 C 359.074219 99.714844 361.472656 100.660156 363.289062 102.550781 C 365.03125 104.445312 365.976562 107.207031 365.976562 110.84375 C 365.976562 111.207031 365.976562 111.570312 365.90625 112.007812 C 365.90625 112.441406 365.832031 112.804688 365.832031 113.171875 L 352.027344 113.171875 C 352.171875 114.40625 352.753906 115.425781 353.773438 116.152344 C 354.789062 116.878906 356.167969 117.242188 357.984375 117.242188 C 359.074219 117.242188 360.238281 117.167969 361.253906 116.953125 C 362.34375 116.734375 363.214844 116.515625 363.871094 116.222656 L 364.667969 121.167969 C 364.304688 121.316406 363.871094 121.53125 363.363281 121.679688 C 362.78125 121.824219 362.199219 121.96875 361.546875 122.113281 C 360.890625 122.261719 360.164062 122.332031 359.367188 122.40625 C 358.566406 122.480469 357.839844 122.550781 357.039062 122.550781 C 355.078125 122.550781 353.410156 122.261719 351.957031 121.679688 C 350.503906 121.097656 349.339844 120.296875 348.394531 119.351562 C 347.449219 118.332031 346.722656 117.167969 346.289062 115.789062 C 345.925781 114.261719 345.707031 112.734375 345.707031 111.207031 Z M 360.09375 108.878906 C 360.09375 108.371094 359.945312 107.863281 359.800781 107.351562 C 359.65625 106.84375 359.4375 106.40625 359.074219 106.042969 C 358.785156 105.679688 358.347656 105.316406 357.914062 105.097656 C 357.402344 104.878906 356.824219 104.734375 356.097656 104.734375 C 355.441406 104.734375 354.863281 104.878906 354.351562 105.097656 C 353.84375 105.316406 353.480469 105.605469 353.117188 106.042969 C 352.753906 106.40625 352.535156 106.84375 352.390625 107.351562 C 352.246094 107.863281 352.101562 108.371094 352.027344 108.878906 Z M 360.09375 108.878906 "></path>
    <path style=" stroke:none;fill-rule:nonzero;fill:rgb(13.725491%,23.137255%,52.156866%);fill-opacity:1;" d="M 151 122.40625 C 146.347656 122.40625 142.863281 121.097656 140.464844 118.550781 C 138.066406 116.007812 136.832031 112.296875 136.832031 107.570312 C 136.832031 105.242188 137.195312 103.132812 137.921875 101.242188 C 138.648438 99.425781 139.664062 97.824219 140.972656 96.589844 C 142.28125 95.351562 143.804688 94.335938 145.550781 93.679688 C 147.292969 93.027344 149.253906 92.664062 151.363281 92.664062 C 152.597656 92.664062 153.6875 92.734375 154.632812 92.953125 C 155.648438 93.097656 156.449219 93.316406 157.246094 93.535156 C 157.972656 93.753906 158.628906 93.972656 159.0625 94.261719 C 159.570312 94.480469 159.933594 94.699219 160.152344 94.84375 L 158.335938 100.007812 C 157.464844 99.570312 156.449219 99.132812 155.285156 98.84375 C 154.125 98.480469 152.816406 98.335938 151.363281 98.335938 C 150.34375 98.335938 149.402344 98.480469 148.457031 98.84375 C 147.511719 99.207031 146.710938 99.714844 145.984375 100.445312 C 145.257812 101.171875 144.679688 102.117188 144.242188 103.28125 C 143.804688 104.445312 143.589844 105.824219 143.589844 107.496094 C 143.589844 108.808594 143.734375 110.042969 144.023438 111.132812 C 144.316406 112.296875 144.75 113.242188 145.40625 114.042969 C 146.058594 114.84375 146.859375 115.496094 147.949219 116.007812 C 148.964844 116.515625 150.273438 116.734375 151.726562 116.734375 C 152.671875 116.734375 153.46875 116.660156 154.195312 116.589844 C 154.921875 116.515625 155.578125 116.371094 156.15625 116.222656 C 156.738281 116.078125 157.246094 115.933594 157.683594 115.714844 C 158.117188 115.496094 158.480469 115.351562 158.84375 115.207031 L 160.589844 120.296875 C 159.71875 120.878906 158.410156 121.316406 156.8125 121.75 C 155.066406 122.1875 153.179688 122.40625 151 122.40625 Z M 151 122.40625 "></path>
    <path style=" stroke:none;fill-rule:nonzero;fill:rgb(13.725491%,23.137255%,52.156866%);fill-opacity:1;" d="M 183.113281 110.988281 C 183.113281 112.660156 182.894531 114.261719 182.386719 115.644531 C 181.875 117.023438 181.148438 118.261719 180.277344 119.277344 C 179.332031 120.296875 178.242188 121.023438 176.9375 121.605469 C 175.628906 122.1875 174.175781 122.40625 172.578125 122.40625 C 170.980469 122.40625 169.527344 122.113281 168.289062 121.605469 C 166.984375 121.023438 165.894531 120.296875 164.949219 119.277344 C 164.003906 118.261719 163.277344 117.097656 162.769531 115.644531 C 162.261719 114.261719 161.96875 112.660156 161.96875 110.988281 C 161.96875 109.316406 162.261719 107.714844 162.769531 106.335938 C 163.277344 104.953125 164.003906 103.714844 164.949219 102.769531 C 165.894531 101.753906 166.984375 101.027344 168.289062 100.445312 C 169.597656 99.863281 170.980469 99.644531 172.503906 99.644531 C 174.03125 99.644531 175.484375 99.933594 176.789062 100.445312 C 178.097656 101.027344 179.1875 101.753906 180.132812 102.769531 C 181.078125 103.789062 181.804688 104.953125 182.3125 106.335938 C 182.820312 107.714844 183.113281 109.316406 183.113281 110.988281 Z M 176.863281 110.988281 C 176.863281 109.097656 176.5 107.644531 175.699219 106.550781 C 174.972656 105.460938 173.882812 104.953125 172.503906 104.953125 C 171.125 104.953125 170.035156 105.460938 169.234375 106.550781 C 168.4375 107.644531 168.074219 109.097656 168.074219 110.988281 C 168.074219 112.878906 168.4375 114.40625 169.234375 115.496094 C 170.035156 116.589844 171.050781 117.167969 172.503906 117.167969 C 173.882812 117.167969 174.972656 116.589844 175.699219 115.496094 C 176.5 114.332031 176.863281 112.878906 176.863281 110.988281 Z M 176.863281 110.988281 "></path>
    <path style=" stroke:none;fill-rule:nonzero;fill:rgb(13.725491%,23.137255%,52.156866%);fill-opacity:1;" d="M 198.878906 110.332031 C 198.878906 108.371094 198.660156 106.988281 198.152344 106.117188 C 197.640625 105.316406 196.769531 104.878906 195.535156 104.878906 C 195.171875 104.878906 194.734375 104.878906 194.371094 104.953125 C 193.9375 105.023438 193.574219 105.023438 193.210938 105.097656 L 193.210938 121.75 L 187.105469 121.75 L 187.105469 100.953125 C 187.617188 100.808594 188.269531 100.660156 188.921875 100.515625 C 189.648438 100.371094 190.375 100.226562 191.101562 100.082031 C 191.902344 99.933594 192.703125 99.863281 193.5 99.789062 C 194.300781 99.714844 195.097656 99.714844 195.898438 99.714844 C 197.425781 99.714844 198.730469 99.933594 199.675781 100.296875 C 200.621094 100.660156 201.417969 101.171875 202.074219 101.679688 C 202.945312 101.027344 203.960938 100.589844 205.050781 100.226562 C 206.214844 99.863281 207.230469 99.714844 208.175781 99.714844 C 209.921875 99.714844 211.300781 99.933594 212.390625 100.445312 C 213.480469 100.953125 214.351562 101.605469 215.003906 102.480469 C 215.660156 103.351562 216.09375 104.371094 216.386719 105.605469 C 216.605469 106.84375 216.75 108.152344 216.75 109.605469 L 216.75 121.75 L 210.648438 121.75 L 210.648438 110.332031 C 210.648438 108.371094 210.429688 106.988281 209.921875 106.117188 C 209.410156 105.316406 208.539062 104.878906 207.304688 104.878906 C 206.941406 104.878906 206.503906 104.953125 205.925781 105.097656 C 205.34375 105.242188 204.835938 105.460938 204.472656 105.679688 C 204.6875 106.335938 204.761719 106.988281 204.835938 107.644531 C 204.90625 108.371094 204.90625 109.097656 204.90625 109.898438 L 204.90625 121.679688 L 198.804688 121.679688 L 198.804688 110.332031 Z M 198.878906 110.332031 "></path>
    <path style=" stroke:none;fill-rule:nonzero;fill:rgb(13.725491%,23.137255%,52.156866%);fill-opacity:1;" d="M 220.527344 111.207031 C 220.527344 109.316406 220.816406 107.644531 221.398438 106.1875 C 221.980469 104.734375 222.78125 103.570312 223.722656 102.625 C 224.667969 101.679688 225.757812 100.953125 226.992188 100.445312 C 228.226562 99.933594 229.535156 99.714844 230.84375 99.714844 C 233.894531 99.714844 236.292969 100.660156 238.109375 102.550781 C 239.851562 104.445312 240.796875 107.207031 240.796875 110.84375 C 240.796875 111.207031 240.796875 111.570312 240.726562 112.007812 C 240.726562 112.441406 240.652344 112.804688 240.652344 113.171875 L 226.777344 113.171875 C 226.921875 114.40625 227.503906 115.425781 228.519531 116.152344 C 229.535156 116.878906 230.917969 117.242188 232.734375 117.242188 C 233.824219 117.242188 234.984375 117.167969 236.003906 116.953125 C 237.09375 116.734375 237.964844 116.515625 238.617188 116.222656 L 239.417969 121.167969 C 239.054688 121.316406 238.617188 121.53125 238.109375 121.679688 C 237.527344 121.824219 236.945312 121.96875 236.292969 122.113281 C 235.640625 122.261719 234.914062 122.332031 234.113281 122.40625 C 233.3125 122.480469 232.585938 122.550781 231.789062 122.550781 C 229.828125 122.550781 228.15625 122.261719 226.703125 121.679688 C 225.25 121.097656 224.085938 120.296875 223.144531 119.351562 C 222.199219 118.332031 221.472656 117.167969 221.035156 115.789062 C 220.746094 114.261719 220.527344 112.734375 220.527344 111.207031 Z M 234.914062 108.878906 C 234.914062 108.371094 234.765625 107.863281 234.621094 107.351562 C 234.476562 106.84375 234.257812 106.40625 233.894531 106.042969 C 233.605469 105.679688 233.167969 105.316406 232.734375 105.097656 C 232.222656 104.878906 231.644531 104.734375 230.917969 104.734375 C 230.261719 104.734375 229.679688 104.878906 229.171875 105.097656 C 228.664062 105.316406 228.300781 105.605469 227.9375 106.042969 C 227.574219 106.40625 227.355469 106.84375 227.210938 107.351562 C 227.066406 107.863281 226.921875 108.371094 226.847656 108.878906 Z M 234.914062 108.878906 "></path>
    <path style=" stroke:none;fill-rule:nonzero;fill:rgb(13.725491%,23.137255%,52.156866%);fill-opacity:1;" d="M 257.796875 105.679688 C 257.214844 105.535156 256.636719 105.390625 255.835938 105.242188 C 255.109375 105.097656 254.3125 105.023438 253.4375 105.023438 C 253.074219 105.023438 252.566406 105.023438 252.058594 105.097656 C 251.550781 105.171875 251.113281 105.242188 250.824219 105.316406 L 250.824219 121.824219 L 244.71875 121.824219 L 244.71875 101.390625 C 245.808594 101.027344 247.117188 100.660156 248.570312 100.296875 C 250.023438 99.933594 251.695312 99.789062 253.585938 99.789062 C 253.949219 99.789062 254.3125 99.789062 254.746094 99.863281 C 255.183594 99.933594 255.691406 99.933594 256.128906 100.007812 C 256.5625 100.082031 257.070312 100.152344 257.507812 100.226562 C 257.941406 100.296875 258.378906 100.445312 258.667969 100.589844 Z M 257.796875 105.679688 "></path>
    <path style=" stroke:none;fill-rule:nonzero;fill:rgb(13.725491%,23.137255%,52.156866%);fill-opacity:1;" d="M 260.121094 110.988281 C 260.121094 109.460938 260.339844 107.933594 260.847656 106.550781 C 261.359375 105.171875 262.085938 103.933594 263.027344 102.917969 C 263.972656 101.898438 265.136719 101.097656 266.515625 100.445312 C 267.898438 99.863281 269.421875 99.570312 271.164062 99.570312 C 272.328125 99.570312 273.34375 99.644531 274.289062 99.863281 C 275.234375 100.082031 276.179688 100.371094 277.050781 100.734375 L 275.816406 105.605469 C 275.234375 105.390625 274.582031 105.171875 273.925781 105.023438 C 273.273438 104.878906 272.472656 104.808594 271.601562 104.808594 C 269.785156 104.808594 268.476562 105.390625 267.535156 106.480469 C 266.660156 107.570312 266.226562 109.097656 266.226562 110.914062 C 266.226562 112.878906 266.660156 114.332031 267.460938 115.425781 C 268.261719 116.515625 269.714844 117.023438 271.820312 117.023438 C 272.546875 117.023438 273.34375 116.953125 274.21875 116.804688 C 275.089844 116.660156 275.816406 116.441406 276.542969 116.152344 L 277.414062 121.167969 C 276.6875 121.460938 275.816406 121.75 274.726562 121.96875 C 273.636719 122.1875 272.472656 122.332031 271.164062 122.332031 C 269.203125 122.332031 267.535156 122.042969 266.082031 121.460938 C 264.628906 120.878906 263.464844 120.078125 262.59375 119.0625 C 261.648438 118.042969 260.996094 116.878906 260.558594 115.496094 C 260.269531 114.117188 260.121094 112.660156 260.121094 110.988281 Z M 260.121094 110.988281 "></path>
    <path style=" stroke:none;fill-rule:nonzero;fill:rgb(13.725491%,23.137255%,52.156866%);fill-opacity:1;" d="M 287.511719 93.972656 C 287.511719 95.0625 287.148438 96.007812 286.421875 96.589844 C 285.695312 97.242188 284.824219 97.535156 283.878906 97.535156 C 282.863281 97.535156 282.0625 97.242188 281.335938 96.589844 C 280.609375 95.933594 280.246094 95.0625 280.246094 93.972656 C 280.246094 92.878906 280.609375 91.933594 281.335938 91.351562 C 282.0625 90.699219 282.9375 90.40625 283.878906 90.40625 C 284.898438 90.40625 285.695312 90.699219 286.421875 91.351562 C 287.148438 92.007812 287.511719 92.878906 287.511719 93.972656 Z M 286.929688 121.824219 L 280.828125 121.824219 L 280.828125 100.226562 L 286.929688 100.226562 Z M 286.929688 121.824219 "></path>
    <path style=" stroke:none;fill-rule:nonzero;fill:rgb(13.725491%,23.137255%,52.156866%);fill-opacity:1;" d="M 311.996094 110.988281 C 311.996094 112.660156 311.777344 114.261719 311.269531 115.644531 C 310.761719 117.023438 310.035156 118.261719 309.164062 119.277344 C 308.21875 120.296875 307.128906 121.023438 305.820312 121.605469 C 304.511719 122.1875 303.058594 122.40625 301.460938 122.40625 C 299.863281 122.40625 298.410156 122.113281 297.175781 121.605469 C 295.867188 121.023438 294.777344 120.296875 293.832031 119.277344 C 292.890625 118.261719 292.164062 117.097656 291.652344 115.644531 C 291.144531 114.261719 290.855469 112.660156 290.855469 110.988281 C 290.855469 109.316406 291.144531 107.714844 291.652344 106.335938 C 292.164062 104.953125 292.890625 103.714844 293.832031 102.769531 C 294.777344 101.753906 295.867188 101.027344 297.175781 100.445312 C 298.484375 99.863281 299.863281 99.644531 301.390625 99.644531 C 302.914062 99.644531 304.367188 99.933594 305.675781 100.445312 C 306.984375 101.027344 308.074219 101.753906 309.019531 102.769531 C 309.960938 103.789062 310.6875 104.953125 311.199219 106.335938 C 311.777344 107.714844 311.996094 109.316406 311.996094 110.988281 Z M 305.820312 110.988281 C 305.820312 109.097656 305.457031 107.644531 304.660156 106.550781 C 303.933594 105.460938 302.84375 104.953125 301.460938 104.953125 C 300.082031 104.953125 298.992188 105.460938 298.191406 106.550781 C 297.394531 107.644531 297.03125 109.097656 297.03125 110.988281 C 297.03125 112.878906 297.394531 114.40625 298.191406 115.496094 C 298.992188 116.589844 300.007812 117.167969 301.460938 117.167969 C 302.84375 117.167969 303.933594 116.589844 304.660156 115.496094 C 305.386719 114.332031 305.820312 112.878906 305.820312 110.988281 Z M 305.820312 110.988281 "></path>
    <path style=" stroke:none;fill-rule:nonzero;fill:rgb(13.725491%,23.137255%,52.156866%);fill-opacity:1;" d="M 391.839844 122.332031 C 387.191406 122.332031 383.703125 121.023438 381.308594 118.480469 C 378.910156 115.933594 377.675781 112.226562 377.675781 107.496094 C 377.675781 105.171875 378.039062 103.0625 378.765625 101.171875 C 379.492188 99.351562 380.507812 97.753906 381.816406 96.515625 C 383.125 95.28125 384.648438 94.261719 386.390625 93.609375 C 388.136719 92.953125 390.097656 92.589844 392.203125 92.589844 C 393.441406 92.589844 394.53125 92.664062 395.472656 92.878906 C 396.492188 93.027344 397.289062 93.246094 398.089844 93.460938 C 398.816406 93.679688 399.46875 93.898438 399.90625 94.191406 C 400.414062 94.40625 400.777344 94.625 400.996094 94.769531 L 399.179688 99.933594 C 398.308594 99.5 397.289062 99.0625 396.128906 98.769531 C 394.964844 98.40625 393.65625 98.261719 392.203125 98.261719 C 391.1875 98.261719 390.242188 98.40625 389.296875 98.769531 C 388.355469 99.132812 387.554688 99.644531 386.828125 100.371094 C 386.101562 101.097656 385.519531 102.042969 385.085938 103.207031 C 384.648438 104.371094 384.429688 105.753906 384.429688 107.425781 C 384.429688 108.734375 384.574219 109.96875 384.867188 111.0625 C 385.15625 112.226562 385.59375 113.171875 386.246094 113.96875 C 386.902344 114.769531 387.699219 115.425781 388.789062 115.933594 C 389.808594 116.441406 391.113281 116.660156 392.566406 116.660156 C 393.511719 116.660156 394.3125 116.589844 395.039062 116.515625 C 395.765625 116.371094 396.417969 116.296875 397 116.152344 C 397.582031 116.007812 398.089844 115.859375 398.523438 115.644531 C 398.960938 115.425781 399.324219 115.277344 399.6875 115.132812 L 401.429688 120.222656 C 400.558594 120.804688 399.25 121.242188 397.652344 121.679688 C 395.910156 122.113281 394.019531 122.332031 391.839844 122.332031 Z M 391.839844 122.332031 "></path>
    <path style=" stroke:none;fill-rule:nonzero;fill:rgb(13.725491%,23.137255%,52.156866%);fill-opacity:1;" d="M 412.402344 99.644531 C 414.21875 99.644531 415.671875 99.863281 416.90625 100.226562 C 418.140625 100.660156 419.085938 101.242188 419.8125 101.972656 C 420.539062 102.769531 421.046875 103.644531 421.339844 104.734375 C 421.628906 105.824219 421.773438 107.0625 421.773438 108.371094 L 421.773438 121.097656 C 420.902344 121.316406 419.667969 121.53125 418.140625 121.75 C 416.617188 122.042969 414.726562 122.113281 412.476562 122.113281 C 411.09375 122.113281 409.785156 121.96875 408.695312 121.75 C 407.535156 121.53125 406.589844 121.097656 405.789062 120.515625 C 404.992188 119.933594 404.335938 119.207031 403.902344 118.332031 C 403.464844 117.460938 403.246094 116.296875 403.246094 114.988281 C 403.246094 113.75 403.464844 112.660156 403.972656 111.789062 C 404.484375 110.914062 405.136719 110.1875 406.007812 109.679688 C 406.878906 109.171875 407.824219 108.808594 408.914062 108.515625 C 410.003906 108.296875 411.167969 108.152344 412.328125 108.152344 C 413.128906 108.152344 413.855469 108.152344 414.4375 108.226562 C 415.015625 108.296875 415.527344 108.371094 415.960938 108.515625 L 415.960938 108.152344 C 415.960938 107.132812 415.671875 106.261719 415.015625 105.679688 C 414.363281 105.023438 413.273438 104.734375 411.75 104.734375 C 410.730469 104.734375 409.714844 104.808594 408.695312 104.953125 C 407.679688 105.097656 406.808594 105.316406 406.082031 105.605469 L 405.28125 100.660156 C 405.644531 100.589844 406.082031 100.445312 406.589844 100.296875 C 407.097656 100.152344 407.679688 100.082031 408.332031 99.933594 C 408.988281 99.863281 409.640625 99.789062 410.296875 99.714844 C 410.949219 99.644531 411.675781 99.644531 412.402344 99.644531 Z M 412.835938 117.535156 C 413.417969 117.535156 414 117.535156 414.582031 117.460938 C 415.164062 117.460938 415.597656 117.386719 415.890625 117.316406 L 415.890625 112.660156 C 415.671875 112.589844 415.308594 112.589844 414.800781 112.515625 C 414.289062 112.441406 413.855469 112.441406 413.417969 112.441406 C 412.835938 112.441406 412.328125 112.441406 411.820312 112.515625 C 411.3125 112.589844 410.875 112.734375 410.511719 112.878906 C 410.148438 113.097656 409.859375 113.316406 409.640625 113.679688 C 409.421875 113.96875 409.277344 114.40625 409.277344 114.914062 C 409.277344 115.859375 409.570312 116.515625 410.222656 116.878906 C 410.875 117.316406 411.75 117.535156 412.835938 117.535156 Z M 412.835938 117.535156 "></path>
    <path style=" stroke:none;fill-rule:nonzero;fill:rgb(13.725491%,23.137255%,52.156866%);fill-opacity:1;" d="M 435.140625 122.1875 C 433.398438 122.1875 431.945312 121.96875 430.855469 121.605469 C 429.765625 121.242188 428.894531 120.734375 428.238281 120.078125 C 427.585938 119.425781 427.148438 118.625 426.933594 117.75 C 426.714844 116.804688 426.570312 115.789062 426.570312 114.625 L 426.570312 90.917969 L 432.671875 89.898438 L 432.671875 113.386719 C 432.671875 113.96875 432.746094 114.40625 432.816406 114.84375 C 432.890625 115.277344 433.035156 115.644531 433.253906 115.933594 C 433.472656 116.222656 433.835938 116.515625 434.269531 116.660156 C 434.707031 116.878906 435.289062 116.953125 436.015625 117.023438 Z M 435.140625 122.1875 "></path>
    <path style=" stroke:none;fill-rule:nonzero;fill:rgb(13.725491%,23.137255%,52.156866%);fill-opacity:1;" d="M 445.457031 93.972656 C 445.457031 95.0625 445.09375 96.007812 444.367188 96.589844 C 443.640625 97.242188 442.769531 97.535156 441.824219 97.535156 C 440.808594 97.535156 440.011719 97.242188 439.285156 96.589844 C 438.558594 95.933594 438.195312 95.0625 438.195312 93.972656 C 438.195312 92.878906 438.558594 91.933594 439.285156 91.351562 C 440.011719 90.699219 440.882812 90.40625 441.824219 90.40625 C 442.84375 90.40625 443.640625 90.699219 444.367188 91.351562 C 445.09375 92.007812 445.457031 92.878906 445.457031 93.972656 Z M 444.878906 121.75 L 438.773438 121.75 L 438.773438 100.152344 L 444.878906 100.152344 Z M 444.878906 121.75 "></path>
    <path style=" stroke:none;fill-rule:nonzero;fill:url(#linear0);" d="M 61.417969 106.84375 C 36.425781 106.84375 16.230469 86.554688 16.230469 61.609375 C 16.230469 36.59375 36.5 16.378906 61.417969 16.378906 C 71.445312 16.378906 80.746094 19.648438 88.226562 25.175781 L 97.164062 13.03125 C 87.136719 5.613281 74.785156 1.25 61.417969 1.25 C 28.070312 1.25 1.117188 28.230469 1.117188 61.609375 C 1.117188 94.917969 28.070312 121.96875 61.417969 121.96875 C 94.695312 121.96875 121.71875 94.988281 121.71875 61.609375 L 106.679688 61.609375 C 106.609375 86.554688 86.339844 106.84375 61.417969 106.84375 Z M 61.417969 106.84375 "></path>
    <path style=" stroke:none;fill-rule:nonzero;fill:url(#linear1);" d="M 79.292969 85.898438 C 74.277344 89.609375 68.101562 91.789062 61.417969 91.789062 C 44.78125 91.789062 31.269531 78.261719 31.269531 61.609375 C 31.269531 44.882812 44.707031 31.429688 61.417969 31.429688 C 78.054688 31.429688 91.570312 44.957031 91.570312 61.609375 L 106.609375 61.609375 C 106.609375 36.59375 86.339844 16.378906 61.417969 16.378906 C 36.425781 16.378906 16.230469 36.667969 16.230469 61.609375 C 16.230469 86.625 36.5 106.84375 61.417969 106.84375 C 71.445312 106.84375 80.746094 103.570312 88.226562 98.042969 Z M 79.292969 85.898438 "></path>
    <path style=" stroke:none;fill-rule:nonzero;fill:url(#linear2);" d="M 61.417969 76.664062 C 53.0625 76.664062 46.378906 69.902344 46.378906 61.609375 C 46.378906 53.246094 53.136719 46.558594 61.417969 46.558594 C 64.761719 46.558594 67.886719 47.648438 70.355469 49.464844 L 79.292969 37.320312 C 74.277344 33.613281 68.101562 31.429688 61.417969 31.429688 C 44.707031 31.429688 31.269531 44.882812 31.269531 61.609375 C 31.269531 78.261719 44.78125 91.789062 61.417969 91.789062 C 78.054688 91.789062 91.570312 78.261719 91.570312 61.609375 L 76.53125 61.609375 C 76.457031 69.902344 69.703125 76.664062 61.417969 76.664062 Z M 61.417969 76.664062 "></path>
  </g>
</svg>
