<?xml version="1.0" encoding="UTF-8"?>
<svg xmlns="http://www.w3.org/2000/svg" xmlns:i="http://ns.adobe.com/AdobeIllustrator/10.0/" id="Capa_1" version="1.1" viewBox="0 0 120.7 120">
  <defs>
    <style>
      .st0 {
        fill: #fff;
      }

      .st1 {
        fill: #014689;
      }

      .st2 {
        fill: #4ab848;
      }
    </style>
  </defs>
  <g>
    <path class="st0" d="M17,92.53c.3-.11.63-.02.94,0,0,.66,0,1.31,0,1.97-.38-.04-.79.03-1.14-.13-.6-.44-.5-1.56.2-1.85Z"></path>
    <path class="st0" d="M39.89,92.56c.31-.16.67-.04,1-.01,0,.65,0,1.31,0,1.96-.46-.05-1.06.11-1.36-.34-.32-.51-.21-1.32.35-1.61Z"></path>
    <path class="st0" d="M20.05,92.66c.65-.38,1.58.18,1.49.95,0,.72-.89,1.14-1.49.79-.67-.33-.66-1.41,0-1.74Z"></path>
    <path class="st0" d="M27.09,92.54c.38.05.8,0,1.15.19.54.39.48,1.33-.08,1.68-.32.22-.71.09-1.06.07-.02-.65-.01-1.3-.01-1.95Z"></path>
    <path class="st0" d="M93.27,94.42c.4-.61,1-1.19,1.77-1.19.65.26.43,1.11.17,1.58-.65,1.17-1.52,2.38-2.86,2.8-.14-1.14.31-2.25.92-3.19Z"></path>
    <path class="st0" d="M30.04,94.03c.24-.25.59-.35.89-.5,0,.33,0,.66,0,.99-.21.05-.43.11-.64.14-.24-.1-.4-.39-.24-.63Z"></path>
    <path class="st0" d="M35.08,93.99c.26-.2.57-.32.86-.47,0,.33.01.65.02.98-.23.06-.45.13-.69.14-.25-.13-.36-.41-.19-.65Z"></path>
    <path class="st0" d="M42.46,94.46c-.25-.58.53-.74.9-.93,0,.33,0,.66,0,.99-.3.04-.7.29-.9-.06Z"></path>
    <path class="st0" d="M36.6,102.85c.24-.27.57-.42.89-.55.48.68,1.16,1.6.65,2.44-.6.85-1.43,1.51-2.17,2.24-.22-.04-.44-.08-.66-.12-.3-1.46.31-2.95,1.3-4Z"></path>
  </g>
  <g>
    <path class="st1" d="M62.01,13.94c1.77-1.56,3.72-2.95,5.86-3.94.37.24.76.44,1.14.66-.8.53-1.61,1.05-2.46,1.48-.55.3-1.22.26-1.74.62-1.04.65-2.05,1.44-2.66,2.53,1.62-.07,3.12-.74,4.67-1.16.34-.12.99,0,.87.48-.04.41-.21.79-.48,1.09-.9,1.11-2.05,2-3.27,2.74-.73.45-1.55.73-2.39.86.17-.37.38-.73.71-.98,1.16-.93,2.45-1.71,3.43-2.84-1.43.35-2.75,1.06-4.21,1.32-.64.17-.98-.65-.84-1.15.26-.7.85-1.2,1.38-1.71Z"></path>
    <path class="st1" d="M55.81,12.05c.87-.75,1.89-1.45,3.07-1.56.45-.03,1.03,0,1.28.44.36.74.22,1.66-.19,2.35-.54.92-1.38,1.61-2.24,2.22-1.29.89-2.7,1.69-4.26,1.99-.5.06-.4.86-.03,1.05.57.3,1.22,0,1.78-.19,1.65-.7,3.06-1.84,4.58-2.77.17.09.34.17.51.26-.9,1.34-2.27,2.28-3.63,3.1-1.04.58-2.31,1.13-3.51.69-.9-.37-1.26-1.48-.85-2.33-.08-.32-.49-.7-.19-1.01.18-.09.37-.17.56-.23.72-1.54,1.82-2.88,3.1-3.99ZM56.15,12.9c-.91.87-1.8,1.87-2.13,3.12,1.55-.3,2.85-1.26,4.03-2.26.5-.46,1.05-.94,1.3-1.59.1-.24.07-.69-.27-.68-1.15-.05-2.12.69-2.93,1.42Z"></path>
    <path class="st1" d="M23.55,13.61c.37-.64,1.1-1.05,1.84-1.03,5.16,0,10.31,0,15.47,0,.83-.04,1.71.35,2.14,1.09,5.57,9.06,11.17,18.1,16.74,27.17-2.41-.46-4.59-2.04-5.69-4.24-3.24-5.57-6.49-11.13-9.73-16.69-.6-1.07-1.86-1.74-3.09-1.6-1.1.1-2.11.91-2.41,1.98-.25.79-.09,1.67.34,2.37,3.71,6.32,7.4,12.65,11.11,18.97.22.41.58.8.54,1.3,0,4.2,0,8.4,0,12.6-3.27-6.07-6.5-12.17-9.79-18.23-.04,8.75,0,17.5-.02,26.25.02,1.06-.96,2.02-2.02,1.99-4.52,0-9.05,0-13.58,0-.92.05-1.8-.61-2.05-1.49-.12-.56-.05-1.14-.07-1.71,0-15.57,0-31.15,0-46.72.02-.68-.11-1.42.27-2.02Z"></path>
    <path class="st1" d="M78.76,12.99c.42-.29.93-.43,1.44-.41,5.21,0,10.43,0,15.64,0,1.09-.04,2.11.91,2.09,2.01,0,16.26,0,32.53,0,48.79.1,1.15-.94,2.23-2.1,2.16-4.53,0-9.06,0-13.59,0-1.06.03-2.04-.92-2.03-1.98-.01-8.79,0-17.59,0-26.39-3.12,5.76-6.2,11.54-9.31,17.31-.02-3.97.02-7.95-.02-11.92,3.89-6.65,7.79-13.3,11.68-19.95.65-1.04.56-2.49-.28-3.4-.84-.95-2.32-1.19-3.45-.64-.68.3-1.21.86-1.56,1.5-3.26,5.61-6.54,11.21-9.81,16.82-1.2,2.2-3.52,3.68-5.99,4,5.36-8.79,10.72-17.58,16.07-26.38.35-.55.63-1.19,1.2-1.54Z"></path>
    <path class="st1" d="M59.14,24.84c2.6-.79,5.62.57,6.75,3.04,1.24,2.46.37,5.73-1.94,7.23-2.23,1.59-5.57,1.23-7.41-.8-1.9-1.94-2.09-5.24-.43-7.38.75-1,1.83-1.75,3.03-2.09Z"></path>
    <path class="st1" d="M34.56,69.46c1.01-.14,2.04-.05,3.06-.06.39-.07.52.36.49.67,0,3.61,0,7.23,0,10.84.02.23-.06.59-.35.6-.96.04-1.93.02-2.89.01-.35.06-.49-.33-.45-.61,0-3.55,0-7.1,0-10.65,0-.27-.02-.56.15-.8Z"></path>
    <path class="st1" d="M16.32,84.32c29.43,0,58.86,0,88.29,0,0,.39,0,.77,0,1.16-29.43,0-58.86,0-88.29,0,0-.39,0-.77,0-1.16Z"></path>
    <path class="st1" d="M6.83,90.42c.22,0,.44,0,.66,0,.03,1.07-.06,2.14.06,3.2.21,1.2,2.35,1.17,2.52-.03.09-1.05.01-2.11.04-3.17.23,0,.46,0,.69,0-.01,1.01.03,2.03-.02,3.04-.02.56-.32,1.12-.83,1.38-.69.35-1.56.36-2.26.02-.53-.25-.85-.82-.85-1.39-.03-1.01,0-2.03,0-3.04Z"></path>
    <path class="st1" d="M17.7,90.42c.21,0,.41,0,.62,0,0,1.54,0,3.08,0,4.62-.61-.02-1.24.07-1.84-.08-1.18-.4-1.26-2.31-.16-2.86.42-.25.93-.15,1.39-.1,0-.53,0-1.05,0-1.58ZM16.75,92.53c-.7.29-.8,1.41-.2,1.85.35.16.76.09,1.14.13,0-.66,0-1.32,0-1.97-.31-.02-.64-.12-.94,0Z"></path>
    <path class="st1" d="M40.65,90.42h.63v4.62c-.64-.02-1.29.08-1.91-.1-1.11-.44-1.17-2.24-.15-2.81.44-.28.97-.18,1.45-.12-.01-.53-.01-1.06-.01-1.58ZM39.64,92.56c-.56.29-.67,1.1-.35,1.61.29.45.9.29,1.36.34,0-.65,0-1.31,0-1.96-.33-.03-.69-.14-1,.01Z"></path>
    <path class="st1" d="M14.61,90.73c.43-.22.77.5.33.67-.4.25-.77-.45-.33-.67Z"></path>
    <path class="st1" d="M109.95,93.47c.77-1.06,1.66-2.04,2.71-2.83.34.08.69.16,1.04.26-.51.57-1.02,1.17-1.66,1.59-1.27.41-2.1,1.7-2.32,2.97,1.14-.21,2.14-.8,3.17-1.28.25-.12.55-.25.81-.08.33.55.11,1.2-.17,1.72-.68,1.24-1.66,2.42-3.04,2.89.05-.36.13-.74.4-1.01.69-.8,1.45-1.58,1.83-2.59-1.05.4-1.93,1.14-3,1.49-.53.19-.93-.47-.91-.92.12-.84.67-1.54,1.14-2.22Z"></path>
    <path class="st1" d="M101.72,91.27c.31-.19.67-.29,1.02-.42-.33.77-.73,1.56-1.4,2.08-.61.38-1.25-.21-1.7-.59-.26.35-.52.7-.79,1.04-.25-.07-.5-.14-.74-.21.41-.67.87-1.31,1.32-1.95.5.36.96.79,1.51,1.09.26-.35.47-.74.79-1.03Z"></path>
    <path class="st1" d="M104.13,93.95c.19-1.06.42-2.21,1.27-2.96.14.18.28.35.42.53-.74,1.74-1.24,3.62-1.25,5.52.05.39-.04,1.15.54,1.1.51-.04.78-.56,1.04-.94.83-1.42,1.48-3.17.91-4.8-.84,1.15-.69,2.68-1.03,4.01-.17-.2-.34-.4-.48-.61.02-.96.17-1.92.3-2.87.13-.52.22-1.16.7-1.47.29-.21.56.1.75.31.37.42.58.96.63,1.51.19,1.69-.36,3.4-1.25,4.82-.32.47-.77,1.05-1.4,1.01-.67-.24-1.34-.79-1.4-1.54-.09-1.21.08-2.42.25-3.62Z"></path>
    <path class="st1" d="M11.34,91.98c.21,0,.42,0,.63,0,0,.08-.03.22-.03.3.29-.14.58-.35.92-.35.47-.02.94.33.99.81.09.76.02,1.53.04,2.29-.21,0-.42,0-.62,0-.03-.76.08-1.53-.07-2.27-.22-.5-.94-.33-1.2.04-.1.74-.02,1.49-.04,2.23-.21,0-.42,0-.63,0,0-1.02,0-2.03,0-3.05Z"></path>
    <path class="st1" d="M14.47,91.98c.21,0,.41,0,.62,0,0,1.02,0,2.03,0,3.05-.21,0-.42,0-.62,0v-3.05Z"></path>
    <path class="st1" d="M22.63,92.04c.47-.22.99-.04,1.46.1,0,.16,0,.47.01.63-.41-.15-.86-.43-1.29-.19.04.52.66.6.98.91.44.26.61.94.21,1.31-.5.48-1.26.27-1.83.06,0-.23-.02-.46-.03-.69.45.2,1.04.63,1.47.15-.23-.63-1.12-.67-1.38-1.29-.16-.37.02-.83.4-.99Z"></path>
    <path class="st1" d="M29.2,92.23c.6-.36,1.59-.5,1.99.22.19.71.06,1.46.1,2.19.14-.03.42-.09.56-.12-.11.6-.79.7-1.22.38-.38.1-.84.32-1.2.05-.42-.28-.39-.97.03-1.24.4-.27.88-.38,1.32-.57-.08-.18-.16-.36-.26-.53-.47-.3-.95.11-1.34.36.01-.25.02-.5.03-.74ZM29.79,94.03c-.15.24,0,.53.24.63.22-.02.43-.08.64-.14,0-.33,0-.66,0-.99-.3.15-.65.25-.89.5Z"></path>
    <path class="st1" d="M32.61,92.61c.23-.23.42-.5.72-.65.33-.11.64.12.93.24.6-.33,1.56-.47,1.95.24.2.72.05,1.49.11,2.23.13-.04.39-.14.52-.18-.06.63-.76.73-1.21.42-.36.1-.76.29-1.11.09-.48-.24-.49-.97-.07-1.27.4-.29.89-.4,1.34-.58-.09-.19-.15-.4-.27-.57-.48-.24-.93.14-1.32.38,0-.15.02-.46.03-.61-.06.1-.18.31-.24.41-.34-.14-.77-.42-1.06-.04-.5.65-.2,1.55-.27,2.31h-.62v-3.05h.64c-.01.16-.03.47-.05.63ZM34.83,93.99c-.16.24-.05.52.19.65.23,0,.46-.08.69-.14,0-.33-.01-.66-.02-.98-.29.14-.6.26-.86.47Z"></path>
    <path class="st1" d="M41.63,92.24c.59-.37,1.56-.51,1.98.18.23.7.06,1.47.11,2.19.15-.01.45-.03.6-.04-.25.52-.82.64-1.28.33-.36.09-.77.29-1.13.09-.46-.24-.48-.96-.07-1.26.4-.3.91-.41,1.36-.6-.09-.19-.19-.38-.3-.55-.48-.23-.92.15-1.31.39.01-.25.02-.49.03-.73ZM42.22,94.46c.2.34.6.1.9.06,0-.33,0-.66,0-.99-.37.2-1.15.36-.9.93Z"></path>
    <path class="st1" d="M45.73,91.97c.35-.13.67.12.98.26-.1.18-.2.36-.31.54-.35-.13-.79-.42-1.08-.02-.47.66-.18,1.54-.26,2.29h-.63v-3.05c.16,0,.48,0,.64,0-.01.15-.03.46-.04.62.22-.22.42-.48.69-.63Z"></path>
    <path class="st1" d="M19.6,92.12c1.04-.51,2.45.31,2.33,1.51,0,1.33-1.84,1.93-2.75,1.06-.82-.69-.59-2.19.42-2.57ZM19.8,92.66c-.66.33-.67,1.41,0,1.74.6.35,1.49-.07,1.49-.79.09-.77-.84-1.33-1.49-.95Z"></path>
    <path class="st1" d="M26.22,91.98c.7.02,1.47-.1,2.11.25.95.55.87,2.15-.07,2.67-.43.26-.95.17-1.42.12.01.52.01,1.04.01,1.56h-.62v-4.6ZM26.84,92.54c0,.65,0,1.3.01,1.95.35.02.74.14,1.06-.07.56-.35.62-1.29.08-1.68-.35-.2-.77-.15-1.15-.19Z"></path>
    <path class="st1" d="M59.14,92.34c.2.06.41.12.62.19-.31,1.38-.33,2.81-.52,4.21.92-.43,1.85-.89,2.88-.95.09.3.19.6.23.91-.16.21-.36.39-.58.53-.29-.03-.54-.18-.8-.29-.64.31-1.28.65-1.9,1-.31,1.5-.31,3.06-.08,4.58.13-.2.26-.39.38-.59.42.86.64,2.2-.38,2.72-.8-1.85-.92-3.93-.8-5.92-.24.24-.48.46-.74.68-.07-.26-.19-.52-.21-.79.17-.63.74-1,1.21-1.41-.06-1.65-.03-3.36.69-4.88Z"></path>
    <path class="st1" d="M82.13,92.63c.42-.22.74.27.73.64-.26.49-.63.95-1.11,1.25-.69-.35-1.15.37-1.59.78-.89.99-1.97,2.06-2.04,3.47-.12.7.73.95,1.26.73,1.4-.48,2.72-1.17,4.09-1.74.17.11.35.22.52.33-.54,1.36-2.26,2.1-2.2,3.7-.15.49-.46,1.23-1.07,1.17-.31-.18-.41-.61-.33-.94.22-.97.87-1.75,1.36-2.59-1.08.18-1.98.98-3.11.9-.9.08-1.2-1.01-1.14-1.72.17-1.5,1.15-2.75,2.1-3.86.75-.79,1.52-1.63,2.51-2.12Z"></path>
    <path class="st1" d="M93,93.38c.54-.58,1.44-1.07,2.23-.7.74.61.83,1.74.51,2.6-.42,1.08-1.25,1.93-2.13,2.65-.5.42-1.1.66-1.72.85.1.44.31.99.85,1.01.7-.03,1.28-.49,1.78-.94.69-.69,1.34-1.42,2.01-2.13.09.06.28.17.37.22-.32,1.13-1.13,2.05-1.99,2.81-.67.58-1.61,1.04-2.5.71-.72-.27-1.14-1.02-1.14-1.77-.15-.22-.47-.4-.42-.7.09-.08.27-.25.36-.34.18-1.55.73-3.1,1.78-4.27ZM93.02,94.42c-.6.94-1.06,2.05-.92,3.19,1.33-.42,2.21-1.63,2.86-2.8.26-.48.48-1.32-.17-1.58-.77,0-1.37.59-1.77,1.19Z"></path>
    <path class="st1" d="M68.62,98.54c.89-1.41,1.97-2.72,3.32-3.72.35.08.69.16,1.03.27-.48.52-.95,1.06-1.51,1.49-.33.26-.8.29-1.1.59-.67.68-1.25,1.51-1.36,2.48,1.15-.22,2.16-.82,3.21-1.3.24-.13.51-.18.78-.1.32.61.09,1.29-.23,1.85-.67,1.2-1.64,2.32-2.97,2.8.03-.39.14-.77.41-1.05.68-.78,1.42-1.55,1.79-2.54-1.05.39-1.93,1.13-2.99,1.49-.44.2-.77-.3-.89-.66-.1-.58.24-1.11.51-1.59Z"></path>
    <path class="st1" d="M100.49,95.22c.23-.29.59-.62.99-.47.47.23.78.73.84,1.24.15.96.01,1.94.25,2.89.09.42.28.82.3,1.25-.09.29-.35.45-.55.66-.17-.27-.38-.53-.44-.85-.27-1.42-.08-2.91-.5-4.31-1.46,1.28-1.28,3.42-2.25,4.98-.13-.04-.38-.11-.51-.15-.13-1.78-.21-3.57-.31-5.36.2-.05.4-.1.6-.15.29.84.34,1.74.4,2.62.35-.8.65-1.65,1.18-2.36Z"></path>
    <path class="st1" d="M38.14,102.17c-.13-2.38-.22-4.77-.07-7.15.13.05.39.17.52.22.17.64.11,1.32.16,1.98.15,3.23.13,6.46.23,9.7-.24-.08-.48-.15-.71-.23-.05-.3-.1-.6-.15-.9-.7.62-1.29,1.37-2.07,1.9-.37.26-.97.32-1.28-.06-.73-1.06-.75-2.51-.17-3.64.47-.9,1.09-1.76,1.9-2.39.6-.45,1.2.22,1.65.56ZM36.36,102.85c-.99,1.06-1.59,2.55-1.3,4,.22.04.44.08.66.12.74-.73,1.57-1.39,2.17-2.24.5-.83-.17-1.76-.65-2.44-.32.14-.65.29-.89.55Z"></path>
    <path class="st1" d="M89.13,95.11c.27.2.85.27.72.72-.21,1.55-.25,3.15.2,4.67.11.23-.13.74-.41.54-.43-.41-.51-1.03-.71-1.56-.6.86-.94,1.93-1.76,2.61-.65.41-.98-.42-1.07-.93-.37-1.92-.35-3.93.04-5.85.48.08.57.64.56,1.04,0,1.56-.36,3.16.14,4.68.72-.8,1.1-1.81,1.64-2.72.68-.93.31-2.15.64-3.2Z"></path>
    <path class="st1" d="M66.25,96.49c.23.14.47.27.68.46-.03,1.01-.24,2.01-.14,3.03.01.76.28,1.48.36,2.23-.09.08-.27.23-.36.31-.49-.4-.58-1.07-.78-1.63-.5.78-.89,1.64-1.48,2.36-.24.32-.84.54-1.07.09-.44-.88-.47-1.89-.53-2.85-.02-1.31-.01-2.64.33-3.9.26.28.54.59.52,1,.03,1.61-.39,3.28.15,4.85.74-.81,1.11-1.86,1.68-2.79.64-.93.24-2.13.64-3.15Z"></path>
    <path class="st1" d="M30.97,98.07c.5-.24,1.05-.26,1.44.18-.26.26-.52.54-.83.74-.34-.2-.48-.58-.61-.92Z"></path>
    <path class="st1" d="M49.71,99.53c.4-.64.9-1.32,1.65-1.55.35-.13.7.04,1.04.12-1.09.95-2.17,2.01-2.64,3.43-.36.97-.41,2.31.57,2.93.7-.69,1.04-1.64,1.39-2.54.38-1,.54-2.07.61-3.13.25.17.5.34.74.52,0,.91.04,1.83-.19,2.72-.16.6-.28,1.22-.36,1.84.14.04.41.11.55.14-.06.49-.2,1.26-.87,1.18-.26-.19-.43-.47-.63-.71-.4.31-.78.96-1.37.72-.61-.3-.93-.96-1.16-1.56-.5-1.38-.09-2.9.66-4.11Z"></path>
    <path class="st1" d="M40.72,101.35c.43-.75.98-1.56,1.86-1.8.33-.1.65.08.96.17-1.28,1.04-2.47,2.35-2.81,4.01-.19.83-.05,1.88.78,2.32,1.25-1.6,1.85-3.66,1.96-5.67.27.22.77.35.75.78.14,1.45-.36,2.83-.55,4.25.96.05.35,1.62-.4,1.33-.21-.2-.38-.44-.56-.67-.37.28-.67.8-1.19.77-.63-.15-.97-.78-1.23-1.32-.63-1.34-.31-2.93.41-4.17Z"></path>
    <path class="st1" d="M29.14,102.21c.22-.67.38-1.45,1.03-1.83.12.21.23.43.34.65-.18.49-.33,1-.51,1.49-.84,2.42-.84,5.04-1.56,7.49-.35-.13-.71-.32-.83-.7-.6-1.41-1.04-2.89-1.51-4.35-.22-.8-.56-1.59-.54-2.44.37-.13.52.32.67.57.71,1.56,1.12,3.24,1.6,4.89.42-1.92.77-3.86,1.31-5.76Z"></path>
    <path class="st1" d="M31.96,100.59c.2.08.43.12.59.27.04,1.8-.08,3.61.1,5.41.19.17.52.26.52.56,0,.62-.53,1.04-.94,1.44-.19-.34-.59-.63-.51-1.06.2-2.2-.02-4.42.23-6.62Z"></path>
  </g>
  <g>
    <path class="st2" d="M44.28,69.32c2.05-.3,4.16-.15,6.16.36.3.1.77.16.78.57.1.79.16,1.6.17,2.4.02.32-.39.48-.64.33-1.49-.45-3.04-.98-4.62-.74-1.09.13-2.17.78-2.57,1.85-.4,1.08-.41,2.41.35,3.33.76.95,2.05,1.23,3.21,1.19,1.36.02,2.65-.41,3.92-.84.25-.12.59-.1.71.2.08.86.03,1.72-.02,2.58,0,.34-.38.43-.63.52-1.67.52-3.43.66-5.17.63-1.81-.05-3.71-.48-5.1-1.71-1.06-.88-1.67-2.21-1.78-3.57-.15-1.68.11-3.49,1.16-4.86.97-1.29,2.53-1.99,4.09-2.25Z"></path>
    <path class="st2" d="M57.52,69.34c1.83-.27,3.74-.26,5.52.27,1.41.41,2.71,1.35,3.33,2.71.64,1.39.7,2.97.52,4.47-.18,1.4-.86,2.79-2.05,3.61-1.54,1.09-3.5,1.32-5.34,1.31-1.8-.03-3.72-.33-5.16-1.5-1.19-.94-1.76-2.46-1.86-3.94-.12-1.64.06-3.41,1.06-4.76.93-1.27,2.47-1.92,3.98-2.17ZM58.52,72.93c-1.83.38-2.26,2.84-1.29,4.21.68.89,1.92,1.03,2.95.94.96-.06,1.99-.56,2.31-1.52.35-1.09.24-2.53-.76-3.24-.93-.62-2.15-.64-3.21-.39Z"></path>
    <path class="st2" d="M73.26,69.26c2.18-.2,4.55-.14,6.48,1.03,1.33.79,2.14,2.26,2.34,3.77.2,1.63.14,3.4-.69,4.86-.64,1.14-1.78,1.93-3.01,2.32-1.59.51-3.29.55-4.93.41-1.56-.16-3.18-.64-4.3-1.79-1.06-1.08-1.46-2.63-1.49-4.11-.05-1.56.23-3.24,1.27-4.47,1.07-1.27,2.74-1.83,4.34-2.02ZM73.82,72.91c-2,.34-2.44,3.16-1.17,4.48.79.72,1.95.8,2.96.68.88-.1,1.79-.6,2.07-1.48.36-1.07.26-2.49-.7-3.22-.91-.65-2.12-.67-3.17-.45Z"></path>
    <path class="st2" d="M16.93,70.07c-.04-.3.1-.68.47-.66,1.21-.03,2.42-.03,3.63,0,.32-.01.46.32.62.54,1.27,2.08,2.55,4.14,3.83,6.22,1.32-2.14,2.61-4.3,3.93-6.44.19-.41.67-.33,1.04-.34,1.03.02,2.07-.03,3.11.02.36-.02.49.36.46.66.01,3.56,0,7.12,0,10.67.02.31-.04.78-.45.77-1.04.04-2.07.02-3.11,0-.34.04-.57-.29-.52-.61-.02-1.94,0-3.88,0-5.82-1.06,1.97-2.12,3.94-3.17,5.91-.13.19-.23.48-.49.5-.53.05-1.07.05-1.61,0-.27-.01-.37-.3-.5-.49-1.06-1.98-2.11-3.96-3.18-5.93-.02,2,.02,4-.02,6,.03.37-.37.47-.66.44-1.02-.01-2.04.05-3.06-.03-.35-.07-.33-.49-.33-.77,0-3.55,0-7.1,0-10.65Z"></path>
    <path class="st2" d="M82.83,70.25c.02-.3-.03-.78.37-.82.97-.08,1.94-.01,2.92-.03,1.83.02,3.74-.11,5.49.53,1.04.37,1.9,1.25,2.11,2.35.19,1.08.12,2.28-.47,3.23-.51.81-1.41,1.27-2.32,1.49-1.26.32-2.56.19-3.84.21-.02,1.28.02,2.56-.01,3.85.05.34-.31.5-.6.47-1.07,0-2.15.03-3.22-.02-.4-.01-.43-.46-.42-.76,0-3.5,0-7,0-10.49ZM87.08,72.24c0,.73,0,1.46,0,2.18.71,0,1.48.13,2.14-.2.66-.34.64-1.41.02-1.78-.65-.41-1.44-.21-2.16-.2Z"></path>
    <path class="st2" d="M94.47,70.09c-.06-.36.16-.76.57-.69,2.87-.02,5.74,0,8.61,0,.26,0,.72-.01.74.35.05.85.06,1.72,0,2.57-.06.33-.47.29-.72.31-1.63,0-3.26,0-4.89,0,0,.41,0,.81,0,1.22,1.5.02,3.01-.04,4.52.02.35,0,.38.41.37.68,0,.74.05,1.48-.05,2.22-.18.37-.66.22-.99.27-1.28-.02-2.57.02-3.85.02,0,.42,0,.84,0,1.26,1.74,0,3.48,0,5.22,0,.29.02.79-.04.82.37.05.85.07,1.71-.01,2.55-.1.36-.54.28-.81.3-3.03-.02-6.06.02-9.09-.02-.41,0-.45-.47-.43-.77,0-3.55,0-7.1,0-10.65Z"></path>
  </g>
  <metadata></metadata>
</svg>
