<?xml version="1.0" encoding="UTF-8"?>
<svg xmlns="http://www.w3.org/2000/svg" xmlns:i="http://ns.adobe.com/AdobeIllustrator/10.0/" xmlns:xlink="http://www.w3.org/1999/xlink" id="Capa_1" version="1.1" viewBox="0 0 283.3 120">
  <defs>
    <style>
      .st0 {
        fill: #b5121b;
      }

      .st1 {
        fill: url(#Degradado_sin_nombre_2);
      }
    </style>
    <linearGradient id="Degradado_sin_nombre_2" data-name="Degradado sin nombre 2" x1="495.85" y1="30.02" x2="486.91" y2="80.72" gradientTransform="translate(-287.24 109.02) scale(1 -1)" gradientUnits="userSpaceOnUse">
      <stop offset=".15" stop-color="#b5121b"></stop>
      <stop offset=".31" stop-color="#be241b"></stop>
      <stop offset=".63" stop-color="#d6541c"></stop>
      <stop offset="1" stop-color="#f7941d"></stop>
    </linearGradient>
  </defs>
  <g>
    <path class="st0" d="M263.97,74.04c-10.89,0-16.31-4.45-16.31-12.16,0-10.53,10.16-13.57,22.32-14.76v-2.15c0-5.19-3.26-6.6-7.94-6.6-3.86,0-7.56,1.26-10.01,2.45l-2.08-5.19c2.6-1.26,7.42-3.04,13.72-3.04,8.23,0,14.76,3.49,14.76,13.79v24.76c-3.19,1.7-8.23,2.89-14.46,2.89M269.98,51.43c-8.53,1.04-13.79,2.89-13.79,10.16,0,5.19,3.11,7.41,8.38,7.41,2.08,0,4.08-.45,5.41-1.11v-16.46h0Z"></path>
    <path class="st0" d="M240.19,29.12h-4.97l5.11-10.45c3.04-1.78,8.01-1.93,8.9.22l-9.05,10.23h0ZM235.22,33.34h9.05v39.96h-9.05v-39.96h0Z"></path>
    <path class="st0" d="M156.25,74.04c-10.9,0-16.31-4.45-16.31-12.16,0-10.53,10.16-13.57,22.31-14.76v-2.15c0-5.19-3.26-6.6-7.93-6.6-3.86,0-7.56,1.26-10.01,2.45l-2.08-5.19c2.6-1.26,7.42-3.04,13.71-3.04,8.23,0,14.76,3.49,14.76,13.79v24.76c-3.19,1.7-8.23,2.89-14.45,2.89M162.26,51.43c-8.53,1.04-13.79,2.89-13.79,10.16,0,5.19,3.11,7.41,8.38,7.41,2.08,0,4.08-.45,5.41-1.11v-16.46h0Z"></path>
    <path class="st0" d="M129.44,74.04c-9.12,0-15.79-7.63-15.79-20.83s6.97-20.61,15.87-20.61c4.89,0,7.79,1.48,9.27,2.75l-1.93,5.11c-1.11-.89-2.74-1.71-5.34-1.71-6.16,0-8.75,5.56-8.75,14.31s3.04,14.45,8.6,14.45c2.45,0,4.15-.74,5.41-1.78l2.08,5.56c-1.64,1.48-4.6,2.75-9.41,2.75"></path>
    <path class="st0" d="M101.06,73.3v-28.32c0-3.26-1.48-6.67-7.19-6.67-2.97,0-4.53.45-6.23,1.11v33.88h-9.05v-37.81c3.78-1.78,8.9-2.89,15.64-2.89,11.94,0,15.87,5.78,15.87,12.23v28.47h-9.05,0Z"></path>
    <path class="st0" d="M58.88,74.04c-10.9,0-16.31-4.45-16.31-12.16,0-10.53,10.16-13.57,22.32-14.76v-2.15c0-5.19-3.26-6.6-7.94-6.6-3.86,0-7.56,1.26-10.01,2.45l-2.08-5.19c2.6-1.26,7.42-3.04,13.71-3.04,8.23,0,14.76,3.49,14.76,13.79v24.76c-3.19,1.7-8.23,2.89-14.46,2.89M64.89,51.43c-8.53,1.04-13.79,2.89-13.79,10.16,0,5.19,3.11,7.41,8.38,7.41,2.08,0,4.08-.45,5.41-1.11v-16.46h0Z"></path>
    <path class="st0" d="M20,74.04c-6.45,0-11.64-1.04-15.12-2.89V24.44c3.11-1.7,8.38-2.89,14.53-2.89,12.31,0,18.39,5.63,18.39,13.2,0,6.97-5.19,10.6-9.49,11.56v.15c4.67,1.04,11.2,5.49,11.2,12.9,0,10.16-7.86,14.68-19.5,14.68M19.41,26.89c-2.22,0-3.93.3-5.64.89v16.53l2.89.07c9.05.22,12.08-2.89,12.08-9.04,0-5.64-3.19-8.45-9.34-8.45M16.67,48.91l-2.89.07v18.31c1.63.66,3.41.96,5.93.96,6.08,0,10.38-2.44,10.38-9.04,0-7.04-3.78-10.53-13.42-10.31"></path>
  </g>
  <path class="st1" d="M203.11,31.26c-3.23,4.2-4.59,10.25-4.59,14.42h0c-5.11-11.97-17.44-15.75-22.94-8.06h0c-7.46,10.46.35,29.44,20.47,36.49h0c4.01,1.41,2.76-.95,1.19-1.91h0c-11.54-7.09-15.08-13.18-16.7-19.18h0c-3.05-11.37,4.81-14.29,12.63-6.47h0c3.31,3.32,7.41,10.21,8.51,5.12h0c1.12-5.18,1.18-9.93,5.21-13.57h0c5.7-5.12,12.84-2.14,15.17,3.23h0c2.34,5.35,2.54,12.86-1.34,19.29h0c-3.51,5.79-5.99,9.31-16.01,16.51h0c-2.54,1.84-.39,3.05,1.93,2.12h0c7.75-3.1,15.08-8.32,19.74-13.86h0c4.1-4.85,6.43-11.71,6.53-18.3h0c.04-4.06-.74-8.02-2.51-11.34h0c-3.05-5.74-9.88-9.73-16.4-9.73h0c-4.09,0-8.04,1.56-10.89,5.25h0Z"></path>
  <g>
    <path class="st0" d="M45.31,97.21h6.46v2.2h-9.19v-11.86h8.96v2.2h-6.23v7.46h0ZM45.1,92.31h5.71v2.15h-5.71v-2.15Z"></path>
    <path class="st0" d="M53.76,99.41v-12.57h2.65v12.57h-2.65Z"></path>
    <path class="st0" d="M63.84,99.41v-11.86h5.79c1.49,0,2.61.28,3.37.85.75.56,1.13,1.31,1.13,2.24,0,.62-.15,1.16-.46,1.62-.31.46-.73.81-1.26,1.06-.54.25-1.14.37-1.82.37l.32-.71c.75,0,1.4.12,1.98.37.57.25,1.02.61,1.34,1.08.33.47.49,1.05.49,1.75,0,1.02-.4,1.81-1.21,2.38-.8.57-1.98.85-3.54.85h-6.13ZM66.57,97.35h3.22c.7,0,1.24-.12,1.61-.36.37-.23.56-.6.56-1.1s-.18-.88-.56-1.12-.91-.36-1.61-.36h-3.42v-2h2.93c.66,0,1.18-.12,1.53-.35s.54-.59.54-1.06-.18-.83-.54-1.05c-.36-.22-.87-.34-1.53-.34h-2.73v7.73h0Z"></path>
    <path class="st0" d="M79.43,99.55c-.7,0-1.31-.12-1.81-.36s-.9-.57-1.18-.99-.41-.89-.41-1.41.13-1,.4-1.42c.26-.41.69-.73,1.26-.96.57-.22,1.33-.34,2.27-.34h2.41v1.52h-2.14c-.62,0-1.05.1-1.28.31-.23.2-.35.46-.35.76,0,.34.13.61.4.8s.63.3,1.08.3.85-.1,1.21-.31c.36-.2.61-.51.75-.93l.41,1.24c-.19.56-.54,1-1.05,1.31-.51.31-1.17.46-1.96.46h0ZM82.21,99.41v-1.78l-.17-.39v-3.19c0-.56-.17-1-.52-1.32s-.87-.47-1.58-.47c-.49,0-.96.08-1.43.23s-.87.36-1.21.62l-.93-1.85c.5-.36,1.09-.64,1.8-.82.7-.18,1.41-.28,2.14-.28,1.39,0,2.47.33,3.24.98s1.15,1.68,1.15,3.07v5.2h-2.48Z"></path>
    <path class="st0" d="M92.61,90.16c.73,0,1.37.15,1.94.43.57.29,1.02.73,1.34,1.32.33.59.49,1.35.49,2.28v5.22h-2.65v-4.81c0-.74-.16-1.28-.48-1.63-.32-.35-.78-.52-1.37-.52-.42,0-.79.09-1.13.27-.33.18-.59.45-.78.8-.18.35-.28.81-.28,1.39v4.51h-2.65v-9.11h2.52v2.52l-.47-.76c.33-.61.8-1.08,1.41-1.41.61-.33,1.31-.49,2.08-.49h.01Z"></path>
    <path class="st0" d="M103.26,99.55c-.98,0-1.86-.2-2.62-.6-.76-.4-1.36-.96-1.8-1.67-.44-.71-.65-1.52-.65-2.42s.22-1.72.65-2.42,1.03-1.26,1.8-1.66,1.64-.61,2.62-.61,1.8.2,2.52.6c.71.4,1.23.97,1.55,1.7l-2.03,1.12c-.25-.43-.55-.74-.9-.94-.35-.2-.74-.3-1.15-.3-.44,0-.84.1-1.21.3s-.65.48-.87.85c-.22.37-.32.83-.32,1.36s.11.99.32,1.37c.21.38.5.66.87.87.36.2.76.3,1.21.3s.8-.1,1.15-.3c.35-.2.65-.52.9-.96l2.03,1.12c-.32.73-.83,1.29-1.55,1.7s-1.56.61-2.52.61h0Z"></path>
    <path class="st0" d="M113.07,99.55c-.96,0-1.81-.2-2.57-.61s-1.34-.96-1.77-1.67c-.43-.7-.64-1.51-.64-2.42s.21-1.72.64-2.43c.43-.7,1.02-1.26,1.77-1.66.75-.4,1.61-.6,2.57-.6s1.84.2,2.6.6,1.35.95,1.78,1.66c.43.71.64,1.52.64,2.43s-.22,1.72-.64,2.42c-.43.7-1.02,1.26-1.78,1.66-.76.41-1.62.61-2.6.61h0ZM113.07,97.38c.45,0,.85-.1,1.19-.3s.62-.49.83-.87c.21-.39.31-.84.31-1.36s-.11-.98-.31-1.36-.49-.66-.83-.85-.74-.3-1.18-.3-.84.1-1.19.3-.63.48-.84.85-.31.83-.31,1.36.11.97.31,1.36c.21.39.49.68.84.87.35.2.74.3,1.17.3h0Z"></path>
    <path class="st0" d="M128.55,99.55c-.86,0-1.64-.2-2.32-.59s-1.23-.93-1.62-1.64c-.4-.7-.59-1.52-.59-2.47s.2-1.77.59-2.47.94-1.24,1.62-1.64,1.46-.59,2.32-.59c.77,0,1.44.17,2.01.51s1.02.85,1.34,1.54.47,1.57.47,2.65-.15,1.94-.46,2.65c-.31.7-.74,1.22-1.31,1.55-.57.33-1.26.5-2.06.5h0ZM128.99,97.38c.44,0,.84-.1,1.18-.3.35-.2.63-.49.84-.87.21-.39.31-.84.31-1.36s-.11-.98-.31-1.36c-.21-.37-.49-.66-.84-.85-.35-.2-.75-.3-1.18-.3s-.82.1-1.17.3-.63.48-.84.85-.31.83-.31,1.36.11.97.31,1.36c.21.39.49.68.84.87.35.2.74.3,1.17.3ZM131.4,99.41v-1.86l.05-2.71-.17-2.7v-5.3h2.65v12.57h-2.53Z"></path>
    <path class="st0" d="M140.89,99.55c-1.04,0-1.95-.2-2.73-.61-.78-.41-1.38-.96-1.81-1.67-.43-.7-.64-1.51-.64-2.42s.21-1.71.62-2.42.99-1.27,1.73-1.67c.74-.4,1.57-.6,2.5-.6s1.7.19,2.42.57c.71.39,1.28.93,1.7,1.62.42.7.63,1.54.63,2.52,0,.1,0,.22-.02.35s-.02.25-.03.36h-7.41v-1.54h6.02l-1.03.46c.01-.47-.08-.89-.27-1.24-.19-.35-.46-.63-.8-.82s-.74-.3-1.19-.3-.85.1-1.19.3c-.35.2-.61.47-.8.83s-.29.78-.29,1.26v.41c0,.51.11.95.34,1.32.23.37.54.66.93.85s.87.3,1.42.3c.47,0,.89-.07,1.26-.22s.7-.37,1.01-.66l1.41,1.52c-.42.47-.94.84-1.57,1.09s-1.36.38-2.19.38h0Z"></path>
    <path class="st0" d="M151.85,99.41v-12.57h2.65v12.57h-2.65Z"></path>
    <path class="st0" d="M161.27,99.55c-.96,0-1.81-.2-2.57-.61s-1.34-.96-1.77-1.67c-.43-.7-.64-1.51-.64-2.42s.21-1.72.64-2.43c.43-.7,1.02-1.26,1.77-1.66.75-.4,1.61-.6,2.57-.6s1.84.2,2.6.6,1.35.95,1.78,1.66c.43.71.64,1.52.64,2.43s-.22,1.72-.64,2.42c-.43.7-1.02,1.26-1.78,1.66-.76.41-1.62.61-2.6.61h0ZM161.27,97.38c.45,0,.85-.1,1.19-.3.35-.2.62-.49.83-.87s.31-.84.31-1.36-.11-.98-.31-1.36-.49-.66-.83-.85-.74-.3-1.18-.3-.84.1-1.19.3-.63.48-.84.85-.31.83-.31,1.36.11.97.31,1.36.49.68.84.87c.35.2.74.3,1.17.3h0Z"></path>
    <path class="st0" d="M171.12,99.55c-.78,0-1.52-.09-2.24-.28s-1.28-.42-1.71-.7l.87-1.88c.43.25.93.45,1.5.62.57.16,1.13.25,1.69.25.61,0,1.04-.07,1.29-.22s.38-.35.38-.61c0-.21-.1-.37-.3-.48s-.46-.19-.78-.25-.68-.11-1.08-.17-.79-.13-1.18-.23c-.39-.1-.75-.25-1.08-.44-.33-.18-.6-.44-.8-.77-.2-.33-.3-.75-.3-1.27,0-.57.17-1.09.51-1.53.34-.45.82-.79,1.44-1.04s1.37-.37,2.25-.37c.63,0,1.27.07,1.91.21.64.14,1.18.33,1.62.59l-.9,1.88c-.43-.25-.87-.42-1.31-.52-.45-.1-.87-.15-1.28-.15-.61,0-1.05.08-1.32.23s-.41.36-.41.61c0,.22.1.4.31.52s.47.21.8.26.69.11,1.08.17.79.13,1.17.23.74.25,1.08.44c.33.18.6.44.8.77s.3.75.3,1.27c0,.55-.17,1.05-.51,1.48-.34.44-.83.78-1.47,1.03-.64.25-1.42.37-2.33.37h0Z"></path>
    <path class="st0" d="M185.72,99.55c-.86,0-1.63-.2-2.32-.59s-1.23-.93-1.63-1.62c-.4-.7-.59-1.52-.59-2.48s.2-1.77.59-2.47.94-1.24,1.63-1.64c.69-.39,1.46-.59,2.32-.59.8,0,1.49.17,2.06.51s1.01.85,1.31,1.54c.31.69.46,1.57.46,2.65s-.16,1.94-.47,2.63c-.32.7-.76,1.21-1.34,1.55s-1.25.51-2.01.51h0ZM186.16,97.38c.44,0,.84-.1,1.19-.31.35-.2.63-.5.84-.87.21-.38.31-.83.31-1.34s-.11-.98-.31-1.36-.49-.66-.84-.85c-.35-.2-.75-.3-1.19-.3s-.82.1-1.17.3-.63.48-.84.85-.31.83-.31,1.36.11.97.31,1.34c.21.38.49.67.84.87.35.2.74.31,1.17.31ZM188.45,102.7v-5.13l.17-2.7-.05-2.71v-1.86h2.52v12.41h-2.65,0Z"></path>
    <path class="st0" d="M197.38,99.55c-.77,0-1.45-.15-2.03-.44-.59-.3-1.04-.75-1.37-1.36s-.49-1.38-.49-2.3v-5.15h2.65v4.74c0,.77.16,1.33.48,1.69.32.36.78.54,1.36.54.41,0,.77-.09,1.08-.27.32-.18.57-.45.75-.81.18-.36.28-.81.28-1.36v-4.53h2.63v9.11h-2.51v-2.52l.46.75c-.32.63-.77,1.11-1.36,1.43s-1.23.48-1.93.48h0Z"></path>
    <path class="st0" d="M209.7,99.55c-1.04,0-1.95-.2-2.73-.61-.78-.41-1.38-.96-1.81-1.67-.43-.7-.64-1.51-.64-2.42s.21-1.71.62-2.42.99-1.27,1.73-1.67c.74-.4,1.57-.6,2.5-.6s1.7.19,2.42.57c.71.39,1.28.93,1.7,1.62.42.7.63,1.54.63,2.52,0,.1,0,.22-.02.35s-.02.25-.03.36h-7.41v-1.54h6.02l-1.03.46c.01-.47-.08-.89-.27-1.24-.19-.35-.46-.63-.8-.82s-.74-.3-1.19-.3-.85.1-1.19.3c-.35.2-.61.47-.8.83s-.29.78-.29,1.26v.41c0,.51.11.95.34,1.32.23.37.54.66.93.85s.87.3,1.42.3c.47,0,.89-.07,1.26-.22s.7-.37,1.01-.66l1.41,1.52c-.42.47-.94.84-1.57,1.09s-1.36.38-2.19.38h0Z"></path>
    <path class="st0" d="M225.07,99.55c-.98,0-1.86-.2-2.62-.6-.76-.4-1.36-.96-1.8-1.67-.44-.71-.65-1.52-.65-2.42s.22-1.72.65-2.42,1.03-1.26,1.8-1.66,1.64-.61,2.62-.61,1.8.2,2.52.6c.71.4,1.23.97,1.55,1.7l-2.03,1.12c-.25-.43-.55-.74-.9-.94-.35-.2-.74-.3-1.15-.3-.44,0-.84.1-1.21.3-.36.2-.65.48-.87.85s-.32.83-.32,1.36.11.99.32,1.37c.21.38.5.66.87.87.36.2.76.3,1.21.3s.8-.1,1.15-.3c.35-.2.65-.52.9-.96l2.03,1.12c-.32.73-.83,1.29-1.55,1.7-.72.41-1.56.61-2.52.61h0Z"></path>
    <path class="st0" d="M230.68,99.41v-9.11h2.52v2.6l-.36-.76c.27-.64.71-1.13,1.31-1.47s1.33-.5,2.19-.5v2.46c-.1-.02-.2-.04-.3-.05-.09-.01-.19-.02-.28-.02-.75,0-1.34.21-1.78.63-.44.42-.66,1.06-.66,1.93v4.3h-2.65Z"></path>
    <path class="st0" d="M242.35,99.55c-1.04,0-1.95-.2-2.73-.61s-1.38-.96-1.81-1.67c-.43-.7-.64-1.51-.64-2.42s.21-1.71.62-2.42c.41-.71.99-1.27,1.73-1.67.74-.4,1.57-.6,2.5-.6s1.7.19,2.42.57c.71.39,1.28.93,1.7,1.62.42.7.63,1.54.63,2.52,0,.1,0,.22-.02.35s-.02.25-.03.36h-7.41v-1.54h6.02l-1.03.46c.01-.47-.08-.89-.27-1.24-.19-.35-.46-.63-.8-.82s-.74-.3-1.19-.3-.85.1-1.19.3-.61.47-.8.83-.29.78-.29,1.26v.41c0,.51.11.95.34,1.32s.54.66.93.85.87.3,1.42.3c.47,0,.89-.07,1.26-.22.37-.15.7-.37,1.01-.66l1.41,1.52c-.42.47-.94.84-1.57,1.09s-1.36.38-2.19.38h0Z"></path>
    <path class="st0" d="M252.93,99.55c-.98,0-1.86-.2-2.62-.6-.76-.4-1.36-.96-1.8-1.67-.44-.71-.65-1.52-.65-2.42s.22-1.72.65-2.42c.44-.7,1.03-1.26,1.8-1.66s1.64-.61,2.62-.61,1.8.2,2.52.6c.71.4,1.23.97,1.55,1.7l-2.03,1.12c-.25-.43-.55-.74-.9-.94-.35-.2-.74-.3-1.15-.3-.44,0-.84.1-1.21.3-.36.2-.65.48-.87.85s-.32.83-.32,1.36.11.99.32,1.37c.21.38.5.66.87.87.36.2.76.3,1.21.3s.8-.1,1.15-.3c.35-.2.65-.52.9-.96l2.03,1.12c-.32.73-.83,1.29-1.55,1.7-.72.41-1.56.61-2.52.61h0Z"></path>
    <path class="st0" d="M262.94,99.55c-1.04,0-1.95-.2-2.73-.61s-1.38-.96-1.81-1.67c-.43-.7-.64-1.51-.64-2.42s.21-1.71.62-2.42.99-1.27,1.73-1.67c.74-.4,1.57-.6,2.5-.6s1.7.19,2.42.57c.71.39,1.28.93,1.7,1.62.42.7.63,1.54.63,2.52,0,.1,0,.22-.02.35s-.02.25-.03.36h-7.41v-1.54h6.02l-1.03.46c.01-.47-.08-.89-.27-1.24-.19-.35-.46-.63-.8-.82s-.74-.3-1.19-.3-.85.1-1.19.3-.61.47-.8.83-.29.78-.29,1.26v.41c0,.51.11.95.34,1.32s.54.66.93.85c.4.2.87.3,1.42.3.47,0,.89-.07,1.26-.22.37-.15.7-.37,1.01-.66l1.41,1.52c-.42.47-.94.84-1.57,1.09s-1.36.38-2.19.38h0Z"></path>
    <path class="st0" d="M274.65,90.16c.73,0,1.37.15,1.94.43.57.29,1.02.73,1.34,1.32.33.59.49,1.35.49,2.28v5.22h-2.65v-4.81c0-.74-.16-1.28-.48-1.63-.32-.35-.78-.52-1.37-.52-.42,0-.79.09-1.13.27-.33.18-.59.45-.78.8-.18.35-.28.81-.28,1.39v4.51h-2.65v-9.11h2.52v2.52l-.47-.76c.33-.61.8-1.08,1.41-1.41.61-.33,1.31-.49,2.08-.49h.01Z"></path>
  </g>
  <metadata></metadata>
</svg>
