<?xml version="1.0" encoding="UTF-8"?>
<svg xmlns="http://www.w3.org/2000/svg" xmlns:i="http://ns.adobe.com/AdobeIllustrator/10.0/" id="Capa_1" version="1.1" viewBox="0 0 284.17 120">
  <defs>
    <style>
      .st0 {
        fill: #0033a1;
      }
    </style>
  </defs>
  <path id="colorgroup1" class="st0" d="M42.56,37.16l37.56-6.45-7.89,12.63-29.67,6.45-29.72-6.45-7.85-12.63,37.56,6.45M42.56,89.3l8.08-12.95-8.08,2.18-8.08-2.18,8.08,12.95M19.72,54.8l7.2,11.51,15.6,3.99,15.6-3.99,7.24-11.51-22.84,4.78-22.8-4.78M265.52,87.16h13.65v-3.99h-9.15v-3.53h5.71v-3.95h-5.71v-2.65h8.5v-3.99h-13v18.11M107.47,87.16h4.32v-18.06h-4.23l-4.6,10.12-4.69-10.12h-4.23v18.06h4.32v-9.19l4.55,9.7,4.55-9.7v9.19M137.14,87.16c5.8,0,9.61-2.46,9.61-9.1s-3.71-8.96-9.19-8.96h-6.13v18.06h5.71M142.06,78.11c0,3.53-1.39,5.01-4.74,5.01h-1.3v-10.03h1.44c3.34.05,4.6,1.58,4.6,5.01h0ZM149.26,87.16h4.64v-18.06h-4.64v18.06ZM167.51,75.37l4.18-1.72c-1.21-3.02-3.06-4.88-7.15-4.88-4.78,0-8.17,3.62-8.17,9.33s2.97,9.33,8.13,9.33c3.11.14,5.99-1.63,7.24-4.46l-3.85-2.14c-.98,1.67-1.72,2.46-3.34,2.46-2.37,0-3.48-2.28-3.48-5.2s1.11-5.2,3.39-5.2c1.72,0,2.46.98,3.06,2.46M184.73,87.16h4.92l-6.64-18.06h-4.55l-6.64,18.06h4.88l1.07-3.48h5.94l1.02,3.48M180.69,74.07l1.76,5.8h-3.58l1.81-5.8ZM191.42,87.16h12.95v-4.09h-8.36v-13.98h-4.6v18.06M223.92,75.37l4.18-1.72c-1.21-3.02-3.06-4.88-7.15-4.88-4.78,0-8.17,3.62-8.17,9.33s2.97,9.33,8.08,9.33c3.11.14,5.99-1.63,7.24-4.46l-3.85-2.14c-.98,1.67-1.72,2.46-3.34,2.46-2.37,0-3.48-2.28-3.48-5.2s1.11-5.2,3.39-5.2c1.72,0,2.51.98,3.11,2.46M241.15,87.16h4.92l-6.64-18.06h-4.55l-6.64,18.06h4.88l1.07-3.48h5.99l.98,3.48M237.11,74.07l1.76,5.8h-3.62l1.86-5.8ZM257.96,87.16h5.11l-3.58-6.96c2.14-.84,3.48-2.97,3.34-5.29,0-4.13-2.79-5.8-6.73-5.8h-8.22v18.06h4.5v-6.18h2.55l3.02,6.18M258.28,75.04c0,1.39-.74,2.14-2.37,2.14h-3.53v-4.18h3.58c1.53,0,2.28.74,2.32,2.04h0ZM115.32,87.16h13.7v-3.99h-9.15v-3.53h5.71v-3.95h-5.71v-2.65h8.5v-3.99h-13.05v18.11M225.45,60.33c4.55,0,7.38-1.9,7.38-5.8,0-3.58-2.41-4.78-6.41-5.76-2.51-.6-3.16-.98-3.16-1.76s.46-1.25,2.09-1.25c1.76,0,3.44.6,4.78,1.67l2.46-3.39c-1.95-1.63-4.46-2.46-7.01-2.37-4.09,0-6.92,2.18-6.92,5.57,0,3.58,2.18,4.74,6.18,5.66,2.74.65,3.39,1.07,3.39,1.9,0,1.02-.74,1.44-2.6,1.44-1.86-.09-3.62-.7-5.11-1.86l-2.46,3.34c2.14,1.72,4.74,2.65,7.38,2.6M98.65,45.98h8.91v-4.04h-13.46v18.11h4.55v-7.24h6.41v-3.99h-6.36l-.05-2.83M119.5,60.05h5.11l-3.67-6.96c2.14-.84,3.48-2.97,3.34-5.29,0-4.13-2.83-5.85-6.73-5.85h-8.22v18.11h4.5v-6.22h2.55l3.06,6.22M119.73,47.93c0,1.39-.74,2.14-2.37,2.14h-3.53v-4.18h3.58c1.63,0,2.32.74,2.32,2.04h0ZM126.93,60.05h13.65v-3.99h-9.15v-3.53h5.71v-3.95h-5.71v-2.65h8.54v-3.95h-13.05v18.06M148.89,60.33c4.55,0,7.38-1.9,7.38-5.8,0-3.58-2.41-4.78-6.41-5.76-2.51-.6-3.2-.98-3.2-1.76s.42-1.25,2.09-1.25,3.39.6,4.74,1.67l2.46-3.39c-1.95-1.63-4.46-2.46-7.01-2.37-4.09,0-6.92,2.18-6.92,5.57,0,3.58,2.18,4.74,6.18,5.66,2.74.65,3.39,1.07,3.39,1.9,0,1.02-.74,1.44-2.6,1.44-1.86-.09-3.62-.7-5.11-1.86l-2.46,3.34c2.18,1.76,4.78,2.65,7.48,2.6M158.73,60.05h13.65v-3.99h-9.15v-3.53h5.76v-3.95h-5.76v-2.65h8.5v-3.95h-13v18.06M186.27,60.05h3.85v-18.06h-4.41v9.89l-6.96-9.89h-4.13v18.11h4.41v-10.35l7.24,10.31M193.37,60.05h4.64v-18.11h-4.64v18.11ZM208.74,60.33c4.55,0,7.75-2.51,7.75-8.08v-10.26h-4.6v10.31c0,2.46-1.07,3.95-3.11,3.95s-3.11-1.53-3.11-3.95v-10.26h-4.64v10.26c0,5.57,3.2,8.08,7.71,8.08"></path>
  <metadata></metadata>
</svg>
