<?xml version="1.0" encoding="UTF-8"?>
<svg xmlns="http://www.w3.org/2000/svg" xmlns:xlink="http://www.w3.org/1999/xlink" id="Capa_1" data-name="Capa 1" viewBox="0 0 506.34 279.1">
  <defs>
    <style>
      .cls-1 {
        fill: #2dbfd5;
      }

      .cls-2 {
        fill: #362f7f;
      }

      .cls-3 {
        fill: #1500a3;
      }

      .cls-4 {
        fill: #e9892b;
      }

      .cls-5 {
        clip-path: url(#clippath-4);
      }

      .cls-6 {
        fill: #6dcce4;
      }

      .cls-7 {
        fill: #cd4c9a;
      }

      .cls-8 {
        fill: #f3b138;
      }

      .cls-9 {
        fill: #e02929;
      }

      .cls-10 {
        fill: #f0d72f;
      }

      .cls-11 {
        fill: #e9c41c;
      }

      .cls-12 {
        fill: #fff;
      }

      .cls-13 {
        fill: #ef5530;
      }

      .cls-14 {
        fill: #59b851;
      }

      .cls-15 {
        fill: #c10230;
      }

      .cls-16 {
        fill: #de2141;
      }

      .cls-17 {
        fill: none;
      }

      .cls-18 {
        fill: red;
      }

      .cls-19 {
        fill: #96c13d;
      }

      .cls-20 {
        stroke: #ea0029;
      }

      .cls-20, .cls-21 {
        stroke-miterlimit: 6;
        stroke-width: .02px;
      }

      .cls-20, .cls-22 {
        fill: #ea0029;
      }

      .cls-23 {
        fill: #ffda00;
      }

      .cls-21 {
        fill: #fe5500;
        stroke: #fe5500;
      }

      .cls-24 {
        clip-path: url(#clippath-1);
      }

      .cls-25 {
        fill: #809e3e;
      }

      .cls-26 {
        fill: #00b059;
      }

      .cls-27 {
        fill: #c84696;
      }

      .cls-28 {
        fill: #4e4499;
      }

      .cls-29 {
        fill: #fde551;
      }

      .cls-30 {
        fill: #4b3c95;
      }

      .cls-31 {
        fill: #9c489a;
      }

      .cls-32 {
        clip-path: url(#clippath-3);
      }

      .cls-33 {
        fill: #225d38;
      }

      .cls-34 {
        fill: #463590;
      }

      .cls-35 {
        fill: #c6e7f9;
      }

      .cls-36 {
        fill: #a4d925;
      }

      .cls-37 {
        fill: #ac3d94;
      }

      .cls-38 {
        fill: #82b040;
      }

      .cls-39 {
        fill: #3885c5;
      }

      .cls-40 {
        fill: #962587;
      }

      .cls-41 {
        fill: #db5f39;
      }

      .cls-42 {
        clip-path: url(#clippath-2);
      }

      .cls-43 {
        fill: #bb4095;
      }

      .cls-44 {
        fill: #ba3992;
      }

      .cls-45 {
        fill: #03bada;
      }

      .cls-46 {
        fill: #ee4025;
      }

      .cls-47 {
        clip-path: url(#clippath);
      }

      .cls-48 {
        fill: #c64596;
      }

      .cls-49 {
        fill: #e9862c;
      }

      .cls-50 {
        fill: #3c9745;
      }

      .cls-51 {
        fill: #002169;
      }
    </style>
    <clipPath id="clippath">
      <ellipse class="cls-17" cx="269.41" cy="252.91" rx="25.51" ry="25.71"></ellipse>
    </clipPath>
    <clipPath id="clippath-1">
      <polygon class="cls-17" points="209.74 251.41 210.17 250.3 208.44 250.96 207.54 251.32 206.02 253.63 209.36 252.35 209.74 251.41"></polygon>
    </clipPath>
    <clipPath id="clippath-2">
      <polygon class="cls-17" points="217.28 245.37 214.3 248.96 215.88 248.42 217.06 248.01 220.91 243.65 217.85 244.64 217.28 245.37"></polygon>
    </clipPath>
    <clipPath id="clippath-3">
      <polygon class="cls-17" points="218.14 247.03 217.23 247.95 206.86 258.65 205.87 259.63 204.06 264.2 222.02 245.69 218.14 247.03"></polygon>
    </clipPath>
    <clipPath id="clippath-4">
      <path class="cls-17" d="M348.5,247.54s-10.83-2.87-23.96-.55c-13.13,2.32-21.2-.35-21.2-.35l20.4-10.33,8.46,1.25,15.64,9.32.62.62.04.04Z"></path>
    </clipPath>
  </defs>
  <g>
    <g>
      <circle class="cls-12" cx="451.5" cy="54.83" r="52.81"></circle>
      <path d="M451.5,2.02c29.17,0,52.81,23.64,52.81,52.81s-23.64,52.81-52.81,52.81-52.81-23.64-52.81-52.81S422.34,2.02,451.5,2.02M451.5,0c-7.4,0-14.58,1.45-21.34,4.31-6.53,2.76-12.39,6.72-17.43,11.75-5.04,5.04-8.99,10.9-11.75,17.43-2.86,6.76-4.31,13.94-4.31,21.34s1.45,14.58,4.31,21.34c2.76,6.53,6.72,12.39,11.75,17.43,5.04,5.04,10.9,8.99,17.43,11.75,6.76,2.86,13.94,4.31,21.34,4.31s14.58-1.45,21.34-4.31c6.53-2.76,12.39-6.72,17.43-11.75,5.04-5.04,8.99-10.9,11.75-17.43,2.86-6.76,4.31-13.94,4.31-21.34s-1.45-14.58-4.31-21.34c-2.76-6.53-6.72-12.39-11.75-17.43-5.04-5.04-10.9-8.99-17.43-11.75-6.76-2.86-13.94-4.31-21.34-4.31h0Z"></path>
    </g>
    <path class="cls-18" d="M406.42,35.27c6.09,2.06,13.26,3.47,19.8,3.47,16.57,0,33.78-6.13,50.84-6.13,7.46,0,14.24.84,19.5,2.66-7.8-17.9-25.48-29.56-45.02-29.56s-37.2,11.79-45.13,29.56Z"></path>
    <path class="cls-3" d="M496.59,74.46c-6.09-2.06-13.26-3.47-19.8-3.47-16.57,0-33.78,6.13-50.84,6.13-7.46,0-14.24-.84-19.5-2.66,7.8,17.9,25.48,29.56,45.02,29.56s37.2-11.79,45.13-29.56Z"></path>
    <path d="M427.36,44.63h17.62v5.03h-10.64v2.6h8.37v4.84h-8.37v2.6h10.76v5.03h-17.74v-20.11ZM489.78,64.75h7.11v-20.44l-7.06,2.5-.05,17.94ZM467.09,60.33c1.33,3.45,5.28,5.09,11.18,5.09s9.53-2.41,9.53-6.67c0-7.38-12.51-5.55-12.51-8.25,0-.78.9-1.37,2.51-1.37,2.22,0,3.44.71,3.89,2.15l5.66-2.14c-.71-2.81-3.54-4.96-9.75-4.96-5.23,0-9.09,2.26-9.09,6.4,0,7.7,12.51,5.72,12.51,8.56,0,.86-.89,1.37-2.79,1.37-2.85,0-4.76-.71-5.53-2.29l-5.61,2.11ZM418.07,59.04l-5.02,1.88v3.83h-6.98v-20.11h10.88c5.65,0,8.47,2.43,8.47,6.74s-3.11,6.11-7.35,7.67ZM415.88,49.67h-2.83v6.03l2.64-1.07c1.69-.63,2.64-1.38,2.64-2.94,0-1.28-.9-2.02-2.46-2.02ZM459.91,59.04l-5.02,1.88v3.83h-6.98v-20.11h10.88c5.65,0,8.47,2.43,8.47,6.74s-3.11,6.11-7.35,7.67ZM457.72,49.67h-2.83v6.03l2.64-1.07c1.69-.63,2.64-1.38,2.64-2.94,0-1.28-.9-2.02-2.46-2.02Z"></path>
  </g>
  <g>
    <path class="cls-3" d="M63.56,184.45C25.91,184.45,0,158.04,0,122.29v-.35c0-34.37,26.78-62.52,63.4-62.52,21.75,0,34.87,5.87,47.48,16.57l-16.75,20.21c-9.33-7.77-17.61-12.26-31.6-12.26-19.34,0-34.71,17.09-34.71,37.65v.34c0,22.11,15.21,38.34,36.62,38.34,9.67,0,18.31-2.42,25.03-7.26v-17.26h-26.76v-22.97h52.5v52.51c-12.44,10.53-29.54,19.16-51.64,19.16Z"></path>
    <path class="cls-3" d="M127.11,182.39V61.5h91.18v23.66h-64.76v24.52h56.99v23.66h-56.99v25.39h65.64v23.66h-92.06Z"></path>
    <g>
      <path class="cls-3" d="M350.38,61.49h-37.93c9.3,4.65,15.32,13.6,17.97,24h17.71c13.3,0,21.59,6.39,21.59,18.3v.35c0,10.36-7.77,18.3-21.07,18.3h-22.33c-5.04,9.93-13.46,18.08-25.33,21.68v38.24h26.59v-36.26h20.21c27.11,0,48.86-14.51,48.86-42.48v-.34c0-24.7-17.43-41.79-46.27-41.79Z"></path>
      <path class="cls-3" d="M276.09,146.1h-20.2v36.26h-26.6V61.49h49.39c28.84,0,46.28,17.09,46.28,41.79v.34c0,27.97-21.76,42.48-48.87,42.48ZM298.02,103.79c0-11.91-8.28-18.3-21.58-18.3h-20.54v36.95h21.06c13.3,0,21.07-7.94,21.07-18.3v-.35Z"></path>
    </g>
  </g>
  <path class="cls-3" d="M428.4,250.98c10.12-44.91-52.19-65.36-121.89-59.83-.12,0-.23.02-.34.03-.11,0-.22,0-.33.01-68.83,4.24-131.64,32.04-152.82,50.16-.33.28-.01,1.33.93.71.16-.11.64-.4.86-.53,25.68-15.87,87.98-39.95,148.32-41.84h.29s.04,0,.06,0h0c.08,0,.15,0,.23,0,68.53-1.88,118.39,17.02,121.04,51.73.14,1.77,3.29,2.22,3.66-.43Z"></path>
  <g>
    <path class="cls-12" d="M401.74,269.96c-10.25,10.25-26.94,10.25-37.2,0-10.26-10.26-10.26-26.95,0-37.2,10.25-10.25,26.94-10.25,37.2,0,10.26,10.26,10.26,26.95,0,37.2Z"></path>
    <g>
      <path class="cls-23" d="M384.59,279.1c-14.49,0-26.28-11.79-26.28-26.29s11.79-26.29,26.28-26.29,26.28,11.79,26.28,26.29-11.79,26.29-26.28,26.29Z"></path>
      <g>
        <path class="cls-12" d="M365.88,245.27c3.35-7.59,10.88-12.87,19.64-12.87,7.26,0,13.69,3.64,17.58,9.21-3.79-6.6-10.87-11.04-18.97-11.04-9.49,0-17.57,6.09-20.62,14.61l2.37.09Z"></path>
        <path class="cls-12" d="M363.44,259.97c1.75,5.05,5.26,9.27,9.78,11.9-4.02-2.83-7.03-7.01-8.39-11.9h-1.4Z"></path>
        <path class="cls-12" d="M404.7,259.97c-3.55,8.09-11.89,14.42-20.51,14.42-.15,0-.3,0-.45,0,1.12.2,2.08.21,3.25.21,8.38,0,16.47-6.43,19.04-14.57l-1.34-.06Z"></path>
      </g>
      <path class="cls-12" d="M384.55,241.56c-9.73,0-10.92,3.22-22.38,3.22v15.63c11.47,0,12.66,3.22,22.38,3.22s10.91-3.22,22.38-3.22v-15.63c-11.47,0-12.66-3.22-22.38-3.22Z"></path>
      <path class="cls-15" d="M384.55,242.41c-9.73,0-10.92,3.22-22.38,3.22v13.93c11.47,0,12.66,3.22,22.38,3.22s10.92-3.22,22.38-3.22v-13.93c-11.47,0-12.66-3.22-22.38-3.22Z"></path>
      <g>
        <path class="cls-12" d="M372.71,249.7h-.26s-.08,0-.01.05c.11.08.26.27.27.74v5.15s0,.06,0,.09h0c0,.48-.15.67-.27.75-.07.05.01.05.01.05h2.21v-6.83h-1.95"></path>
        <path class="cls-12" d="M379.88,249.51c-.73,0-1.46.32-2.01.88l-.15.16v-.85h-2.07s-.08,0-.01.05c.11.08.27.27.27.75h0v.07s0,8.11,0,8.12c0,0,.73.29,2.2.47.03,0,.08,0,.01-.05-.1-.07-.24-.24-.26-.63v-2.68s.15.17.15.17c.46.5,1.07.74,1.84.74,1.14,0,1.86-.62,2.25-1.14.51-.66.8-1.56.8-2.45,0-1-.3-1.91-.84-2.57-.55-.67-1.33-1.04-2.18-1.04M380.33,254.7c-.35.43-.86.68-1.38.68-.24,0-.66-.06-1.07-.42l-.03-.03v-2.87s.01-1.21,1.52-1.21c.96,0,1.53.84,1.53,2.26,0,.58-.2,1.15-.57,1.59"></path>
        <path class="cls-12" d="M392.05,249.51c-1.98,0-3.59,1.61-3.59,3.59s1.61,3.59,3.59,3.59,3.59-1.61,3.59-3.59-1.61-3.59-3.59-3.59M392.05,255.37c-.96,0-1.74-1.01-1.74-2.26s.78-2.26,1.74-2.26,1.73,1.01,1.73,2.26-.78,2.26-1.73,2.26"></path>
        <path class="cls-12" d="M371.94,254.62s0-.08-.05-.01c-.07.11-.25.25-.68.26-.18,0-.39,0-.61,0h-1.91v-7.08h-1.86s-.62,0-.62,0c0,0-.08,0-.01.05.11.08.27.27.27.75v7.14c0,.47-.15.67-.27.74-.07.05.01.05.01.05h4.98c.49,0,.76-.31.76-.88v-.78h0v-.25"></path>
        <path class="cls-12" d="M388.1,254.83c-.18.16-.65.51-1.21.51-.67,0-.8-.46-.8-1.2v-3.12h.64c1.22,0,1.2-1.31,1.2-1.31h-1.84v-1.93l-1.95.78v1.17h-.73v1.3s.73,0,.73,0v3.26c0,1.48.86,2.44,2.19,2.44,1.69,0,1.85-1.44,1.86-1.86,0-.07-.03-.08-.09-.03"></path>
        <path class="cls-12" d="M402.9,256.48c-.1-.07-.22-.21-.25-.54v-3.97c0-.81-.19-1.43-.56-1.84-.37-.41-.92-.62-1.63-.62-1.02,0-1.7.5-2.1.92l-.15.16v-.9h-2.07s-.08,0-.01.05c.12.08.27.27.27.75h0s0,.04,0,.07v2.18h0v3.78h2.2s.08,0,0-.05c-.1-.07-.22-.21-.25-.54v-2.86c0-1.23.82-2.06,1.59-2.06.55,0,.76.32.76,1.15v3.48s0,.03,0,.05v.83h2.19s.08,0,.01-.05"></path>
        <path class="cls-12" d="M373.67,247.07c-.55,0-1,.45-1,1s.45,1,1,1,1-.45,1-1-.45-1-1-1"></path>
      </g>
    </g>
    <path class="cls-12" d="M409.44,245.42c-.11-.2-.27-.36-.48-.48-.41-.22-.87-.22-1.28,0-.2.12-.37.27-.48.48-.12.21-.17.43-.17.65s.06.45.17.65c.11.2.27.37.48.48.2.11.42.17.64.17s.44-.06.64-.17c.21-.12.37-.28.48-.48.12-.2.17-.42.17-.65s-.06-.44-.17-.65"></path>
    <path class="cls-15" d="M408.64,246.26s-.06-.08-.08-.09h0c.07-.03.12-.06.16-.11.06-.07.09-.14.09-.23,0-.07-.02-.13-.05-.18-.03-.05-.07-.09-.12-.12-.05-.02-.11-.04-.19-.05-.03,0-.15,0-.37,0h-.26v1.22h.3v-.47h.03c.06,0,.1.01.14.04.03.02.08.08.15.23l.11.21h.36l-.16-.28c-.06-.11-.08-.14-.09-.14M408.49,245.83s0,.05-.02.07c-.01.02-.04.04-.06.05-.02,0-.08.01-.24.01h-.06v-.25h.06c.17,0,.23,0,.24.02.03,0,.05.02.06.04.01.02.02.05.02.07"></path>
    <path class="cls-15" d="M409.29,245.5c-.1-.18-.24-.32-.42-.42-.35-.19-.75-.19-1.11,0-.18.1-.32.24-.42.42-.1.18-.15.37-.15.56s.05.39.15.56c.1.18.24.32.42.42.17.1.36.15.56.15s.38-.05.56-.15c.18-.1.32-.24.42-.42.1-.17.15-.37.15-.56s-.05-.38-.15-.56M407.91,246.8c-.13-.07-.24-.18-.31-.31-.08-.13-.11-.27-.11-.42s.04-.29.11-.42c.08-.13.18-.24.31-.31.14-.07.27-.11.42-.11s.28.04.42.11c.13.07.24.17.31.31.08.14.11.28.11.42s-.04.29-.11.42c-.08.13-.18.24-.31.31-.26.15-.57.15-.84,0"></path>
  </g>
  <g class="cls-47">
    <ellipse class="cls-26" cx="269.41" cy="252.91" rx="25.51" ry="25.71"></ellipse>
    <g>
      <path class="cls-36" d="M298.86,253.07l-19.97-17.98c.07.06.11.16.09.26-2.58,11.32-8.27,11.91-11.69,30.66l-.11.7h0s14.8,13.32,14.8,13.32h8.98l7.91-26.96Z"></path>
      <g>
        <path class="cls-33" d="M271.09,242.46s-.12.06-.38.14c-.03.01-.06.02-.1.03-.02,0-.03.01-.05.02-.04.01-.07.02-.11.04-.1.03-.21.06-.33.1-.05.01-.1.03-.15.04-.03,0-.05.01-.08.02-.19.05-.41.1-.65.16-.07.02-.14.03-.21.05-.92.19-2.17.39-3.79.52-1.28.1-2.42.25-3.43.44-.11.02-.23.04-.34.07-.17.03-.33.07-.49.1-.1.02-.2.05-.3.07-.03,0-.06.01-.09.02-.1.02-.19.05-.28.07-.09.02-.19.05-.28.07-.15.04-.29.08-.43.12-.26.08-.51.15-.75.23-.17.06-.33.11-.49.17-.03.01-.07.03-.1.04-.06.02-.12.04-.17.07-.17.06-.33.13-.48.19-.06.02-.12.05-.17.07-.03.01-.06.03-.09.04-.09.04-.17.08-.26.12-.1.05-.2.1-.3.15-.15.08-.3.15-.43.23-.09.05-.17.1-.25.14-.05.03-.1.06-.15.09s-.1.06-.14.09c-.05.03-.09.06-.13.09-.08.06-.16.11-.23.16-.01,0-.03.02-.04.02,0,0,0,0-.01,0,0,0-.02,0-.03.01,0,0,0,0-.01,0,0,0-.02,0-.03,0,0,0,0,0-.01,0-.01,0-.02,0-.03,0,0,0,0,0,0,0-.01,0-.02,0-.03,0,0,0,0,0,0,0-.01,0-.02,0-.04-.01,0,0,0,0,0,0-.01,0-.02-.01-.04-.02,0,0,0,0,0,0-.01,0-.02-.01-.03-.02h0s7.43,6.69,7.43,6.69c4.22-6.97,8.54-10.63,8.54-10.63Z"></path>
        <g>
          <path class="cls-33" d="M281.97,280.03l-14.8-13.32h0s-2.95.5-5.34,1.06c-1.38.33-3.12.79-5.41,1.38-.08.02-.16,0-.22-.05l12.13,10.92h13.64Z"></path>
          <g>
            <path class="cls-12" d="M278.67,235.03c-11.57,2.24-21,.55-21.68,3.25-.63,2.49-1.96,7.85-1.96,7.85-.06.24.21.42.41.28,1.14-.82,4.02-2.39,9.8-2.83,4.14-.32,5.86-1.11,5.86-1.11,0,0-10.96,9.27-14.99,26.37-.04.19.13.37.32.32,2.29-.6,4.03-1.06,5.41-1.38,2.39-.56,5.34-1.06,5.34-1.06l.11-.7c3.42-18.75,9.11-19.34,11.69-30.66.04-.19-.12-.35-.31-.32Z"></path>
            <g>
              <g>
                <circle class="cls-22" cx="278.19" cy="253.35" r="9.89"></circle>
                <path class="cls-12" d="M276.28,257.15l-2.35.29.1-.38s-.32.37-1.04.47c-1.43.18-2.33-.46-2-2.01.06-.26,1.68-6.13,1.68-6.13l2.38-.29-1.73,6.25c-.23.92.79.66,1.05.5l1.91-6.9,2.35-.29-2.35,8.5ZM284.9,250.25c-.09.43-.85,3.16-.95,3.61-.44,1.53-1.28,2.53-3.48,2.8l-.85.11s0,.02,0,.02c-.01.04-.69,2.52-.69,2.52l-2.44.3,3.12-11.07,2.36-.29-.08.29s.43-.25.78-.38c.76-.26,1.43.02,1.67.18.56.37.72,1.09.55,1.91ZM281.8,249.56l-.19.02-1.55,5.62.29-.04c.79-.12,1.07-.43,1.24-1.02l1-3.66c.13-.5,0-.99-.79-.91Z"></path>
              </g>
              <path class="cls-12" d="M286.57,260.35c-.79,0-1.42.62-1.41,1.38s.64,1.39,1.42,1.39,1.41-.62,1.41-1.4c0-.76-.62-1.37-1.42-1.37ZM286.48,262.82c-.57-.05-.97-.51-.97-1.09,0-.6.45-1.1,1.06-1.1.62,0,1.08.51,1.06,1.14s-.55,1.11-1.15,1.06ZM286.89,261.77v-.02c.17-.05.29-.17.28-.32,0-.13-.06-.24-.14-.3-.1-.06-.22-.1-.48-.1-.23,0-.4.02-.53.04v1.38s.32,0,.32,0v-.55s.15,0,.15,0c.18,0,.26.07.29.22.04.16.07.29.11.34h.34c-.03-.05-.06-.14-.1-.35-.04-.18-.12-.28-.25-.33ZM286.52,261.67h-.15s0-.39,0-.39c.03,0,.09-.02.18-.02.2,0,.29.08.29.21,0,.14-.14.2-.32.2Z"></path>
            </g>
          </g>
        </g>
      </g>
    </g>
  </g>
  <g>
    <ellipse class="cls-21" cx="211.23" cy="252.96" rx="25.51" ry="25.7"></ellipse>
    <g>
      <path class="cls-12" d="M228.11,238.85c-.34.34-.74.5-1.21.5s-.88-.17-1.21-.5c-.33-.33-.5-.74-.5-1.21s.17-.87.5-1.21c.33-.33.73-.5,1.2-.5s.88.16,1.21.5c.33.33.5.73.5,1.21s-.17.88-.5,1.21ZM225.86,236.6c-.29.29-.43.63-.43,1.04s.14.76.43,1.05c.29.29.63.43,1.04.43s.76-.14,1.04-.43c.29-.29.43-.64.43-1.05s-.14-.76-.43-1.04c-.29-.29-.63-.43-1.04-.43s-.75.14-1.04.43ZM226.87,236.69c.23,0,.4.02.51.07.19.08.29.24.29.48,0,.17-.06.29-.18.37-.06.04-.16.07-.27.09.15.02.25.08.32.18.07.1.1.2.1.29v.14s0,.09,0,.14c0,.05,0,.08.02.1v.02s-.3,0-.3,0c0,0,0-.01,0-.02,0,0,0-.01,0-.02v-.06s0-.15,0-.15c0-.22-.06-.36-.18-.43-.07-.04-.19-.06-.37-.06h-.26v.74h-.33v-1.88h.66ZM227.23,236.99c-.08-.05-.22-.07-.4-.07h-.28v.68h.3c.14,0,.25-.01.32-.04.13-.05.19-.15.19-.29,0-.14-.04-.23-.12-.28Z"></path>
      <g>
        <path class="cls-12" d="M215.35,251.83l-6.15,6.31h6.95v4.84c-1.31.55-2.17.76-3.53.76-2.21,0-4.21-.7-5.77-1.92,0,0-.47-.33-.93-.79-.46-.46-.7-.8-.7-.8-1.23-1.69-2.04-4.09-2.04-6.53,0-5.35,3.63-9.28,8.63-9.28,1.24,0,2.38.18,3.49.59l1.42.54-.5,1.94h2.8l.38-.17h4.89v-11.32h-5.34v1.67c-2.13-.82-4.48-1.23-7.08-1.23-10.64,0-18.31,7.42-18.31,17.81s7.37,17.1,17.96,17.1c5,0,9.48-1.36,13.37-4.04v-15.49h-9.53Z"></path>
        <g>
          <polygon class="cls-21" points="210.69 247.55 218.85 244.85 215.88 248.42 219.09 247.31 206.02 260.79 209.74 251.41 207.62 252.22 210.69 247.55"></polygon>
          <g>
            <g class="cls-24">
              <polygon class="cls-20" points="210.17 250.3 208.44 250.96 207.62 252.22 209.74 251.41 210.17 250.3"></polygon>
            </g>
            <g class="cls-42">
              <polygon class="cls-20" points="214.3 248.96 215.88 248.42 218.85 244.85 217.28 245.37 214.3 248.96"></polygon>
            </g>
            <g class="cls-32">
              <polygon class="cls-20" points="206.86 258.65 217.23 247.95 219.09 247.31 206.02 260.79 206.86 258.65"></polygon>
            </g>
          </g>
          <path d="M204.06,264.2c.59-1.49,4.59-11.57,4.59-11.57l-2.64,1.01,4.32-6.57,10.95-3.64-2.94,3.54,3.68-1.29-17.96,18.51M207.62,252.22l2.12-.81-3.72,9.38,13.07-13.47-3.21,1.11,2.97-3.57-8.16,2.7-3.07,4.66Z"></path>
        </g>
      </g>
    </g>
  </g>
  <ellipse class="cls-51" cx="326.85" cy="252.71" rx="25.76" ry="25.95"></ellipse>
  <g>
    <g>
      <g class="cls-5">
        <g>
          <polygon class="cls-28" points="320.16 240.11 323.83 237.25 326.25 238.97 328.45 238.07 330.68 241.57 328.09 247.69 323.43 247.69 320.16 240.11"></polygon>
          <polygon class="cls-9" points="344.48 245.37 348.64 247.69 342.56 247.69 344.48 245.37"></polygon>
          <polygon class="cls-16" points="344.48 245.37 349.34 248.13 342.4 247.86 344.48 245.37"></polygon>
          <polygon class="cls-8" points="344.2 245.71 342.43 243.91 339.73 244.58 341.55 247.69 342.56 247.69 344.2 245.71"></polygon>
          <polygon class="cls-7" points="338.12 243.85 336.56 246.05 335.63 247.69 341.55 247.69 339.72 244.58 338.12 243.85"></polygon>
          <polygon class="cls-31" points="330.68 241.57 331.77 240.03 334.12 241.73 336.3 240.7 338.12 243.85 336.56 246.05 335.63 247.69 328.1 247.69 330.68 241.57"></polygon>
          <polygon class="cls-30" points="328.45 238.07 326.25 238.97 326.84 244.55 330.68 241.57 328.45 238.07"></polygon>
          <polygon class="cls-43" points="336.3 240.7 334.12 241.73 334.78 243.43 336.3 240.7"></polygon>
          <polygon class="cls-46" points="307.03 245.37 302.87 247.69 308.96 247.69 307.03 245.37"></polygon>
          <polygon class="cls-29" points="307.02 245.37 302.13 248.07 309.12 247.92 307.02 245.37"></polygon>
          <polygon class="cls-19" points="307.31 245.7 309.07 243.91 311.78 244.58 309.95 247.69 308.95 247.69 307.31 245.7"></polygon>
          <polygon class="cls-14" points="313.39 243.51 316.06 247.86 310.06 247.92 310.98 245.74 311.79 244.58 313.39 243.51"></polygon>
          <polygon class="cls-6" points="320.84 241.57 320.16 240.11 317.74 241.3 314.87 241.08 313.39 243.51 315.92 247.8 323.42 247.69 320.84 241.57"></polygon>
          <polygon class="cls-1" points="317.74 241.3 316.74 243.43 314.87 241.08 317.74 241.3"></polygon>
          <polygon class="cls-41" points="344.48 245.37 345.22 246.01 342.56 247.69 344.48 245.37"></polygon>
          <polygon class="cls-13" points="345.21 246.01 344.48 245.37 349.4 248.13 345.21 246.01"></polygon>
          <polygon class="cls-4" points="342.43 243.91 340.43 245.76 344.2 245.71 342.43 243.91"></polygon>
          <polygon class="cls-49" points="342.73 247.86 341.64 247.86 340.41 245.74 342.73 247.86"></polygon>
          <polygon class="cls-48" points="338.12 243.85 339.72 244.58 339.33 246.58 338.12 243.85"></polygon>
          <polygon class="cls-48" points="341.55 247.69 339.77 247.69 339.33 246.58 341.55 247.69"></polygon>
          <polygon class="cls-27" points="335.63 247.68 339.33 246.58 336.56 246.05 335.63 247.68"></polygon>
          <polygon class="cls-44" points="334.8 243.36 330.68 241.57 331.77 240.03 334.8 243.36"></polygon>
          <polygon class="cls-10" points="307.03 245.37 306.29 246.01 308.96 247.69 307.03 245.37"></polygon>
          <polygon class="cls-11" points="306.31 246.01 307.03 245.37 302.1 248.07 306.31 246.01"></polygon>
          <polygon class="cls-25" points="309.07 243.91 310.98 245.74 307.31 245.7 309.07 243.91"></polygon>
          <polygon class="cls-38" points="308.79 247.83 309.95 247.86 311 245.73 308.79 247.83"></polygon>
          <polygon class="cls-50" points="313.4 243.51 311.79 244.58 311 245.73 313.4 243.51"></polygon>
          <polygon class="cls-50" points="309.86 248.03 311.84 247.95 311 245.73 309.86 248.03"></polygon>
          <polygon class="cls-50" points="315.89 247.68 311 245.73 314.95 246.05 315.89 247.68"></polygon>
          <polygon class="cls-45" points="315.89 247.68 316.74 243.43 313.4 243.51 315.89 247.68"></polygon>
          <polygon class="cls-39" points="316.74 243.43 323.42 247.69 320.84 241.57 316.74 243.43"></polygon>
          <polygon class="cls-34" points="326.84 244.55 323.79 247.75 328.38 247.77 326.84 244.55"></polygon>
          <polygon class="cls-2" points="323.83 237.25 326.84 244.55 320.84 241.57 320.16 240.11 323.83 237.25"></polygon>
          <polygon class="cls-37" points="334.8 243.36 337.78 244.36 336.56 246.05 334.8 243.36"></polygon>
          <polygon class="cls-40" points="334.8 243.36 335.63 247.68 328.1 247.69 334.8 243.36"></polygon>
        </g>
      </g>
      <path class="cls-35" d="M303.17,246.57s7.38,3.6,21.85.92c12.35-2.29,23.81.13,23.81.13,0,0-10.38-3.04-23.81-.71-13.42,2.32-21.86-.35-21.86-.35h0Z"></path>
    </g>
    <g>
      <path class="cls-12" d="M338.95,250.99l-.23.02s-1.59.11-1.59,2.26v4.4c-.02.3-.2.96-1.34.96h-.15v-8.99h.2c1.19,0,1.15.84,1.15.84v.07c.23-.3.52-.54.89-.74.47-.24.84-.35,1.32-.34h.58v.6s.07.84-.82.94Z"></path>
      <path class="cls-12" d="M317.23,261.68h-.15v-7.56c0-1.29.47-2.41,1.4-3.34.95-.95,2.07-1.4,3.36-1.36,1.24.03,2.31.51,3.17,1.42.87.91,1.31,2.01,1.31,3.26s-.47,2.44-1.4,3.38c-.89.89-1.96,1.34-3.17,1.34h0c-.06,0-.12,0-.18,0-1.2-.04-2.23-.5-3.09-1.34v3.23c-.02.29-.19.96-1.25.96h0ZM321.64,250.84c-.86,0-1.57.31-2.19.96-.65.69-.96,1.48-.94,2.41.01.86.33,1.63.94,2.27.6.63,1.32.94,2.2.94s1.63-.31,2.26-.94c.64-.64.96-1.38.97-2.28.01-.89-.27-1.64-.88-2.31-.61-.67-1.33-1.01-2.19-1.04-.06,0-.12,0-.17,0h0Z"></path>
      <path class="cls-12" d="M343.55,258.82c-.06,0-.11,0-.17,0-1.24-.05-2.31-.53-3.17-1.44-.87-.91-1.31-2.01-1.31-3.26s.47-2.44,1.4-3.37c.92-.94,2.05-1.38,3.36-1.34,1.26.05,2.35.54,3.21,1.45.88.92,1.31,2.01,1.26,3.25v4.51h-.14c-1.12,0-1.25-.74-1.27-.97v-.19c-.89.9-1.96,1.36-3.19,1.36h0ZM343.58,250.82c-.9,0-1.64.31-2.28.94s-.94,1.37-.96,2.28c-.02.9.28,1.68.87,2.33.59.65,1.33,1,2.19,1.04.05,0,.11,0,.17,0,.85,0,1.56-.31,2.18-.96.66-.69.97-1.48.96-2.43-.01-.86-.33-1.62-.94-2.27-.59-.62-1.33-.94-2.18-.94h0Z"></path>
      <path class="cls-12" d="M330.94,258.84c-.29,0-.57-.03-.84-.08-.78-.15-1.46-.52-2.03-1.1-.6-.63-.97-1.4-1.08-2.29-.03-.23-.04-.44-.04-.63v-5.11h.29c.33.02,1.09.18,1.16,1.26v3.99c0,.69.25,1.28.77,1.8.49.47,1.04.72,1.68.74h.04s.07,0,.1,0c.02,0,.03,0,.05,0,.64-.02,1.19-.26,1.68-.74.52-.52.77-1.11.77-1.8v-3.98c.07-1.08.83-1.24,1.15-1.26h.29s0,5.11,0,5.11c0,1.16-.38,2.15-1.12,2.92-.57.58-1.25.95-2.03,1.1-.27.05-.55.08-.84.08h0Z"></path>
      <path class="cls-12" d="M311.71,255.67h.57c-.33.96-.9,1.74-1.7,2.3-.8.57-1.67.85-2.66.87h-.06c-1.2,0-2.28-.45-3.2-1.34-.96-.94-1.43-2.02-1.45-3.29-.03-1.34.45-2.51,1.42-3.46.99-.98,2.16-1.43,3.48-1.36,1.2.08,2.25.58,3.12,1.48.85.9,1.28,1.92,1.28,3.03v.76h-7.82c.11.78.47,1.43,1.05,1.94.63.54,1.34.81,2.16.81h.06c.99-.01,1.75-.35,2.32-1.03,0,0,.51-.78,1.43-.7ZM304.7,253.32h6.35c-.18-.71-.54-1.29-1.07-1.74-.57-.48-1.27-.73-2.07-.75h-.07c-.77,0-1.45.24-2.05.72-.55.45-.91,1.03-1.09,1.77h0Z"></path>
      <path class="cls-12" d="M315.94,251.84c-1.38.62-3.58,2.92-2.62,4.78.65,1.26,2.61.85,2.94-.72.38-1.79-1.09-2.58-.32-4.06Z"></path>
      <path class="cls-12" d="M348.38,248.99c.64,0,1.18.51,1.18,1.18s-.54,1.19-1.18,1.19-1.19-.51-1.19-1.19.54-1.18,1.19-1.18M348.38,251.18c.55,0,.97-.44.97-1.01s-.42-1-.97-1-.98.44-.98,1,.42,1.01.98,1.01M347.92,249.48h.54c.33,0,.48.13.48.4,0,.25-.16.35-.36.37l.4.61h-.23l-.37-.59h-.23v.59h-.21v-1.38ZM348.13,250.09h.22c.19,0,.36,0,.36-.23,0-.18-.16-.21-.3-.21h-.28v.44Z"></path>
    </g>
  </g>
</svg>
