<?xml version="1.0" encoding="UTF-8"?>
<svg xmlns="http://www.w3.org/2000/svg" xmlns:i="http://ns.adobe.com/AdobeIllustrator/10.0/" id="Capa_1" version="1.1" viewBox="0 0 246.52 120">
  <defs>
    <style>
      .st0 {
        fill: #11b6cd;
      }

      .st0, .st1 {
        fill-rule: evenodd;
      }

      .st1 {
        fill: #c0d12b;
      }
    </style>
  </defs>
  <path class="st0" d="M139.23,55.08h10.04c.77-5.77,4.5-7.46,8.21-7.46,7.86,0,7.86,6.48,7.86,9.85v27.24h14.68v-29.49c0-6.75-.56-10.28-4.43-15.2-4.35-5.49-11.38-6.2-14.39-6.2-3.51,0-8.99.49-12.15,5.7v-4.15h-19.59v10.21c0,5.28,4.49,9.5,9.76,9.5h0Z"></path>
  <path class="st0" d="M109.74,65h-10.04c-.77,5.77-4.42,7.46-8.21,7.46-7.87,0-7.87-6.47-7.87-9.85v-27.24h-14.61v29.49c0,6.76.49,10.28,4.36,15.2,4.35,5.49,11.45,6.19,14.46,6.19,3.44,0,8.92-.49,12.08-5.7v4.16h19.59v-10.21c0-5.28-4.42-9.5-9.76-9.5h0Z"></path>
  <path class="st0" d="M213.87,72.6c-8.84,0-12.21-7.82-12.21-12.46,0-5.63,3.72-12.67,12.14-12.67s12.35,6.55,12.35,12.53c0,4.78-3.08,12.6-12.28,12.6h0ZM226.15,35.37v5.28h-.21c-1.75-3.02-6.24-6.97-14.32-6.97-13.06,0-24.65,10.14-24.65,26.32,0,14.07,9.13,26.32,24.65,26.32,5.76,0,11.87-2.18,14.32-7.03h.21v5.34h14.68v-49.26h-14.68Z"></path>
  <path class="st0" d="M32.58,72.6c-8.84,0-12.22-7.82-12.22-12.46,0-5.63,3.72-12.67,12.15-12.67s12.36,6.55,12.36,12.53c0,4.78-3.09,12.6-12.29,12.6ZM44.87,35.37v5.28h-.21c-1.75-3.02-6.25-6.97-14.25-6.97-13.13,0-24.71,10.14-24.71,26.32,0,14.07,9.13,26.32,24.71,26.32,5.69,0,11.8-2.18,14.25-7.03h.21v5.34h14.67v-49.26h-14.67Z"></path>
  <path class="st1" d="M139.3,65c-5.41,0-9.83,4.43-9.83,9.86v9.85h19.59v-19.71h-9.76Z"></path>
  <path class="st1" d="M99.92,55.08v-19.71h19.59v9.86c0,5.42-4.36,9.85-9.83,9.85h-9.76Z"></path>
  <metadata></metadata>
</svg>
