<?xml version="1.0" encoding="UTF-8"?>
<svg xmlns="http://www.w3.org/2000/svg" xmlns:i="http://ns.adobe.com/AdobeIllustrator/10.0/" id="Capa_1" version="1.1" viewBox="0 0 208.17 120">
  <defs>
    <style>
      .st0 {
        fill: none;
      }

      .st1 {
        fill: #006fba;
      }
    </style>
  </defs>
  <rect class="st0" x="9.61" y="11" width="188.95" height="98.06"></rect>
  <path class="st1" d="M137.43,48.57c-1.19-.88-3.05-1.42-4.86-1.39-1.96.02-3.84.66-5.14,1.69v-12.39h-6.13v40.38h6.13v-21.08c0-1.47,1.23-3.09,3.52-3.19,1.01-.04,2.42.4,3.14,1.46.76,1.14.71,2.64.71,4.29v18.52s6.12,0,6.12,0v-18.75c0-5.53-.73-7.5-3.49-9.56"></path>
  <path class="st1" d="M87.58,62.44c0,3.96-.13,5.07-.16,5.41-.21,2.19-1.14,4.52-3.7,4.52s-3.59-2.48-3.7-4.62c0-.01-.16-1.35-.16-5.3s.16-5.61.16-5.62c.03-2.23,1.19-4.46,3.7-4.46s3.67,2.23,3.69,4.44c0,.03.16,1.68.16,5.64M93.51,57.67c-.87-8.63-5.77-10.48-9.79-10.48-5.7,0-9.18,3.63-9.8,10.47-.05.55-.14,1.55-.17,4.77-.02,2.35.13,4.28.16,4.77.4,6.39,4.06,10.33,9.81,10.33s9.41-4.01,9.81-10.34c.03-.45.16-2.41.16-4.77,0-1.06-.09-3.95-.17-4.76Z"></path>
  <path class="st1" d="M151.15,58.8c.04-1.34.04-1.62.07-2.01.17-2.42,1.25-4.42,3.73-4.44,2.94-.02,3.63,2.86,3.73,4.45.06.84.12,1.4.11,1.99h-7.65M158.71,66.89s.01.45-.05,1c-.17,1.43-.74,4.47-3.72,4.47-2.54,0-3.51-2.31-3.68-4.61-.04-.66-.16-1.38-.15-3.86h13.66s.02-2.03-.01-3.26c-.02-.48-.04-1.28-.16-2.97-.19-2.59-1.16-5.42-2.63-7.25-1.72-2.12-4.15-3.23-7.02-3.23-5.52,0-8.96,3.59-9.65,10.48-.06.61-.16,1.47-.16,4.77,0,2.35.13,4.31.16,4.77.37,6.29,4.09,10.33,9.65,10.33s9.27-3.94,9.66-10.64h-5.88Z"></path>
  <path class="st1" d="M54.37,15.88h99.57l38.07,44.55-38.07,43.94H54.37L16.15,60.28,54.37,15.88M156.36,10.94H51.97L9.61,60.12l42.36,48.87h104.38l42.21-48.71-42.21-49.35Z"></path>
  <path class="st1" d="M55.6,41.98h2.9c3.16,0,4.86,1.67,4.94,4.66,0,.22.03.47.03.94,0,.54,0,.73-.03.94-.17,1.77-.95,4.87-4.64,4.87h-3.19v-11.4M70.12,74.38s-.63-9.92-.63-9.92c-.27-4.43-1.43-7.05-3.72-8.39,1.66-1,3.8-3.46,3.78-8.61-.03-7.84-4.9-10.59-10.63-10.65h-9.37v40.07h6.05v-18.33h3.37c1.95,0,4.14,1.7,4.47,6.48l.63,9.38c.05,1.33.3,2.47.3,2.47h6.05s-.26-1.1-.3-2.5Z"></path>
  <path class="st1" d="M111.41,66.61c-.02.45-.05.84-.07,1.13-.17,2.24-.96,4.62-3.7,4.62-2.55,0-3.56-2.58-3.75-4.48-.11-1.15-.09-2.05-.11-5.44-.03-3.96.1-4.97.16-5.62.22-2.5,1.19-4.44,3.7-4.46,2.58-.02,3.67,2.23,3.7,4.44,0,.02.05.56.1,1.73h6.06c-.02-.4-.03-.74-.05-.94-.69-8.37-5.79-10.4-9.81-10.4-5.7,0-9.17,3.63-9.8,10.47-.05.55-.13,1.55-.17,4.77-.02,2.35.13,4.28.16,4.77.39,6.39,4.06,10.31,9.81,10.33,5.96.02,9.24-3.61,9.81-10.34.02-.25.05-.41.03-.58h-6.07"></path>
  <metadata></metadata>
</svg>
