<?xml version="1.0" encoding="UTF-8"?>
<svg xmlns="http://www.w3.org/2000/svg" xmlns:i="http://ns.adobe.com/AdobeIllustrator/10.0/" xmlns:xlink="http://www.w3.org/1999/xlink" id="Capa_1" version="1.1" viewBox="0 0 259.83 120">
  <defs>
    <style>
      .st0 {
        fill: url(#Degradado_sin_nombre_4);
      }

      .st1 {
        fill: url(#Degradado_sin_nombre_2);
      }

      .st2 {
        fill: url(#Degradado_sin_nombre_3);
      }

      .st3 {
        fill: #233b85;
      }
    </style>
    <linearGradient id="Degradado_sin_nombre_4" data-name="Degradado sin nombre 4" x1="262.05" y1="-97.71" x2="429.32" y2="-435.27" gradientTransform="translate(-15.73 20.99) scale(.16 -.16)" gradientUnits="userSpaceOnUse">
      <stop offset="0" stop-color="#d3256b"></stop>
      <stop offset=".13" stop-color="#b22972"></stop>
      <stop offset=".31" stop-color="#892e7b"></stop>
      <stop offset=".4" stop-color="#79307f"></stop>
      <stop offset=".46" stop-color="#683280"></stop>
      <stop offset=".58" stop-color="#4a3682"></stop>
      <stop offset=".7" stop-color="#343984"></stop>
      <stop offset=".82" stop-color="#273a85"></stop>
      <stop offset=".93" stop-color="#233b85"></stop>
    </linearGradient>
    <linearGradient id="Degradado_sin_nombre_2" data-name="Degradado sin nombre 2" x1="346.77" y1="-397.02" x2="340.63" y2="-76.29" gradientTransform="translate(-15.73 20.99) scale(.16 -.16)" gradientUnits="userSpaceOnUse">
      <stop offset=".07" stop-color="#4ca980"></stop>
      <stop offset=".16" stop-color="#449c84"></stop>
      <stop offset=".31" stop-color="#2e7990"></stop>
      <stop offset=".43" stop-color="#19589b"></stop>
      <stop offset=".54" stop-color="#1d4c92"></stop>
      <stop offset=".71" stop-color="#213f88"></stop>
      <stop offset=".88" stop-color="#233b85"></stop>
    </linearGradient>
    <linearGradient id="Degradado_sin_nombre_3" data-name="Degradado sin nombre 3" x1="297.24" y1="-143.31" x2="391.72" y2="-358.59" gradientTransform="translate(-15.73 20.99) scale(.16 -.16)" gradientUnits="userSpaceOnUse">
      <stop offset="0" stop-color="#6bbacb"></stop>
      <stop offset=".27" stop-color="#3c83b1"></stop>
      <stop offset=".5" stop-color="#195a9d"></stop>
      <stop offset=".82" stop-color="#233b85"></stop>
    </linearGradient>
  </defs>
  <g id="g135">
    <g id="g82">
      <g id="g40">
        <path id="path28" class="st3" d="M89.88,72.67c-2.58,0-4.51-.72-5.83-2.13s-2.01-3.46-2.01-6.08c0-1.29.2-2.45.6-3.5.4-1.01.97-1.89,1.69-2.58.72-.68,1.57-1.25,2.53-1.61.97-.36,2.05-.56,3.22-.56.68,0,1.29.04,1.81.16.56.08,1.01.2,1.45.32.4.12.76.24,1.01.4.28.12.48.24.6.32l-1.01,2.86c-.48-.24-1.05-.48-1.69-.64-.64-.2-1.37-.28-2.17-.28-.56,0-1.09.08-1.61.28-.52.16-.97.48-1.37.89s-.72.93-.97,1.57c-.24.64-.36,1.41-.36,2.33,0,.72.08,1.41.24,2.01.16.64.4,1.17.76,1.61s.8.8,1.41,1.09c.56.28,1.29.4,2.09.4.52,0,.97-.04,1.37-.08s.76-.12,1.09-.2.6-.16.84-.28c.24-.12.44-.2.64-.28l.97,2.82c-.48.32-1.21.56-2.09.8-.97.24-2.01.36-3.22.36Z"></path>
        <path id="path30" class="st3" d="M101.26,60.12c1.01,0,1.81.12,2.49.32.68.24,1.21.56,1.61.97.4.44.68.93.84,1.53.16.6.24,1.29.24,2.01v7.04c-.48.12-1.17.24-2.01.36-.84.16-1.89.2-3.14.2-.76,0-1.49-.08-2.09-.2-.64-.12-1.17-.36-1.61-.68-.44-.32-.8-.72-1.05-1.21s-.36-1.13-.36-1.85c0-.68.12-1.29.4-1.77.28-.48.64-.89,1.13-1.17.48-.28,1.01-.48,1.61-.6s1.25-.2,1.89-.2c.44,0,.84,0,1.17.04.32.04.6.08.84.16v-.32c0-.56-.16-1.05-.52-1.37-.36-.36-.97-.52-1.81-.52-.56,0-1.13.04-1.69.12-.56.08-1.05.2-1.45.36l-.44-2.74c.2-.04.44-.12.72-.2s.6-.12.97-.2c.36-.04.72-.08,1.09-.12.36.04.76.04,1.17.04ZM104.52,56.78l-4.79,2.41-1.13-1.77,4.47-2.98,1.45,2.33ZM101.51,69.98c.32,0,.64,0,.97-.04.32,0,.56-.04.72-.08v-2.58c-.12-.04-.32-.04-.6-.08s-.52-.04-.76-.04c-.32,0-.6,0-.89.04s-.52.12-.72.2c-.2.12-.36.24-.48.44s-.2.4-.2.68c0,.52.16.89.52,1.09.36.28.84.36,1.45.36Z"></path>
        <path id="path32" class="st3" d="M115.71,66.04c0-1.09-.12-1.85-.4-2.33-.28-.44-.76-.68-1.45-.68-.2,0-.44,0-.64.04-.24.04-.44.04-.64.08v9.21h-3.38v-11.51c.28-.08.64-.16,1.01-.24.4-.08.8-.16,1.21-.24.44-.08.89-.12,1.33-.16.44-.04.89-.04,1.33-.04.84,0,1.57.12,2.09.32.52.2.97.48,1.33.76.48-.36,1.05-.6,1.65-.8.64-.2,1.21-.28,1.73-.28.97,0,1.73.12,2.33.4s1.09.64,1.45,1.13c.36.48.6,1.05.76,1.73.12.68.2,1.41.2,2.21v6.72h-3.38v-6.32c0-1.09-.12-1.85-.4-2.33-.28-.44-.76-.68-1.45-.68-.2,0-.44.04-.76.12-.32.08-.6.2-.8.32.12.36.16.72.2,1.09.04.4.04.8.04,1.25v6.52h-3.38v-6.28h.04Z"></path>
        <path id="path34" class="st3" d="M132.65,60.12c1.01,0,1.81.12,2.49.32.68.24,1.21.56,1.61.97.4.44.68.93.84,1.53s.24,1.29.24,2.01v7.04c-.48.12-1.17.24-2.01.36-.84.16-1.89.2-3.14.2-.76,0-1.49-.08-2.09-.2-.64-.12-1.17-.36-1.61-.68-.44-.32-.8-.72-1.05-1.21s-.36-1.13-.36-1.85c0-.68.12-1.29.4-1.77.28-.48.64-.89,1.13-1.17.48-.28,1.01-.48,1.61-.6s1.25-.2,1.89-.2c.44,0,.84,0,1.17.04s.6.08.84.16v-.32c0-.56-.16-1.05-.52-1.37-.36-.36-.97-.52-1.81-.52-.56,0-1.13.04-1.69.12-.56.08-1.05.2-1.45.36l-.44-2.74c.2-.04.44-.12.72-.2.28-.08.6-.12.97-.2.36-.04.72-.08,1.09-.12.4.04.76.04,1.17.04ZM132.93,69.98c.32,0,.64,0,.97-.04s.56-.04.72-.08v-2.58c-.12-.04-.32-.04-.6-.08s-.52-.04-.76-.04c-.32,0-.6,0-.89.04s-.52.12-.72.2c-.2.12-.36.24-.48.44-.12.2-.2.4-.2.68,0,.52.16.89.52,1.09.32.28.8.36,1.45.36Z"></path>
        <path id="path36" class="st3" d="M147.74,63.42c-.32-.08-.64-.16-1.09-.24-.4-.08-.84-.12-1.33-.12-.2,0-.48,0-.76.04-.28.04-.52.08-.68.12v9.13h-3.38v-11.31c.6-.2,1.33-.4,2.13-.6s1.73-.28,2.78-.28c.16,0,.4,0,.64.04s.52.04.76.08.52.08.76.12c.24.04.48.12.64.2l-.48,2.82Z"></path>
        <path id="path38" class="st3" d="M153.93,60.12c1.01,0,1.81.12,2.49.32.68.24,1.21.56,1.61.97.4.44.68.93.84,1.53s.24,1.29.24,2.01v7.04c-.48.12-1.17.24-2.01.36-.84.16-1.89.2-3.14.2-.76,0-1.49-.08-2.09-.2-.64-.12-1.17-.36-1.61-.68-.44-.32-.8-.72-1.05-1.21s-.36-1.13-.36-1.85c0-.68.12-1.29.4-1.77.28-.48.64-.89,1.13-1.17.48-.28,1.01-.48,1.61-.6s1.25-.2,1.89-.2c.44,0,.84,0,1.17.04s.6.08.84.16v-.32c0-.56-.16-1.05-.52-1.37-.36-.36-.97-.52-1.81-.52-.56,0-1.13.04-1.69.12-.56.08-1.05.2-1.45.36l-.44-2.74c.2-.04.44-.12.72-.2.28-.08.6-.12.97-.2.36-.04.72-.08,1.09-.12.4.04.76.04,1.17.04ZM154.22,69.98c.32,0,.64,0,.97-.04.32,0,.56-.04.72-.08v-2.58c-.12-.04-.32-.04-.6-.08s-.52-.04-.76-.04c-.32,0-.6,0-.89.04s-.52.12-.72.2c-.2.12-.36.24-.48.44-.12.2-.2.4-.2.68,0,.52.16.89.52,1.09.32.28.84.36,1.45.36Z"></path>
      </g>
      <g id="g46">
        <path id="path42" class="st3" d="M176.91,71.95c-.32.08-.64.16-1.05.24s-.8.16-1.25.2-.89.12-1.33.16c-.44.04-.89.04-1.29.04-.97,0-1.85-.16-2.62-.44s-1.41-.68-1.93-1.25c-.52-.52-.93-1.21-1.21-1.93-.28-.76-.4-1.61-.4-2.58s.12-1.85.36-2.62.6-1.45,1.05-1.97c.44-.56,1.01-.97,1.65-1.25s1.41-.44,2.25-.44c.48,0,.89.04,1.25.12.36.08.76.2,1.13.4v-5.35l3.38-.56v17.22ZM169.26,66.28c0,1.05.24,1.89.68,2.53.48.64,1.17.97,2.09.97.32,0,.56,0,.84-.04.24-.04.48-.04.64-.08v-6.16c-.2-.12-.48-.24-.84-.32-.32-.08-.68-.12-1.05-.12-1.57-.04-2.37,1.05-2.37,3.22Z"></path>
        <path id="path44" class="st3" d="M179.12,66.48c0-1.05.16-1.97.48-2.78.32-.8.76-1.45,1.29-1.97.52-.52,1.13-.93,1.81-1.21s1.41-.4,2.13-.4c1.69,0,3.02.52,4.02,1.57.97,1.05,1.49,2.58,1.49,4.59,0,.2,0,.4-.04.64,0,.24-.04.44-.04.64h-7.69c.08.68.4,1.25.97,1.65s1.33.6,2.33.6c.6,0,1.25-.04,1.81-.16.6-.12,1.09-.24,1.45-.4l.44,2.74c-.2.08-.44.2-.72.28-.32.08-.64.16-1.01.24s-.76.12-1.21.16-.84.08-1.29.08c-1.09,0-2.01-.16-2.82-.48-.8-.32-1.45-.76-1.97-1.29-.52-.56-.93-1.21-1.17-1.97-.16-.84-.28-1.65-.28-2.53ZM187.09,65.19c0-.28-.08-.56-.16-.84-.08-.28-.2-.52-.4-.72-.16-.2-.4-.4-.64-.52-.28-.12-.6-.2-1.01-.2-.36,0-.68.08-.97.2-.28.12-.48.28-.68.52-.2.2-.32.44-.4.72-.08.28-.16.56-.2.84h4.47Z"></path>
      </g>
      <g id="g52">
        <path id="path48" class="st3" d="M195.5,92.75c-.32.08-.64.16-1.05.24-.4.08-.8.16-1.25.2s-.89.12-1.33.16c-.44.04-.89.04-1.29.04-.97,0-1.85-.16-2.62-.44-.76-.28-1.41-.68-1.93-1.25-.52-.52-.93-1.21-1.21-1.93-.28-.76-.4-1.61-.4-2.58s.12-1.85.36-2.62.6-1.45,1.05-1.97c.44-.56,1.01-.97,1.65-1.25.64-.28,1.41-.44,2.25-.44.48,0,.89.04,1.25.12s.76.2,1.13.4v-5.39l3.38-.56v17.26ZM187.85,87.08c0,1.05.24,1.89.68,2.53.48.64,1.17.97,2.09.97.32,0,.56,0,.84-.04.24-.04.48-.04.64-.08v-6.16c-.2-.12-.48-.24-.84-.32-.32-.08-.68-.12-1.05-.12-1.57-.04-2.37,1.05-2.37,3.22Z"></path>
        <path id="path50" class="st3" d="M197.71,87.28c0-1.05.16-1.97.48-2.78.32-.8.76-1.45,1.29-1.97.52-.52,1.13-.93,1.81-1.21s1.41-.4,2.13-.4c1.69,0,3.02.52,4.02,1.57.97,1.05,1.49,2.58,1.49,4.59,0,.2,0,.4-.04.64,0,.24-.04.44-.04.64h-7.64c.08.68.4,1.25.97,1.65s1.33.6,2.33.6c.6,0,1.25-.04,1.81-.16.6-.12,1.09-.24,1.45-.4l.44,2.74c-.2.08-.44.2-.72.28-.32.08-.64.16-1.01.24-.36.08-.76.12-1.21.16-.44.04-.84.08-1.29.08-1.09,0-2.01-.16-2.82-.48s-1.45-.76-1.97-1.29c-.52-.56-.93-1.21-1.17-1.97-.2-.84-.32-1.69-.32-2.53ZM205.68,85.99c0-.28-.08-.56-.16-.84-.08-.28-.2-.52-.4-.72-.16-.2-.4-.4-.64-.52-.28-.12-.6-.2-1.01-.2-.36,0-.68.08-.97.2-.28.12-.48.28-.68.52-.2.2-.32.44-.4.72s-.16.56-.2.84h4.47Z"></path>
      </g>
      <g id="g70">
        <path id="path54" class="st3" d="M89.88,93.48c-2.58,0-4.51-.72-5.83-2.13s-2.01-3.46-2.01-6.08c0-1.29.2-2.45.6-3.5.4-1.01.97-1.89,1.69-2.58s1.57-1.25,2.53-1.61c.97-.36,2.05-.56,3.22-.56.68,0,1.29.04,1.81.16.56.08,1.01.2,1.45.32.4.12.76.24,1.01.4.28.12.48.24.6.32l-1.01,2.86c-.48-.24-1.05-.48-1.69-.64-.64-.2-1.37-.28-2.17-.28-.56,0-1.09.08-1.61.28s-.97.48-1.37.89-.72.93-.97,1.57c-.24.64-.36,1.41-.36,2.33,0,.72.08,1.41.24,2.01.16.64.4,1.17.76,1.61s.8.8,1.41,1.09c.56.28,1.29.4,2.09.4.52,0,.97-.04,1.37-.08.4-.04.76-.12,1.09-.2s.6-.16.84-.28.44-.2.64-.28l.97,2.82c-.48.32-1.21.56-2.09.8-.97.24-2.01.36-3.22.36Z"></path>
        <path id="path56" class="st3" d="M107.66,87.16c0,.93-.12,1.81-.4,2.58s-.68,1.45-1.17,2.01c-.52.56-1.13.97-1.85,1.29s-1.53.44-2.41.44-1.69-.16-2.37-.44c-.72-.32-1.33-.72-1.85-1.29s-.93-1.21-1.21-2.01c-.28-.76-.44-1.65-.44-2.58s.16-1.81.44-2.58c.28-.76.68-1.45,1.21-1.97.52-.56,1.13-.97,1.85-1.29s1.49-.44,2.33-.44,1.65.16,2.37.44c.72.32,1.33.72,1.85,1.29s.93,1.21,1.21,1.97.44,1.65.44,2.58ZM104.2,87.16c0-1.05-.2-1.85-.64-2.45-.4-.6-1.01-.89-1.77-.89s-1.37.28-1.81.89-.64,1.41-.64,2.45.2,1.89.64,2.49,1.01.93,1.81.93,1.37-.32,1.77-.93c.44-.64.64-1.45.64-2.49Z"></path>
        <path id="path58" class="st3" d="M116.39,86.8c0-1.09-.12-1.85-.4-2.33-.28-.44-.76-.68-1.45-.68-.2,0-.44,0-.64.04-.24.04-.44.04-.64.08v9.21h-3.38v-11.51c.28-.08.64-.16,1.01-.24.4-.08.8-.16,1.21-.24.44-.08.89-.12,1.33-.16.44-.04.89-.04,1.33-.04.84,0,1.57.12,2.09.32.52.2.97.48,1.33.76.48-.36,1.05-.6,1.65-.8.64-.2,1.21-.28,1.73-.28.97,0,1.73.12,2.33.4s1.09.64,1.45,1.13.6,1.05.76,1.73c.12.68.2,1.41.2,2.21v6.72h-3.38v-6.32c0-1.09-.12-1.85-.4-2.33-.28-.44-.76-.68-1.45-.68-.2,0-.44.04-.76.12s-.6.2-.8.32c.12.36.16.72.2,1.09.04.4.04.8.04,1.25v6.52h-3.38v-6.28h.04Z"></path>
        <path id="path60" class="st3" d="M128.38,87.28c0-1.05.16-1.97.48-2.78.32-.8.76-1.45,1.29-1.97.52-.52,1.13-.93,1.81-1.21s1.41-.4,2.13-.4c1.69,0,3.02.52,4.02,1.57.97,1.05,1.49,2.58,1.49,4.59,0,.2,0,.4-.04.64,0,.24-.04.44-.04.64h-7.69c.08.68.4,1.25.97,1.65s1.33.6,2.33.6c.6,0,1.25-.04,1.81-.16.6-.12,1.09-.24,1.45-.4l.44,2.74c-.2.08-.44.2-.72.28-.32.08-.64.16-1.01.24-.36.08-.76.12-1.21.16-.44.04-.84.08-1.29.08-1.09,0-2.01-.16-2.82-.48s-1.45-.76-1.97-1.29c-.52-.56-.93-1.21-1.17-1.97-.16-.84-.28-1.69-.28-2.53ZM136.35,85.99c0-.28-.08-.56-.16-.84-.08-.28-.2-.52-.4-.72-.16-.2-.4-.4-.64-.52-.28-.12-.6-.2-1.01-.2-.36,0-.68.08-.97.2-.28.12-.48.28-.68.52-.2.2-.32.44-.4.72s-.16.56-.2.84h4.47Z"></path>
        <path id="path62" class="st3" d="M149.03,84.22c-.32-.08-.64-.16-1.09-.24-.4-.08-.84-.12-1.33-.12-.2,0-.48,0-.76.04-.28.04-.52.08-.68.12v9.13h-3.38v-11.31c.6-.2,1.33-.4,2.13-.6s1.73-.28,2.78-.28c.2,0,.4,0,.64.04s.52.04.76.08c.24.04.52.08.76.12s.48.12.64.2l-.48,2.82Z"></path>
        <path id="path64" class="st3" d="M150.31,87.16c0-.84.12-1.69.4-2.45.28-.76.68-1.45,1.21-2.01s1.17-1.01,1.93-1.37c.76-.32,1.61-.48,2.58-.48.64,0,1.21.04,1.73.16.52.12,1.05.28,1.53.48l-.68,2.7c-.32-.12-.68-.24-1.05-.32s-.8-.12-1.29-.12c-1.01,0-1.73.32-2.25.93-.48.6-.72,1.45-.72,2.45,0,1.09.24,1.89.68,2.49s1.25.89,2.41.89c.4,0,.84-.04,1.33-.12.48-.08.89-.2,1.29-.36l.48,2.78c-.4.16-.89.32-1.49.44s-1.25.2-1.97.2c-1.09,0-2.01-.16-2.82-.48s-1.45-.76-1.93-1.33c-.52-.56-.89-1.21-1.13-1.97-.16-.76-.24-1.57-.24-2.49Z"></path>
        <path id="path66" class="st3" d="M165.48,77.74c0,.6-.2,1.13-.6,1.45-.4.36-.89.52-1.41.52-.56,0-1.01-.16-1.41-.52-.4-.36-.6-.84-.6-1.45s.2-1.13.6-1.45c.4-.36.89-.52,1.41-.52.56,0,1.01.16,1.41.52s.6.84.6,1.45ZM165.16,93.15h-3.38v-11.95h3.38v11.95Z"></path>
        <path id="path68" class="st3" d="M179.04,87.16c0,.93-.12,1.81-.4,2.58s-.68,1.45-1.17,2.01c-.52.56-1.13.97-1.85,1.29-.72.32-1.53.44-2.41.44s-1.69-.16-2.37-.44c-.72-.32-1.33-.72-1.85-1.29-.52-.56-.93-1.21-1.21-2.01-.28-.76-.44-1.65-.44-2.58s.16-1.81.44-2.58.68-1.45,1.21-1.97c.52-.56,1.13-.97,1.85-1.29.72-.32,1.49-.44,2.33-.44s1.65.16,2.37.44c.72.32,1.33.72,1.85,1.29.52.56.93,1.21,1.21,1.97.32.76.44,1.65.44,2.58ZM175.62,87.16c0-1.05-.2-1.85-.64-2.45-.4-.6-1.01-.89-1.77-.89s-1.37.28-1.81.89-.64,1.41-.64,2.45.2,1.89.64,2.49,1.01.93,1.81.93,1.37-.32,1.77-.93c.4-.64.64-1.45.64-2.49Z"></path>
      </g>
      <g id="g80">
        <path id="path72" class="st3" d="M223.26,93.44c-2.58,0-4.51-.72-5.83-2.13s-2.01-3.46-2.01-6.08c0-1.29.2-2.45.6-3.5.4-1.01.97-1.89,1.69-2.58s1.57-1.25,2.53-1.61c.97-.36,2.05-.56,3.22-.56.68,0,1.29.04,1.81.16.56.08,1.01.2,1.45.32.4.12.76.24,1.01.4.28.12.48.24.6.32l-1.01,2.86c-.48-.24-1.05-.48-1.69-.64-.64-.2-1.37-.28-2.17-.28-.56,0-1.09.08-1.61.28s-.97.48-1.37.89-.72.93-.97,1.57c-.24.64-.36,1.41-.36,2.33,0,.72.08,1.41.24,2.01.16.64.4,1.17.76,1.61s.8.8,1.41,1.09c.56.28,1.29.4,2.09.4.52,0,.97-.04,1.37-.08.4-.08.76-.12,1.09-.2s.6-.16.84-.28.44-.2.64-.28l.97,2.82c-.48.32-1.21.56-2.09.8-.97.24-2.01.36-3.22.36h0Z"></path>
        <path id="path74" class="st3" d="M234.65,80.88c1.01,0,1.81.12,2.49.32.68.24,1.21.56,1.61.97.4.44.68.93.84,1.53.16.6.24,1.29.24,2.01v7.04c-.48.12-1.17.24-2.01.36-.84.16-1.89.2-3.14.2-.76,0-1.49-.08-2.09-.2-.64-.12-1.17-.36-1.61-.68s-.8-.72-1.05-1.21-.36-1.13-.36-1.85c0-.68.12-1.29.4-1.77s.64-.89,1.13-1.17,1.01-.48,1.61-.64c.6-.12,1.25-.2,1.89-.2.44,0,.84,0,1.17.04.32.04.6.08.84.16v-.2c0-.56-.16-1.05-.52-1.37-.36-.36-.97-.52-1.81-.52-.56,0-1.13.04-1.69.12s-1.05.2-1.45.36l-.44-2.74c.2-.04.44-.12.72-.2s.6-.12.97-.2c.36-.04.72-.08,1.09-.12s.76-.04,1.17-.04ZM234.89,90.78c.32,0,.64,0,.97-.04.32,0,.56-.04.72-.08v-2.58c-.12-.04-.32-.04-.6-.08-.28-.04-.52-.04-.76-.04-.32,0-.6,0-.89.04s-.52.12-.72.2c-.2.12-.36.24-.48.44-.12.16-.2.4-.2.68,0,.52.16.89.52,1.09.36.24.84.36,1.45.36Z"></path>
        <path id="path76" class="st3" d="M247.24,93.36c-.97,0-1.77-.12-2.37-.32s-1.09-.48-1.45-.84c-.36-.36-.6-.8-.72-1.29-.12-.52-.2-1.09-.2-1.73v-13.12l3.38-.56v13c0,.32.04.56.08.8.04.24.12.44.24.6s.32.32.56.4c.24.12.56.16.97.2l-.48,2.86Z"></path>
        <path id="path78" class="st3" d="M252.96,77.74c0,.6-.2,1.13-.6,1.45-.4.36-.89.52-1.41.52-.56,0-1.01-.16-1.41-.52-.4-.36-.6-.84-.6-1.45s.2-1.13.6-1.45c.4-.36.89-.52,1.41-.52.56,0,1.01.16,1.41.52s.6.84.6,1.45ZM252.63,93.11h-3.38v-11.95h3.38v11.95Z"></path>
      </g>
    </g>
    <g id="g133">
      <path id="path103" class="st0" d="M40.27,84.87c-13.84,0-25.03-11.23-25.03-25.03s11.23-25.03,25.03-25.03c5.55,0,10.7,1.81,14.85,4.87l4.95-6.72c-5.55-4.1-12.39-6.52-19.8-6.52-18.47,0-33.4,14.93-33.4,33.4s14.93,33.4,33.4,33.4,33.4-14.93,33.4-33.4h-8.33c-.04,13.8-11.27,25.03-25.07,25.03Z"></path>
      <path id="path120" class="st1" d="M50.16,73.28c-2.78,2.05-6.2,3.26-9.9,3.26-9.21,0-16.7-7.48-16.7-16.7s7.44-16.7,16.7-16.7,16.7,7.48,16.7,16.7h8.33c0-13.84-11.23-25.03-25.03-25.03s-25.03,11.23-25.03,25.03,11.23,25.03,25.03,25.03c5.55,0,10.7-1.81,14.85-4.87l-4.95-6.72Z"></path>
      <path id="path131" class="st2" d="M40.27,68.17c-4.63,0-8.33-3.74-8.33-8.33s3.74-8.33,8.33-8.33c1.85,0,3.58.6,4.95,1.61l4.95-6.72c-2.78-2.05-6.2-3.26-9.9-3.26-9.25,0-16.7,7.44-16.7,16.7s7.48,16.7,16.7,16.7,16.7-7.48,16.7-16.7h-8.33c-.04,4.59-3.78,8.33-8.37,8.33Z"></path>
    </g>
  </g>
  <metadata></metadata>
</svg>
