<?xml version="1.0" encoding="UTF-8"?>
<svg xmlns="http://www.w3.org/2000/svg" xmlns:i="http://ns.adobe.com/AdobeIllustrator/10.0/" id="Capa_1" version="1.1" viewBox="0 0 202.7 120">
  <defs>
    <style>
      .st0 {
        fill: #ae1022;
      }

      .st1 {
        fill: #003d6a;
      }
    </style>
  </defs>
  <polygon class="st1" points="113.13 34.92 109.64 9.14 96.6 34.92 71.75 34.92 87.16 47.99 61.11 47.99 67.06 53.05 93.11 53.05 95.46 48.39 85.5 39.97 99.71 39.97 106.81 25.94 108.72 39.97 135.48 39.97 143.75 34.92 113.13 34.92"></polygon>
  <polygon class="st0" points="143.75 45.03 109.4 45.03 110.07 50.09 125.8 50.09 111.25 58.97 113.25 73.83 102.24 64.49 88.83 72.66 96.2 58.1 61.11 58.1 67.06 63.13 88 63.13 76.31 86.23 101.75 70.68 120 86.16 116.7 61.56 143.75 45.03"></polygon>
  <polygon class="st1" points="43.59 105.41 38.32 97.33 37.52 97.33 37.52 97.33 35.64 97.33 35.64 110.59 38.69 110.59 38.69 103.06 43.59 110.59 46 110.59 46.65 110.59 46.65 97.33 43.59 97.33 43.59 105.41"></polygon>
  <path class="st1" d="M14.73,108.09h-.46c-.77,0-1.42-.12-1.97-.37-.52-.25-.99-.59-1.33-1.05s-.62-.99-.8-1.63c-.19-.65-.25-1.36-.25-2.1,0-.86.12-1.6.34-2.25.22-.65.52-1.17.89-1.6.37-.43.83-.74,1.36-.96.52-.22,1.11-.31,1.73-.31.71,0,1.39.09,2,.28.62.19,1.08.37,1.42.59l.22.12.96-2.65c-1.2-.68-2.34-.89-2.5-.93s-.31-.06-.46-.09c-.52-.09-1.08-.15-1.7-.15-1.05,0-2,.19-2.93.52-.89.34-1.7.86-2.37,1.54s-1.2,1.51-1.6,2.5c-.4.99-.59,2.1-.59,3.36s.15,2.37.49,3.36c.34.99.83,1.82,1.45,2.5.62.68,1.42,1.2,2.31,1.57.89.34,1.94.52,3.05.52.59,0,1.11-.03,1.63-.09.09,0,.22-.03.31-.03,1.63-.22,3.02-.93,3.02-.93l-.89-2.71c-1.17.77-2.56.96-3.33.99"></path>
  <path class="st1" d="M190.56,97.33h-3.27l-5.46,13.26h3.21l.96-2.28h5.86l.96,2.28h3.21l-5.46-13.26ZM187.07,105.65l1.85-4.47,1.85,4.47h-3.7Z"></path>
  <polygon class="st1" points="191.67 93.44 189.72 91.62 186.82 95.08 188.4 96.56 191.67 93.44"></polygon>
  <polygon class="st1" points="145.57 105.41 140.29 97.33 139.49 97.33 139.49 97.33 137.58 97.33 137.58 110.59 140.66 110.59 140.66 103.06 145.54 110.59 147.97 110.59 148.62 110.59 148.62 97.33 145.57 97.33 145.57 105.41"></polygon>
  <path class="st1" d="M25.37,97.33l-5.46,13.26h3.21l.96-2.28h5.86l.96,2.28h3.21l-5.46-13.26h-3.27ZM25.15,105.65l1.85-4.47,1.85,4.47h-3.7Z"></path>
  <path class="st1" d="M53.65,97.33l-5.46,13.26h3.21l.96-2.28h5.86l.96,2.28h3.24l-5.46-13.26h-3.3ZM53.43,105.65l1.85-4.47,1.85,4.47h-3.7Z"></path>
  <path class="st1" d="M122.81,100.01c0-1.7-.59-2.96-1.73-3.76-.09-.06-.19-.12-.28-.19,0,0-.03,0-.03-.03-3.18-1.85-9.07-.65-9.07-.65v15.2h3.05v-5.55h1.11c1.08,0,2.04-.09,2.9-.28s1.57-.49,2.19-.89,1.08-.93,1.39-1.57c.31-.62.46-1.39.46-2.28M118.71,101.86c-.65.34-1.6.52-2.87.52h-1.08v-4.59c.4-.03.89-.06,1.45-.06.49,0,.96.03,1.39.12.43.06.77.19,1.08.37.28.15.52.4.68.68.15.28.25.65.25,1.11.03.89-.28,1.51-.89,1.85"></path>
  <path class="st1" d="M155.62,97.33l-5.46,13.26h3.21l.96-2.28h5.86l.96,2.28h3.24l-5.46-13.26h-3.3ZM155.4,105.65l1.85-4.47,1.85,4.47h-3.7Z"></path>
  <polygon class="st1" points="66.97 97.33 63.91 97.33 63.91 110.59 72.55 110.59 72.55 107.81 66.97 107.81 66.97 97.33"></polygon>
  <path class="st1" d="M127.34,97.33l-5.46,13.26h3.21l.96-2.28h5.86l.96,2.28h3.24l-5.46-13.26h-3.3ZM127.13,105.65l1.85-4.47,1.85,4.47h-3.7Z"></path>
  <polygon class="st1" points="176.34 97.33 173.07 104.7 169.8 97.33 166.6 97.33 165.86 110.59 168.94 110.59 169.34 103 171.93 108.92 174.21 108.92 176.8 103 177.23 110.59 180.29 110.59 179.58 97.33 176.34 97.33"></polygon>
  <path class="st1" d="M89.45,98.71c-.12-.09-.25-.22-.4-.31-3.27-2.25-9.07-.96-9.07-.96v10.98h0v1.94h.03c.43.09,6.69,1.45,9.77-1.6h0c.52-.52.93-1.14,1.23-1.85.37-.86.56-1.88.56-3.02s-.19-2.19-.56-3.05c-.37-.83-.89-1.57-1.57-2.13M87.32,107.01c-.68.71-1.79,1.08-3.24,1.08h-1.02v-8.23c.28,0,.62-.03,1.05-.03,1.48,0,2.56.34,3.24,1.05s1.02,1.73,1.02,3.08-.37,2.31-1.05,3.05"></path>
  <polygon class="st1" points="96.75 105.04 101.81 105.04 101.81 102.35 96.75 102.35 96.75 100.07 102.46 100.07 102.46 97.33 93.67 97.33 93.67 110.59 102.86 110.59 102.86 107.84 96.75 107.84 96.75 105.04"></polygon>
  <metadata></metadata>
</svg>
