<?xml version="1.0" encoding="UTF-8"?>
<svg xmlns="http://www.w3.org/2000/svg" xmlns:i="http://ns.adobe.com/AdobeIllustrator/10.0/" id="Capa_1" version="1.1" viewBox="0 0 281.22 120">
  <defs>
    <style>
      .st0 {
        fill: #9b2c39;
        fill-rule: evenodd;
      }
    </style>
  </defs>
  <g id="layer1">
    <path id="path7267" class="st0" d="M241.45,30.17c-2.01,0-15.74,40.46-15.74,40.46h1.46s2.01-5.17,5.49-5.36c3.48-.19,12.08,18.29,12.08,18.29,0,0,.91,5.73,7.87,5.73h23.24v-1.66s-4.94.37-7.32-4.8c-2.38-5.17-25.44-52.65-27.08-52.65ZM222.23,49.01v-14.78s-7.14-5.36-17.02-5.36-21.96,4.8-21.96,20.32,23.06,17.74,23.06,25.87c0,4.25-3.47,4.62-5.86,4.62-7.87,0-15.55-11.82-15.55-11.82v16.07s7.87,6.84,17.75,6.84,22.33-5.91,22.33-21.43c0-18.47-23.61-18.84-23.61-26.97,0-4.25,2.55-3.69,4.94-3.69,7.87,0,15.92,10.35,15.92,10.35h0ZM137.5,36.44c3.88,8.05,7.5,19.4,13.54,19.4,4.94,0,8.97-25.13,8.97-25.13h19.95v52.1c0,4.43,5.12,5.54,5.12,5.54h-26.17v-36.95s-15.19,39.72-16.65,39.72-22.15-39.72-22.15-39.72v31.96c0,2.96,4.58,5.17,4.58,5.17h-11.71v-52.28c0-3.51-5.67-5.91-5.67-5.91h20.31s6.77-.37,9.88,6.1h0ZM82.23,85.77s15.92,1.48,23.61-9.79l-3.11,12.56h-41.36v-52.28c0-3.51-5.67-5.91-5.67-5.91h47.04l3.11,12.56c-7.69-11.27-23.61-9.79-23.61-9.79v24.39h12.99c4.02,0,6.22-6.84,6.22-6.84,0,0,4.21,19.4,4.02,19.21-3.29-6.1-13.36-9.24-13.36-9.24h-9.88v25.13ZM52.4,30.35H5.37s5.67,2.4,5.67,5.91v52.28h26.35s-5.49-1.85-5.49-6.1v-21.8h9.88s10.06,3.14,13.36,9.24c.18.19-4.02-19.21-4.02-19.21,0,0-2.2,6.84-6.22,6.84h-12.99v-24.39s15.92-1.48,23.61,9.79l-3.11-12.56"></path>
  </g>
  <metadata></metadata>
</svg>
