<?xml version="1.0" encoding="UTF-8"?>
<svg xmlns="http://www.w3.org/2000/svg" xmlns:i="http://ns.adobe.com/AdobeIllustrator/10.0/" id="Capa_1" version="1.1" viewBox="0 0 274.17 120">
  <defs>
    <style>
      .st0 {
        fill: #fff;
      }

      .st1 {
        fill: #e32934;
      }

      .st2 {
        fill: #004883;
      }
    </style>
  </defs>
  <path class="st0" d="M56.43,109.14c-27.08,0-49.12-22.04-49.12-49.14S29.35,10.86,56.43,10.86s49.12,22.04,49.12,49.14-22.03,49.14-49.12,49.14h0Z"></path>
  <path class="st2" d="M56.43,11.31c26.88,0,48.66,21.8,48.66,48.69s-21.79,48.69-48.66,48.69S7.77,86.89,7.77,60,29.56,11.31,56.43,11.31M56.43,10.41C29.1,10.41,6.86,32.66,6.86,60s22.24,49.59,49.57,49.59,49.57-22.25,49.57-49.59c0-27.34-22.24-49.59-49.57-49.59Z"></path>
  <g>
    <path class="st2" d="M266.4,40.03c.55-.64.91-1.36.91-2.28,0-.9-.32-1.78-.91-2.46-.64-.64-1.46-1-2.37-1s-1.64.37-2.37,1c-.63.64-.91,1.46-.91,2.46,0,.91.28,1.64.91,2.28.73.64,1.46.91,2.37.91s1.73-.27,2.37-.91ZM266.58,73.56v-29.43h-4.92l.09,29.43h4.83ZM255.19,45.59l-.82-.37c-2.19-1.28-4.83-1.91-8.02-1.91-3.46,0-6.29.82-8.38,2.46-1.09.82-1.82,1.64-2.37,2.73-.55,1-.82,2-.82,3.19,0,2.01.91,3.64,2.56,5.1,1.55,1.37,3.82,2.46,6.83,3.37,2.55.82,4.28,1.64,5.37,2.46.91.91,1.46,1.91,1.46,3.19,0,1.37-.73,2.46-2.01,3.37-1.28.73-3.1,1.18-5.37,1.18-2.46,0-4.92-.64-7.47-1.82l-.64-.45-2.1,3.83.73.36c2.82,1.37,5.92,2,9.29,2,3.64,0,6.65-.73,9.02-2.37,1.18-.73,2.01-1.73,2.64-2.73.63-1.18.91-2.46.91-3.74v-.09c0-2.19-.91-4.1-2.64-5.65-1.46-1.27-3.83-2.37-6.93-3.28-2.37-.82-4.1-1.64-5.1-2.28-1.09-.82-1.55-1.73-1.55-2.73,0-1.19.46-2.09,1.46-2.91,1.09-.73,2.55-1.19,4.46-1.19,2.64,0,4.83.46,6.56,1.55l.64.46,2.28-3.73h0ZM225.49,47.78c-3.37-2.92-7.56-4.46-12.39-4.46s-8.66,1.46-11.84,4.28c-3.56,3.19-5.38,7.56-5.38,13.3v22.87h4.74v-14.76c1.46,1.64,3.28,2.92,5.47,3.83,2.19,1,4.56,1.46,7.11,1.46,4.83,0,8.93-1.46,12.3-4.56,3.46-3.01,5.19-6.65,5.19-10.93s-1.73-8.02-5.19-11.02h0ZM213.09,47.41c3.56,0,6.65,1.1,9.02,3.28,2.46,2.19,3.74,4.92,3.74,8.2,0,3.1-1.1,5.65-3.28,7.83-2.37,2.28-5.56,3.46-9.38,3.46s-6.93-1.18-9.39-3.46c-2.28-2.28-3.37-4.83-3.37-7.83s1.09-5.65,3.37-7.84c2.37-2.37,5.47-3.64,9.29-3.64h0ZM188.31,49.24c-3.19-4.01-7.74-5.92-13.85-5.92-4.56,0-8.48,1.28-11.85,4.01-3.64,2.83-5.47,6.65-5.47,11.39,0,2.64.73,5.28,2.28,7.74,1.37,2.37,3.46,4.28,6.29,5.74,2.82,1.37,5.83,2,9.11,2,3.1,0,6.01-.64,8.84-2,2.82-1.46,4.92-3.37,6.29-5.74l.91-1.55h-5.28c-1.1,1.55-2.65,2.83-4.65,3.83-2,1-4.19,1.46-6.29,1.46-2.92,0-5.38-.73-7.56-2.19-2.19-1.55-3.64-3.46-4.56-6.01,3-1.18,6.01-1.82,9.3-1.82l4.92.55,7.65.73c2.37,0,4.38-.36,6.2-.91.73-.27,1.18-.64,1.37-1.1.27-.36.27-1,.09-1.73-.55-3.28-1.73-6.1-3.74-8.47h0ZM187.04,56.71l.09.18-2.64.36-5.74-.55-8.02-.64h-1.37c-2.55.18-4.92.64-7.2,1.46.36-3.37,2.01-6.02,4.74-7.93,2.28-1.46,4.83-2.28,7.56-2.28,4.28,0,7.56,1.37,10.02,4.1,1.28,1.64,2.19,3.37,2.55,5.29h0ZM135.92,43.31c-4.65,0-8.66,1.46-11.85,4.28-3.55,3.19-5.29,7.56-5.29,13.3l-.09,22.87h4.92l-.09-14.76c1.46,1.64,3.28,2.92,5.38,3.83,2.28,1,4.65,1.45,7.2,1.45,4.83,0,8.93-1.45,12.3-4.56,3.46-3.01,5.1-6.65,5.1-10.93s-1.64-8.02-5.01-11.02c-3.46-2.91-7.56-4.46-12.57-4.46h0ZM126.62,51.06c2.46-2.37,5.47-3.64,9.29-3.64s6.65,1.1,9.11,3.28c2.46,2.19,3.64,4.92,3.64,8.2,0,3.1-1.09,5.65-3.19,7.83-2.37,2.28-5.47,3.46-9.47,3.46-3.74,0-6.92-1.18-9.39-3.46-2.19-2.28-3.28-4.83-3.28-7.83,0-3.01,1.09-5.65,3.28-7.84h0Z"></path>
    <path class="st1" d="M84.26,23.11c-.42-.32-.82-.66-1.19-1.03-7.79-5.5-17.1-8.44-26.64-8.43-25.59,0-46.33,20.75-46.33,46.35-.01,9.97,3.2,19.69,9.17,27.68,15.5-4.58,29.03-12.54,40.62-24.05,11.58-11.46,19.71-25.01,24.37-40.52Z"></path>
    <path class="st2" d="M56.43,106.35c25.58,0,46.32-20.75,46.32-46.35,0-9.06-2.6-17.51-7.09-24.65-.12-.12-.22-.25-.32-.39.94,3.11,1.42,6.34,1.42,9.59,0,5.26-1.22,10.24-3.6,14.9-2.36,4.43-5.68,8.27-9.71,11.25-3.24,2.39-7.12,4.41-11.7,6.07-3.64,1.33-8.38,2.71-14.25,4.04l-16.92,3.81c-7.19,1.65-13.74,3.41-19.58,5.22,8.5,10.09,21.21,16.49,35.43,16.49h0Z"></path>
  </g>
  <metadata></metadata>
</svg>
