<?xml version="1.0" encoding="UTF-8"?>
<svg xmlns="http://www.w3.org/2000/svg" xmlns:i="http://ns.adobe.com/AdobeIllustrator/10.0/" xmlns:xlink="http://www.w3.org/1999/xlink" id="Capa_1" version="1.1" viewBox="0 0 281.57 120">
  <defs>
    <style>
      .st0 {
        fill: #fff;
      }

      .st1 {
        fill: none;
      }

      .st2 {
        fill: #ed2232;
      }

      .st3 {
        fill: #292526;
      }

      .st4 {
        clip-path: url(#clippath);
      }
    </style>
    <clipPath id="clippath">
      <rect class="st1" x="3.78" y="35.54" width="274" height="48.92"></rect>
    </clipPath>
  </defs>
  <g id="layer1">
    <g id="g7315">
      <g class="st4">
        <g id="g7317">
          <path id="path7323" class="st0" d="M3.78,84.46h274v-48.92H3.78v48.92Z"></path>
        </g>
      </g>
    </g>
    <path id="path7325" class="st3" d="M52.99,83.03h223.47v-46.03H52.99v46.03Z"></path>
    <path id="path7327" class="st0" d="M5.22,83.03h46v-46.03H5.22v46.03Z"></path>
    <path id="path7329" class="st0" d="M6.68,81.57h43.09v-43.12H6.68v43.12Z"></path>
    <path id="path7331" class="st0" d="M72.18,48.03c.96-.22,1.77-.33,2.4-.33,1.13,0,2.15.26,3.03.77.87.5,1.55,1.28,2.03,2.3.49,1.05.73,2.2.73,3.42,0,1.75-.51,3.2-1.52,4.3-1.01,1.1-2.18,1.63-3.56,1.63-.4,0-.89-.03-1.46-.1-.48-.07-1.05-.16-1.65-.26v-11.73ZM80.54,45.95c-1.57-.56-3.73-.85-6.41-.85h-11.28v1.66h1.54c1,0,1.72.27,2.21.82.18.21.48.9.48,3.2v19.27c0,2.1-.23,2.77-.36,2.99-.46.69-1.22,1.03-2.32,1.03h-1.54v1.66h13.55v-1.66h-1.55c-.99,0-1.71-.26-2.17-.81-.19-.21-.5-.91-.5-3.2v-8.14c.74.16,1.48.28,2.17.38.85.11,1.64.16,2.36.16,3,0,5.36-.81,7.03-2.41,1.67-1.6,2.51-3.71,2.51-6.25,0-1.88-.56-3.54-1.66-4.91-1.09-1.36-2.46-2.34-4.05-2.92"></path>
    <path id="path7333" class="st0" d="M115.59,44.92h-.42v1.66h1.53c.99,0,1.71.26,2.2.82.19.21.5.92.5,3.2v12.03c0,3.09-.28,5.28-.81,6.55-.52,1.22-1.53,2.25-2.98,3.05-1.46.81-3.16,1.22-5.03,1.22-1.45,0-2.69-.26-3.67-.77-.98-.5-1.73-1.15-2.25-1.91-.52-.77-.89-1.89-1.09-3.31-.21-1.46-.32-2.77-.32-3.91v-12.95c0-1.96.25-2.74.46-3.05.44-.66,1.17-.97,2.22-.97h1.54v-1.66h-13.55v1.66h1.52c.97,0,1.66.24,2.07.71.29.33.64,1.18.64,3.32v11.62c0,3.67.24,6.11.73,7.47.73,1.98,1.99,3.58,3.74,4.75,1.75,1.17,4.31,1.76,7.63,1.76,3.05,0,5.52-.62,7.32-1.83,1.8-1.22,3.03-2.71,3.65-4.44.61-1.68.91-4.06.91-7.07v-12.04c0-2.07.24-2.73.38-2.95.55-.87,1.3-1.29,2.32-1.29h1.53v-1.66h-.42"></path>
    <path id="path7335" class="st0" d="M145.09,47.99c1.23-.24,2.24-.36,2.98-.36,1.77,0,3.2.54,4.27,1.62,1.07,1.09,1.6,2.46,1.6,4.22s-.66,3.21-1.99,4.36c-1.34,1.15-3.38,1.74-6.07,1.74-.11,0-.26,0-.48-.01-.08,0-.19,0-.3,0v-11.55ZM162.08,72.89c-.95-.62-2.13-1.9-3.5-3.81,0,0-4.48-6.18-5.8-8.02,2.27-.6,4.01-1.54,5.15-2.83,1.26-1.42,1.9-3.12,1.9-5.05,0-1.81-.56-3.39-1.67-4.7-1.09-1.29-2.44-2.19-4.02-2.68-1.54-.48-3.93-.72-7.11-.72h-11.26v1.66h1.53c1,0,1.71.27,2.2.82.19.21.5.91.5,3.2v19.27c0,2.09-.24,2.77-.38,2.99-.46.7-1.21,1.03-2.32,1.03h-1.53v1.66h13.55v-1.66h-1.58c-.98,0-1.68-.26-2.15-.81-.19-.21-.5-.91-.5-3.2v-8.24c.07,0,.15.01.23.01.19,0,.4,0,.61,0,.42,0,.95-.01,1.56-.03l9.99,13.75.13.17h8.63v-1.61l-.38-.04c-1.55-.17-2.81-.56-3.77-1.17"></path>
    <path id="path7337" class="st0" d="M175.36,45.1h-.42v1.66h1.47c.62,0,1.22.16,1.8.48.36.21.6.45.7.73.12.29.26,1.02.26,2.82v19.26c0,2.2-.28,2.91-.44,3.13-.46.6-1.22.9-2.32.9h-1.47v1.66h13.55v-1.66h-1.49c-.62,0-1.21-.16-1.77-.47-.37-.21-.62-.46-.72-.73-.12-.29-.25-1.03-.25-2.83v-19.26c0-2.2.28-2.9.45-3.12.47-.61,1.22-.91,2.29-.91h1.49v-1.66h-.43"></path>
    <path id="path7339" class="st0" d="M232.95,46.33v-1.23h-11.22v1.66h1.46c1.04,0,1.8.26,2.26.79.19.21.51.91.51,3.17v15.95l-17.61-21.4-.13-.16h-8.71v1.66h.43c.81,0,1.42.07,1.8.19.81.26,1.43.55,1.85.85.38.28.99.91,1.78,1.84v20.49c0,2.08-.25,2.76-.41,2.99-.44.65-1.22.96-2.36.96h-1.46v1.66h11.22v-1.66h-1.48c-1.03,0-1.79-.26-2.26-.79-.18-.21-.48-.89-.48-3.16v-17.16l19.04,23.1.13.15h1.4v-25.5c0-2.08.26-2.76.41-2.99.45-.65,1.21-.97,2.34-.97h1.49"></path>
    <path id="path7341" class="st0" d="M252.66,52.76l4.3,10.5h-8.86l4.56-10.5ZM269.74,74.06c-1.11-.07-1.98-.36-2.58-.89-.64-.55-1.36-1.8-2.16-3.72l-10.14-24.74-.11-.26h-1.45l-.11.26-10.65,24.45c-.88,2.11-1.68,3.52-2.38,4.18-.17.17-.68.48-2.19.75l-.35.07v1.58h10.2v-1.62l-.4-.03c-1.67-.12-2.32-.38-2.56-.58-.33-.26-.49-.54-.49-.87,0-.35.13-1.06.72-2.42,0,0,1.5-3.44,1.91-4.4h11.01c.38.92,1.65,4.02,1.65,4.03.56,1.32.85,2.28.85,2.86,0,.34-.15.64-.47.89-.23.19-.8.43-2.15.49l-.41.02v1.64h12.69v-1.63"></path>
    <path id="path7343" class="st2" d="M5.22,83.03h46v-46.03H5.22v46.03Z"></path>
    <path id="path7345" class="st0" d="M6.78,81.39h42.71v-42.75H6.78v42.75Z"></path>
    <path id="path7347" class="st2" d="M8.51,53.44h13.14v-13.15h-13.14v13.15Z"></path>
    <path id="path7349" class="st2" d="M34.79,53.44h13.14v-13.15h-13.14v13.15Z"></path>
    <path id="path7351" class="st2" d="M21.65,66.59h13.14v-13.15h-13.14v13.15Z"></path>
    <path id="path7353" class="st2" d="M8.51,79.75h13.14v-13.16h-13.14v13.16Z"></path>
    <path id="path7355" class="st2" d="M34.79,79.75h13.14v-13.16h-13.14v13.16Z"></path>
  </g>
  <metadata></metadata>
</svg>
